<svg width="1067" height="1068" viewBox="0 0 1067 1068" fill="none" xmlns="http://www.w3.org/2000/svg">
<rect width="1067" height="1068" fill="#1E1E1E"/>
<path d="M1067 0H0V1068H1067V0Z" fill="#22262C"/>
<rect x="597" y="509" width="260" height="103" fill="#CFD4CD"/>
<rect x="706" y="509" width="155" height="103" fill="#A6ACA4"/>
<ellipse cx="952" cy="560.5" rx="115" ry="115.5" fill="#CFD4CD"/>
<rect x="25" y="432" width="608" height="257" rx="34" fill="#CFD4CD"/>
<ellipse cx="59.5" cy="560.5" rx="59.5" ry="128.5" fill="#CFD4CD"/>
<path d="M953.762 623.314L890.4 560.256C884.242 554.126 887.834 540.415 890.4 534.325C899.401 510.28 925.338 498.768 937.181 496.018C956.328 492.679 998.411 495.665 1013.57 534.325C1032.52 582.65 996.99 612.706 981.594 623.314C969.277 631.801 957.907 626.85 953.762 623.314Z" fill="#22262C"/>
<path d="M647.565 509.118C637.69 509.118 634.046 499.706 633.458 495L620.527 497.941L617 519.706L642.863 525C648.545 519.706 657.44 509.118 647.565 509.118Z" fill="#CFD4CD"/>
<path d="M633.371 628.624C633.371 615.07 644.457 611.681 650 611.681L648.812 605.631L644.061 603.21L628.027 602C625.255 604.824 619.593 610.834 619.118 612.286C618.643 613.739 619.712 625.8 620.306 631.649C624.661 636.288 633.371 642.178 633.371 628.624Z" fill="#CFD4CD"/>
<circle cx="298" cy="561" r="40" fill="#22262C"/>
</svg>
