<svg width="1067" height="1079" viewBox="0 0 1067 1079" fill="none" xmlns="http://www.w3.org/2000/svg">
<rect width="1067" height="1079" fill="#1E1E1E"/>
<path d="M1067 0H0V1068H1067V0Z" fill="#22262C"/>
<path d="M159.116 435H58.6083C57.9304 435 57.3041 435.362 56.9652 435.949L0.267892 534.164C0.092392 534.468 0 534.813 0 535.164V552.05C0.438193 563.374 8.94644 566.205 13.1458 566.205H30.6735C39.8756 566.205 42.1761 573.101 42.1761 576.548V587.981C41.2997 597.563 45.4625 606.491 47.6535 609.758L61.2437 624.887C61.3125 624.963 61.3878 625.035 61.4679 625.1C73.7394 634.988 92.4114 630.252 100.237 626.635L127.694 610.046C128.007 609.858 128.364 609.758 128.729 609.758H956.079C956.607 609.758 957.114 609.549 957.489 609.176L1064.83 502.485C1065.85 501.468 1065.5 499.736 1064.16 499.206L919.654 442.07C918.342 441.551 916.919 442.519 916.919 443.93V476.009C916.919 477.114 916.023 478.009 914.919 478.009H875.1C873.995 478.009 873.1 477.114 873.1 476.009V463.127C873.1 462.262 872.543 461.495 871.721 461.226L791.789 435.099C791.588 435.033 791.379 435 791.168 435H615.026C614.723 435 614.424 435.069 614.152 435.201L471.471 504.485C471.199 504.617 470.9 504.685 470.598 504.685H230.876C230.348 504.685 229.841 504.476 229.466 504.104L160.525 435.581C160.151 435.209 159.644 435 159.116 435Z" fill="#D9D9D9"/>
<circle cx="895.5" cy="544.5" r="35.5" fill="#22262C"/>
<g clip-path="url(#clip0_0_1)">
<path d="M1067 11H0V1079H1067V11Z" fill="#1E1E1E"/>
<path d="M1067 11H0V1079H1067V11Z" fill="#22262C"/>
<path d="M730.225 251.225C730.225 142.853 642.372 55 534 55C425.628 55 337.775 142.853 337.775 251.225V844.775C337.775 953.147 425.628 1041 534 1041C642.372 1041 730.225 953.147 730.225 844.775V251.225Z" fill="#686868"/>
<path d="M533.391 399.918C609.79 399.918 671.724 337.984 671.724 261.585C671.724 185.186 609.79 123.252 533.391 123.252C456.992 123.252 395.058 185.186 395.058 261.585C395.058 337.984 456.992 399.918 533.391 399.918Z" fill="#444444"/>
<path d="M534 365.791C591.888 365.791 638.816 318.863 638.816 260.975C638.816 203.087 591.888 156.159 534 156.159C476.112 156.159 429.184 203.087 429.184 260.975C429.184 318.863 476.112 365.791 534 365.791Z" fill="#22262C"/>
<path d="M533.391 986.155C609.79 986.155 671.724 924.221 671.724 847.822C671.724 771.423 609.79 709.489 533.391 709.489C456.992 709.489 395.058 771.423 395.058 847.822C395.058 924.221 456.992 986.155 533.391 986.155Z" fill="#444444"/>
<path d="M617.691 557.75C617.691 604.307 579.948 642.05 533.391 642.05C486.833 642.05 449.091 604.307 449.091 557.75C449.091 511.193 486.833 473.45 533.391 473.45C579.948 473.45 617.691 511.193 617.691 557.75Z" stroke="#444444" stroke-width="13"/>
<path d="M532.781 953.247C590.669 953.247 637.597 906.319 637.597 848.431C637.597 790.543 590.669 743.615 532.781 743.615C474.893 743.615 427.965 790.543 427.965 848.431C427.965 906.319 474.893 953.247 532.781 953.247Z" fill="#22262C"/>
</g>
<defs>
<clipPath id="clip0_0_1">
<rect width="1067" height="1068" fill="white" transform="translate(0 11)"/>
</clipPath>
</defs>
</svg>
