<svg width="1067" height="1068" viewBox="0 0 1067 1068" fill="none" xmlns="http://www.w3.org/2000/svg">
<rect width="1067" height="1068" fill="#1E1E1E"/>
<path d="M1067 0H0V1068H1067V0Z" fill="#22262C"/>
<path d="M496.533 967H617.109C619.318 967 621.109 965.209 621.109 963V947.119C621.109 945.95 621.62 944.839 622.508 944.079L627.603 939.721C628.327 939.101 629.249 938.76 630.203 938.76H646.559C647.981 938.76 649.296 939.514 650.013 940.742L650.576 941.705C651.717 943.658 654.249 944.277 656.163 943.071L660.665 940.232C662.071 939.346 662.782 937.683 662.452 936.055L653.312 890.917C652.935 889.051 651.295 887.711 649.392 887.711H641.513C639.738 887.711 638.175 886.54 637.675 884.837L623.772 837.459C623.188 835.47 621.192 834.266 619.169 834.713C613.101 836.056 599.814 839.104 575.953 844.807C531.559 853.497 504.865 821.274 497.067 804.076L399.86 538.45C399.743 538.13 399.667 537.795 399.635 537.456L397.507 515.158C394.243 382.104 512.844 363.639 548.751 356.036C584.658 348.433 598.803 327.796 604.243 290.866C607.29 256.978 610.591 227.145 611.86 216.465C616.212 189.311 618.824 126.748 594.451 93.7287C563.549 57.6682 549.658 84.8584 546.575 102.961L530.798 282.72C529.057 297.492 518.103 300.823 512.844 300.642C500.331 301.185 466.166 306.833 429.606 325.08C309.917 389.381 319.165 515.52 338.751 570.552L492.808 964.457C493.408 965.991 494.887 967 496.533 967Z" fill="#CFD4CD"/>
</svg>
