<svg width="1067" height="1069" viewBox="0 0 1067 1069" fill="none" xmlns="http://www.w3.org/2000/svg">
<rect width="1067" height="1069" fill="#1E1E1E"/>
<path d="M1067 1H0V1069H1067V1Z" fill="#22262C"/>
<g clip-path="url(#clip0_0_1)">
<path d="M1067 0H0V1068H1067V0Z" fill="#1E1E1E"/>
<path d="M1067 0H0V1068H1067V0Z" fill="#22262C"/>
<path d="M497.117 1068H641.579C644.225 1068 646.371 1065.86 646.371 1063.21V1044.19C646.371 1042.79 646.984 1041.46 648.047 1040.55L654.152 1035.33C655.019 1034.59 656.124 1034.18 657.267 1034.18H676.863C678.567 1034.18 680.142 1035.08 681.001 1036.56L681.676 1037.71C683.043 1040.05 686.076 1040.79 688.369 1039.34L693.763 1035.94C695.448 1034.88 696.3 1032.89 695.904 1030.94L684.954 976.888C684.502 974.654 682.537 973.049 680.257 973.049H670.817C668.691 973.049 666.818 971.647 666.219 969.607L649.562 912.871C648.862 910.489 646.471 909.047 644.047 909.582C636.777 911.191 620.858 914.841 592.27 921.67C539.082 932.077 507.1 893.489 497.757 872.893L381.293 554.798C381.153 554.415 381.062 554.014 381.024 553.608L378.474 526.905C374.564 367.569 516.659 345.457 559.679 336.352C602.699 327.247 619.646 302.533 626.164 258.309C629.815 217.727 633.77 182.001 635.29 169.211C640.504 136.693 643.634 61.7723 614.432 22.2307C577.409 -20.9529 560.766 11.6082 557.072 33.2866L538.17 248.554C536.084 266.244 522.96 270.232 516.659 270.016C501.667 270.666 460.734 277.43 416.932 299.281C273.533 376.283 284.613 527.339 308.079 593.241L492.654 1064.95C493.373 1066.79 495.145 1068 497.117 1068Z" fill="#CFD4CD"/>
</g>
<defs>
<clipPath id="clip0_0_1">
<rect width="1067" height="1068" fill="white"/>
</clipPath>
</defs>
</svg>
