<svg width="1067" height="1068" viewBox="0 0 1067 1068" fill="none" xmlns="http://www.w3.org/2000/svg">
<rect width="1067" height="1068" fill="#1E1E1E"/>
<path d="M1067 0H0V1068H1067V0Z" fill="#22262C"/>
<path d="M507.399 1067H651.537C664.24 1067 674.48 1056.01 681.522 1045.44C685.469 1039.51 690.569 1034.58 695.413 1030.84C701.103 1026.44 705.278 1019.99 705.278 1012.8V1004.06C705.278 998.412 709.859 993.831 715.51 993.831C719.823 993.831 723.672 996.536 725.135 1000.59L728.55 1010.07C730.572 1015.68 735.894 1019.41 741.856 1019.41C749.668 1019.41 756 1013.08 756 1005.27V952.361C756 939.658 745.703 929.361 733 929.361H718.57C706.418 929.361 696.568 919.51 696.568 907.359C696.568 895.208 686.717 885.357 674.566 885.357H503.173C495.909 885.357 489.072 881.926 484.731 876.102L380.652 736.457C376.332 730.661 374.988 723.17 377.025 716.233L439.14 504.674C441.216 497.603 446.554 491.955 453.497 489.484L660.368 415.863C667.899 413.183 673.494 406.807 675.148 398.986C688.251 337.042 711.717 225.117 718.599 188.462C725.977 149.166 726.455 115.123 725.772 103.013C724.235 83.0579 713.578 36.3936 683.247 9.37737C655.375 -12.7268 642.259 9.37737 639.185 23.1925L579.22 329.985C577.647 338.033 571.908 344.635 564.158 347.312L400.432 403.875C353.296 417.383 343.049 444.809 335.364 467.322L261.035 731.311C259.119 738.115 260.438 745.422 264.612 751.126L488.837 1057.58C493.168 1063.5 500.064 1067 507.399 1067Z" fill="#CFD4CD"/>
</svg>
