<svg width="1067" height="1068" viewBox="0 0 1067 1068" fill="none" xmlns="http://www.w3.org/2000/svg">
<rect width="1067" height="1068" fill="#1E1E1E"/>
<path d="M1067 0H0V1068H1067V0Z" fill="#22262C"/>
<path d="M707.855 64.4861V1012.42C707.855 1056.08 679.7 1067 665.623 1067H504.493C467.589 1061.28 459.663 1028.23 460.313 1012.42V790.87C460.313 766.441 470.275 746.473 475.256 739.542C523.335 649.881 531.781 560.87 538.279 517.339C548.024 453.017 506.659 428.328 485.651 425.729C431.292 420.531 314.386 409.616 281.64 407.537C248.894 405.458 251.537 381.981 256.951 370.503L408.335 29.4013C421.329 7.57081 444.936 3.41262 455.115 4.06234H647.431C696.81 4.06234 708.288 44.3448 707.855 64.4861Z" fill="#878787"/>
<mask id="mask0_0_1" style="mask-type:alpha" maskUnits="userSpaceOnUse" x="253" y="4" width="455" height="1063">
<path d="M707.855 64.4861V1012.42C707.855 1056.08 679.7 1067 665.623 1067H504.493C467.589 1061.28 459.663 1028.23 460.313 1012.42V790.87C460.313 766.441 470.275 746.473 475.256 739.542C523.335 649.881 531.781 560.87 538.279 517.339C548.024 453.017 506.659 428.328 485.651 425.729C431.292 420.531 314.386 409.616 281.64 407.537C248.894 405.458 251.537 381.981 256.951 370.503L408.335 29.4013C421.329 7.57081 444.936 3.41262 455.115 4.06234H647.431C696.81 4.06234 708.288 44.3448 707.855 64.4861Z" fill="#878787"/>
</mask>
<g mask="url(#mask0_0_1)">
<rect x="525.25" y="451.006" width="198.814" height="74.0678" fill="#686868"/>
</g>
<circle cx="541" cy="178" r="69" fill="#22262C"/>
<rect x="525" y="768" width="124" height="247" rx="62" fill="#22262C"/>
</svg>
