<svg width="1067" height="1068" viewBox="0 0 1067 1068" fill="none" xmlns="http://www.w3.org/2000/svg">
<rect width="1067" height="1068" fill="#1E1E1E"/>
<path d="M1067 0H0V1068H1067V0Z" fill="#22262C"/>
<rect x="229.523" y="310.105" width="597.878" height="446.729" fill="#CFD4CD"/>
<rect y="328.019" width="1067" height="410.901" rx="175" fill="#CFD4CD"/>
<circle cx="528.462" cy="534.03" r="91.809" fill="#22262C"/>
<circle cx="889.54" cy="533.47" r="62.139" fill="#9FA49D"/>
<circle cx="890.1" cy="534.03" r="39.1868" fill="#22262C"/>
<circle cx="147.23" cy="533.47" r="62.139" fill="#9FA49D"/>
<circle cx="147.79" cy="534.03" r="39.1868" fill="#22262C"/>
<rect x="350.761" y="369.445" width="45.9045" height="117.56" rx="18" transform="rotate(29.2376 350.761 369.445)" fill="#22262C"/>
<rect width="45.9045" height="117.56" rx="18" transform="matrix(-0.872602 0.488432 0.488432 0.872602 705.112 369.445)" fill="#22262C"/>
<rect width="45.9045" height="117.56" rx="18" transform="matrix(0.872602 -0.488432 -0.488432 -0.872602 350.761 699.341)" fill="#22262C"/>
<rect x="705.112" y="699.341" width="45.9045" height="117.56" rx="18" transform="rotate(-150.762 705.112 699.341)" fill="#22262C"/>
<path d="M216.647 735.562L231.202 752.356L234.001 748.438L238.48 737.241L227.283 731.643L216.647 735.562Z" fill="#CFD4CD"/>
<circle cx="218.886" cy="749.557" r="10.6364" fill="#22262C"/>
<path d="M840.276 736.122L825.721 752.916L822.922 748.997L818.444 737.801L829.64 732.203L840.276 736.122Z" fill="#CFD4CD"/>
<circle cx="10.6364" cy="10.6364" r="10.6364" transform="matrix(-1 0 0 1 848.674 739.481)" fill="#22262C"/>
<path d="M216.647 331.938L231.202 315.144L234.001 319.062L238.48 330.259L227.283 335.857L216.647 331.938Z" fill="#CFD4CD"/>
<circle cx="10.6364" cy="10.6364" r="10.6364" transform="matrix(1 0 0 -1 208.25 328.579)" fill="#22262C"/>
<path d="M840.276 331.378L825.721 314.584L822.922 318.503L818.444 329.699L829.64 335.297L840.276 331.378Z" fill="#CFD4CD"/>
<circle cx="838.037" cy="317.383" r="10.6364" transform="rotate(180 838.037 317.383)" fill="#22262C"/>
</svg>
