<svg width="1067" height="1068" viewBox="0 0 1067 1068" fill="none" xmlns="http://www.w3.org/2000/svg">
<rect width="1067" height="1068" fill="#1E1E1E"/>
<path d="M1067 0H0V1068H1067V0Z" fill="#22262C"/>
<path d="M825.538 1068H339.564L282.962 1023.98V41.1649L326.986 0H825.538V126.925H705.474V357.334H825.538V1068Z" fill="#CFD4CD"/>
<path d="M330.727 480.66L318.563 458.505C317.522 456.609 318.177 454.228 320.041 453.132L332.715 445.676C334.608 444.563 337.044 445.184 338.173 447.066L351.202 468.78C352.348 470.691 351.712 473.17 349.787 474.293L336.249 482.191C334.306 483.324 331.81 482.633 330.727 480.66Z" fill="#CFD4CD" stroke="#6A6F69" stroke-width="3"/>
<rect x="486.932" y="344.744" width="31.0239" height="16.4641" rx="1.5" transform="rotate(22.2204 486.932 344.744)" fill="#CFD4CD" stroke="#6A6F69" stroke-width="3"/>
<rect x="426.125" y="356.313" width="31.0239" height="16.4641" rx="1.5" transform="rotate(-21.4171 426.125 356.313)" fill="#CFD4CD" stroke="#6A6F69" stroke-width="3"/>
<rect x="0.821348" y="-1.95586" width="31.0239" height="16.4641" rx="1.5" transform="matrix(0.925736 -0.378171 -0.378171 -0.925736 485.432 504.256)" fill="#CFD4CD" stroke="#6A6F69" stroke-width="3"/>
<rect x="1.94415" y="-0.848689" width="31.0239" height="16.4641" rx="1.5" transform="matrix(0.930947 0.365155 0.365155 -0.930947 424.625 492.686)" fill="#CFD4CD" stroke="#6A6F69" stroke-width="3"/>
<rect x="551.4" y="441.288" width="31.0239" height="16.4641" rx="1.5" transform="rotate(112.22 551.4 441.288)" fill="#CFD4CD" stroke="#6A6F69" stroke-width="3"/>
<rect x="539.831" y="380.48" width="31.0239" height="16.4641" rx="1.5" transform="rotate(68.5829 539.831 380.48)" fill="#CFD4CD" stroke="#6A6F69" stroke-width="3"/>
<rect x="1.95586" y="0.821348" width="31.0239" height="16.4641" rx="1.5" transform="matrix(0.378171 0.925736 0.925736 -0.378171 388.888 439.788)" fill="#CFD4CD" stroke="#6A6F69" stroke-width="3"/>
<rect x="0.848689" y="1.94415" width="31.0239" height="16.4641" rx="1.5" transform="matrix(-0.365155 0.930947 0.930947 0.365155 400.458 378.98)" fill="#CFD4CD" stroke="#6A6F69" stroke-width="3"/>
<mask id="path-12-inside-1_0_1" fill="white">
<path d="M402.454 976.657C402.454 968.373 409.17 961.657 417.454 961.657H517.81C526.094 961.657 532.81 968.373 532.81 976.657V1057.14C532.81 1059.35 531.019 1061.14 528.81 1061.14H406.455C404.245 1061.14 402.454 1059.35 402.454 1057.14V976.657Z"/>
</mask>
<path d="M402.454 976.657C402.454 968.373 409.17 961.657 417.454 961.657H517.81C526.094 961.657 532.81 968.373 532.81 976.657V1057.14C532.81 1059.35 531.019 1061.14 528.81 1061.14H406.455C404.245 1061.14 402.454 1059.35 402.454 1057.14V976.657Z" fill="#CFD4CD" stroke="#6A6F69" stroke-width="10" mask="url(#path-12-inside-1_0_1)"/>
<circle cx="554.536" cy="50.3126" r="30.8737" fill="#22262C"/>
<circle cx="469.919" cy="879.328" r="62.8908" fill="#22262C"/>
<circle cx="761.504" cy="920.492" r="27.4433" fill="#22262C"/>
<circle cx="341.851" cy="528.283" r="26.2998" fill="#22262C"/>
<circle cx="471.634" cy="424.799" r="73.7537" fill="#22262C"/>
<rect x="420.75" y="945.649" width="29.7302" height="88.0471" rx="1" fill="#22262C"/>
<rect x="483.641" y="945.649" width="29.7302" height="88.0471" rx="1" fill="#22262C"/>
<rect x="589.983" y="1014.26" width="14.8651" height="26.2998" rx="1" transform="rotate(90 589.983 1014.26)" fill="#22262C"/>
<rect x="381.872" y="982.24" width="14.8651" height="26.2998" rx="1" transform="rotate(-180 381.872 982.24)" fill="#22262C"/>
<rect x="359.003" y="802.715" width="28.5867" height="225.263" rx="1" transform="rotate(-90 359.003 802.715)" fill="#22262C"/>
<rect x="633.435" y="572.878" width="18.2955" height="29.7302" rx="1" transform="rotate(-90 633.435 572.878)" fill="#22262C"/>
<rect x="721.482" y="511.131" width="18.2955" height="50.3126" rx="1" transform="rotate(-90 721.482 511.131)" fill="#22262C"/>
<rect x="734.06" y="93.7645" width="18.2955" height="50.3126" rx="1" transform="rotate(-90 734.06 93.7645)" fill="#22262C"/>
<rect x="357.859" y="101.769" width="18.2955" height="32.0171" rx="1" fill="#22262C"/>
<rect x="612.853" y="650.634" width="77.7559" height="281.293" transform="rotate(90 612.853 650.634)" fill="#22262C"/>
<rect x="393.307" y="177.238" width="66.3212" height="65.1777" rx="2" transform="rotate(90 393.307 177.238)" fill="#22262C"/>
<rect x="756.93" y="1014.26" width="14.8651" height="44.5953" rx="1" transform="rotate(90 756.93 1014.26)" fill="#22262C"/>
<path d="M443.619 285.009V309.024C443.619 310.128 444.515 311.024 445.619 311.024H457.056C458.161 311.024 459.056 310.128 459.056 309.024V308.45C459.056 307.345 459.952 306.45 461.056 306.45H536.527C537.632 306.45 538.527 305.554 538.527 304.45V179.238C538.527 178.133 539.423 177.238 540.527 177.238H547.39C548.495 177.238 549.39 176.342 549.39 175.238V159.227C549.39 158.122 548.495 157.227 547.39 157.227H445.619C444.515 157.227 443.619 158.122 443.619 159.227V192.39C443.619 193.494 444.515 194.39 445.619 194.39H446.193C447.298 194.39 448.193 195.285 448.193 196.39V214.116C448.193 215.22 447.298 216.116 446.193 216.116H445.619C444.515 216.116 443.619 217.011 443.619 218.116V262.713C443.619 263.818 444.515 264.713 445.619 264.713H446.193C447.298 264.713 448.193 265.608 448.193 266.713V281.009C448.193 282.113 447.298 283.009 446.193 283.009H445.619C444.515 283.009 443.619 283.904 443.619 285.009Z" fill="#22262C"/>
<rect x="569.23" y="483.201" width="35.8779" height="15.2955" rx="4.5" transform="rotate(-49.1222 569.23 483.201)" fill="#D9D9D9" stroke="#6A6F69" stroke-width="3"/>
<rect x="584.095" y="495.779" width="35.8779" height="15.2955" rx="4.5" transform="rotate(-49.1222 584.095 495.779)" fill="#D9D9D9" stroke="#6A6F69" stroke-width="3"/>
<path d="M577.049 424.227C577.049 482.13 530.109 529.07 472.206 529.07C414.303 529.07 367.363 482.13 367.363 424.227C367.363 366.324 414.303 319.384 472.206 319.384C530.109 319.384 577.049 366.324 577.049 424.227Z" stroke="#6A6F69" stroke-width="3"/>
<circle cx="472.206" cy="424.227" r="93.4079" stroke="#6A6F69" stroke-width="3"/>
<rect x="375.011" y="689.512" width="40.0214" height="67.4647" rx="20.0107" fill="#CFD4CD"/>
<rect x="455.054" y="691.799" width="40.0214" height="67.4647" rx="20.0107" fill="#CFD4CD"/>
<rect x="536.24" y="691.799" width="40.0214" height="67.4647" rx="20.0107" fill="#CFD4CD"/>
<path d="M549.113 690.323L577.27 717.995C578.205 718.914 579.757 718.699 580.408 717.561L589.635 701.414C590.154 700.505 589.885 699.35 589.018 698.764L569.975 685.898C569.603 685.646 569.157 685.527 568.71 685.56L550.369 686.902C548.653 687.028 547.886 689.117 549.113 690.323Z" fill="#22262C"/>
<ellipse cx="412.685" cy="689.97" rx="17.1629" ry="21.7578" transform="rotate(-32.967 412.685 689.97)" fill="#22262C"/>
<ellipse cx="492.728" cy="689.662" rx="17.1629" ry="21.7578" transform="rotate(-32.967 492.728 689.662)" fill="#22262C"/>
</svg>
