<svg width="1067" height="1068" viewBox="0 0 1067 1068" fill="none" xmlns="http://www.w3.org/2000/svg">
<rect width="1067" height="1068" fill="#1E1E1E"/>
<path d="M1067 0H0V1068H1067V0Z" fill="#22262C"/>
<rect x="426.692" y="65.3607" width="206.973" height="113.728" fill="#CFD4CD"/>
<rect x="431.899" y="892.827" width="206.973" height="113.728" fill="#CFD4CD"/>
<path d="M231.435 92.8122V975.181L303.03 1039.89H435.805V914.396H626.506V1039.89H823.065V26.1443H625.204V150.33H437.106V26.1443H300.426L231.435 92.8122Z" fill="#CFD4CD"/>
<rect x="327.762" y="88.8905" width="31.2412" height="48.3669" fill="#22262C"/>
<rect x="668.812" y="50.9813" width="82.0081" height="30.0659" fill="#22262C"/>
<rect x="327.762" y="371.249" width="387.911" height="56.2102" rx="7" fill="#22262C"/>
<rect x="327.762" y="883.676" width="31.2412" height="50.9813" rx="3" fill="#22262C"/>
<rect x="666.208" y="981.717" width="83.3098" height="30.0659" fill="#22262C"/>
<path d="M275.694 235.082C275.694 213.543 293.154 196.082 314.694 196.082H733.949C755.488 196.082 772.949 213.543 772.949 235.082V320.267H275.694V235.082Z" fill="#22262C"/>
<path d="M621.95 291.75C621.95 275.734 634.934 262.75 650.95 262.75H656.734C672.75 262.75 685.734 275.734 685.734 291.75V324.189H621.95V291.75Z" fill="#CFD4CD"/>
<path d="M489.175 291.75C489.175 275.734 502.159 262.75 518.175 262.75H523.959C539.975 262.75 552.959 275.734 552.959 291.75V324.189H489.175V291.75Z" fill="#CFD4CD"/>
<ellipse cx="551.657" cy="267.979" rx="24.7326" ry="24.8371" fill="#22262C"/>
<path d="M355.098 291.75C355.098 275.734 368.082 262.75 384.098 262.75H389.882C405.898 262.75 418.882 275.734 418.882 291.75V324.189H355.098V291.75Z" fill="#CFD4CD"/>
<ellipse cx="417.58" cy="267.979" rx="24.7326" ry="24.8371" fill="#22262C"/>
<path d="M437 8H627V84C627 136.467 584.467 179 532 179V179C479.533 179 437 136.467 437 84V8Z" fill="#22262C"/>
<path d="M436 1053H628V982C628 928.981 585.019 886 532 886V886C478.981 886 436 928.981 436 982V1053Z" fill="#22262C"/>
<path d="M434.503 699.091V713.353C434.503 715.01 433.16 716.353 431.503 716.353H421.084C420.918 716.353 420.746 716.338 420.582 716.312C405.2 713.883 403.92 727.066 405.214 734C405.648 735.961 407.427 751.648 411.072 798.707C413.675 822.237 436.021 827.684 446.869 827.466C487.222 826.595 574.177 824.852 599.17 824.852C617.746 825.888 627.203 808.18 629.694 798.956C629.74 798.787 629.767 798.62 629.781 798.445L634.967 734C637.05 720.405 628.024 716.571 623.251 716.353H608.678C607.021 716.353 605.678 715.01 605.678 713.353V694.516C605.678 692.859 607.021 691.516 608.678 691.516H632.732C634.058 691.516 635.236 690.623 635.603 689.348C667.32 579.266 603.115 492.862 510.002 499.356C389.221 523.614 387.45 637.751 402.03 693.917C402.37 695.225 403.547 696.091 404.898 696.091H431.503C433.16 696.091 434.503 697.434 434.503 699.091Z" fill="#22262C"/>
</svg>
