<svg width="1067" height="1068" viewBox="0 0 1067 1068" fill="none" xmlns="http://www.w3.org/2000/svg">
<rect width="1067" height="1068" fill="#1E1E1E"/>
<path d="M1067 0H0V1068H1067V0Z" fill="#22262C"/>
<path d="M288.888 1067H824.723C826.932 1067 828.723 1065.21 828.723 1063V270.25C828.723 268.041 826.932 266.25 824.723 266.25H724.325C722.116 266.25 720.325 264.46 720.325 262.25V200.316C720.325 198.107 718.534 196.316 716.325 196.316H588.952C586.743 196.316 584.952 194.525 584.952 192.316V143.369C584.952 141.16 586.743 139.369 588.952 139.369H716.325C718.534 139.369 720.325 137.579 720.325 135.369V71.4368C720.325 69.2277 722.116 67.4368 724.325 67.4368H824.723C826.932 67.4368 828.723 65.6459 828.723 63.4368V4C828.723 1.79086 826.932 0 824.723 0H280.895C279.834 0 278.817 0.421426 278.067 1.17157L239.448 39.79C238.698 40.5402 238.277 41.5576 238.277 42.6184V1016.39C238.277 1017.45 238.698 1018.47 239.448 1019.22L286.059 1065.83C286.809 1066.58 287.827 1067 288.888 1067Z" fill="#CFD4CD"/>
<path d="M419.412 259.374L393.86 260.035C393.104 260.055 392.508 260.683 392.527 261.438L392.845 273.715C392.865 274.47 393.493 275.067 394.248 275.047L419.801 274.386C420.556 274.366 421.153 273.738 421.133 272.983L420.815 260.706C420.796 259.95 420.167 259.354 419.412 259.374Z" fill="#CFD4CD" stroke="#6A6F69" stroke-width="3"/>
<path d="M364.951 272.947L346.915 291.06C346.382 291.595 346.384 292.462 346.919 292.995L355.621 301.66C356.157 302.193 357.023 302.192 357.556 301.656L375.592 283.544C376.126 283.008 376.124 282.142 375.588 281.609L366.886 272.943C366.351 272.41 365.485 272.412 364.951 272.947Z" fill="#CFD4CD" stroke="#6A6F69" stroke-width="3"/>
<path d="M470.264 375.197L452.483 393.56C451.957 394.103 451.091 394.117 450.548 393.591L441.726 385.049C441.183 384.523 441.169 383.657 441.694 383.114L459.475 364.75C460.001 364.208 460.867 364.194 461.41 364.719L470.232 373.262C470.775 373.788 470.789 374.654 470.264 375.197Z" fill="#CFD4CD" stroke="#6A6F69" stroke-width="3"/>
<path d="M423.413 406.102L397.872 407.122C397.117 407.152 396.48 406.565 396.45 405.81L395.96 393.539C395.93 392.784 396.518 392.147 397.273 392.117L422.813 391.097C423.568 391.067 424.205 391.655 424.235 392.41L424.725 404.681C424.755 405.436 424.168 406.072 423.413 406.102Z" fill="#CFD4CD" stroke="#6A6F69" stroke-width="3"/>
<path d="M482.431 343.983L481.77 318.43C481.75 317.675 481.122 317.078 480.366 317.098L468.09 317.416C467.334 317.435 466.738 318.064 466.757 318.819L467.419 344.372C467.439 345.127 468.067 345.723 468.822 345.704L481.099 345.386C481.854 345.366 482.451 344.738 482.431 343.983Z" fill="#CFD4CD" stroke="#6A6F69" stroke-width="3"/>
<path d="M468.857 289.521L450.745 271.485C450.209 270.952 449.343 270.953 448.81 271.489L440.144 280.191C439.611 280.726 439.613 281.593 440.148 282.126L458.261 300.162C458.796 300.695 459.663 300.694 460.196 300.158L468.861 291.456C469.394 290.921 469.393 290.054 468.857 289.521Z" fill="#CFD4CD" stroke="#6A6F69" stroke-width="3"/>
<path d="M366.608 394.834L348.244 377.054C347.702 376.528 347.688 375.662 348.213 375.119L356.756 366.296C357.282 365.753 358.148 365.739 358.691 366.265L377.054 384.046C377.597 384.571 377.611 385.437 377.085 385.98L368.543 394.803C368.017 395.346 367.151 395.36 366.608 394.834Z" fill="#CFD4CD" stroke="#6A6F69" stroke-width="3"/>
<path d="M335.702 347.982L334.682 322.441C334.652 321.686 335.24 321.05 335.995 321.02L348.266 320.53C349.021 320.5 349.657 321.087 349.687 321.842L350.707 347.383C350.737 348.138 350.15 348.775 349.395 348.805L337.124 349.295C336.369 349.325 335.732 348.737 335.702 347.982Z" fill="#CFD4CD" stroke="#6A6F69" stroke-width="3"/>
<path d="M436.114 394.137C470.133 379.201 485.603 339.515 470.667 305.496C455.731 271.477 416.045 256.007 382.026 270.943C348.007 285.879 332.537 325.564 347.473 359.584C362.409 393.603 402.095 409.073 436.114 394.137Z" fill="#22262C"/>
<circle cx="415.111" cy="880.175" r="40.9616" fill="#22262C"/>
<rect x="303.216" y="722.323" width="219.794" height="29.9719" rx="3" fill="#22262C"/>
<rect x="749.797" y="1015.05" width="40.9616" height="15.985" rx="1" fill="#22262C"/>
<rect x="308.211" y="1003.06" width="40.9616" height="15.985" rx="1" transform="rotate(90 308.211 1003.06)" fill="#22262C"/>
<rect x="658.882" y="550.484" width="40.9616" height="15.985" rx="1" transform="rotate(-180 658.882 550.484)" fill="#22262C"/>
<rect x="403.122" y="485.545" width="40.9616" height="15.985" rx="1" transform="rotate(-90 403.122 485.545)" fill="#22262C"/>
<rect x="300.219" y="75.9288" width="40.9616" height="15.985" rx="1" transform="rotate(-90 300.219 75.9288)" fill="#22262C"/>
<rect x="744.802" y="37.9644" width="40.9616" height="15.985" rx="1" fill="#22262C"/>
<path d="M274.742 170.34V178.329C274.742 180.538 276.533 182.329 278.742 182.329H328.688C330.897 182.329 332.688 180.538 332.688 178.329V121.89C332.688 119.68 330.897 117.89 328.688 117.89H278.742C276.533 117.89 274.742 119.68 274.742 121.89V130.378C274.742 132.585 276.532 134.374 278.739 134.374C280.946 134.374 282.735 136.163 282.735 138.37V162.348C282.735 164.555 280.946 166.344 278.739 166.344C276.532 166.344 274.742 168.133 274.742 170.34Z" fill="#22262C"/>
<path d="M380.643 128.629V111.399C380.643 109.19 382.434 107.399 384.643 107.399H398.127C398.955 107.399 399.626 108.07 399.626 108.898C399.626 109.726 400.296 110.397 401.124 110.397H462.563C464.772 110.397 466.563 112.187 466.563 114.397V222.288C466.563 224.497 464.772 226.288 462.563 226.288H401.873C400.632 226.288 399.626 227.294 399.626 228.536C399.626 229.777 398.619 230.784 397.378 230.784H384.643C382.434 230.784 380.643 228.993 380.643 226.784V209.554C380.643 208.312 381.65 207.306 382.891 207.306C384.133 207.306 385.139 206.299 385.139 205.058V192.57C385.139 191.328 384.133 190.322 382.891 190.322C381.65 190.322 380.643 189.315 380.643 188.074V151.608C380.643 150.366 381.65 149.36 382.891 149.36C384.133 149.36 385.139 148.354 385.139 147.112V133.125C385.139 131.884 384.133 130.877 382.891 130.877C381.65 130.877 380.643 129.871 380.643 128.629Z" fill="#22262C"/>
<circle cx="375.648" cy="55.448" r="24.4771" fill="#22262C"/>
<path d="M320.348 498.033H310.213C308.004 498.033 306.213 496.246 306.213 494.037V455.074C306.213 441.886 317.536 438.922 323.197 439.088H342.179C358.964 439.088 364.159 452.076 364.658 458.57V513.515C364.658 515.724 362.867 517.515 360.658 517.515H348.608C346.634 517.515 344.955 516.075 344.655 514.123L342.264 498.584C342.208 498.219 342.206 497.85 342.236 497.481C342.577 493.346 341.327 486.044 333.687 486.044C328.078 486.044 325.749 489.981 324.974 493.71C324.498 496.001 322.689 498.033 320.348 498.033Z" fill="#22262C"/>
<rect x="504.098" y="378.478" width="33.9654" height="17.1697" rx="2.5" transform="rotate(-57.7807 504.098 378.478)" stroke="#6A6F69" stroke-width="3"/>
<rect x="524.08" y="391.466" width="33.9654" height="17.1697" rx="2.5" transform="rotate(-57.7807 524.08 391.466)" stroke="#6A6F69" stroke-width="3"/>
<rect x="477.594" y="910.891" width="22.0716" height="21.5192" rx="2.5" transform="rotate(-45 477.594 910.891)" stroke="#6A6F69" stroke-width="3"/>
<rect x="466.376" y="921.691" width="7.67416" height="21.5192" rx="2.5" transform="rotate(-45 466.376 921.691)" stroke="#6A6F69" stroke-width="3"/>
<rect x="-2.12132" y="-8.9407e-08" width="22.0716" height="21.5192" rx="2.5" transform="matrix(-0.707107 -0.707107 -0.707107 0.707107 354.642 914.387)" stroke="#6A6F69" stroke-width="3"/>
<rect x="-2.12132" y="-8.9407e-08" width="7.67416" height="21.5192" rx="2.5" transform="matrix(-0.707107 -0.707107 -0.707107 0.707107 365.859 925.186)" stroke="#6A6F69" stroke-width="3"/>
</svg>
