<svg width="1067" height="1068" viewBox="0 0 1067 1068" fill="none" xmlns="http://www.w3.org/2000/svg">
<rect width="1067" height="1068" fill="#1E1E1E"/>
<path d="M1067 0H0V1068H1067V0Z" fill="#22262C"/>
<path d="M825.538 1068H339.564L282.962 1023.98V41.1649L326.986 0H825.538V126.925H705.474V357.334H825.538V1068Z" fill="#CFD4CD"/>
<rect x="486.932" y="344.744" width="31.0239" height="16.4641" rx="1.5" transform="rotate(22.2204 486.932 344.744)" fill="#CFD4CD" stroke="#6A6F69" stroke-width="3"/>
<rect x="426.125" y="356.313" width="31.0239" height="16.4641" rx="1.5" transform="rotate(-21.4171 426.125 356.313)" fill="#CFD4CD" stroke="#6A6F69" stroke-width="3"/>
<rect x="0.821348" y="-1.95586" width="31.0239" height="16.4641" rx="1.5" transform="matrix(0.925736 -0.378171 -0.378171 -0.925736 485.432 504.256)" fill="#CFD4CD" stroke="#6A6F69" stroke-width="3"/>
<rect x="1.94415" y="-0.848689" width="31.0239" height="16.4641" rx="1.5" transform="matrix(0.930947 0.365155 0.365155 -0.930947 424.625 492.686)" fill="#CFD4CD" stroke="#6A6F69" stroke-width="3"/>
<rect x="551.4" y="441.288" width="31.0239" height="16.4641" rx="1.5" transform="rotate(112.22 551.4 441.288)" fill="#CFD4CD" stroke="#6A6F69" stroke-width="3"/>
<rect x="539.831" y="380.48" width="31.0239" height="16.4641" rx="1.5" transform="rotate(68.5829 539.831 380.48)" fill="#CFD4CD" stroke="#6A6F69" stroke-width="3"/>
<rect x="1.95586" y="0.821348" width="31.0239" height="16.4641" rx="1.5" transform="matrix(0.378171 0.925736 0.925736 -0.378171 388.888 439.788)" fill="#CFD4CD" stroke="#6A6F69" stroke-width="3"/>
<rect x="0.848689" y="1.94415" width="31.0239" height="16.4641" rx="1.5" transform="matrix(-0.365155 0.930947 0.930947 0.365155 400.458 378.98)" fill="#CFD4CD" stroke="#6A6F69" stroke-width="3"/>
<circle cx="554.536" cy="50.3126" r="30.8737" fill="#22262C"/>
<circle cx="761.504" cy="920.492" r="27.4433" fill="#22262C"/>
<circle cx="341.851" cy="528.283" r="26.2998" fill="#22262C"/>
<circle cx="471.634" cy="424.799" r="73.7537" fill="#22262C"/>
<rect x="367.865" y="982.3" width="14.8651" height="26.2998" rx="1" transform="rotate(-180 367.865 982.3)" fill="#22262C"/>
<rect x="633.435" y="572.878" width="18.2955" height="29.7302" rx="1" transform="rotate(-90 633.435 572.878)" fill="#22262C"/>
<rect x="734.06" y="93.7645" width="18.2955" height="50.3126" rx="1" transform="rotate(-90 734.06 93.7645)" fill="#22262C"/>
<rect x="357.859" y="101.769" width="18.2955" height="32.0171" rx="1" fill="#22262C"/>
<rect x="393.307" y="177.238" width="66.3212" height="65.1777" rx="4" transform="rotate(90 393.307 177.238)" fill="#22262C"/>
<rect x="756.93" y="1014.26" width="14.8651" height="44.5953" rx="1" transform="rotate(90 756.93 1014.26)" fill="#22262C"/>
<path d="M443.619 285.296V307.024C443.619 309.233 445.41 311.024 447.619 311.024H456.769C458.032 311.024 459.056 310 459.056 308.737C459.056 307.474 460.08 306.45 461.343 306.45H534.527C536.736 306.45 538.527 304.659 538.527 302.45V181.238C538.527 179.029 540.318 177.238 542.527 177.238H545.39C547.599 177.238 549.39 175.447 549.39 173.238V161.227C549.39 159.018 547.599 157.227 545.39 157.227H447.619C445.41 157.227 443.619 159.018 443.619 161.227V192.103C443.619 193.366 444.643 194.39 445.906 194.39C447.169 194.39 448.193 195.414 448.193 196.677V213.829C448.193 215.092 447.169 216.116 445.906 216.116C444.643 216.116 443.619 217.14 443.619 218.403V262.426C443.619 263.689 444.643 264.713 445.906 264.713C447.169 264.713 448.193 265.737 448.193 267V280.722C448.193 281.985 447.169 283.009 445.906 283.009C444.643 283.009 443.619 284.032 443.619 285.296Z" fill="#22262C"/>
<rect x="569.23" y="483.201" width="35.8779" height="15.2955" rx="4.5" transform="rotate(-49.1222 569.23 483.201)" fill="#CFD4CD" stroke="#6A6F69" stroke-width="3"/>
<rect x="584.095" y="495.779" width="35.8779" height="15.2955" rx="4.5" transform="rotate(-49.1222 584.095 495.779)" fill="#CFD4CD" stroke="#6A6F69" stroke-width="3"/>
<rect x="-1.95672" y="-0.819291" width="35.8779" height="15.2955" rx="4.5" transform="matrix(-0.379144 -0.925338 -0.925338 0.379144 331.313 487.656)" fill="#CFD4CD" stroke="#6A6F69" stroke-width="3"/>
<rect x="-1.95672" y="-0.819291" width="35.8779" height="15.2955" rx="4.5" transform="matrix(-0.379144 -0.925338 -0.925338 0.379144 313.213 494.837)" fill="#CFD4CD" stroke="#6A6F69" stroke-width="3"/>
<circle cx="471" cy="425" r="84.5" stroke="#6A6F69" stroke-width="3"/>
<rect x="375.011" y="689.512" width="40.0214" height="67.4647" rx="20.0107" fill="#CFD4CD"/>
<rect x="455.054" y="691.799" width="40.0214" height="67.4647" rx="20.0107" fill="#CFD4CD"/>
<rect x="536.24" y="691.799" width="40.0214" height="67.4647" rx="20.0107" fill="#CFD4CD"/>
<circle cx="437" cy="877" r="29" fill="#CFD4CD" stroke="#6A6F69" stroke-width="4"/>
<path d="M393.276 608H380.076C378.04 608 376.328 606.47 376.101 604.446L371.499 563.446C371.233 561.075 373.088 559 375.474 559H396.204C398.525 559 400.359 560.97 400.194 563.285L397.265 604.285C397.116 606.378 395.374 608 393.276 608Z" fill="#22262C"/>
<path d="M317 634V655.5C317 656.605 317.895 657.5 319 657.5H444.2C444.991 657.5 445.706 657.03 446.041 656.314C454.089 639.14 466.959 631.293 472.5 629.5C474 629 477.2 629.1 478 633.5C478.353 640.555 484.694 644.24 488.93 645.584C489.833 645.87 490.5 646.679 490.5 647.626V655.5C490.5 656.605 491.395 657.5 492.5 657.5H611C612.105 657.5 613 656.605 613 655.5V633.356C613 632.537 612.501 631.801 611.74 631.498L507.856 590.142C507.621 590.048 507.37 590 507.117 590H429.481C428.862 590 428.278 590.287 427.899 590.776L396.601 631.224C396.222 631.713 395.638 632 395.019 632H319C317.895 632 317 632.895 317 634Z" fill="#22262C"/>
<rect x="349" y="699.5" width="236" height="30" rx="2" fill="#22262C"/>
<circle cx="437" cy="877" r="26" fill="#22262C"/>
<path d="M421.807 930.285L415.74 986.285C415.612 987.467 416.539 988.5 417.728 988.5H459.217C460.426 988.5 461.359 987.436 461.2 986.237L448.73 892.237C448.599 891.243 447.751 890.5 446.748 890.5H427.844C426.803 890.5 425.935 891.3 425.851 892.338L424.675 906.838C424.581 908.003 425.5 909 426.669 909H431.5C432.605 909 433.5 909.895 433.5 911V926.5C433.5 927.605 432.605 928.5 431.5 928.5H423.795C422.774 928.5 421.917 929.269 421.807 930.285Z" fill="#22262C"/>
</svg>
