<svg width="1067" height="1068" viewBox="0 0 1067 1068" fill="none" xmlns="http://www.w3.org/2000/svg">
<rect width="1067" height="1068" fill="#1E1E1E"/>
<path d="M1067 0H0V1068H1067V0Z" fill="#22262C"/>
<path d="M2.34314 964.102L46.8865 1008.65C48.3868 1010.15 50.4217 1010.99 52.5434 1010.99H1023.92C1026.14 1010.99 1027.94 1012.79 1027.94 1015C1027.94 1017.22 1029.73 1019.02 1031.95 1019.02H1059C1063.42 1019.02 1067 1015.43 1067 1011.01V36C1067 31.5817 1063.42 28 1059 28H1023.39C1020.58 28 1018.31 30.276 1018.31 33.0835C1018.31 35.891 1016.03 38.167 1013.22 38.167H61.3707C59.4098 38.167 57.5172 38.8872 56.0524 40.1908L2.68169 87.6858C0.97583 89.2038 0 91.3785 0 93.662V958.445C0 960.567 0.84285 962.602 2.34314 964.102Z" fill="#CFD4CD"/>
<circle cx="378.855" cy="715.61" r="156.251" fill="#22262C"/>
<circle cx="739.515" cy="683.504" r="42.8084" fill="#22262C"/>
<circle cx="209.226" cy="605.914" r="25.15" fill="#22262C"/>
<circle cx="523.868" cy="846.711" r="25.15" fill="#22262C"/>
<rect x="888.275" y="853.667" width="90.9679" height="36.3872" rx="1" fill="#22262C"/>
<rect x="888.275" y="164.452" width="90.9679" height="36.3872" rx="1" fill="#22262C"/>
<rect x="195.849" y="200.839" width="420.593" height="64.2126" rx="1" fill="#22262C"/>
<path d="M691.938 448.094H663.996C663.841 448.094 663.764 448.28 663.873 448.39C663.973 448.49 663.918 448.661 663.779 448.683L625.211 455.023C625.104 455.041 624.995 455.05 624.886 455.05H146.164C145.792 455.05 145.428 454.946 145.112 454.75L140.336 451.794C138.624 450.734 131.639 448.094 129.625 448.094H117.235C97.5428 448.094 93.69 432.754 94.2251 425.084V356.055C94.2251 330.798 114.202 325.554 124.191 326.09H690.332C711.737 326.09 717.801 344.64 718.158 353.915V421.873C718.158 443.706 700.678 448.45 691.938 448.094Z" fill="#22262C"/>
<path d="M613.137 448.094H671.751C674.093 448.094 674.527 451.428 672.262 452.027L614.599 467.291C614.432 467.335 614.26 467.357 614.087 467.357H558.697H454.211C453.106 467.357 452.211 466.462 452.211 465.357V450.094C452.211 448.989 453.101 448.094 454.206 448.094H492.879C518.136 448.094 525.877 436.678 526.59 430.97V414.241C526.59 413.137 527.486 412.241 528.59 412.241H590.943C592.048 412.241 592.943 413.137 592.943 414.241V420.394C592.943 420.992 593.211 421.558 593.672 421.938L610.408 435.721C610.87 436.101 611.137 436.667 611.137 437.265V446.094C611.137 447.198 612.032 448.094 613.137 448.094Z" fill="#CFD4CD"/>
<path d="M454.746 447.558H513.359C515.702 447.558 516.135 450.892 513.871 451.492L456.208 466.756C456.041 466.8 455.869 466.822 455.696 466.822H400.305H295.819C294.715 466.822 293.819 465.927 293.819 464.822V449.558C293.819 448.454 294.71 447.558 295.814 447.558H334.487C359.744 447.558 367.486 436.143 368.199 430.435V413.706C368.199 412.602 369.095 411.706 370.199 411.706H432.552C433.657 411.706 434.552 412.602 434.552 413.706V419.859C434.552 420.457 434.819 421.023 435.281 421.403L452.017 435.186C452.478 435.566 452.746 436.132 452.746 436.73V445.558C452.746 446.663 453.641 447.558 454.746 447.558Z" fill="#CFD4CD"/>
<path d="M293.144 447.558H351.758C354.1 447.558 354.534 450.892 352.269 451.492L294.606 466.756C294.439 466.8 294.267 466.822 294.094 466.822H238.704H134.218C133.113 466.822 132.218 465.927 132.218 464.822V449.558C132.218 448.454 133.108 447.558 134.213 447.558H172.886C198.143 447.558 205.884 436.143 206.597 430.435V413.706C206.597 412.602 207.493 411.706 208.597 411.706H270.95C272.055 411.706 272.95 412.602 272.95 413.706V419.859C272.95 420.457 273.218 421.023 273.679 421.403L290.415 435.186C290.877 435.566 291.144 436.132 291.144 436.73V445.558C291.144 446.663 292.039 447.558 293.144 447.558Z" fill="#CFD4CD"/>
</svg>
