<svg width="1067" height="1068" viewBox="0 0 1067 1068" fill="none" xmlns="http://www.w3.org/2000/svg">
<rect width="1067" height="1068" fill="#1E1E1E"/>
<path d="M1067 0H0V1068H1067V0Z" fill="#22262C"/>
<path d="M43.7375 1017.25L72.1722 1045.68C76.4854 1050 82.3351 1052.42 88.4346 1052.42H960.332C964.634 1052.42 968.122 1055.91 968.122 1060.21C968.122 1064.51 971.61 1068 975.912 1068H1001C1013.7 1068 1024 1057.7 1024 1045V20.9543C1024 9.38155 1014.62 0 1003.05 0H985.852C983.775 0 982.091 1.68366 982.091 3.76056C982.091 5.83747 980.408 7.52113 978.331 7.52113H79.3007C73.2012 7.52113 67.3515 9.94394 63.0383 14.2567L43.7375 33.555C39.4236 37.8685 37 43.719 37 49.8195V1000.99C37 1007.09 39.4236 1012.94 43.7375 1017.25Z" fill="#CFD4CD"/>
<path d="M261 611.5H579C646.655 611.5 701.5 666.345 701.5 734V852C701.5 947.821 623.821 1025.5 528 1025.5H240C207.691 1025.5 181.5 999.309 181.5 967V691C181.5 647.093 217.093 611.5 261 611.5Z" stroke="#A6ACA3" stroke-width="17"/>
<ellipse cx="444.5" cy="769" rx="123.5" ry="124" fill="#22262C"/>
<ellipse cx="609" cy="866.5" rx="33" ry="33.5" fill="#22262C"/>
<ellipse cx="278.5" cy="681" rx="33.5" ry="33" fill="#22262C"/>
<ellipse cx="492.5" cy="382" rx="22.5" ry="23" fill="#22262C"/>
<ellipse cx="523" cy="155.5" rx="44" ry="44.5" fill="#22262C"/>
<rect x="872" y="46" width="80" height="36" rx="1" fill="#22262C"/>
<rect x="248" y="179" width="141" height="46" rx="9" transform="rotate(90 248 179)" fill="#22262C"/>
<rect x="862" y="980" width="74" height="31" rx="2" fill="#22262C"/>
<path d="M449 126H305C302.239 126 300 128.239 300 131V258C300 260.761 302.239 263 305 263H325.8C328.561 263 330.8 260.761 330.8 258V252.48C330.8 249.719 333.039 247.48 335.8 247.48H421.442C424.204 247.48 426.442 249.719 426.442 252.48V258C426.442 260.761 428.681 263 431.442 263H449C451.761 263 454 260.761 454 258V131C454 128.239 451.761 126 449 126Z" fill="#22262C"/>
</svg>
