<svg width="1067" height="1068" viewBox="0 0 1067 1068" fill="none" xmlns="http://www.w3.org/2000/svg">
<rect width="1067" height="1068" fill="#1E1E1E"/>
<path d="M1067 0H0V1068H1067V0Z" fill="#22262C"/>
<g clip-path="url(#clip0_0_1)">
<path d="M1067 0H0V1068H1067V0Z" fill="#1E1E1E"/>
<path d="M1067 0H0V1068H1067V0Z" fill="#22262C"/>
<mask id="mask0_0_1" style="mask-type:luminance" maskUnits="userSpaceOnUse" x="0" y="0" width="1067" height="1068">
<path d="M1067 0H0V1068H1067V0Z" fill="white"/>
</mask>
<g mask="url(#mask0_0_1)">
<path d="M1067 0H0V1068H1067V0Z" fill="#1E1E1E"/>
<path d="M1067 0H0V1068H1067V0Z" fill="#22262C"/>
<path d="M288.888 1067H824.723C826.932 1067 828.723 1065.21 828.723 1063V270.25C828.723 268.041 826.932 266.25 824.723 266.25H724.325C722.116 266.25 720.325 264.46 720.325 262.25V200.316C720.325 198.107 718.534 196.316 716.325 196.316H588.952C586.743 196.316 584.952 194.525 584.952 192.316V143.369C584.952 141.16 586.743 139.369 588.952 139.369H716.325C718.534 139.369 720.325 137.579 720.325 135.369V71.4368C720.325 69.2277 722.116 67.4368 724.325 67.4368H824.723C826.932 67.4368 828.723 65.6459 828.723 63.4368V4C828.723 1.79086 826.932 0 824.723 0H280.895C279.834 0 278.817 0.421426 278.067 1.17157L239.448 39.79C238.698 40.5402 238.277 41.5576 238.277 42.6184V1016.39C238.277 1017.45 238.698 1018.47 239.448 1019.22L286.059 1065.83C286.809 1066.58 287.827 1067 288.888 1067Z" fill="#CFD4CD"/>
<path d="M419.412 259.374L393.86 260.035C393.104 260.055 392.508 260.683 392.527 261.438L392.845 273.715C392.865 274.47 393.493 275.067 394.248 275.047L419.801 274.386C420.556 274.366 421.153 273.738 421.133 272.983L420.815 260.706C420.796 259.95 420.167 259.354 419.412 259.374Z" fill="#CFD4CD" stroke="#6A6F69" stroke-width="3"/>
<path d="M364.951 272.947L346.915 291.06C346.382 291.595 346.384 292.462 346.919 292.995L355.621 301.66C356.157 302.193 357.023 302.192 357.556 301.656L375.592 283.544C376.126 283.008 376.124 282.142 375.588 281.609L366.886 272.943C366.351 272.41 365.485 272.412 364.951 272.947Z" fill="#CFD4CD" stroke="#6A6F69" stroke-width="3"/>
<path d="M470.264 375.197L452.483 393.56C451.957 394.103 451.091 394.117 450.548 393.591L441.726 385.049C441.183 384.523 441.169 383.657 441.694 383.114L459.475 364.75C460.001 364.208 460.867 364.194 461.41 364.719L470.232 373.262C470.775 373.788 470.789 374.654 470.264 375.197Z" fill="#CFD4CD" stroke="#6A6F69" stroke-width="3"/>
<path d="M423.413 406.102L397.872 407.122C397.117 407.152 396.48 406.565 396.45 405.81L395.96 393.539C395.93 392.784 396.518 392.147 397.273 392.117L422.813 391.097C423.568 391.067 424.205 391.655 424.235 392.41L424.725 404.681C424.755 405.436 424.168 406.072 423.413 406.102Z" fill="#CFD4CD" stroke="#6A6F69" stroke-width="3"/>
<path d="M482.431 343.983L481.77 318.43C481.75 317.675 481.122 317.078 480.366 317.098L468.09 317.416C467.334 317.435 466.738 318.064 466.757 318.819L467.419 344.372C467.439 345.127 468.067 345.723 468.822 345.704L481.099 345.386C481.854 345.366 482.451 344.738 482.431 343.983Z" fill="#CFD4CD" stroke="#6A6F69" stroke-width="3"/>
<path d="M468.857 289.521L450.745 271.485C450.209 270.952 449.343 270.953 448.81 271.489L440.144 280.191C439.611 280.726 439.613 281.593 440.148 282.126L458.261 300.162C458.796 300.695 459.663 300.694 460.196 300.158L468.861 291.456C469.394 290.921 469.393 290.054 468.857 289.521Z" fill="#CFD4CD" stroke="#6A6F69" stroke-width="3"/>
<path d="M366.608 394.834L348.244 377.054C347.702 376.528 347.688 375.662 348.213 375.119L356.756 366.296C357.282 365.753 358.148 365.739 358.691 366.265L377.054 384.046C377.597 384.571 377.611 385.437 377.085 385.98L368.543 394.803C368.017 395.346 367.151 395.36 366.608 394.834Z" fill="#CFD4CD" stroke="#6A6F69" stroke-width="3"/>
<path d="M335.702 347.982L334.682 322.441C334.652 321.686 335.24 321.05 335.995 321.02L348.266 320.53C349.021 320.5 349.657 321.087 349.687 321.842L350.707 347.383C350.737 348.138 350.15 348.775 349.395 348.805L337.124 349.295C336.369 349.325 335.732 348.737 335.702 347.982Z" fill="#CFD4CD" stroke="#6A6F69" stroke-width="3"/>
<path d="M436.114 394.137C470.133 379.201 485.603 339.515 470.667 305.496C455.731 271.477 416.045 256.007 382.026 270.943C348.007 285.879 332.537 325.564 347.473 359.584C362.409 393.603 402.095 409.073 436.114 394.137Z" fill="#22262C"/>
<path d="M789.759 1015.05H750.797C750.245 1015.05 749.797 1015.5 749.797 1016.05V1030.04C749.797 1030.59 750.245 1031.04 750.797 1031.04H789.759C790.311 1031.04 790.759 1030.59 790.759 1030.04V1016.05C790.759 1015.5 790.311 1015.05 789.759 1015.05Z" fill="#22262C"/>
<path d="M308.211 1043.02V1004.06C308.211 1003.51 307.763 1003.06 307.211 1003.06H293.226C292.674 1003.06 292.226 1003.51 292.226 1004.06V1043.02C292.226 1043.57 292.674 1044.02 293.226 1044.02H307.211C307.763 1044.02 308.211 1043.57 308.211 1043.02Z" fill="#22262C"/>
<path d="M618.92 550.484H657.882C658.434 550.484 658.882 550.036 658.882 549.484V535.499C658.882 534.947 658.434 534.499 657.882 534.499H618.92C618.368 534.499 617.92 534.947 617.92 535.499V549.484C617.92 550.036 618.368 550.484 618.92 550.484Z" fill="#22262C"/>
<path d="M403.122 445.583V484.545C403.122 485.097 403.57 485.545 404.122 485.545H418.107C418.659 485.545 419.107 485.097 419.107 484.545V445.583C419.107 445.031 418.659 444.583 418.107 444.583H404.122C403.57 444.583 403.122 445.031 403.122 445.583Z" fill="#22262C"/>
<path d="M300.219 35.9672V74.9288C300.219 75.4811 300.667 75.9288 301.219 75.9288H315.204C315.756 75.9288 316.204 75.4811 316.204 74.9288V35.9672C316.204 35.4149 315.756 34.9672 315.204 34.9672H301.219C300.667 34.9672 300.219 35.4149 300.219 35.9672Z" fill="#22262C"/>
<path d="M784.764 37.9644H745.802C745.25 37.9644 744.802 38.4121 744.802 38.9644V52.9494C744.802 53.5017 745.25 53.9494 745.802 53.9494H784.764C785.316 53.9494 785.764 53.5017 785.764 52.9494V38.9644C785.764 38.4121 785.316 37.9644 784.764 37.9644Z" fill="#22262C"/>
<path d="M274.742 170.34V178.329C274.742 180.538 276.533 182.329 278.742 182.329H328.688C330.897 182.329 332.688 180.538 332.688 178.329V121.89C332.688 119.68 330.897 117.89 328.688 117.89H278.742C276.533 117.89 274.742 119.68 274.742 121.89V130.378C274.742 132.585 276.532 134.374 278.739 134.374C280.946 134.374 282.735 136.163 282.735 138.37V162.348C282.735 164.555 280.946 166.344 278.739 166.344C276.532 166.344 274.742 168.133 274.742 170.34Z" fill="#22262C"/>
<path d="M380.643 128.629V111.399C380.643 109.19 382.434 107.399 384.643 107.399H398.127C398.955 107.399 399.626 108.07 399.626 108.898C399.626 109.726 400.296 110.397 401.124 110.397H462.563C464.772 110.397 466.563 112.187 466.563 114.397V222.288C466.563 224.497 464.772 226.288 462.563 226.288H401.873C400.632 226.288 399.626 227.294 399.626 228.536C399.626 229.777 398.619 230.784 397.378 230.784H384.643C382.434 230.784 380.643 228.993 380.643 226.784V209.554C380.643 208.312 381.65 207.306 382.891 207.306C384.133 207.306 385.139 206.299 385.139 205.058V192.57C385.139 191.328 384.133 190.322 382.891 190.322C381.65 190.322 380.643 189.315 380.643 188.074V151.608C380.643 150.366 381.65 149.36 382.891 149.36C384.133 149.36 385.139 148.354 385.139 147.112V133.125C385.139 131.884 384.133 130.877 382.891 130.877C381.65 130.877 380.643 129.871 380.643 128.629Z" fill="#22262C"/>
<path d="M375.648 79.9251C389.166 79.9251 400.125 68.9663 400.125 55.448C400.125 41.9297 389.166 30.9709 375.648 30.9709C362.13 30.9709 351.171 41.9297 351.171 55.448C351.171 68.9663 362.13 79.9251 375.648 79.9251Z" fill="#22262C"/>
<path d="M320.348 498.033H310.213C308.004 498.033 306.213 496.246 306.213 494.037V455.074C306.213 441.886 317.536 438.922 323.197 439.088H342.179C358.964 439.088 364.159 452.076 364.658 458.57V513.515C364.658 515.724 362.867 517.515 360.658 517.515H348.608C346.634 517.515 344.955 516.075 344.655 514.123L342.264 498.584C342.208 498.219 342.206 497.85 342.236 497.481C342.577 493.346 341.327 486.044 333.687 486.044C328.078 486.044 325.749 489.981 324.974 493.71C324.498 496.001 322.689 498.033 320.348 498.033Z" fill="#22262C"/>
<path d="M520.874 351.858L505.431 376.363C504.695 377.531 505.045 379.075 506.213 379.811L516.509 386.299C517.677 387.035 519.221 386.685 519.957 385.517L535.4 361.012C536.136 359.844 535.786 358.3 534.618 357.564L524.322 351.076C523.154 350.34 521.61 350.69 520.874 351.858Z" fill="#979C94"/>
<path d="M540.856 364.846L525.413 389.351C524.677 390.519 525.027 392.063 526.195 392.799L536.491 399.287C537.659 400.023 539.203 399.673 539.939 398.505L555.382 374C556.118 372.832 555.768 371.288 554.6 370.552L544.304 364.064C543.136 363.328 541.592 363.678 540.856 364.846Z" fill="#979C94"/>
<path d="M534 671H281C280.448 671 280 671.448 280 672V750C280 750.552 280.448 751 281 751H534C534.552 751 535 750.552 535 750V672C535 671.448 534.552 671 534 671Z" fill="#22262C"/>
<path d="M353.71 732.003C353.71 722.695 346.164 715.149 336.855 715.149C327.546 715.149 320 722.695 320 732.003V755.119C320 764.428 327.546 771.974 336.855 771.974C346.164 771.974 353.71 764.428 353.71 755.119V732.003Z" fill="#CFD4CD"/>
<path d="M421.13 733.93C421.13 724.621 413.584 717.075 404.275 717.075C394.966 717.075 387.42 724.621 387.42 733.93V757.046C387.42 766.354 394.966 773.9 404.275 773.9C413.584 773.9 421.13 766.354 421.13 757.046V733.93Z" fill="#CFD4CD"/>
<path d="M489.513 733.93C489.513 724.621 481.967 717.075 472.658 717.075C463.349 717.075 455.803 724.621 455.803 733.93V757.046C455.803 766.354 463.349 773.9 472.658 773.9C481.967 773.9 489.513 766.354 489.513 757.046V733.93Z" fill="#CFD4CD"/>
<path d="M466.646 715.832L490.363 739.14C491.151 739.914 492.458 739.733 493.006 738.775L500.778 725.174C501.215 724.408 500.989 723.435 500.258 722.942L484.218 712.105C483.905 711.893 483.529 711.792 483.153 711.82L467.704 712.951C466.259 713.057 465.613 714.816 466.646 715.832Z" fill="#22262C"/>
<path d="M361.706 730.91C368.404 726.565 369.369 716.16 363.861 707.668C358.354 699.176 348.459 695.814 341.76 700.159C335.062 704.503 334.097 714.909 339.605 723.401C345.112 731.893 355.007 735.255 361.706 730.91Z" fill="#22262C"/>
<path d="M429.126 730.651C435.824 726.306 436.789 715.9 431.281 707.408C425.774 698.917 415.879 695.554 409.18 699.899C402.482 704.244 401.517 714.649 407.025 723.141C412.532 731.634 422.427 734.995 429.126 730.651Z" fill="#22262C"/>
<path d="M507 781H297C296.448 781 296 781.448 296 782V811C296 811.552 296.448 812 297 812H507C507.552 812 508 811.552 508 811V782C508 781.448 507.552 781 507 781Z" fill="#22262C"/>
<path d="M628 955H613C612.448 955 612 955.448 612 956V998C612 998.552 612.448 999 613 999H628C628.552 999 629 998.552 629 998V956C629 955.448 628.552 955 628 955Z" fill="#22262C"/>
</g>
<rect x="325.5" y="924.5" width="178" height="128" rx="24.5" stroke="#979C94" stroke-width="7"/>
<circle cx="411.5" cy="888.5" r="56.5" fill="#22262C"/>
<rect x="357" y="954" width="111" height="77" rx="3" fill="#22262C"/>
</g>
<defs>
<clipPath id="clip0_0_1">
<rect width="1067" height="1068" fill="white"/>
</clipPath>
</defs>
</svg>
