<svg width="1067" height="1068" viewBox="0 0 1067 1068" fill="none" xmlns="http://www.w3.org/2000/svg">
<rect width="1067" height="1068" fill="#1E1E1E"/>
<path d="M1067 0H0V1068H1067V0Z" fill="#22262C"/>
<path d="M736 0H351.5L327.5 24.9796V1049.5L343.5 1068H736V425.5H618V203H736V0Z" fill="#CFD4CD"/>
<rect x="428.5" y="953.5" width="106" height="90" rx="15.5" fill="#CFD4CD" stroke="#90948F" stroke-width="3"/>
<rect x="640.5" y="51.5" width="50" height="21" rx="2" fill="#22262C"/>
<rect x="594.5" y="110.5" width="80" height="21" rx="2" transform="rotate(90 594.5 110.5)" fill="#22262C"/>
<rect x="545.5" y="259.5" width="30" height="21" rx="2" transform="rotate(90 545.5 259.5)" fill="#22262C"/>
<rect x="545.5" y="349.5" width="30" height="17" rx="2" transform="rotate(90 545.5 349.5)" fill="#22262C"/>
<rect x="638.509" y="511" width="30" height="21.9331" rx="2" transform="rotate(45 638.509 511)" fill="#22262C"/>
<rect x="359" y="791" width="193" height="31" rx="2" fill="#22262C"/>
<rect x="407.5" y="105.5" width="104" height="47" rx="2" transform="rotate(90 407.5 105.5)" fill="#22262C"/>
<rect x="420.5" y="94.5" width="38" height="25" rx="2" transform="rotate(90 420.5 94.5)" fill="#22262C"/>
<circle cx="480" cy="889" r="56" fill="#22262C"/>
<rect x="497" y="952" width="24" height="78" rx="2" fill="#22262C"/>
<rect x="497" y="952" width="24" height="78" rx="2" fill="#22262C"/>
<rect x="497" y="952" width="24" height="78" rx="2" fill="#22262C"/>
<rect x="497" y="952" width="24" height="78" rx="2" fill="#22262C"/>
<rect x="688" y="1006" width="15" height="41" rx="2" transform="rotate(90 688 1006)" fill="#22262C"/>
<rect x="688" y="1006" width="15" height="41" rx="2" transform="rotate(90 688 1006)" fill="#22262C"/>
<rect x="688" y="1006" width="15" height="41" rx="2" transform="rotate(90 688 1006)" fill="#22262C"/>
<rect x="688" y="1006" width="15" height="41" rx="2" transform="rotate(90 688 1006)" fill="#22262C"/>
<rect x="441" y="952" width="24" height="78" rx="2" fill="#22262C"/>
<rect x="441" y="952" width="24" height="78" rx="2" fill="#22262C"/>
<rect x="441" y="952" width="24" height="78" rx="2" fill="#22262C"/>
<rect x="441" y="952" width="24" height="78" rx="2" fill="#22262C"/>
<rect x="359" y="945" width="44" height="85" rx="2" fill="#22262C"/>
<rect x="359" y="945" width="44" height="85" rx="2" fill="#22262C"/>
<rect x="359" y="945" width="44" height="85" rx="2" fill="#22262C"/>
<rect x="359" y="945" width="44" height="85" rx="2" fill="#22262C"/>
<rect x="392" y="937" width="22" height="30" rx="2" fill="#22262C"/>
<rect x="392" y="937" width="22" height="30" rx="2" fill="#22262C"/>
<rect x="392" y="937" width="22" height="30" rx="2" fill="#22262C"/>
<rect x="392" y="937" width="22" height="30" rx="2" fill="#22262C"/>
<path d="M359 725.5C359 706.446 374.446 691 393.5 691H561.5C580.554 691 596 706.446 596 725.5V760H359V725.5Z" fill="#22262C"/>
<path d="M399 745C399 737.82 404.82 732 412 732V732C419.18 732 425 737.82 425 745V772H399V745Z" fill="#CFD4CD"/>
<path d="M462 745C462 737.82 467.82 732 475 732V732C482.18 732 488 737.82 488 745V772H462V745Z" fill="#CFD4CD"/>
<path d="M525 745C525 737.82 530.82 732 538 732V732C545.18 732 551 737.82 551 745V772H525V745Z" fill="#CFD4CD"/>
<circle cx="426.5" cy="734.5" r="14.5" fill="#22262C"/>
<circle cx="488.5" cy="734.5" r="14.5" fill="#22262C"/>
<circle cx="550.5" cy="734.5" r="14.5" fill="#22262C"/>
<circle cx="495" cy="509" r="65" fill="#22262C"/>
<circle cx="592.5" cy="490.5" r="46.5" fill="#CFD4CD"/>
<circle cx="400.5" cy="532.5" r="46.5" fill="#CFD4CD"/>
<rect x="405.582" y="371.049" width="42" height="17.9353" rx="5.5" transform="rotate(60 405.582 371.049)" fill="#CFD4CD" stroke="#90948F" stroke-width="3"/>
</svg>
