<svg width="1067" height="1068" viewBox="0 0 1067 1068" fill="none" xmlns="http://www.w3.org/2000/svg">
<rect width="1067" height="1068" fill="#1E1E1E"/>
<path d="M1067 0H0V1068H1067V0Z" fill="#22262C"/>
<path d="M825.538 1068H339.564L282.962 1023.98V41.1649L326.986 0H825.538V126.925H705.474V357.334H825.538V1068Z" fill="#CFD4CD"/>
<rect x="652" y="91" width="174" height="344" fill="#CFD4CD"/>
<rect x="351" y="1021" width="49" height="19" rx="1" fill="#22262C"/>
<rect x="719" y="972" width="49" height="19" rx="1" fill="#22262C"/>
<rect x="736" y="81" width="49" height="19" rx="1" fill="#22262C"/>
<rect x="342" y="29" width="49" height="19" rx="1" fill="#22262C"/>
<rect x="395" y="361" width="49" height="19" rx="1" transform="rotate(90 395 361)" fill="#22262C"/>
<rect x="503" y="668" width="164" height="37" rx="1" transform="rotate(-180 503 668)" fill="#22262C"/>
<path d="M481 584C481 585.657 479.657 587 478 587L355 587C353.343 587 352 585.657 352 584L352 532C352 525.925 356.925 521 363 521L470 521C476.075 521 481 525.925 481 532L481 584Z" fill="#22262C"/>
<path d="M410.368 570.734L391.878 586.778C389.805 588.577 391.036 591.985 393.781 592.043L435.937 592.935C437.618 592.971 439 591.618 439 589.936V573C439 571.343 437.657 570 436 570H412.334C411.611 570 410.913 570.261 410.368 570.734Z" fill="#CFD4CD"/>
<circle cx="587.5" cy="787.5" r="27.5" fill="#22262C"/>
<circle cx="769.5" cy="425.5" r="21.5" fill="#22262C"/>
<circle cx="421.5" cy="820.5" r="48.5" fill="#22262C"/>
</svg>
