<svg width="1067" height="1068" viewBox="0 0 1067 1068" fill="none" xmlns="http://www.w3.org/2000/svg">
<rect width="1067" height="1068" fill="#1E1E1E"/>
<g clip-path="url(#clip0_0_1)">
<path d="M1067 0H0V1068H1067V0Z" fill="#1E1E1E"/>
<path d="M1067 0H0V1068H1067V0Z" fill="#22262C"/>
<path d="M825.538 1068H339.564L282.962 1023.98V41.1649L326.986 0H825.538V126.925H705.474V357.334H825.538V1068Z" fill="#CFD4CD"/>
<path d="M330.727 480.66L318.563 458.505C317.522 456.609 318.177 454.228 320.041 453.132L332.715 445.676C334.608 444.563 337.044 445.184 338.173 447.066L351.202 468.78C352.348 470.691 351.712 473.17 349.787 474.293L336.249 482.191C334.306 483.324 331.81 482.633 330.727 480.66Z" fill="#CFD4CD" stroke="#6A6F69" stroke-width="3"/>
<path d="M514.263 355.909L488.321 345.311C487.554 344.998 486.678 345.366 486.365 346.133L481.273 358.597C480.96 359.364 481.327 360.239 482.094 360.553L508.037 371.15C508.804 371.464 509.68 371.096 509.993 370.329L515.085 357.865C515.398 357.098 515.03 356.222 514.263 355.909Z" fill="#CFD4CD" stroke="#6A6F69" stroke-width="3"/>
<path d="M453.61 345.532L427.521 355.765C426.75 356.068 426.37 356.938 426.673 357.709L431.589 370.244C431.892 371.015 432.762 371.395 433.533 371.092L459.622 360.859C460.393 360.557 460.773 359.686 460.471 358.915L455.554 346.381C455.252 345.61 454.381 345.23 453.61 345.532Z" fill="#CFD4CD" stroke="#6A6F69" stroke-width="3"/>
<path d="M514.263 494.591L488.321 505.189C487.554 505.502 486.678 505.134 486.365 504.367L481.273 491.903C480.96 491.136 481.327 490.261 482.094 489.947L508.037 479.35C508.804 479.036 509.68 479.404 509.993 480.171L515.085 492.635C515.398 493.402 515.03 494.278 514.263 494.591Z" fill="#CFD4CD" stroke="#6A6F69" stroke-width="3"/>
<path d="M453.61 504.967L427.521 494.734C426.75 494.431 426.37 493.561 426.673 492.79L431.589 480.255C431.892 479.484 432.762 479.104 433.533 479.407L459.622 489.64C460.393 489.942 460.773 490.813 460.471 491.584L455.554 504.118C455.252 504.889 454.381 505.269 453.61 504.967Z" fill="#CFD4CD" stroke="#6A6F69" stroke-width="3"/>
<path d="M540.235 468.619L550.833 442.677C551.146 441.91 550.778 441.034 550.011 440.721L537.547 435.629C536.78 435.316 535.905 435.684 535.591 436.45L524.994 462.393C524.68 463.16 525.048 464.036 525.815 464.349L538.279 469.441C539.046 469.754 539.922 469.386 540.235 468.619Z" fill="#CFD4CD" stroke="#6A6F69" stroke-width="3"/>
<path d="M550.612 407.965L540.379 381.876C540.076 381.105 539.206 380.725 538.435 381.028L525.9 385.944C525.129 386.247 524.749 387.117 525.052 387.888L535.285 413.977C535.587 414.748 536.458 415.128 537.229 414.826L549.763 409.909C550.534 409.607 550.914 408.736 550.612 407.965Z" fill="#CFD4CD" stroke="#6A6F69" stroke-width="3"/>
<path d="M401.553 468.619L390.955 442.677C390.642 441.91 391.01 441.034 391.777 440.721L404.241 435.629C405.008 435.316 405.883 435.683 406.197 436.45L416.794 462.393C417.108 463.16 416.74 464.036 415.973 464.349L403.509 469.441C402.742 469.754 401.866 469.386 401.553 468.619Z" fill="#CFD4CD" stroke="#6A6F69" stroke-width="3"/>
<path d="M391.177 407.965L401.41 381.876C401.713 381.105 402.583 380.725 403.354 381.028L415.889 385.944C416.66 386.247 417.04 387.117 416.737 387.888L406.504 413.977C406.202 414.748 405.331 415.128 404.56 414.826L392.026 409.909C391.255 409.607 390.875 408.736 391.177 407.965Z" fill="#CFD4CD" stroke="#6A6F69" stroke-width="3"/>
<path d="M554.536 81.1863C571.587 81.1863 585.41 67.3637 585.41 50.3126C585.41 33.2615 571.587 19.4389 554.536 19.4389C537.485 19.4389 523.662 33.2615 523.662 50.3126C523.662 67.3637 537.485 81.1863 554.536 81.1863Z" fill="#22262C"/>
<path d="M761.504 947.935C776.661 947.935 788.947 935.649 788.947 920.492C788.947 905.335 776.661 893.049 761.504 893.049C746.348 893.049 734.061 905.335 734.061 920.492C734.061 935.649 746.348 947.935 761.504 947.935Z" fill="#22262C"/>
<path d="M471.634 498.553C512.367 498.553 545.388 465.532 545.388 424.799C545.388 384.066 512.367 351.045 471.634 351.045C430.901 351.045 397.88 384.066 397.88 424.799C397.88 465.532 430.901 498.553 471.634 498.553Z" fill="#22262C"/>
<path d="M589.983 1028.13V1015.26C589.983 1014.71 589.535 1014.26 588.983 1014.26H564.683C564.131 1014.26 563.683 1014.71 563.683 1015.26V1028.13C563.683 1028.68 564.131 1029.13 564.683 1029.13H588.983C589.535 1029.13 589.983 1028.68 589.983 1028.13Z" fill="#22262C"/>
<path d="M368.007 982.24H380.872C381.424 982.24 381.872 981.792 381.872 981.24V956.94C381.872 956.388 381.424 955.94 380.872 955.94H368.007C367.455 955.94 367.007 956.388 367.007 956.94V981.24C367.007 981.792 367.455 982.24 368.007 982.24Z" fill="#22262C"/>
<path d="M359.003 775.128V801.715C359.003 802.267 359.451 802.715 360.003 802.715H583.266C583.818 802.715 584.266 802.267 584.266 801.715V775.128C584.266 774.576 583.818 774.128 583.266 774.128H360.003C359.451 774.128 359.003 774.576 359.003 775.128Z" fill="#22262C"/>
<path d="M633.435 555.582V571.878C633.435 572.43 633.883 572.878 634.435 572.878H662.165C662.718 572.878 663.165 572.43 663.165 571.878V555.582C663.165 555.03 662.718 554.582 662.165 554.582H634.435C633.883 554.582 633.435 555.03 633.435 555.582Z" fill="#22262C"/>
<path d="M734.06 76.469V92.7645C734.06 93.3168 734.508 93.7645 735.06 93.7645H783.373C783.925 93.7645 784.373 93.3168 784.373 92.7645V76.469C784.373 75.9167 783.925 75.469 783.373 75.469H735.06C734.508 75.469 734.06 75.9167 734.06 76.469Z" fill="#22262C"/>
<path d="M359.359 132.286V103.269H374.655V132.286H359.359Z" stroke="#6A6F69" stroke-width="3"/>
<path d="M612.853 728.39V650.634H331.56V728.39H612.853Z" fill="#22262C"/>
<path d="M393.307 241.559V179.238C393.307 178.133 392.412 177.238 391.307 177.238H330.129C329.025 177.238 328.129 178.133 328.129 179.238V241.559C328.129 242.664 329.025 243.559 330.129 243.559H391.307C392.412 243.559 393.307 242.664 393.307 241.559Z" fill="#22262C"/>
<path d="M756.93 1028.13V1015.26C756.93 1014.71 756.482 1014.26 755.93 1014.26H713.335C712.782 1014.26 712.335 1014.71 712.335 1015.26V1028.13C712.335 1028.68 712.782 1029.13 713.335 1029.13H755.93C756.482 1029.13 756.93 1028.68 756.93 1028.13Z" fill="#22262C"/>
<path d="M589.765 459.476L572.175 479.799C570.549 481.678 570.753 484.52 572.632 486.146L577.393 490.266C579.272 491.893 582.114 491.688 583.74 489.809L601.33 469.486C602.957 467.607 602.752 464.765 600.873 463.139L596.113 459.018C594.234 457.392 591.392 457.597 589.765 459.476Z" fill="#CFD4CD" stroke="#6A6F69" stroke-width="3"/>
<path d="M604.63 472.054L587.04 492.377C585.413 494.256 585.618 497.098 587.497 498.724L592.258 502.844C594.137 504.471 596.979 504.266 598.605 502.387L616.195 482.064C617.822 480.185 617.617 477.343 615.738 475.717L610.978 471.596C609.099 469.97 606.257 470.175 604.63 472.054Z" fill="#CFD4CD" stroke="#6A6F69" stroke-width="3"/>
<path d="M415.032 709.523C415.032 698.471 406.073 689.512 395.022 689.512C383.97 689.512 375.011 698.471 375.011 709.523V736.966C375.011 748.018 383.97 756.977 395.022 756.977C406.073 756.977 415.032 748.018 415.032 736.966V709.523Z" fill="#CFD4CD"/>
<path d="M495.075 711.81C495.075 700.758 486.116 691.799 475.065 691.799C464.013 691.799 455.054 700.758 455.054 711.81V739.253C455.054 750.305 464.013 759.264 475.065 759.264C486.116 759.264 495.075 750.305 495.075 739.253V711.81Z" fill="#CFD4CD"/>
<path d="M576.261 711.81C576.261 700.758 567.302 691.799 556.251 691.799C545.199 691.799 536.24 700.758 536.24 711.81V739.253C536.24 750.305 545.199 759.264 556.251 759.264C567.302 759.264 576.261 750.305 576.261 739.253V711.81Z" fill="#CFD4CD"/>
<path d="M549.113 690.323L577.27 717.995C578.205 718.914 579.757 718.699 580.408 717.561L589.635 701.414C590.154 700.505 589.885 699.35 589.018 698.764L569.975 685.898C569.603 685.646 569.157 685.527 568.71 685.56L550.369 686.902C548.653 687.028 547.886 689.117 549.113 690.323Z" fill="#22262C"/>
<path d="M424.525 708.224C432.477 703.066 433.623 690.712 427.084 680.631C420.546 670.549 408.798 666.558 400.845 671.716C392.893 676.874 391.747 689.228 398.286 699.309C404.825 709.391 416.572 713.382 424.525 708.224Z" fill="#22262C"/>
<path d="M504.568 707.916C512.52 702.759 513.666 690.404 507.127 680.323C500.589 670.241 488.841 666.25 480.888 671.408C472.936 676.565 471.79 688.92 478.329 699.001C484.868 709.083 496.615 713.074 504.568 707.916Z" fill="#22262C"/>
<circle cx="469.971" cy="889.971" r="62.9705" fill="#22262C"/>
<path d="M407 955.946V1001.34C407 1002.59 407.777 1003.71 408.95 1004.15L452.427 1020.4C454.387 1021.13 456.477 1019.68 456.477 1017.58V968.682C456.477 967.35 455.599 966.177 454.32 965.803L410.843 953.067C408.923 952.505 407 953.945 407 955.946Z" fill="#22262C"/>
<path d="M532.441 955.447V1000.84C532.441 1002.09 531.664 1003.21 530.492 1003.65L487.015 1019.9C485.054 1020.63 482.964 1019.18 482.964 1017.09V968.182C482.964 966.85 483.843 965.678 485.121 965.303L528.598 952.568C530.519 952.005 532.441 953.445 532.441 955.447Z" fill="#22262C"/>
<path d="M371.247 573.221L377.302 627.721C377.415 628.734 378.271 629.5 379.29 629.5H404.632C405.684 629.5 406.556 628.686 406.627 627.636L410.354 573.136C410.433 571.981 409.517 571 408.359 571H373.235C372.043 571 371.115 572.036 371.247 573.221Z" fill="#22262C"/>
<path d="M439 315.5H539C541.209 315.5 543 313.709 543 311.5V301C543 298.791 541.209 297 539 297H531.5C529.291 297 527.5 295.209 527.5 293V178C527.5 175.791 529.291 174 531.5 174H537C539.209 174 541 172.209 541 170V159C541 156.791 539.209 155 537 155H439C436.791 155 435 156.791 435 159V180.5C435 182.709 433.209 184.5 431 184.5H427C424.791 184.5 423 186.291 423 188.5V212C423 214.209 424.791 216 427 216H431C433.209 216 435 217.791 435 220V254.5C435 256.709 433.209 258.5 431 258.5H427C424.791 258.5 423 260.291 423 262.5V284C423 286.209 424.791 288 427 288H431C433.209 288 435 289.791 435 292V311.5C435 313.709 436.791 315.5 439 315.5Z" fill="#22262C"/>
</g>
<defs>
<clipPath id="clip0_0_1">
<rect width="1067" height="1068" fill="white"/>
</clipPath>
</defs>
</svg>
