<svg width="1067" height="1068" viewBox="0 0 1067 1068" fill="none" xmlns="http://www.w3.org/2000/svg">
<rect width="1067" height="1068" fill="#1E1E1E"/>
<path d="M1067 0H0V1068H1067V0Z" fill="#22262C"/>
<path d="M354 1067H745V357.5H621.5V128H745V0H344L323 21V1036L354 1067Z" fill="#CFD4CD"/>
<path d="M367 662C367 652.611 374.611 645 384 645H628C637.389 645 645 652.611 645 662V723H367V662Z" fill="#22262C"/>
<rect x="651" y="77" width="48" height="20" rx="1" fill="#22262C"/>
<rect x="393" y="108" width="17" height="31" rx="1" fill="#22262C"/>
<rect x="400" y="948" width="17" height="26" rx="1" fill="#22262C"/>
<rect x="637" y="999" width="45" height="17" rx="1" fill="#22262C"/>
<rect x="367" y="181" width="62" height="66" rx="8" fill="#22262C"/>
<circle cx="613" cy="933" r="25" fill="#22262C"/>
<circle cx="502" cy="871" r="63" fill="#22262C"/>
<circle cx="375" cy="528" r="27" fill="#22262C"/>
<circle cx="502" cy="871" r="63" fill="#22262C"/>
<rect x="391" y="767" width="214" height="30" rx="3" fill="#22262C"/>
<path d="M554 951H450C443.925 951 439 956.652 439 963.625V1039.38C439 1046.35 443.925 1052 450 1052H554C560.075 1052 565 1046.35 565 1039.38V963.625C565 956.652 560.075 951 554 951Z" stroke="#7E827C" stroke-width="4"/>
<path d="M483 939H461C459.343 939 458 940.343 458 942V1021.76C458 1023.42 459.343 1024.76 461 1024.76H483C484.657 1024.76 486 1023.42 486 1021.76V942C486 940.343 484.657 939 483 939Z" fill="#22262C"/>
<path d="M543 939H521C519.343 939 518 940.343 518 942V1021.76C518 1023.42 519.343 1024.76 521 1024.76H543C544.657 1024.76 546 1023.42 546 1021.76V942C546 940.343 544.657 939 543 939Z" fill="#22262C"/>
<path d="M545.875 356.165L519.933 345.567C519.166 345.254 518.29 345.622 517.977 346.389L512.885 358.853C512.572 359.62 512.939 360.495 513.706 360.809L539.649 371.406C540.416 371.72 541.292 371.352 541.605 370.585L546.697 358.121C547.01 357.354 546.642 356.478 545.875 356.165Z" fill="#CFD4CD" stroke="#6A6F69" stroke-width="3"/>
<path d="M485.222 345.788L459.133 356.021C458.362 356.324 457.982 357.194 458.285 357.965L463.201 370.5C463.504 371.271 464.374 371.651 465.145 371.348L491.234 361.115C492.005 360.813 492.385 359.942 492.083 359.171L487.166 346.637C486.864 345.866 485.993 345.486 485.222 345.788Z" fill="#CFD4CD" stroke="#6A6F69" stroke-width="3"/>
<path d="M545.875 494.847L519.933 505.445C519.166 505.758 518.29 505.39 517.977 504.623L512.885 492.159C512.572 491.392 512.939 490.517 513.706 490.203L539.649 479.606C540.416 479.292 541.292 479.66 541.605 480.427L546.697 492.891C547.01 493.658 546.642 494.534 545.875 494.847Z" fill="#CFD4CD" stroke="#6A6F69" stroke-width="3"/>
<path d="M485.222 505.223L459.133 494.99C458.362 494.687 457.982 493.817 458.285 493.046L463.201 480.511C463.504 479.74 464.374 479.36 465.145 479.663L491.234 489.896C492.005 490.198 492.385 491.069 492.083 491.84L487.166 504.374C486.864 505.145 485.993 505.525 485.222 505.223Z" fill="#CFD4CD" stroke="#6A6F69" stroke-width="3"/>
<path d="M571.847 468.875L582.445 442.933C582.758 442.166 582.39 441.29 581.623 440.977L569.159 435.885C568.392 435.572 567.517 435.94 567.203 436.707L556.606 462.649C556.292 463.416 556.66 464.292 557.427 464.605L569.891 469.697C570.658 470.01 571.534 469.642 571.847 468.875Z" fill="#CFD4CD" stroke="#6A6F69" stroke-width="3"/>
<path d="M582.224 408.221L571.991 382.132C571.688 381.361 570.818 380.981 570.047 381.284L557.512 386.2C556.741 386.503 556.361 387.373 556.664 388.144L566.897 414.233C567.199 415.004 568.07 415.384 568.841 415.082L581.375 410.165C582.146 409.863 582.526 408.992 582.224 408.221Z" fill="#CFD4CD" stroke="#6A6F69" stroke-width="3"/>
<path d="M433.165 468.875L422.567 442.933C422.254 442.166 422.622 441.29 423.389 440.977L435.853 435.885C436.62 435.572 437.495 435.939 437.809 436.706L448.406 462.649C448.72 463.416 448.352 464.292 447.585 464.605L435.121 469.697C434.354 470.01 433.478 469.642 433.165 468.875Z" fill="#CFD4CD" stroke="#6A6F69" stroke-width="3"/>
<path d="M422.789 408.221L433.022 382.132C433.325 381.361 434.195 380.981 434.966 381.284L447.501 386.2C448.272 386.503 448.652 387.373 448.35 388.144L438.116 414.233C437.814 415.004 436.944 415.384 436.172 415.082L423.638 410.165C422.867 409.863 422.487 408.992 422.789 408.221Z" fill="#CFD4CD" stroke="#6A6F69" stroke-width="3"/>
<path d="M503.246 498.809C543.979 498.809 577 465.788 577 425.055C577 384.322 543.979 351.301 503.246 351.301C462.513 351.301 429.492 384.322 429.492 425.055C429.492 465.788 462.513 498.809 503.246 498.809Z" fill="#22262C"/>
<path d="M482 181V217C482 218.105 481.105 219 480 219H479.5C478.395 219 477.5 219.895 477.5 221V264.5C477.5 265.605 478.395 266.5 479.5 266.5H480C481.105 266.5 482 267.395 482 268.5V307C482 308.105 482.895 309 484 309H571.5C572.605 309 573.5 308.105 573.5 307V181C573.5 179.895 572.605 179 571.5 179H484C482.895 179 482 179.895 482 181Z" fill="#22262C"/>
<path d="M407.423 580.391L410.639 621.391C410.843 623.993 413.013 626 415.623 626H427.785C430.433 626 432.621 623.936 432.777 621.294L435.189 580.294C435.358 577.422 433.074 575 430.197 575H412.408C409.492 575 407.195 577.484 407.423 580.391Z" fill="#22262C"/>
<path d="M445.021 703.454C445.021 692.403 436.062 683.444 425.011 683.444C413.959 683.444 405 692.403 405 703.454V730.898C405 741.949 413.959 750.908 425.011 750.908C436.062 750.908 445.021 741.949 445.021 730.898V703.454Z" fill="#CFD4CD"/>
<path d="M525.064 705.741C525.064 694.69 516.105 685.731 505.054 685.731C494.002 685.731 485.043 694.69 485.043 705.741V733.185C485.043 744.236 494.002 753.195 505.054 753.195C516.105 753.195 525.064 744.236 525.064 733.185V705.741Z" fill="#CFD4CD"/>
<path d="M606.25 705.741C606.25 694.69 597.291 685.731 586.24 685.731C575.188 685.731 566.229 694.69 566.229 705.741V733.185C566.229 744.236 575.188 753.195 586.24 753.195C597.291 753.195 606.25 744.236 606.25 733.185V705.741Z" fill="#CFD4CD"/>
<path d="M579.102 684.255L607.259 711.927C608.194 712.846 609.746 712.631 610.397 711.493L619.624 695.346C620.143 694.437 619.874 693.282 619.007 692.696L599.964 679.83C599.592 679.578 599.146 679.459 598.699 679.492L580.358 680.834C578.642 680.96 577.875 683.049 579.102 684.255Z" fill="#22262C"/>
<path d="M454.514 702.156C462.466 696.998 463.612 684.644 457.073 674.562C450.535 664.481 438.787 660.489 430.834 665.647C422.882 670.805 421.736 683.159 428.275 693.241C434.814 703.323 446.561 707.314 454.514 702.156Z" fill="#22262C"/>
<path d="M534.557 701.848C542.509 696.69 543.655 684.336 537.116 674.254C530.578 664.173 518.83 660.181 510.877 665.339C502.925 670.497 501.779 682.851 508.318 692.933C514.857 703.015 526.604 707.006 534.557 701.848Z" fill="#22262C"/>
<rect x="688.5" y="382.5" width="26" height="549" rx="13" fill="#CFD4CD" stroke="#7E827C" stroke-width="3"/>
<path d="M652.535 470.402L634.945 490.725C633.319 492.604 633.523 495.446 635.402 497.073L640.163 501.193C642.042 502.819 644.884 502.614 646.51 500.735L664.1 480.413C665.727 478.533 665.522 475.692 663.643 474.065L658.883 469.945C657.004 468.319 654.162 468.523 652.535 470.402Z" fill="#CFD4CD" stroke="#6A6F69" stroke-width="3"/>
<path d="M667.4 482.98L649.81 503.303C648.184 505.182 648.388 508.024 650.267 509.651L655.028 513.771C656.907 515.397 659.749 515.192 661.375 513.313L678.965 492.991C680.592 491.111 680.387 488.27 678.508 486.643L673.748 482.523C671.869 480.897 669.027 481.101 667.4 482.98Z" fill="#CFD4CD" stroke="#6A6F69" stroke-width="3"/>
<path d="M354.375 445.402L371.965 465.725C373.592 467.604 373.387 470.446 371.508 472.073L366.748 476.193C364.869 477.819 362.027 477.614 360.4 475.735L342.81 455.413C341.184 453.533 341.388 450.692 343.267 449.065L348.028 444.945C349.907 443.319 352.749 443.523 354.375 445.402Z" fill="#CFD4CD" stroke="#6A6F69" stroke-width="3"/>
<path d="M339.51 457.98L357.1 478.303C358.727 480.182 358.522 483.024 356.643 484.651L351.883 488.771C350.004 490.397 347.162 490.192 345.535 488.313L327.945 467.991C326.319 466.111 326.523 463.27 328.402 461.643L333.163 457.523C335.042 455.897 337.884 456.101 339.51 457.98Z" fill="#CFD4CD" stroke="#6A6F69" stroke-width="3"/>
</svg>
