<svg width="1067" height="1068" viewBox="0 0 1067 1068" fill="none" xmlns="http://www.w3.org/2000/svg">
<rect width="1067" height="1068" fill="#1E1E1E"/>
<path d="M1067 0H0V1068H1067V0Z" fill="#22262C"/>
<path d="M412.414 1067H670C670.552 1067 671 1066.55 671 1066V410.5C671 409.948 670.552 409.5 670 409.5H576C575.448 409.5 575 409.052 575 408.5V194C575 193.448 575.448 193 576 193H670C670.552 193 671 192.552 671 192V1C671 0.447715 670.552 0 670 0H413.414C413.149 0 412.895 0.105356 412.707 0.292892L397.293 15.7071C397.105 15.8946 397 16.1489 397 16.4142V1051.59C397 1051.85 397.105 1052.11 397.293 1052.29L411.707 1066.71C411.895 1066.89 412.149 1067 412.414 1067Z" fill="#CFD4CD"/>
<path d="M415 714.5C415 695.446 430.12 680 448.772 680H613.228C631.88 680 647 695.446 647 714.5V749H415V714.5Z" fill="#22262C"/>
<path d="M455 734C455 726.82 460.82 721 468 721C475.18 721 481 726.82 481 734V761H455V734Z" fill="#CFD4CD"/>
<path d="M518 734C518 726.82 523.82 721 531 721C538.18 721 544 726.82 544 734V761H518V734Z" fill="#CFD4CD"/>
<path d="M581 734C581 726.82 586.82 721 594 721C601.18 721 607 726.82 607 734V761H581V734Z" fill="#CFD4CD"/>
<path d="M482.5 738C490.508 738 497 731.508 497 723.5C497 715.492 490.508 709 482.5 709C474.492 709 468 715.492 468 723.5C468 731.508 474.492 738 482.5 738Z" fill="#22262C"/>
<path d="M544.5 738C552.508 738 559 731.508 559 723.5C559 715.492 552.508 709 544.5 709C536.492 709 530 715.492 530 723.5C530 731.508 536.492 738 544.5 738Z" fill="#22262C"/>
<path d="M606.5 738C614.508 738 621 731.508 621 723.5C621 715.492 614.508 709 606.5 709C598.492 709 592 715.492 592 723.5C592 731.508 598.492 738 606.5 738Z" fill="#22262C"/>
<path d="M637 41H591C589.895 41 589 41.8954 589 43V60C589 61.1046 589.895 62 591 62H637C638.105 62 639 61.1046 639 60V43C639 41.8954 638.105 41 637 41Z" fill="#22262C"/>
<path d="M563 180V104C563 102.895 562.105 102 561 102H544C542.895 102 542 102.895 542 104V180C542 181.105 542.895 182 544 182H561C562.105 182 563 181.105 563 180Z" fill="#22262C"/>
<path d="M556 270V244C556 242.895 555.275 242 554.381 242H540.619C539.725 242 539 242.895 539 244V270C539 271.105 539.725 272 540.619 272H554.381C555.275 272 556 271.105 556 270Z" fill="#22262C"/>
<path d="M556 360V334C556 332.895 555.105 332 554 332H541C539.895 332 539 332.895 539 334V360C539 361.105 539.895 362 541 362H554C555.105 362 556 361.105 556 360Z" fill="#22262C"/>
<path d="M459 196V96C459 94.8954 458.105 94 457 94H414C412.895 94 412 94.8954 412 96V196C412 197.105 412.895 198 414 198H457C458.105 198 459 197.105 459 196Z" fill="#22262C"/>
<path d="M472 119V85C472 83.8954 471.105 83 470 83H449C447.895 83 447 83.8954 447 85V119C447 120.105 447.895 121 449 121H470C471.105 121 472 120.105 472 119Z" fill="#22262C"/>
<path d="M517 566C552.899 566 582 536.899 582 501C582 465.101 552.899 436 517 436C481.101 436 452 465.101 452 501C452 536.899 481.101 566 517 566Z" fill="#22262C"/>
<path d="M601 521C621.987 521 639 503.987 639 483C639 462.013 621.987 445 601 445C580.013 445 563 462.013 563 483C563 503.987 580.013 521 601 521Z" fill="#CFD4CD"/>
<path d="M435 557C455.987 557 473 539.987 473 519C473 498.013 455.987 481 435 481C414.013 481 397 498.013 397 519C397 539.987 414.013 557 435 557Z" fill="#CFD4CD"/>
<path d="M453.782 393.61L438.282 366.763C436.764 364.133 433.4 363.231 430.769 364.75L424.763 368.218C422.133 369.736 421.231 373.1 422.75 375.731L438.25 402.578C439.769 405.208 443.133 406.11 445.763 404.591L451.769 401.123C454.4 399.604 455.301 396.241 453.782 393.61Z" fill="#CFD4CD" stroke="#90948F" stroke-width="3"/>
<path d="M659.308 516.799L640.923 498.414C640.142 497.633 638.876 497.633 638.095 498.414L625.414 511.095C624.633 511.876 624.633 513.142 625.414 513.923L643.799 532.308C644.58 533.089 645.846 533.089 646.627 532.308L659.308 519.627C660.089 518.846 660.089 517.58 659.308 516.799Z" fill="#22262C"/>
<path d="M620.865 789H419.135C417.956 789 417 789.895 417 791V818C417 819.105 417.956 820 419.135 820H620.865C622.044 820 623 819.105 623 818V791C623 789.895 622.044 789 620.865 789Z" fill="#22262C"/>
<path d="M523 953C553.928 953 579 927.928 579 897C579 866.072 553.928 841 523 841C492.072 841 467 866.072 467 897C467 927.928 492.072 953 523 953Z" fill="#22262C"/>
<path d="M560.5 960.5H485.5C476.94 960.5 470 967.44 470 976V1035C470 1043.56 476.94 1050.5 485.5 1050.5H560.5C569.06 1050.5 576 1043.56 576 1035V976C576 967.44 569.06 960.5 560.5 960.5Z" fill="#CFD4CD" stroke="#90948F" stroke-width="3"/>
<path d="M560.5 959H540.5C539.395 959 538.5 959.895 538.5 961V1035C538.5 1036.1 539.395 1037 540.5 1037H560.5C561.605 1037 562.5 1036.1 562.5 1035V961C562.5 959.895 561.605 959 560.5 959Z" fill="#22262C"/>
<path d="M504.5 959H484.5C483.395 959 482.5 959.895 482.5 961V1035C482.5 1036.1 483.395 1037 484.5 1037H504.5C505.605 1037 506.5 1036.1 506.5 1035V961C506.5 959.895 505.605 959 504.5 959Z" fill="#22262C"/>
<path d="M451 940H411C409.895 940 409 940.895 409 942V1023C409 1024.1 409.895 1025 411 1025H451C452.105 1025 453 1024.1 453 1023V942C453 940.895 452.105 940 451 940Z" fill="#22262C"/>
<path d="M462 932H444C442.895 932 442 932.895 442 934V960C442 961.105 442.895 962 444 962H462C463.105 962 464 961.105 464 960V934C464 932.895 463.105 932 462 932Z" fill="#22262C"/>
<rect x="584" y="1010" width="42" height="15" rx="1" fill="#22262C"/>
</svg>
