<svg width="1067" height="1068" viewBox="0 0 1067 1068" fill="none" xmlns="http://www.w3.org/2000/svg">
<rect width="1067" height="1068" fill="#1E1E1E"/>
<path d="M1067 0H0V1068H1067V0Z" fill="#22262C"/>
<path d="M426.224 0L233.585 58.8897L254.546 79.3514C280.331 90.3308 332.899 112.589 336.892 113.787C340.884 114.985 460.327 143.564 519.55 157.705L706.699 73.8617L426.224 0Z" fill="#333334"/>
<path d="M858.415 10.9794L520.548 145.228V1068L824.478 827.949L858.415 10.9794Z" fill="#454547"/>
<path d="M544.004 245.883V534.178C544.004 536.513 546.553 537.952 548.553 536.747L576.489 519.903C577.39 519.36 577.94 518.385 577.94 517.334V497.819C577.94 496.739 578.521 495.742 579.462 495.209L659.8 449.7C661.8 448.567 664.278 450.011 664.278 452.31V467.557C664.278 469.943 666.929 471.374 668.924 470.065L694.865 453.042C695.71 452.487 696.219 451.544 696.219 450.534V178.597C696.219 176.35 693.84 174.901 691.844 175.931L665.904 189.306C664.906 189.821 664.278 190.849 664.278 191.972V210.258C664.278 211.389 663.642 212.425 662.632 212.935L577.802 255.816C575.807 256.825 573.449 255.375 573.449 253.139V233.962C573.449 231.723 571.085 230.273 569.089 231.288L545.644 243.209C544.638 243.721 544.004 244.754 544.004 245.883Z" fill="#22262C"/>
<ellipse cx="610.852" cy="593.594" rx="41.6037" ry="76.8952" transform="rotate(22.3849 610.852 593.594)" fill="#22262C"/>
<ellipse cx="601.753" cy="753.945" rx="41.6037" ry="76.8952" transform="rotate(22.3849 601.753 753.945)" fill="#22262C"/>
<ellipse cx="601.753" cy="905.945" rx="41.6037" ry="76.8952" transform="rotate(22.3849 601.753 905.945)" fill="#22262C"/>
<ellipse cx="769.595" cy="792.673" rx="18.702" ry="34.5666" transform="rotate(22.3849 769.595 792.673)" fill="#22262C"/>
<ellipse cx="786.563" cy="158.86" rx="18.702" ry="34.5666" transform="rotate(22.3849 786.563 158.86)" fill="#22262C"/>
<path d="M233.585 58.8897L520.548 145.228V1067.5L299.961 915.286L233.585 58.8897Z" fill="#3C3C3E"/>
<path d="M470.41 827.684L332.561 753.868C327.04 750.912 320.417 755.159 320.799 761.41L324.159 816.277C324.319 818.899 325.757 821.275 328.004 822.634L462.494 903.953C467.826 907.177 474.634 903.338 474.634 897.108V834.737C474.634 831.787 473.01 829.077 470.41 827.684Z" fill="#505053" stroke="#343435" stroke-width="5"/>
<path d="M291.623 331.244L286.33 254.286C285.933 248.521 291.592 244.25 297.027 246.212L466.854 307.513C470.025 308.658 472.138 311.667 472.138 315.038V392.68C472.138 398.271 466.55 402.138 461.318 400.167L296.784 338.181C293.855 337.078 291.838 334.367 291.623 331.244Z" fill="#505053" stroke="#343435" stroke-width="5"/>
<ellipse cx="296.22" cy="177.136" rx="25.7531" ry="40.8699" transform="rotate(-27.9553 296.22 177.136)" fill="#22262C"/>
<ellipse cx="344.722" cy="885.571" rx="22.8806" ry="36.3113" transform="rotate(-27.9553 344.722 885.571)" fill="#22262C"/>
</svg>
