<svg width="1067" height="1069" viewBox="0 0 1067 1069" fill="none" xmlns="http://www.w3.org/2000/svg">
<rect width="1067" height="1069" fill="#1E1E1E"/>
<path d="M1067 0H0V1068H1067V0Z" fill="#22262C"/>
<rect x="276" width="515" height="400" rx="67" fill="#CFD4CD"/>
<rect x="430" y="386" width="208" height="683" rx="5" fill="#CFD4CD"/>
<circle cx="532" cy="130" r="71" fill="#22262C"/>
<mask id="mask0_0_1" style="mask-type:luminance" maskUnits="userSpaceOnUse" x="340" y="228" width="387" height="119">
<path d="M727 228H340V346.47H727V228Z" fill="white"/>
</mask>
<g mask="url(#mask0_0_1)">
<path d="M578.923 275.942V326.646V329.646H581.923H597.818H600.82L600.818 326.643L600.779 275.251C600.779 275.251 600.779 275.251 600.779 275.251C600.776 268.755 603.274 262.668 607.82 258.086C612.368 253.503 618.393 250.987 624.812 250.987C630.55 250.987 636.112 253.064 640.47 256.838C644.827 260.612 647.704 265.85 648.571 271.586L656.556 324.597C656.991 327.489 659.446 329.637 662.393 329.637C665.34 329.637 667.795 327.489 668.229 324.597L676.215 271.586C677.081 265.846 679.96 260.608 684.317 256.834C688.675 253.06 694.236 250.982 699.974 250.982C713.214 250.982 724.016 261.841 724.001 275.224V275.227V343.227H710.323V275.227C710.323 269.508 705.707 264.815 699.968 264.815C694.793 264.815 690.491 268.565 689.718 273.665L689.718 273.667L681.731 326.68C681.027 331.356 678.681 335.626 675.13 338.702C671.577 341.777 667.049 343.469 662.375 343.469C657.701 343.469 653.173 341.777 649.62 338.702C646.071 335.62 643.722 331.352 643.019 326.68L643.019 326.68L635.033 273.667L635.032 273.665C634.26 268.567 629.959 264.815 624.793 264.815C622.025 264.815 619.408 265.905 617.457 267.877L617.456 267.878C615.514 269.843 614.438 272.464 614.438 275.232V275.234L614.477 327.581C614.481 331.838 612.846 335.823 609.87 338.823L609.867 338.826C606.896 341.828 602.957 343.469 598.755 343.469H572.072H562.233H525.989C511.703 343.469 500.038 331.746 500.038 317.291C500.038 304.352 509.219 293.504 521.845 291.445L521.846 291.445L556.793 285.744L556.794 285.744C561.695 284.943 565.237 280.726 565.237 275.768C565.237 269.746 560.373 264.815 554.347 264.815H460.12H457.12V267.815V326.633V329.633H460.12H486.832V343.465H459.174C450.528 343.465 443.448 336.363 443.448 327.591V267.811V264.811H440.448H366.772C361.181 264.811 356.678 269.382 356.678 274.96C356.678 279.947 360.237 284.182 365.165 284.983L365.167 284.983L405.118 291.453C405.119 291.453 405.119 291.453 405.119 291.453C417.758 293.502 426.948 304.346 426.948 317.295C426.948 331.746 415.287 343.465 401.006 343.465H343.948V329.633H401.006C407.792 329.633 413.272 324.078 413.272 317.295C413.272 311.227 408.943 306.083 402.956 305.112L402.955 305.112L363.002 298.64L363.002 298.64C351.422 296.765 343 286.833 343 274.964C343 261.722 353.69 250.982 366.772 250.982H440.448H443.448V247.982V231H457.122V247.982V250.982H460.122H554.36C567.773 250.982 578.742 261.902 578.917 275.438L578.923 275.942ZM558.972 299.396C558.971 299.396 558.971 299.396 558.971 299.396L524.027 305.096C524.027 305.096 524.027 305.096 524.027 305.096C518.04 306.071 513.715 311.221 513.715 317.287C513.715 324.077 519.197 329.637 525.993 329.637H562.237H565.237V326.637V301.744V297.814L561.446 298.85C560.63 299.073 559.805 299.258 558.972 299.396Z" stroke="#9CA099" stroke-width="6"/>
</g>
</svg>
