<svg width="1067" height="1068" viewBox="0 0 1067 1068" fill="none" xmlns="http://www.w3.org/2000/svg">
<rect width="1067" height="1068" fill="#1E1E1E"/>
<path d="M1067 0H0V1068H1067V0Z" fill="#22262C"/>
<rect x="455" width="178" height="1068" rx="2" fill="#646567"/>
<rect x="477" y="158" width="133" height="265" rx="2" fill="#22262C"/>
<path d="M446 213H544C554.493 213 563 221.507 563 232V366C563 376.493 554.493 385 544 385H446V213Z" fill="#646567"/>
<rect x="507" y="625" width="74" height="333" rx="2" fill="#22262C"/>
<path d="M497.989 150.485L471.026 178.547L469 142.604L497.989 150.485Z" fill="#646567"/>
<circle cx="544" cy="83" r="26" fill="#22262C"/>
<circle cx="544" cy="537" r="26" fill="#22262C"/>
<circle cx="544" cy="1015" r="26" fill="#22262C"/>
<path d="M362 190C362 165.699 381.699 146 406 146H469V448H406C381.699 448 362 428.301 362 404V190Z" fill="#646567"/>
<rect x="477" y="213" width="23" height="172" fill="#4E4F51"/>
</svg>
