<svg width="1067" height="1068" viewBox="0 0 1067 1068" fill="none" xmlns="http://www.w3.org/2000/svg">
<rect width="1067" height="1068" fill="#1E1E1E"/>
<path d="M1067 0H0V1068H1067V0Z" fill="#22262C"/>
<rect x="410" y="33" width="247.793" height="1002.44" rx="2" fill="#878787"/>
<rect x="479.457" y="335.233" width="107.94" height="434.577" rx="2" fill="#22262C"/>
<circle cx="534" cy="921" r="36" fill="#686868"/>
<circle cx="534" cy="152" r="36" fill="#686868"/>
<circle cx="533.897" cy="152.204" r="27.2197" fill="#22262C"/>
<circle cx="533.897" cy="920.927" r="27.2197" fill="#22262C"/>
<rect x="366" y="289.985" width="342" height="43.9255" transform="rotate(-20.0024 366 289.985)" fill="#D9D9D9"/>
<rect x="337" y="246" width="73" height="114" fill="#22262C"/>
<rect x="658" y="152" width="73" height="114" fill="#22262C"/>
<g clip-path="url(#clip0_0_1)">
<path d="M1067 0H0V1068H1067V0Z" fill="#1E1E1E"/>
<path d="M1067 0H0V1068H1067V0Z" fill="#22262C"/>
<path d="M616 0H442C440.895 0 440 0.89543 440 2V1066C440 1067.1 440.895 1068 442 1068H616C617.105 1068 618 1067.1 618 1066V2C618 0.89543 617.105 0 616 0Z" fill="#878787"/>
<path d="M593 158H464C462.895 158 462 158.895 462 160V421C462 422.105 462.895 423 464 423H593C594.105 423 595 422.105 595 421V160C595 158.895 594.105 158 593 158Z" fill="#22262C"/>
<path d="M626 213H528C517.507 213 509 221.507 509 232V366C509 376.493 517.507 385 528 385H626V213Z" fill="#878787"/>
<path d="M564 625H494C492.895 625 492 625.895 492 627V956C492 957.105 492.895 958 494 958H564C565.105 958 566 957.105 566 956V627C566 625.895 565.105 625 564 625Z" fill="#22262C"/>
<path d="M482.989 150.485L456.026 178.547L454 142.604L482.989 150.485Z" fill="#878787"/>
<path d="M529 109C543.359 109 555 97.3594 555 83C555 68.6406 543.359 57 529 57C514.641 57 503 68.6406 503 83C503 97.3594 514.641 109 529 109Z" fill="#22262C"/>
<path d="M529 563C543.359 563 555 551.359 555 537C555 522.641 543.359 511 529 511C514.641 511 503 522.641 503 537C503 551.359 514.641 563 529 563Z" fill="#22262C"/>
<path d="M529 1041C543.359 1041 555 1029.36 555 1015C555 1000.64 543.359 989 529 989C514.641 989 503 1000.64 503 1015C503 1029.36 514.641 1041 529 1041Z" fill="#22262C"/>
<path d="M712 190C712 165.699 692.301 146 668 146H605V448H668C692.301 448 712 428.301 712 404V190Z" fill="#878787"/>
<path d="M572 213H595V385H572V213Z" fill="#686868"/>
<path d="M657.356 480.087L403.47 438.022L398.385 468.715L652.271 510.779L657.356 480.087Z" fill="#D9D9D9"/>
<path d="M440 423H389V494H440V423Z" fill="#22262C"/>
<path d="M664 460H618V531H664V460Z" fill="#22262C"/>
</g>
<defs>
<clipPath id="clip0_0_1">
<rect width="1067" height="1068" fill="white"/>
</clipPath>
</defs>
</svg>
