<svg width="1067" height="1068" viewBox="0 0 1067 1068" fill="none" xmlns="http://www.w3.org/2000/svg">
<rect width="1067" height="1068" fill="#1E1E1E"/>
<g clip-path="url(#clip0_0_1)">
<path d="M1067 0H0V1068H1067V0Z" fill="#1E1E1E"/>
<path d="M1067 0H0V1068H1067V0Z" fill="#22262C"/>
<path d="M393 123C393 121.343 394.343 120 396 120H461V397H396C394.343 397 393 395.657 393 394V123Z" fill="#878787"/>
<path d="M621 87C621 38.9512 582.049 0 534 0C485.951 0 447 38.9512 447 87V981C447 1029.05 485.951 1068 534 1068C582.049 1068 621 1029.05 621 981V87Z" fill="#878787"/>
<mask id="mask0_0_1" style="mask-type:alpha" maskUnits="userSpaceOnUse" x="447" y="0" width="174" height="1068">
<path d="M621 87C621 38.9512 582.049 0 534 0C485.951 0 447 38.9512 447 87V981C447 1029.05 485.951 1068 534 1068C582.049 1068 621 1029.05 621 981V87Z" fill="#878787"/>
</mask>
<g mask="url(#mask0_0_1)">
<rect x="276" y="540.25" width="566" height="39" transform="rotate(-29.2141 276 540.25)" fill="#D9D9D9"/>
<path d="M587 120H478C476.343 120 475 121.343 475 123V394C475 395.657 476.343 397 478 397H587C588.657 397 590 395.657 590 394V123C590 121.343 588.657 120 587 120Z" fill="#22262C"/>
<path d="M587 573H478C476.343 573 475 574.343 475 576V930C475 931.657 476.343 933 478 933H587C588.657 933 590 931.657 590 930V576C590 574.343 588.657 573 587 573Z" fill="#22262C"/>
<path d="M534 87C545.598 87 555 77.598 555 66C555 54.402 545.598 45 534 45C522.402 45 513 54.402 513 66C513 77.598 522.402 87 534 87Z" fill="#22262C"/>
<path d="M534 506C545.598 506 555 496.598 555 485C555 473.402 545.598 464 534 464C522.402 464 513 473.402 513 485C513 496.598 522.402 506 534 506Z" fill="#22262C"/>
<path d="M534 1025C545.598 1025 555 1015.6 555 1004C555 992.402 545.598 983 534 983C522.402 983 513 992.402 513 1004C513 1015.6 522.402 1025 534 1025Z" fill="#22262C"/>
</g>
</g>
<defs>
<clipPath id="clip0_0_1">
<rect width="1067" height="1068" fill="white"/>
</clipPath>
</defs>
</svg>
