<svg width="1067" height="1068" viewBox="0 0 1067 1068" fill="none" xmlns="http://www.w3.org/2000/svg">
<rect width="1067" height="1068" fill="#1E1E1E"/>
<path d="M1067 0H0V1068H1067V0Z" fill="#22262C"/>
<rect x="440" width="178" height="1068" rx="2" fill="#646567"/>
<rect x="462" y="158" width="133" height="265" rx="2" fill="#22262C"/>
<path d="M626 213H528C517.507 213 509 221.507 509 232V366C509 376.493 517.507 385 528 385H626V213Z" fill="#646567"/>
<rect x="492" y="625" width="74" height="333" rx="2" fill="#22262C"/>
<path d="M482.989 150.485L456.026 178.547L454 142.604L482.989 150.485Z" fill="#646567"/>
<circle cx="529" cy="83" r="26" fill="#22262C"/>
<circle cx="529" cy="537" r="26" fill="#22262C"/>
<circle cx="529" cy="1015" r="26" fill="#22262C"/>
<path d="M712 190C712 165.699 692.301 146 668 146H605V448H668C692.301 448 712 428.301 712 404V190Z" fill="#646567"/>
<rect width="23" height="172" transform="matrix(-1 0 0 1 595 213)" fill="#515151"/>
</svg>
