<svg width="1067" height="1068" viewBox="0 0 1067 1068" fill="none" xmlns="http://www.w3.org/2000/svg">
<rect width="1067" height="1068" fill="#1E1E1E"/>
<path d="M1067 0H0V1068H1067V0Z" fill="#22262C"/>
<path d="M374.348 397.659L118.067 438.317L106 480.692L188.171 491H980L965.634 441.18C948.013 438.126 867.144 425.146 684.644 397.659C570.18 372.921 430.087 387.352 374.348 397.659Z" fill="#646567"/>
<path d="M374.348 735.341L118.067 694.683L106 652.308L188.171 642H980L965.634 691.82C948.013 694.874 867.144 707.854 684.644 735.341C570.18 760.079 430.087 745.648 374.348 735.341Z" fill="#646567"/>
<rect y="438" width="1067" height="257" rx="128.5" fill="#646567"/>
<ellipse cx="123" cy="573.5" rx="44" ry="43.5" fill="#22262C"/>
<ellipse cx="942" cy="573.5" rx="44" ry="43.5" fill="#22262C"/>
<ellipse cx="533" cy="566.5" rx="51" ry="50.5" fill="#22262C"/>
</svg>
