<svg width="1067" height="1068" viewBox="0 0 1067 1068" fill="none" xmlns="http://www.w3.org/2000/svg">
<rect width="1067" height="1068" fill="#1E1E1E"/>
<path d="M1067 0H0V1068H1067V0Z" fill="#22262C"/>
<rect x="301" y="77" width="466" height="915" fill="#646567"/>
<ellipse cx="534" cy="77" rx="233" ry="77" fill="#646567"/>
<ellipse cx="534" cy="991" rx="233" ry="77" fill="#646567"/>
<ellipse cx="533.5" cy="144" rx="54.5" ry="54" fill="#505152"/>
<ellipse cx="533.5" cy="924" rx="54.5" ry="54" fill="#505152"/>
<ellipse cx="533.5" cy="534" rx="106.5" ry="106" fill="#22262C"/>
<circle cx="533.5" cy="144.5" r="38.5" fill="#22262C"/>
<circle cx="533.5" cy="923.5" r="38.5" fill="#22262C"/>
<path d="M644.051 311.156C639.76 311.156 635.605 312.697 632.35 315.491C629.096 318.286 626.95 322.161 626.304 326.402L621.001 361.306C620.857 362.254 620.055 362.943 619.095 362.943C618.135 362.943 617.333 362.254 617.189 361.306L611.886 326.402C611.24 322.163 609.095 318.289 605.84 315.494C602.586 312.699 598.429 311.16 594.138 311.16C589.341 311.16 584.832 313.028 581.44 316.418C578.048 319.807 576.183 324.316 576.186 329.111L576.212 362.948H565.656V329.208H565.652C565.522 319.231 557.367 311.156 547.352 311.156H484.77V298H471.705V311.156H422.779C412.976 311.156 405 319.126 405 328.921C405 337.693 411.291 345.068 419.957 346.459L446.489 350.72C449.49 351.203 451.666 353.755 451.666 356.792C451.666 360.181 448.905 362.94 445.513 362.94H405.63V375.997H445.513C456.112 375.997 464.733 367.383 464.733 356.792C464.733 347.309 457.932 339.333 448.563 337.828L422.031 333.568C419.733 333.198 418.068 331.245 418.068 328.918C418.068 326.322 420.181 324.211 422.779 324.211H471.705V363.571C471.705 370.423 477.284 375.997 484.141 375.997H504.501V362.94H484.77V324.214H547.343C550.231 324.214 552.583 326.562 552.583 329.451C552.583 331.757 550.928 333.7 548.647 334.069L525.439 337.823C516.079 339.336 509.286 347.314 509.286 356.789C509.286 367.383 517.91 376 528.512 376H552.581H559.114H576.834C580.158 376 583.282 374.708 585.63 372.357C587.979 370.009 589.27 366.883 589.267 363.563L589.241 329.097C589.241 327.794 589.749 326.568 590.67 325.644C591.591 324.721 592.819 324.214 594.126 324.214C596.558 324.214 598.588 325.958 598.955 328.361L604.259 363.265C604.796 366.806 606.592 370.042 609.308 372.379C612.028 374.713 615.497 376 619.083 376C622.668 376 626.138 374.713 628.857 372.379C631.577 370.044 633.369 366.806 633.907 363.265L639.211 328.361C639.578 325.958 641.607 324.214 644.048 324.214C646.743 324.214 648.932 326.405 648.932 329.095V375.841H662V329.095C662.011 319.204 653.959 311.156 644.051 311.156ZM528.514 362.943C525.116 362.943 522.353 360.181 522.353 356.786C522.353 353.749 524.529 351.194 527.529 350.71L550.738 346.956C551.367 346.853 551.982 346.716 552.583 346.553V362.943H528.514Z" fill="#454547"/>
</svg>
