<svg width="1067" height="1068" viewBox="0 0 1067 1068" fill="none" xmlns="http://www.w3.org/2000/svg">
<rect width="1067" height="1068" fill="#1E1E1E"/>
<path d="M1067 0H0V1068H1067V0Z" fill="#22262C"/>
<circle cx="533.5" cy="534.5" r="447.5" fill="#377899"/>
<circle cx="533.5" cy="534.5" r="117.454" fill="#22262C"/>
<g clip-path="url(#clip0_0_1)">
<path d="M656.697 253.374C651.892 253.374 647.239 255.114 643.595 258.27C639.951 261.426 637.548 265.802 636.825 270.592L630.887 310.011C630.726 311.082 629.828 311.86 628.753 311.86C627.678 311.86 626.78 311.082 626.619 310.011L620.681 270.592C619.958 265.805 617.556 261.429 613.912 258.273C610.268 255.117 605.614 253.378 600.809 253.378C595.438 253.378 590.389 255.488 586.591 259.316C582.793 263.144 580.705 268.236 580.708 273.652L580.737 311.866H568.918V273.761H568.913C568.768 262.494 559.636 253.374 548.423 253.374H478.35V238.516H463.721V253.374H408.938C397.962 253.374 389.031 262.375 389.031 273.437C389.031 283.344 396.075 291.673 405.778 293.244L435.486 298.056C438.846 298.601 441.283 301.483 441.283 304.913C441.283 308.741 438.191 311.857 434.393 311.857H389.736V326.603H434.393C446.261 326.603 455.914 316.874 455.914 304.913C455.914 294.203 448.299 285.196 437.808 283.496L408.101 278.685C405.528 278.267 403.663 276.061 403.663 273.434C403.663 270.502 406.029 268.118 408.938 268.118H463.721V312.569C463.721 320.307 469.968 326.603 477.645 326.603H500.442V311.857H478.349V268.121H548.413C551.646 268.121 554.28 270.773 554.28 274.035C554.28 276.64 552.427 278.834 549.873 279.251L523.887 283.49C513.406 285.199 505.8 294.209 505.8 304.91C505.8 316.874 515.456 326.606 527.327 326.606H554.277H561.593H581.434C585.155 326.606 588.654 325.147 591.282 322.492C593.913 319.84 595.358 316.31 595.355 312.56L595.326 273.636C595.326 272.164 595.895 270.779 596.926 269.736C597.957 268.694 599.332 268.121 600.795 268.121C603.519 268.121 605.792 270.091 606.203 272.805L612.141 312.224C612.743 316.223 614.754 319.877 617.795 322.517C620.84 325.153 624.725 326.606 628.74 326.606C632.754 326.606 636.639 325.153 639.684 322.517C642.729 319.88 644.736 316.223 645.338 312.224L651.277 272.805C651.688 270.091 653.96 268.121 656.693 268.121C659.711 268.121 662.162 270.595 662.162 273.633V326.426H676.794V273.633C676.806 262.463 667.79 253.374 656.697 253.374ZM527.33 311.86C523.525 311.86 520.431 308.741 520.431 304.907C520.431 301.477 522.868 298.591 526.227 298.044L552.214 293.805C552.918 293.689 553.607 293.534 554.28 293.35V311.86H527.33Z" fill="#20495E"/>
</g>
<ellipse cx="212.85" cy="534.5" rx="75.1706" ry="73.9961" fill="#2F5F78"/>
<ellipse cx="852.975" cy="534.5" rx="75.1706" ry="73.9961" fill="#2F5F78"/>
<circle cx="212.85" cy="534.5" r="48.1562" fill="#22262C"/>
<circle cx="852.975" cy="534.5" r="48.1562" fill="#22262C"/>
<defs>
<clipPath id="clip0_0_1">
<rect width="287.762" height="88.0906" fill="white" transform="translate(389.031 238.516)"/>
</clipPath>
</defs>
</svg>
