<svg width="1067" height="1068" viewBox="0 0 1067 1068" fill="none" xmlns="http://www.w3.org/2000/svg">
<rect width="1067" height="1068" fill="#1E1E1E"/>
<path d="M1067 0H0V1068H1067V0Z" fill="#22262C"/>
<rect x="31" y="349" width="1005" height="308" fill="#CFD4CD"/>
<rect x="1021.19" y="323.807" width="64.6214" height="32.0116" transform="rotate(45 1021.19 323.807)" fill="#22262C"/>
<rect x="1067" y="639.461" width="64.6214" height="32.0116" transform="rotate(135 1067 639.461)" fill="#22262C"/>
<rect width="64.6214" height="32.0116" transform="matrix(-0.707107 0.707107 0.707107 0.707107 45.6942 324.484)" fill="#22262C"/>
<rect width="64.6214" height="32.0116" transform="matrix(0.707107 0.707107 0.707107 -0.707107 0 638.176)" fill="#22262C"/>
<ellipse cx="530" cy="536.5" rx="97" ry="96.5" fill="#22262C"/>
<rect x="965" y="575" width="45" height="46" rx="2" fill="#22262C"/>
<rect x="965" y="386" width="45" height="46" rx="2" fill="#22262C"/>
<rect x="55" y="575" width="45" height="46" rx="2" fill="#22262C"/>
<rect x="55" y="386" width="45" height="46" rx="2" fill="#22262C"/>
</svg>
