<svg width="1067" height="1068" viewBox="0 0 1067 1068" fill="none" xmlns="http://www.w3.org/2000/svg">
<rect width="1067" height="1068" fill="#1E1E1E"/>
<path d="M1067 0H0V1068H1067V0Z" fill="#22262C"/>
<g clip-path="url(#clip0_0_1)">
<path d="M1067 0H0V1068H1067V0Z" fill="#1E1E1E"/>
<path d="M1067 0H0V1068H1067V0Z" fill="#22262C"/>
<path d="M1036 349H31V657H1036V349Z" fill="#686868"/>
<path d="M1066.88 369.501L1021.19 323.807L998.554 346.443L1044.25 392.137L1066.88 369.501Z" fill="#22262C"/>
<path d="M1021.31 685.155L1067 639.461L1044.36 616.825L998.67 662.52L1021.31 685.155Z" fill="#22262C"/>
<path d="M-3.01479e-05 370.178L45.6942 324.484L68.3298 347.12L22.6356 392.814L-3.01479e-05 370.178Z" fill="#22262C"/>
<path d="M45.6942 683.87L0 638.176L22.6356 615.54L68.3299 661.235L45.6942 683.87Z" fill="#22262C"/>
<path d="M1008 575H967C965.895 575 965 575.895 965 577V619C965 620.105 965.895 621 967 621H1008C1009.1 621 1010 620.105 1010 619V577C1010 575.895 1009.1 575 1008 575Z" fill="#22262C"/>
<path d="M1008 386H967C965.895 386 965 386.895 965 388V430C965 431.105 965.895 432 967 432H1008C1009.1 432 1010 431.105 1010 430V388C1010 386.895 1009.1 386 1008 386Z" fill="#22262C"/>
<path d="M98 575H57C55.8954 575 55 575.895 55 577V619C55 620.105 55.8954 621 57 621H98C99.1046 621 100 620.105 100 619V577C100 575.895 99.1046 575 98 575Z" fill="#22262C"/>
<path d="M98 386H57C55.8954 386 55 386.895 55 388V430C55 431.105 55.8954 432 57 432H98C99.1046 432 100 431.105 100 430V388C100 386.895 99.1046 386 98 386Z" fill="#22262C"/>
<path d="M534 594C552.778 594 568 578.778 568 560C568 541.222 552.778 526 534 526C515.222 526 500 541.222 500 560C500 578.778 515.222 594 534 594Z" fill="#22262C"/>
</g>
<defs>
<clipPath id="clip0_0_1">
<rect width="1067" height="1068" fill="white"/>
</clipPath>
</defs>
</svg>
