<svg width="1067" height="1068" viewBox="0 0 1067 1068" fill="none" xmlns="http://www.w3.org/2000/svg">
<rect width="1067" height="1068" fill="#1E1E1E"/>
<path d="M1067 0H0V1068H1067V0Z" fill="#22262C"/>
<rect x="403" width="265" height="1068" rx="132.5" fill="#454547"/>
<rect x="425" y="22" width="221" height="1024" rx="110.5" fill="#646567"/>
<rect x="491" y="693" width="89" height="168" rx="44.5" fill="#22262C"/>
<circle cx="533.5" cy="972.5" r="10.5" fill="#22262C"/>
<circle cx="533.5" cy="91.5" r="10.5" fill="#22262C"/>
<circle cx="533.5" cy="401.5" r="36.5" fill="#22262C"/>
<g clip-path="url(#clip0_0_1)">
<path d="M1067 0H0V1068H1067V0Z" fill="#1E1E1E"/>
<path d="M1067 0H0V1068H1067V0Z" fill="#22262C"/>
<path d="M601 75C601 33.5786 567.421 0 526 0C484.579 0 451 33.5786 451 75V993C451 1034.42 484.579 1068 526 1068C567.421 1068 601 1034.42 601 993V75Z" fill="#377899"/>
<path d="M582.5 75C582.5 43.7959 557.204 18.5 526 18.5C494.796 18.5 469.5 43.7959 469.5 75V993C469.5 1024.2 494.796 1049.5 526 1049.5C557.204 1049.5 582.5 1024.2 582.5 993V75Z" fill="#377899" stroke="#20495E" stroke-width="5"/>
<path d="M526 70C535.389 70 543 62.3888 543 53C543 43.6112 535.389 36 526 36C516.611 36 509 43.6112 509 53C509 62.3888 516.611 70 526 70Z" fill="#22262C"/>
<path d="M526 1033C535.389 1033 543 1025.39 543 1016C543 1006.61 535.389 999 526 999C516.611 999 509 1006.61 509 1016C509 1025.39 516.611 1033 526 1033Z" fill="#22262C"/>
<path d="M526 460C546.987 460 564 442.987 564 422C564 401.013 546.987 384 526 384C505.013 384 488 401.013 488 422C488 442.987 505.013 460 526 460Z" fill="#22262C"/>
<rect x="511" y="745" width="30" height="30" fill="#22262C"/>
</g>
<defs>
<clipPath id="clip0_0_1">
<rect width="1067" height="1068" fill="white"/>
</clipPath>
</defs>
</svg>
