<svg width="1067" height="1068" viewBox="0 0 1067 1068" fill="none" xmlns="http://www.w3.org/2000/svg">
<rect width="1067" height="1068" fill="#1E1E1E"/>
<path d="M1067 0H0V1068H1067V0Z" fill="#22262C"/>
<path d="M421.383 117.224C405.764 132.486 406 146.901 406 160.149V830H661V160.149C660.529 134.819 652.782 127.881 645.122 121.02L645.026 120.933C639.306 115.811 626.803 98.3578 622.543 69.5288C609.29 -2.96772 540.107 -4.84019 507.172 3.28564C488.042 12.2947 457.473 20.2439 446.824 65.8192C444.457 94.2242 428.877 111.924 421.383 117.224Z" fill="#20495E"/>
<path d="M421.383 944.138C405.764 928.012 406 912.781 406 898.782V191H661V898.782C660.529 925.547 652.782 932.878 645.122 940.127L645.026 940.219C639.306 945.631 626.803 964.073 622.543 994.534C609.29 1071.14 540.107 1073.11 507.172 1064.53C488.042 1055.01 457.473 1046.61 446.824 998.454C444.457 968.44 428.877 949.738 421.383 944.138Z" fill="#20495E"/>
<rect x="440.641" y="143" width="186" height="774" rx="17" fill="#377899"/>
<path d="M479.932 76C475.674 110.251 453.964 139.605 443.641 150H623.641C597.319 124.629 587.512 90.0952 585.9 76H479.932Z" fill="#377899"/>
<circle cx="532.641" cy="88" r="55" fill="#377899"/>
<path d="M479.932 984C475.674 949.749 453.964 920.395 443.641 910H623.641C597.319 935.371 587.512 969.905 585.9 984H479.932Z" fill="#377899"/>
<circle cx="55" cy="55" r="55" transform="matrix(1 0 0 -1 477.641 1027)" fill="#377899"/>
<circle cx="533.141" cy="758.5" r="24.5" fill="#22262C"/>
<path d="M532.981 149.72C544.767 149.72 554.321 140.157 554.321 128.36C554.321 116.563 544.767 107 532.981 107C521.196 107 511.641 116.563 511.641 128.36C511.641 140.157 521.196 149.72 532.981 149.72Z" fill="#22262C"/>
<path d="M533.981 959.72C545.767 959.72 555.321 950.157 555.321 938.36C555.321 926.563 545.767 917 533.981 917C522.196 917 512.641 926.563 512.641 938.36C512.641 950.157 522.196 959.72 533.981 959.72Z" fill="#22262C"/>
<path d="M533.321 468.44C556.893 468.44 576.001 449.314 576.001 425.72C576.001 402.126 556.893 383 533.321 383C509.75 383 490.641 402.126 490.641 425.72C490.641 449.314 509.75 468.44 533.321 468.44Z" fill="#22262C"/>
</svg>
