<svg width="1067" height="1068" viewBox="0 0 1067 1068" fill="none" xmlns="http://www.w3.org/2000/svg">
<rect width="1067" height="1068" fill="#1E1E1E"/>
<path d="M1067 0H0V1068H1067V0Z" fill="#22262C"/>
<path d="M693.1 160.05C693.1 71.6568 621.443 0 533.05 0C444.657 0 373 71.6568 373 160.05V906.95C373 995.343 444.657 1067 533.05 1067C621.443 1067 693.1 995.343 693.1 906.95V160.05Z" fill="#787878"/>
<path d="M650.87 161.05C650.87 96.2283 598.322 43.68 533.5 43.68C468.678 43.68 416.13 96.2283 416.13 161.05V904.393C416.13 969.215 468.678 1021.76 533.5 1021.76C598.322 1021.76 650.87 969.215 650.87 904.393V161.05Z" fill="#ABABAB"/>
<path d="M533.5 943.517C544.304 943.517 553.062 934.759 553.062 923.955C553.062 913.151 544.304 904.393 533.5 904.393C522.696 904.393 513.938 913.151 513.938 923.955C513.938 934.759 522.696 943.517 533.5 943.517Z" fill="#22262C"/>
<path d="M533.5 180.612C544.304 180.612 553.062 171.854 553.062 161.05C553.062 150.246 544.304 141.488 533.5 141.488C522.696 141.488 513.938 150.246 513.938 161.05C513.938 171.854 522.696 180.612 533.5 180.612Z" fill="#22262C"/>
<path d="M533.5 474.037C555.107 474.037 572.623 456.521 572.623 434.913C572.623 413.306 555.107 395.79 533.5 395.79C511.893 395.79 494.377 413.306 494.377 434.913C494.377 456.521 511.893 474.037 533.5 474.037Z" fill="#22262C"/>
<circle cx="533" cy="727" r="87" fill="#22262C"/>
</svg>
