<svg width="1067" height="1068" viewBox="0 0 1067 1068" fill="none" xmlns="http://www.w3.org/2000/svg">
<rect width="1067" height="1068" fill="#1E1E1E"/>
<path d="M1067 0H0V1068H1067V0Z" fill="#22262C"/>
<path d="M693.55 160.05C693.55 71.6568 621.893 0 533.5 0C445.107 0 373.45 71.6568 373.45 160.05V906.95C373.45 995.343 445.107 1067 533.5 1067C621.893 1067 693.55 995.343 693.55 906.95V160.05Z" fill="#20495E"/>
<path d="M650.87 160.05C650.87 95.2283 598.322 42.68 533.5 42.68C468.678 42.68 416.13 95.2283 416.13 160.05V903.393C416.13 968.215 468.678 1020.76 533.5 1020.76C598.322 1020.76 650.87 968.215 650.87 903.393V160.05Z" fill="#377899"/>
<path d="M533.5 179.612C544.304 179.612 553.062 170.854 553.062 160.05C553.062 149.246 544.304 140.488 533.5 140.488C522.696 140.488 513.938 149.246 513.938 160.05C513.938 170.854 522.696 179.612 533.5 179.612Z" fill="#22262C"/>
<path d="M533.5 942.517C544.304 942.517 553.062 933.759 553.062 922.955C553.062 912.151 544.304 903.393 533.5 903.393C522.696 903.393 513.938 912.151 513.938 922.955C513.938 933.759 522.696 942.517 533.5 942.517Z" fill="#22262C"/>
<path d="M533.5 473.037C555.107 473.037 572.623 455.521 572.623 433.913C572.623 412.306 555.107 394.79 533.5 394.79C511.893 394.79 494.377 412.306 494.377 433.913C494.377 455.521 511.893 473.037 533.5 473.037Z" fill="#22262C"/>
<circle cx="533" cy="726" r="87" fill="#22262C"/>
</svg>
