<svg width="1797" height="1068" viewBox="0 0 1797 1068" fill="none" xmlns="http://www.w3.org/2000/svg">
<rect width="1797" height="1068" fill="#1E1E1E"/>
<path d="M1789 0H722V1068H1789V0Z" fill="#22262C"/>
<rect x="1181" width="150" height="1068" rx="75" fill="#646567"/>
<rect x="1199.5" y="18.5" width="113" height="1031" rx="56.5" fill="#646567" stroke="#454547" stroke-width="5"/>
<path d="M1256 70C1265.39 70 1273 62.3888 1273 53C1273 43.6112 1265.39 36 1256 36C1246.61 36 1239 43.6112 1239 53C1239 62.3888 1246.61 70 1256 70Z" fill="#22262C"/>
<path d="M1256 1033C1265.39 1033 1273 1025.39 1273 1016C1273 1006.61 1265.39 999 1256 999C1246.61 999 1239 1006.61 1239 1016C1239 1025.39 1246.61 1033 1256 1033Z" fill="#22262C"/>
<path d="M1256 460C1276.99 460 1294 442.987 1294 422C1294 401.013 1276.99 384 1256 384C1235.01 384 1218 401.013 1218 422C1218 442.987 1235.01 460 1256 460Z" fill="#22262C"/>
<path d="M1294.25 678.123C1294.25 657.068 1277.18 640 1256.12 640C1235.07 640 1218 657.068 1218 678.123V773.432C1218 794.487 1235.07 811.555 1256.12 811.555C1277.18 811.555 1294.25 794.487 1294.25 773.432V678.123Z" fill="#22262C"/>
<rect y="714" width="202" height="209" fill="#ABABAB"/>
<rect x="250" y="714" width="209" height="209" fill="#787878"/>
<rect y="430" width="202" height="209" fill="#646567"/>
<rect x="250" y="430" width="209" height="209" fill="#454547"/>
<rect y="146" width="202" height="209" fill="#377899"/>
<rect x="250" y="146" width="209" height="209" fill="#20495E"/>
</svg>
