<svg width="1067" height="1068" viewBox="0 0 1067 1068" fill="none" xmlns="http://www.w3.org/2000/svg">
<rect width="1067" height="1068" fill="#1E1E1E"/>
<path d="M1067 0H0V1068H1067V0Z" fill="#22262C"/>
<rect x="451" width="150" height="1068" rx="75" fill="#646567"/>
<rect x="469.5" y="18.5" width="113" height="1031" rx="56.5" fill="#646567" stroke="#454547" stroke-width="5"/>
<path d="M526 70C535.389 70 543 62.3888 543 53C543 43.6112 535.389 36 526 36C516.611 36 509 43.6112 509 53C509 62.3888 516.611 70 526 70Z" fill="#22262C"/>
<path d="M526 1033C535.389 1033 543 1025.39 543 1016C543 1006.61 535.389 999 526 999C516.611 999 509 1006.61 509 1016C509 1025.39 516.611 1033 526 1033Z" fill="#22262C"/>
<path d="M526 460C546.987 460 564 442.987 564 422C564 401.013 546.987 384 526 384C505.013 384 488 401.013 488 422C488 442.987 505.013 460 526 460Z" fill="#22262C"/>
<path d="M564.247 678.123C564.247 657.068 547.178 640 526.123 640C505.068 640 488 657.068 488 678.123V773.432C488 794.487 505.068 811.555 526.123 811.555C547.178 811.555 564.247 794.487 564.247 773.432V678.123Z" fill="#22262C"/>
</svg>
