<svg width="1067" height="1068" viewBox="0 0 1067 1068" fill="none" xmlns="http://www.w3.org/2000/svg">
<rect width="1067" height="1068" fill="#1E1E1E"/>
<path d="M1067 0H0V1068H1067V0Z" fill="#22262C"/>
<rect x="451" width="150" height="1068" rx="75" fill="#646567"/>
<path d="M526 50C535.389 50 543 42.3888 543 33C543 23.6112 535.389 16 526 16C516.611 16 509 23.6112 509 33C509 42.3888 516.611 50 526 50Z" fill="#22262C"/>
<path d="M526 1052C535.389 1052 543 1044.39 543 1035C543 1025.61 535.389 1018 526 1018C516.611 1018 509 1025.61 509 1035C509 1044.39 516.611 1052 526 1052Z" fill="#22262C"/>
<path d="M564.247 678.123C564.247 657.068 547.178 640 526.123 640C505.068 640 488 657.068 488 678.123V773.432C488 794.487 505.068 811.555 526.123 811.555C547.178 811.555 564.247 794.487 564.247 773.432V678.123Z" fill="#22262C"/>
</svg>
