<svg width="1067" height="1068" viewBox="0 0 1067 1068" fill="none" xmlns="http://www.w3.org/2000/svg">
<rect width="1067" height="1068" fill="#1E1E1E"/>
<g clip-path="url(#clip0_0_1)">
<path d="M1067 0H0V1068H1067V0Z" fill="#22262C"/>
<path d="M653.072 128.16C653.072 57.3792 595.746 0 525.032 0C454.317 0 396.992 57.3792 396.992 128.16V939.84C396.992 1010.62 454.317 1068 525.032 1068C595.746 1068 653.072 1010.62 653.072 939.84V128.16Z" fill="#646567"/>
<path d="M525.032 149.52C536.818 149.52 546.372 139.957 546.372 128.16C546.372 116.363 536.818 106.8 525.032 106.8C513.246 106.8 503.692 116.363 503.692 128.16C503.692 139.957 513.246 149.52 525.032 149.52Z" fill="#22262C"/>
<path d="M525.032 982.56C536.818 982.56 546.372 972.997 546.372 961.2C546.372 949.403 536.818 939.84 525.032 939.84C513.246 939.84 503.692 949.403 503.692 961.2C503.692 972.997 513.246 982.56 525.032 982.56Z" fill="#22262C"/>
<path d="M525.032 469.92C548.603 469.92 567.712 450.794 567.712 427.2C567.712 403.606 548.603 384.48 525.032 384.48C501.46 384.48 482.352 403.606 482.352 427.2C482.352 450.794 501.46 469.92 525.032 469.92Z" fill="#22262C"/>
<circle cx="525.5" cy="725.5" r="24.5" fill="#22262C"/>
</g>
<defs>
<clipPath id="clip0_0_1">
<rect width="1067" height="1068" fill="white"/>
</clipPath>
</defs>
</svg>
