<svg width="1067" height="1068" viewBox="0 0 1067 1068" fill="none" xmlns="http://www.w3.org/2000/svg">
<rect width="1067" height="1068" fill="#1E1E1E"/>
<path d="M1067 0H0V1068H1067V0Z" fill="#22262C"/>
<path d="M119.391 402.615H1067V929.346C1067 935.421 1062.08 940.346 1056 940.346H124.391C121.63 940.346 119.391 938.107 119.391 935.346V402.615Z" fill="#CFD4CD"/>
<rect x="988.033" y="608.495" width="78.9674" height="92.1286" fill="#22262C"/>
<rect x="1004.95" y="436.458" width="62.0458" height="92.1286" fill="#22262C"/>
<path d="M948.454 495.684L918.466 391.334H1067V495.684H948.454Z" fill="#22262C"/>
<rect x="195.978" y="678.645" width="204.537" height="120.392" rx="4" fill="#22262C"/>
<path d="M22.5105 548.544L117.684 743.968C118.857 746.375 121.3 747.903 123.978 747.903H150.789C154.655 747.903 157.789 744.769 157.789 740.903V648.751C157.789 644.885 160.923 641.751 164.789 641.751H220.694C224.56 641.751 227.694 638.617 227.694 634.751V110.872C227.694 107.006 224.56 103.872 220.694 103.872H106.258C103.375 103.872 100.787 105.639 99.7377 108.325L36.7504 269.572C-15.031 384.786 -4.6747 470.872 22.5105 548.544Z" fill="#CFD4CD"/>
<path d="M780.273 716.16C780.273 689.927 801.54 668.66 827.773 668.66H1067V790.872H827.773C801.54 790.872 780.273 769.605 780.273 743.372V716.16Z" fill="#22262C"/>
<rect x="736.089" y="464.661" width="330.911" height="203.999" rx="53" fill="#CFD4CD"/>
<circle cx="740.33" cy="424.269" r="40.7779" fill="#22262C"/>
<rect x="681.429" y="399.026" width="29.7743" height="24.5962" fill="#22262C"/>
<circle cx="680.134" cy="422.327" r="19.418" fill="#CFD4CD"/>
<rect width="29.7743" height="24.5962" transform="matrix(-1 0 0 1 799.232 399.026)" fill="#22262C"/>
<circle cx="20.0653" cy="20.0653" r="20.0653" transform="matrix(-1 0 0 1 821.239 402.909)" fill="#CFD4CD"/>
</svg>
