<svg width="1067" height="1068" viewBox="0 0 1067 1068" fill="none" xmlns="http://www.w3.org/2000/svg">
<rect width="1067" height="1068" fill="#1E1E1E"/>
<path d="M1067 0H0V1068H1067V0Z" fill="#22262C"/>
<path d="M339.644 746.783L364.332 788.259C367.371 793.365 368.976 799.196 368.976 805.138V856C368.976 874.225 383.75 889 401.976 889H619.274C637.499 889 652.274 874.225 652.274 856V805.703C652.274 799.406 654.076 793.24 657.467 787.934L683.555 747.109C686.946 741.802 688.748 735.636 688.748 729.339V464.744C688.748 448.232 700.951 434.262 717.313 432.043L803.508 420.354C808.861 419.628 814.042 417.633 818.243 414.239C865.699 375.902 834.333 346.923 811.66 336.915L709.747 297.128C697.084 292.184 688.748 279.981 688.748 266.388V230C688.748 211.775 673.973 197 655.748 197H368C349.775 197 335 211.775 335 230V729.904C335 735.846 336.604 741.678 339.644 746.783Z" fill="#BFA664"/>
<ellipse cx="512" cy="203" rx="177" ry="72" fill="#BFA664"/>
<ellipse cx="510.5" cy="876.5" rx="141.5" ry="41.5" fill="#BFA664"/>
<rect x="407" y="203" width="208" height="489" rx="11" fill="#22262C"/>
<rect x="369" y="841" width="283" height="36" fill="#BFA664"/>
<rect x="335" y="202" width="12" height="39" fill="#BFA664"/>
<rect x="335" y="202" width="12" height="39" fill="#BFA664"/>
<rect x="335" y="202" width="12" height="39" fill="#BFA664"/>
<rect x="335" y="202" width="12" height="39" fill="#BFA664"/>
<rect x="677" y="202" width="12" height="39" fill="#BFA664"/>
<rect x="677" y="202" width="12" height="39" fill="#BFA664"/>
<rect x="677" y="202" width="12" height="39" fill="#BFA664"/>
<rect x="677" y="202" width="12" height="39" fill="#BFA664"/>
</svg>
