<svg width="1067" height="1068" viewBox="0 0 1067 1068" fill="none" xmlns="http://www.w3.org/2000/svg">
<rect width="1067" height="1068" fill="#1E1E1E"/>
<path d="M1067 0H0V1068H1067V0Z" fill="#22262C"/>
<path d="M806.006 351.83L678.91 416.122C662.941 424.2 668.688 448.291 686.584 448.291H1028.15C1036.74 448.291 1043.71 441.329 1043.71 432.74C1043.71 427.547 1041.11 422.696 1036.8 419.81L936.635 352.866C933.839 350.997 930.552 350 927.189 350H813.68C811.014 350 808.385 350.627 806.006 351.83Z" fill="#CFD4CD"/>
<rect x="1030.64" y="511.925" width="36.3621" height="76.1331" fill="#CFD4CD"/>
<path d="M0 446.248C0 424.156 17.9086 406.248 40 406.248H1048.82V610.555C1048.82 632.647 1030.91 650.555 1008.82 650.555H40C17.9086 650.555 0 632.647 0 610.555V446.248Z" fill="#CFD4CD"/>
<path d="M539.545 599.421H458.708C452.633 599.421 447.708 594.496 447.708 588.421V497.73C447.708 492.201 451.812 487.531 457.295 486.821L970.5 420.355C977.081 419.502 982.913 424.627 982.913 431.264V588.421C982.913 594.496 977.988 599.421 971.913 599.421H891.644C885.569 599.421 880.644 594.496 880.644 588.421V569.478C880.644 567.508 880.115 565.573 879.112 563.877L860.512 532.434C858.253 528.616 853.92 526.528 849.526 527.14L772.517 537.875C767.081 538.633 763.036 543.281 763.036 548.77V588.421C763.036 594.496 758.111 599.421 752.036 599.421H673.815C669.649 599.421 665.84 597.067 663.977 593.341L643.328 552.043C641.193 547.773 636.547 545.367 631.827 546.089L559.883 557.086C554.512 557.907 550.545 562.527 550.545 567.96V588.421C550.545 594.496 545.62 599.421 539.545 599.421Z" fill="#22262C"/>
<circle cx="342.599" cy="569.309" r="30.1124" fill="#22262C"/>
<rect x="343.167" y="482.381" width="47.7252" height="98.8594" rx="3" fill="#22262C"/>
<path d="M141.312 495.775L35.1583 512.562C31.2707 513.177 28.4079 516.528 28.4079 520.464V543.534C28.4079 547.553 31.3895 550.948 35.3747 551.467L141.529 565.292C146.317 565.915 150.562 562.187 150.562 557.359V503.677C150.562 498.76 146.168 495.007 141.312 495.775Z" fill="#22262C"/>
<path d="M1053.93 432.383L1009.05 401.134L1019.27 386.362L1059.61 391.476L1055.64 407.384L1053.93 432.383Z" fill="#22262C"/>
</svg>
