<svg width="1067" height="1068" viewBox="0 0 1067 1068" fill="none" xmlns="http://www.w3.org/2000/svg">
<rect width="1067" height="1068" fill="#1E1E1E"/>
<g clip-path="url(#clip0_0_1)">
<path d="M1067 0H0V1068H1067V0Z" fill="#1E1E1E"/>
<path d="M1067 0H0V1068H1067V0Z" fill="#22262C"/>
<path d="M191.104 515.252V994.792C191.104 1003.08 197.82 1009.79 206.104 1009.79H898.055C906.339 1009.79 913.055 1003.08 913.055 994.792V515.252C913.055 506.967 919.77 500.252 928.055 500.252H1052C1060.28 500.252 1067 493.536 1067 485.252V74C1067 65.7157 1060.28 59 1052 59H864.353C856.069 59 849.353 65.7157 849.353 74V243.614C849.353 251.898 842.638 258.614 834.353 258.614H609.547C601.263 258.614 594.547 251.898 594.547 243.614V177.974C594.547 172.615 591.688 167.662 587.046 164.983L406.923 61.009C404.643 59.6929 402.057 59 399.424 59H15C6.71573 59 0 65.7157 0 74V485.252C0 493.536 6.71573 500.252 15 500.252H176.104C184.389 500.252 191.104 506.967 191.104 515.252Z" fill="#646567"/>
<path d="M375 219C408.137 219 435 192.137 435 159C435 125.863 408.137 99 375 99C341.863 99 315 125.863 315 159C315 192.137 341.863 219 375 219Z" fill="#505152"/>
<path d="M375 536C408.137 536 435 509.137 435 476C435 442.863 408.137 416 375 416C341.863 416 315 442.863 315 476C315 509.137 341.863 536 375 536Z" fill="#505152"/>
<path d="M734 536C767.137 536 794 509.137 794 476C794 442.863 767.137 416 734 416C700.863 416 674 442.863 674 476C674 509.137 700.863 536 734 536Z" fill="#505152"/>
<path d="M946 219C979.137 219 1006 192.137 1006 159C1006 125.863 979.137 99 946 99C912.863 99 886 125.863 886 159C886 192.137 912.863 219 946 219Z" fill="#505152"/>
<path d="M544 906C577.137 906 604 879.137 604 846C604 812.863 577.137 786 544 786C510.863 786 484 812.863 484 846C484 879.137 510.863 906 544 906Z" fill="#505152"/>
<path d="M734.223 523.832C760.478 523.832 781.763 502.547 781.763 476.292C781.763 450.037 760.478 428.752 734.223 428.752C707.968 428.752 686.683 450.037 686.683 476.292C686.683 502.547 707.968 523.832 734.223 523.832Z" fill="#22262C"/>
<path d="M375.034 523.832C401.289 523.832 422.574 502.547 422.574 476.292C422.574 450.037 401.289 428.752 375.034 428.752C348.779 428.752 327.494 450.037 327.494 476.292C327.494 502.547 348.779 523.832 375.034 523.832Z" fill="#22262C"/>
<path d="M375.034 206.901C401.289 206.901 422.574 185.616 422.574 159.361C422.574 133.106 401.289 111.821 375.034 111.821C348.779 111.821 327.494 133.106 327.494 159.361C327.494 185.616 348.779 206.901 375.034 206.901Z" fill="#22262C"/>
<path d="M79 219C112.137 219 139 192.137 139 159C139 125.863 112.137 99 79 99C45.8629 99 19 125.863 19 159C19 192.137 45.8629 219 79 219Z" fill="#505152"/>
<path d="M79.2331 206.901C105.489 206.901 126.773 185.616 126.773 159.361C126.773 133.106 105.489 111.821 79.2331 111.821C52.9777 111.821 31.6935 133.106 31.6935 159.361C31.6935 185.616 52.9777 206.901 79.2331 206.901Z" fill="#22262C"/>
<path d="M945.51 206.901C971.765 206.901 993.05 185.616 993.05 159.361C993.05 133.106 971.765 111.821 945.51 111.821C919.255 111.821 897.97 133.106 897.97 159.361C897.97 185.616 919.255 206.901 945.51 206.901Z" fill="#22262C"/>
<path d="M544.065 893.584C570.32 893.584 591.605 872.299 591.605 846.044C591.605 819.789 570.32 798.504 544.065 798.504C517.81 798.504 496.525 819.789 496.525 846.044C496.525 872.299 517.81 893.584 544.065 893.584Z" fill="#22262C"/>
<path d="M1066 228.03H1004.61C1004.06 228.03 1003.61 228.478 1003.61 229.03V406.624C1003.61 407.176 1004.06 407.624 1004.61 407.624H1066C1066.55 407.624 1067 407.176 1067 406.624V229.03C1067 228.478 1066.55 228.03 1066 228.03Z" fill="#505152"/>
<path d="M62.3861 228.03H1C0.447715 228.03 0 228.478 0 229.03V406.624C0 407.176 0.447715 407.624 1 407.624H62.3861C62.9384 407.624 63.3861 407.176 63.3861 406.624V229.03C63.3861 228.478 62.9384 228.03 62.3861 228.03Z" fill="#505152"/>
</g>
<defs>
<clipPath id="clip0_0_1">
<rect width="1067" height="1068" fill="white"/>
</clipPath>
</defs>
</svg>
