<svg width="1067" height="1068" viewBox="0 0 1067 1068" fill="none" xmlns="http://www.w3.org/2000/svg">
<rect width="1067" height="1068" fill="#1E1E1E"/>
<path d="M1067 0H0V1068H1067V0Z" fill="#22262C"/>
<path d="M421.466 136.585V888.072C421.466 889.728 422.809 891.072 424.466 891.072H440.918C442.575 891.072 443.918 889.728 443.918 888.072V886.588C443.918 884.931 445.261 883.588 446.918 883.588H490.099C491.755 883.588 493.099 884.931 493.099 886.588V1002.26C493.099 1033.4 534.056 1031.67 538.504 1002.48C538.526 1002.34 538.537 1002.19 538.537 1002.05V886.588C538.537 884.931 539.88 883.588 541.537 883.588H598.616C600.273 883.588 601.616 884.931 601.616 886.588V888.072C601.616 889.728 602.96 891.072 604.616 891.072H620.534C622.191 891.072 623.534 889.728 623.534 888.072V136.585C623.534 134.928 622.191 133.585 620.534 133.585H562.92C561.263 133.585 559.92 132.248 559.92 130.591V84.9391C559.92 66.5499 545.308 62.6654 538.003 63.0218H506.463C487.646 63.0218 484.011 77.6333 484.545 84.9391V130.585C484.545 132.242 483.202 133.585 481.545 133.585H424.466C422.809 133.585 421.466 134.928 421.466 136.585Z" fill="#878787"/>
<rect x="493.891" y="261.584" width="58.2868" height="523.363" rx="29.1434" fill="#878787" stroke="#4E4E4E" stroke-width="8"/>
<rect x="481" y="884" width="77" height="153" fill="#22262C"/>
<path d="M496 876H549V997.5C549 1012.14 537.136 1024 522.5 1024V1024C507.864 1024 496 1012.14 496 997.5V876Z" fill="#878787"/>
</svg>
