<svg width="1067" height="1068" viewBox="0 0 1067 1068" fill="none" xmlns="http://www.w3.org/2000/svg">
<rect width="1067" height="1068" fill="#1E1E1E"/>
<path d="M1067 0H0V1068H1067V0Z" fill="#22262C"/>
<g clip-path="url(#clip0_0_1)">
<path d="M1067 1H0V1069H1067V1Z" fill="#22262C"/>
<circle cx="534" cy="534" r="431" fill="#BCBAB4"/>
<mask id="mask0_0_1" style="mask-type:alpha" maskUnits="userSpaceOnUse" x="103" y="103" width="862" height="862">
<circle cx="534" cy="534" r="431" fill="#B4B4B4"/>
</mask>
<g mask="url(#mask0_0_1)">
<rect x="-36.4178" y="813.831" width="1224" height="124.836" transform="rotate(-30 -36.4178 813.831)" fill="#D9D9D9"/>
<path d="M661.234 378.111C661.234 307.91 604.325 251 534.123 251C463.922 251 407.012 307.91 407.012 378.111V695.889C407.012 766.09 463.922 823 534.123 823C604.325 823 661.234 766.09 661.234 695.889V378.111Z" fill="#22262C"/>
</g>
</g>
<defs>
<clipPath id="clip0_0_1">
<rect width="1067" height="1068" fill="white"/>
</clipPath>
</defs>
</svg>
