<svg width="1067" height="1068" viewBox="0 0 1067 1068" fill="none" xmlns="http://www.w3.org/2000/svg">
<rect width="1067" height="1068" fill="#1E1E1E"/>
<path d="M1067 0H0V1068H1067V0Z" fill="#22262C"/>
<g clip-path="url(#clip0_0_1)">
<path d="M1067 1H0V1069H1067V1Z" fill="#22262C"/>
<circle cx="534" cy="534" r="431" fill="#BCBAB4"/>
<mask id="mask0_0_1" style="mask-type:alpha" maskUnits="userSpaceOnUse" x="103" y="103" width="862" height="862">
<circle cx="534" cy="534" r="431" fill="#B4B4B4"/>
</mask>
<g mask="url(#mask0_0_1)">
<rect x="-38" y="798" width="1224" height="124.836" transform="rotate(-30 -38 798)" fill="#D9D9D9"/>
</g>
</g>
<path d="M533.5 677C612.753 677 677 612.753 677 533.5C677 454.247 612.753 390 533.5 390C454.247 390 390 454.247 390 533.5C390 612.753 454.247 677 533.5 677Z" fill="#22262C"/>
<defs>
<clipPath id="clip0_0_1">
<rect width="1067" height="1068" fill="white"/>
</clipPath>
</defs>
</svg>
