<svg width="1067" height="1069" viewBox="0 0 1067 1069" fill="none" xmlns="http://www.w3.org/2000/svg">
<rect width="1067" height="1069" fill="#1E1E1E"/>
<g clip-path="url(#clip0_0_1)">
<path d="M1067 0H0V1069H1067V0Z" fill="#1E1E1E"/>
<path d="M1067 1H0V1069H1067V1Z" fill="#22262C"/>
<path d="M534 965C772.035 965 965 772.035 965 534C965 295.965 772.035 103 534 103C295.965 103 103 295.965 103 534C103 772.035 295.965 965 534 965Z" fill="#BCBAB4"/>
<mask id="mask0_0_1" style="mask-type:alpha" maskUnits="userSpaceOnUse" x="103" y="103" width="862" height="862">
<path d="M534 965C772.035 965 965 772.035 965 534C965 295.965 772.035 103 534 103C295.965 103 103 295.965 103 534C103 772.035 295.965 965 534 965Z" fill="#377899"/>
</mask>
<g mask="url(#mask0_0_1)">
<path d="M1022.02 186L-38 798L24.418 906.111L1084.43 294.111L1022.02 186Z" fill="#D9D9D9"/>
<path d="M587.598 451.659H585.285V494.072H587.598V451.659Z" fill="#72716D"/>
<path d="M606.105 433.152H603.792V475.565H606.105V433.152Z" fill="#72716D"/>
<path d="M624.613 451.659H622.3V494.072H624.613V451.659Z" fill="#72716D"/>
<path d="M643.121 433.152H640.807V475.565H643.121V433.152Z" fill="#72716D"/>
<path d="M661.627 451.659H659.314V494.072H661.627V451.659Z" fill="#72716D"/>
<path d="M680.135 433.152H677.822V475.565H680.135V433.152Z" fill="#72716D"/>
<path d="M698.643 451.659H696.329V494.072H698.643V451.659Z" fill="#72716D"/>
<path d="M717.149 433.152H714.836V475.565H717.149V433.152Z" fill="#72716D"/>
<path d="M735.657 451.659H733.344V494.072H735.657V451.659Z" fill="#72716D"/>
<path d="M754.164 433.152H751.851V475.565H754.164V433.152Z" fill="#72716D"/>
<path d="M772.671 451.659H770.358V494.072H772.671V451.659Z" fill="#72716D"/>
<path d="M587.598 517.977H585.285V560.39H587.598V517.977Z" fill="#72716D"/>
<path d="M606.105 499.47H603.792V541.883H606.105V499.47Z" fill="#72716D"/>
<path d="M624.613 517.977H622.3V560.39H624.613V517.977Z" fill="#72716D"/>
<path d="M643.121 499.47H640.807V541.883H643.121V499.47Z" fill="#72716D"/>
<path d="M661.627 517.977H659.314V560.39H661.627V517.977Z" fill="#72716D"/>
<path d="M680.135 499.47H677.822V541.883H680.135V499.47Z" fill="#72716D"/>
<path d="M698.643 517.977H696.329V560.39H698.643V517.977Z" fill="#72716D"/>
<path d="M717.149 499.47H714.836V541.883H717.149V499.47Z" fill="#72716D"/>
<path d="M735.657 517.977H733.344V560.39H735.657V517.977Z" fill="#72716D"/>
<path d="M754.164 499.47H751.851V541.883H754.164V499.47Z" fill="#72716D"/>
<path d="M772.671 517.977H770.358V560.39H772.671V517.977Z" fill="#72716D"/>
<path d="M587.598 319.023H585.285V361.436H587.598V319.023Z" fill="#72716D"/>
<path d="M606.105 300.516H603.792V342.929H606.105V300.516Z" fill="#72716D"/>
<path d="M624.613 319.023H622.3V361.436H624.613V319.023Z" fill="#72716D"/>
<path d="M643.121 300.516H640.807V342.929H643.121V300.516Z" fill="#72716D"/>
<path d="M661.627 319.023H659.314V361.436H661.627V319.023Z" fill="#72716D"/>
<path d="M680.135 300.516H677.822V342.929H680.135V300.516Z" fill="#72716D"/>
<path d="M698.643 319.023H696.329V361.436H698.643V319.023Z" fill="#72716D"/>
<path d="M717.149 300.516H714.836V342.929H717.149V300.516Z" fill="#72716D"/>
<path d="M735.657 319.023H733.344V361.436H735.657V319.023Z" fill="#72716D"/>
<path d="M754.164 300.516H751.851V342.929H754.164V300.516Z" fill="#72716D"/>
<path d="M772.671 319.023H770.358V361.436H772.671V319.023Z" fill="#72716D"/>
<path d="M587.598 385.341H585.285V427.754H587.598V385.341Z" fill="#72716D"/>
<path d="M606.105 366.834H603.792V409.247H606.105V366.834Z" fill="#72716D"/>
<path d="M624.613 385.341H622.3V427.754H624.613V385.341Z" fill="#72716D"/>
<path d="M643.121 366.834H640.807V409.247H643.121V366.834Z" fill="#72716D"/>
<path d="M661.627 385.341H659.314V427.754H661.627V385.341Z" fill="#72716D"/>
<path d="M680.135 366.834H677.822V409.247H680.135V366.834Z" fill="#72716D"/>
<path d="M698.643 385.341H696.329V427.754H698.643V385.341Z" fill="#72716D"/>
<path d="M717.149 366.834H714.836V409.247H717.149V366.834Z" fill="#72716D"/>
<path d="M735.657 385.341H733.344V427.754H735.657V385.341Z" fill="#72716D"/>
<path d="M754.164 366.834H751.851V409.247H754.164V366.834Z" fill="#72716D"/>
<path d="M772.671 385.341H770.358V427.754H772.671V385.341Z" fill="#72716D"/>
<path d="M587.598 186.387H585.285V228.8H587.598V186.387Z" fill="#72716D"/>
<path d="M606.105 167.88H603.792V210.293H606.105V167.88Z" fill="#72716D"/>
<path d="M624.613 186.387H622.3V228.8H624.613V186.387Z" fill="#72716D"/>
<path d="M643.121 167.88H640.807V210.293H643.121V167.88Z" fill="#72716D"/>
<path d="M661.627 186.387H659.314V228.8H661.627V186.387Z" fill="#72716D"/>
<path d="M680.135 167.88H677.822V210.293H680.135V167.88Z" fill="#72716D"/>
<path d="M698.643 186.387H696.329V228.8H698.643V186.387Z" fill="#72716D"/>
<path d="M717.149 167.88H714.836V210.293H717.149V167.88Z" fill="#72716D"/>
<path d="M735.657 186.387H733.344V228.8H735.657V186.387Z" fill="#72716D"/>
<path d="M754.164 167.88H751.851V210.293H754.164V167.88Z" fill="#72716D"/>
<path d="M772.671 186.387H770.358V228.8H772.671V186.387Z" fill="#72716D"/>
<path d="M587.598 252.705H585.285V295.118H587.598V252.705Z" fill="#72716D"/>
<path d="M606.105 234.198H603.792V276.611H606.105V234.198Z" fill="#72716D"/>
<path d="M624.613 252.705H622.3V295.118H624.613V252.705Z" fill="#72716D"/>
<path d="M643.121 234.198H640.807V276.611H643.121V234.198Z" fill="#72716D"/>
<path d="M661.627 252.705H659.314V295.118H661.627V252.705Z" fill="#72716D"/>
<path d="M680.135 234.198H677.822V276.611H680.135V234.198Z" fill="#72716D"/>
<path d="M698.643 252.705H696.329V295.118H698.643V252.705Z" fill="#72716D"/>
<path d="M717.149 234.198H714.836V276.611H717.149V234.198Z" fill="#72716D"/>
<path d="M735.657 252.705H733.344V295.118H735.657V252.705Z" fill="#72716D"/>
<path d="M754.164 234.198H751.851V276.611H754.164V234.198Z" fill="#72716D"/>
<path d="M772.671 252.705H770.358V295.118H772.671V252.705Z" fill="#72716D"/>
<path d="M587.598 120.069H585.285V162.482H587.598V120.069Z" fill="#72716D"/>
<path d="M606.105 101.562H603.792V143.975H606.105V101.562Z" fill="#72716D"/>
<path d="M624.613 120.069H622.3V162.482H624.613V120.069Z" fill="#72716D"/>
<path d="M643.121 101.562H640.807V143.975H643.121V101.562Z" fill="#72716D"/>
<path d="M661.627 120.069H659.314V162.482H661.627V120.069Z" fill="#72716D"/>
<path d="M680.135 101.562H677.822V143.975H680.135V101.562Z" fill="#72716D"/>
<path d="M698.643 120.069H696.329V162.482H698.643V120.069Z" fill="#72716D"/>
<path d="M717.149 101.562H714.836V143.975H717.149V101.562Z" fill="#72716D"/>
<path d="M735.657 120.069H733.344V162.482H735.657V120.069Z" fill="#72716D"/>
<path d="M754.164 101.562H751.851V143.975H754.164V101.562Z" fill="#72716D"/>
<path d="M772.671 120.069H770.358V162.482H772.671V120.069Z" fill="#72716D"/>
<path d="M588.37 717.702H586.056V760.115H588.37V717.702Z" fill="#72716D"/>
<path d="M606.876 699.195H604.563V741.608H606.876V699.195Z" fill="#72716D"/>
<path d="M625.384 717.702H623.071V760.115H625.384V717.702Z" fill="#72716D"/>
<path d="M643.892 699.195H641.578V741.608H643.892V699.195Z" fill="#72716D"/>
<path d="M662.398 717.702H660.085V760.115H662.398V717.702Z" fill="#72716D"/>
<path d="M680.906 699.195H678.593V741.608H680.906V699.195Z" fill="#72716D"/>
<path d="M699.414 717.702H697.1V760.115H699.414V717.702Z" fill="#72716D"/>
<path d="M717.92 699.195H715.607V741.608H717.92V699.195Z" fill="#72716D"/>
<path d="M736.428 717.702H734.115V760.115H736.428V717.702Z" fill="#72716D"/>
<path d="M754.935 699.195H752.622V741.608H754.935V699.195Z" fill="#72716D"/>
<path d="M773.443 717.702H771.13V760.115H773.443V717.702Z" fill="#72716D"/>
<path d="M588.37 784.02H586.056V826.433H588.37V784.02Z" fill="#72716D"/>
<path d="M606.876 765.513H604.563V807.926H606.876V765.513Z" fill="#72716D"/>
<path d="M625.384 784.02H623.071V826.433H625.384V784.02Z" fill="#72716D"/>
<path d="M643.892 765.513H641.578V807.926H643.892V765.513Z" fill="#72716D"/>
<path d="M662.398 784.02H660.085V826.433H662.398V784.02Z" fill="#72716D"/>
<path d="M680.906 765.513H678.593V807.926H680.906V765.513Z" fill="#72716D"/>
<path d="M699.414 784.02H697.1V826.433H699.414V784.02Z" fill="#72716D"/>
<path d="M717.92 765.513H715.607V807.926H717.92V765.513Z" fill="#72716D"/>
<path d="M736.428 784.02H734.115V826.433H736.428V784.02Z" fill="#72716D"/>
<path d="M754.935 765.513H752.622V807.926H754.935V765.513Z" fill="#72716D"/>
<path d="M773.443 784.02H771.13V826.433H773.443V784.02Z" fill="#72716D"/>
<path d="M588.37 585.066H586.056V627.479H588.37V585.066Z" fill="#72716D"/>
<path d="M606.876 566.559H604.563V608.972H606.876V566.559Z" fill="#72716D"/>
<path d="M625.384 585.066H623.071V627.479H625.384V585.066Z" fill="#72716D"/>
<path d="M643.892 566.559H641.578V608.972H643.892V566.559Z" fill="#72716D"/>
<path d="M662.398 585.066H660.085V627.479H662.398V585.066Z" fill="#72716D"/>
<path d="M680.906 566.559H678.593V608.972H680.906V566.559Z" fill="#72716D"/>
<path d="M699.414 585.066H697.1V627.479H699.414V585.066Z" fill="#72716D"/>
<path d="M717.92 566.559H715.607V608.972H717.92V566.559Z" fill="#72716D"/>
<path d="M736.428 585.066H734.115V627.479H736.428V585.066Z" fill="#72716D"/>
<path d="M754.935 566.559H752.622V608.972H754.935V566.559Z" fill="#72716D"/>
<path d="M773.443 585.066H771.13V627.479H773.443V585.066Z" fill="#72716D"/>
<path d="M588.37 651.384H586.056V693.797H588.37V651.384Z" fill="#72716D"/>
<path d="M606.876 632.877H604.563V675.29H606.876V632.877Z" fill="#72716D"/>
<path d="M625.384 651.384H623.071V693.797H625.384V651.384Z" fill="#72716D"/>
<path d="M643.892 632.877H641.578V675.29H643.892V632.877Z" fill="#72716D"/>
<path d="M662.398 651.384H660.085V693.797H662.398V651.384Z" fill="#72716D"/>
<path d="M680.906 632.877H678.593V675.29H680.906V632.877Z" fill="#72716D"/>
<path d="M699.414 651.384H697.1V693.797H699.414V651.384Z" fill="#72716D"/>
<path d="M717.92 632.877H715.607V675.29H717.92V632.877Z" fill="#72716D"/>
<path d="M736.428 651.384H734.115V693.797H736.428V651.384Z" fill="#72716D"/>
<path d="M754.935 632.877H752.622V675.29H754.935V632.877Z" fill="#72716D"/>
<path d="M773.443 651.384H771.13V693.797H773.443V651.384Z" fill="#72716D"/>
<path d="M384.017 433.152H381.704V475.565H384.017V433.152Z" fill="#72716D"/>
<path d="M402.524 414.644H400.211V457.057H402.524V414.644Z" fill="#72716D"/>
<path d="M421.032 433.152H418.719V475.565H421.032V433.152Z" fill="#72716D"/>
<path d="M439.539 414.644H437.226V457.057H439.539V414.644Z" fill="#72716D"/>
<path d="M458.046 433.152H455.733V475.565H458.046V433.152Z" fill="#72716D"/>
<path d="M476.554 414.644H474.241V457.057H476.554V414.644Z" fill="#72716D"/>
<path d="M495.061 433.152H492.748V475.565H495.061V433.152Z" fill="#72716D"/>
<path d="M513.568 414.644H511.255V457.057H513.568V414.644Z" fill="#72716D"/>
<path d="M532.076 433.152H529.763V475.565H532.076V433.152Z" fill="#72716D"/>
<path d="M550.583 414.644H548.27V457.057H550.583V414.644Z" fill="#72716D"/>
<path d="M569.091 433.152H566.778V475.565H569.091V433.152Z" fill="#72716D"/>
<path d="M384.017 499.47H381.704V541.883H384.017V499.47Z" fill="#72716D"/>
<path d="M402.524 480.962H400.211V523.375H402.524V480.962Z" fill="#72716D"/>
<path d="M421.032 499.47H418.719V541.883H421.032V499.47Z" fill="#72716D"/>
<path d="M439.539 480.962H437.226V523.375H439.539V480.962Z" fill="#72716D"/>
<path d="M458.046 499.47H455.733V541.883H458.046V499.47Z" fill="#72716D"/>
<path d="M476.554 480.962H474.241V523.375H476.554V480.962Z" fill="#72716D"/>
<path d="M495.061 499.47H492.748V541.883H495.061V499.47Z" fill="#72716D"/>
<path d="M513.568 480.962H511.255V523.375H513.568V480.962Z" fill="#72716D"/>
<path d="M532.076 499.47H529.763V541.883H532.076V499.47Z" fill="#72716D"/>
<path d="M550.583 480.962H548.27V523.375H550.583V480.962Z" fill="#72716D"/>
<path d="M569.091 499.47H566.778V541.883H569.091V499.47Z" fill="#72716D"/>
<path d="M384.017 300.516H381.704V342.929H384.017V300.516Z" fill="#72716D"/>
<path d="M402.524 282.008H400.211V324.421H402.524V282.008Z" fill="#72716D"/>
<path d="M421.032 300.516H418.719V342.929H421.032V300.516Z" fill="#72716D"/>
<path d="M439.539 282.008H437.226V324.421H439.539V282.008Z" fill="#72716D"/>
<path d="M458.046 300.516H455.733V342.929H458.046V300.516Z" fill="#72716D"/>
<path d="M476.554 282.008H474.241V324.421H476.554V282.008Z" fill="#72716D"/>
<path d="M495.061 300.516H492.748V342.929H495.061V300.516Z" fill="#72716D"/>
<path d="M513.568 282.008H511.255V324.421H513.568V282.008Z" fill="#72716D"/>
<path d="M532.076 300.516H529.763V342.929H532.076V300.516Z" fill="#72716D"/>
<path d="M550.583 282.008H548.27V324.421H550.583V282.008Z" fill="#72716D"/>
<path d="M569.091 300.516H566.778V342.929H569.091V300.516Z" fill="#72716D"/>
<path d="M384.017 366.834H381.704V409.247H384.017V366.834Z" fill="#72716D"/>
<path d="M402.524 348.326H400.211V390.739H402.524V348.326Z" fill="#72716D"/>
<path d="M421.032 366.834H418.719V409.247H421.032V366.834Z" fill="#72716D"/>
<path d="M439.539 348.326H437.226V390.739H439.539V348.326Z" fill="#72716D"/>
<path d="M458.046 366.834H455.733V409.247H458.046V366.834Z" fill="#72716D"/>
<path d="M476.554 348.326H474.241V390.739H476.554V348.326Z" fill="#72716D"/>
<path d="M495.061 366.834H492.748V409.247H495.061V366.834Z" fill="#72716D"/>
<path d="M513.568 348.326H511.255V390.739H513.568V348.326Z" fill="#72716D"/>
<path d="M532.076 366.834H529.763V409.247H532.076V366.834Z" fill="#72716D"/>
<path d="M550.583 348.326H548.27V390.739H550.583V348.326Z" fill="#72716D"/>
<path d="M569.091 366.834H566.778V409.247H569.091V366.834Z" fill="#72716D"/>
<path d="M384.017 167.88H381.704V210.293H384.017V167.88Z" fill="#72716D"/>
<path d="M402.524 149.372H400.211V191.785H402.524V149.372Z" fill="#72716D"/>
<path d="M421.032 167.88H418.719V210.293H421.032V167.88Z" fill="#72716D"/>
<path d="M439.539 149.372H437.226V191.785H439.539V149.372Z" fill="#72716D"/>
<path d="M458.046 167.88H455.733V210.293H458.046V167.88Z" fill="#72716D"/>
<path d="M476.554 149.372H474.241V191.785H476.554V149.372Z" fill="#72716D"/>
<path d="M495.061 167.88H492.748V210.293H495.061V167.88Z" fill="#72716D"/>
<path d="M513.568 149.372H511.255V191.785H513.568V149.372Z" fill="#72716D"/>
<path d="M532.076 167.88H529.763V210.293H532.076V167.88Z" fill="#72716D"/>
<path d="M550.583 149.372H548.27V191.785H550.583V149.372Z" fill="#72716D"/>
<path d="M569.091 167.88H566.778V210.293H569.091V167.88Z" fill="#72716D"/>
<path d="M384.017 234.198H381.704V276.611H384.017V234.198Z" fill="#72716D"/>
<path d="M402.524 215.69H400.211V258.103H402.524V215.69Z" fill="#72716D"/>
<path d="M421.032 234.198H418.719V276.611H421.032V234.198Z" fill="#72716D"/>
<path d="M439.539 215.69H437.226V258.103H439.539V215.69Z" fill="#72716D"/>
<path d="M458.046 234.198H455.733V276.611H458.046V234.198Z" fill="#72716D"/>
<path d="M476.554 215.69H474.241V258.103H476.554V215.69Z" fill="#72716D"/>
<path d="M495.061 234.198H492.748V276.611H495.061V234.198Z" fill="#72716D"/>
<path d="M513.568 215.69H511.255V258.103H513.568V215.69Z" fill="#72716D"/>
<path d="M532.076 234.198H529.763V276.611H532.076V234.198Z" fill="#72716D"/>
<path d="M550.583 215.69H548.27V258.103H550.583V215.69Z" fill="#72716D"/>
<path d="M569.091 234.198H566.778V276.611H569.091V234.198Z" fill="#72716D"/>
<path d="M384.017 101.562H381.704V143.975H384.017V101.562Z" fill="#72716D"/>
<path d="M402.524 83.0542H400.211V125.467H402.524V83.0542Z" fill="#72716D"/>
<path d="M421.032 101.562H418.719V143.975H421.032V101.562Z" fill="#72716D"/>
<path d="M439.539 83.0542H437.226V125.467H439.539V83.0542Z" fill="#72716D"/>
<path d="M458.046 101.562H455.733V143.975H458.046V101.562Z" fill="#72716D"/>
<path d="M476.554 83.0542H474.241V125.467H476.554V83.0542Z" fill="#72716D"/>
<path d="M495.061 101.562H492.748V143.975H495.061V101.562Z" fill="#72716D"/>
<path d="M513.568 83.0542H511.255V125.467H513.568V83.0542Z" fill="#72716D"/>
<path d="M532.076 101.562H529.763V143.975H532.076V101.562Z" fill="#72716D"/>
<path d="M550.583 83.0542H548.27V125.467H550.583V83.0542Z" fill="#72716D"/>
<path d="M569.091 101.562H566.778V143.975H569.091V101.562Z" fill="#72716D"/>
<path d="M384.788 699.195H382.475V741.608H384.788V699.195Z" fill="#72716D"/>
<path d="M403.296 680.688H400.983V723.101H403.296V680.688Z" fill="#72716D"/>
<path d="M421.803 699.195H419.49V741.608H421.803V699.195Z" fill="#72716D"/>
<path d="M440.31 680.688H437.997V723.101H440.31V680.688Z" fill="#72716D"/>
<path d="M458.818 699.195H456.505V741.608H458.818V699.195Z" fill="#72716D"/>
<path d="M477.325 680.688H475.012V723.101H477.325V680.688Z" fill="#72716D"/>
<path d="M495.832 699.195H493.519V741.608H495.832V699.195Z" fill="#72716D"/>
<path d="M514.34 680.688H512.027V723.101H514.34V680.688Z" fill="#72716D"/>
<path d="M532.847 699.195H530.534V741.608H532.847V699.195Z" fill="#72716D"/>
<path d="M551.354 680.688H549.041V723.101H551.354V680.688Z" fill="#72716D"/>
<path d="M569.862 699.195H567.549V741.608H569.862V699.195Z" fill="#72716D"/>
<path d="M384.788 765.513H382.475V807.926H384.788V765.513Z" fill="#72716D"/>
<path d="M403.296 747.006H400.983V789.419H403.296V747.006Z" fill="#72716D"/>
<path d="M421.803 765.513H419.49V807.926H421.803V765.513Z" fill="#72716D"/>
<path d="M440.31 747.006H437.997V789.419H440.31V747.006Z" fill="#72716D"/>
<path d="M458.818 765.513H456.505V807.926H458.818V765.513Z" fill="#72716D"/>
<path d="M477.325 747.006H475.012V789.419H477.325V747.006Z" fill="#72716D"/>
<path d="M495.832 765.513H493.519V807.926H495.832V765.513Z" fill="#72716D"/>
<path d="M514.34 747.006H512.027V789.419H514.34V747.006Z" fill="#72716D"/>
<path d="M532.847 765.513H530.534V807.926H532.847V765.513Z" fill="#72716D"/>
<path d="M551.354 747.006H549.041V789.419H551.354V747.006Z" fill="#72716D"/>
<path d="M569.862 765.513H567.549V807.926H569.862V765.513Z" fill="#72716D"/>
<path d="M384.788 566.559H382.475V608.972H384.788V566.559Z" fill="#72716D"/>
<path d="M403.296 548.051H400.983V590.464H403.296V548.051Z" fill="#72716D"/>
<path d="M421.803 566.559H419.49V608.972H421.803V566.559Z" fill="#72716D"/>
<path d="M440.31 548.051H437.997V590.464H440.31V548.051Z" fill="#72716D"/>
<path d="M458.818 566.559H456.505V608.972H458.818V566.559Z" fill="#72716D"/>
<path d="M477.325 548.051H475.012V590.464H477.325V548.051Z" fill="#72716D"/>
<path d="M495.832 566.559H493.519V608.972H495.832V566.559Z" fill="#72716D"/>
<path d="M514.34 548.051H512.027V590.464H514.34V548.051Z" fill="#72716D"/>
<path d="M532.847 566.559H530.534V608.972H532.847V566.559Z" fill="#72716D"/>
<path d="M551.354 548.051H549.041V590.464H551.354V548.051Z" fill="#72716D"/>
<path d="M569.862 566.559H567.549V608.972H569.862V566.559Z" fill="#72716D"/>
<path d="M384.788 632.877H382.475V675.29H384.788V632.877Z" fill="#72716D"/>
<path d="M403.296 614.369H400.983V656.782H403.296V614.369Z" fill="#72716D"/>
<path d="M421.803 632.877H419.49V675.29H421.803V632.877Z" fill="#72716D"/>
<path d="M440.31 614.369H437.997V656.782H440.31V614.369Z" fill="#72716D"/>
<path d="M458.818 632.877H456.505V675.29H458.818V632.877Z" fill="#72716D"/>
<path d="M477.325 614.369H475.012V656.782H477.325V614.369Z" fill="#72716D"/>
<path d="M495.832 632.877H493.519V675.29H495.832V632.877Z" fill="#72716D"/>
<path d="M514.34 614.369H512.027V656.782H514.34V614.369Z" fill="#72716D"/>
<path d="M532.847 632.877H530.534V675.29H532.847V632.877Z" fill="#72716D"/>
<path d="M551.354 614.369H549.041V656.782H551.354V614.369Z" fill="#72716D"/>
<path d="M569.862 632.877H567.549V675.29H569.862V632.877Z" fill="#72716D"/>
<path d="M179.665 415.415H177.352V457.828H179.665V415.415Z" fill="#72716D"/>
<path d="M198.172 396.908H195.859V439.321H198.172V396.908Z" fill="#72716D"/>
<path d="M216.68 415.415H214.367V457.828H216.68V415.415Z" fill="#72716D"/>
<path d="M235.187 396.908H232.874V439.321H235.187V396.908Z" fill="#72716D"/>
<path d="M253.694 415.415H251.381V457.828H253.694V415.415Z" fill="#72716D"/>
<path d="M272.202 396.908H269.889V439.321H272.202V396.908Z" fill="#72716D"/>
<path d="M290.709 415.415H288.396V457.828H290.709V415.415Z" fill="#72716D"/>
<path d="M309.217 396.908H306.904V439.321H309.217V396.908Z" fill="#72716D"/>
<path d="M327.724 415.415H325.411V457.828H327.724V415.415Z" fill="#72716D"/>
<path d="M346.231 396.908H343.918V439.321H346.231V396.908Z" fill="#72716D"/>
<path d="M364.739 415.415H362.426V457.828H364.739V415.415Z" fill="#72716D"/>
<path d="M179.665 481.733H177.352V524.146H179.665V481.733Z" fill="#72716D"/>
<path d="M198.172 463.226H195.859V505.639H198.172V463.226Z" fill="#72716D"/>
<path d="M216.68 481.733H214.367V524.146H216.68V481.733Z" fill="#72716D"/>
<path d="M235.187 463.226H232.874V505.639H235.187V463.226Z" fill="#72716D"/>
<path d="M253.694 481.733H251.381V524.146H253.694V481.733Z" fill="#72716D"/>
<path d="M272.202 463.226H269.889V505.639H272.202V463.226Z" fill="#72716D"/>
<path d="M290.709 481.733H288.396V524.146H290.709V481.733Z" fill="#72716D"/>
<path d="M309.217 463.226H306.904V505.639H309.217V463.226Z" fill="#72716D"/>
<path d="M327.724 481.733H325.411V524.146H327.724V481.733Z" fill="#72716D"/>
<path d="M346.231 463.226H343.918V505.639H346.231V463.226Z" fill="#72716D"/>
<path d="M364.739 481.733H362.426V524.146H364.739V481.733Z" fill="#72716D"/>
<path d="M179.665 282.779H177.352V325.192H179.665V282.779Z" fill="#72716D"/>
<path d="M198.172 264.272H195.859V306.685H198.172V264.272Z" fill="#72716D"/>
<path d="M216.68 282.779H214.367V325.192H216.68V282.779Z" fill="#72716D"/>
<path d="M235.187 264.272H232.874V306.685H235.187V264.272Z" fill="#72716D"/>
<path d="M253.694 282.779H251.381V325.192H253.694V282.779Z" fill="#72716D"/>
<path d="M272.202 264.272H269.889V306.685H272.202V264.272Z" fill="#72716D"/>
<path d="M290.709 282.779H288.396V325.192H290.709V282.779Z" fill="#72716D"/>
<path d="M309.217 264.272H306.904V306.685H309.217V264.272Z" fill="#72716D"/>
<path d="M327.724 282.779H325.411V325.192H327.724V282.779Z" fill="#72716D"/>
<path d="M346.231 264.272H343.918V306.685H346.231V264.272Z" fill="#72716D"/>
<path d="M364.739 282.779H362.426V325.192H364.739V282.779Z" fill="#72716D"/>
<path d="M179.665 349.097H177.352V391.51H179.665V349.097Z" fill="#72716D"/>
<path d="M198.172 330.59H195.859V373.003H198.172V330.59Z" fill="#72716D"/>
<path d="M216.68 349.097H214.367V391.51H216.68V349.097Z" fill="#72716D"/>
<path d="M235.187 330.59H232.874V373.003H235.187V330.59Z" fill="#72716D"/>
<path d="M253.694 349.097H251.381V391.51H253.694V349.097Z" fill="#72716D"/>
<path d="M272.202 330.59H269.889V373.003H272.202V330.59Z" fill="#72716D"/>
<path d="M290.709 349.097H288.396V391.51H290.709V349.097Z" fill="#72716D"/>
<path d="M309.217 330.59H306.904V373.003H309.217V330.59Z" fill="#72716D"/>
<path d="M327.724 349.097H325.411V391.51H327.724V349.097Z" fill="#72716D"/>
<path d="M346.231 330.59H343.918V373.003H346.231V330.59Z" fill="#72716D"/>
<path d="M364.739 349.097H362.426V391.51H364.739V349.097Z" fill="#72716D"/>
<path d="M179.665 150.143H177.352V192.556H179.665V150.143Z" fill="#72716D"/>
<path d="M198.172 131.636H195.859V174.049H198.172V131.636Z" fill="#72716D"/>
<path d="M216.68 150.143H214.367V192.556H216.68V150.143Z" fill="#72716D"/>
<path d="M235.187 131.636H232.874V174.049H235.187V131.636Z" fill="#72716D"/>
<path d="M253.694 150.143H251.381V192.556H253.694V150.143Z" fill="#72716D"/>
<path d="M272.202 131.636H269.889V174.049H272.202V131.636Z" fill="#72716D"/>
<path d="M290.709 150.143H288.396V192.556H290.709V150.143Z" fill="#72716D"/>
<path d="M309.217 131.636H306.904V174.049H309.217V131.636Z" fill="#72716D"/>
<path d="M327.724 150.143H325.411V192.556H327.724V150.143Z" fill="#72716D"/>
<path d="M346.231 131.636H343.918V174.049H346.231V131.636Z" fill="#72716D"/>
<path d="M364.739 150.143H362.426V192.556H364.739V150.143Z" fill="#72716D"/>
<path d="M179.665 216.461H177.352V258.874H179.665V216.461Z" fill="#72716D"/>
<path d="M198.172 197.954H195.859V240.367H198.172V197.954Z" fill="#72716D"/>
<path d="M216.68 216.461H214.367V258.874H216.68V216.461Z" fill="#72716D"/>
<path d="M235.187 197.954H232.874V240.367H235.187V197.954Z" fill="#72716D"/>
<path d="M253.694 216.461H251.381V258.874H253.694V216.461Z" fill="#72716D"/>
<path d="M272.202 197.954H269.889V240.367H272.202V197.954Z" fill="#72716D"/>
<path d="M290.709 216.461H288.396V258.874H290.709V216.461Z" fill="#72716D"/>
<path d="M309.217 197.954H306.904V240.367H309.217V197.954Z" fill="#72716D"/>
<path d="M327.724 216.461H325.411V258.874H327.724V216.461Z" fill="#72716D"/>
<path d="M346.231 197.954H343.918V240.367H346.231V197.954Z" fill="#72716D"/>
<path d="M364.739 216.461H362.426V258.874H364.739V216.461Z" fill="#72716D"/>
<path d="M179.665 83.8254H177.352V126.238H179.665V83.8254Z" fill="#72716D"/>
<path d="M198.172 65.318H195.859V107.731H198.172V65.318Z" fill="#72716D"/>
<path d="M216.68 83.8254H214.367V126.238H216.68V83.8254Z" fill="#72716D"/>
<path d="M235.187 65.318H232.874V107.731H235.187V65.318Z" fill="#72716D"/>
<path d="M253.694 83.8254H251.381V126.238H253.694V83.8254Z" fill="#72716D"/>
<path d="M272.202 65.318H269.889V107.731H272.202V65.318Z" fill="#72716D"/>
<path d="M290.709 83.8254H288.396V126.238H290.709V83.8254Z" fill="#72716D"/>
<path d="M309.217 65.318H306.904V107.731H309.217V65.318Z" fill="#72716D"/>
<path d="M327.724 83.8254H325.411V126.238H327.724V83.8254Z" fill="#72716D"/>
<path d="M346.231 65.318H343.918V107.731H346.231V65.318Z" fill="#72716D"/>
<path d="M364.739 83.8254H362.426V126.238H364.739V83.8254Z" fill="#72716D"/>
<path d="M180.436 681.459H178.123V723.872H180.436V681.459Z" fill="#72716D"/>
<path d="M198.944 662.951H196.631V705.364H198.944V662.951Z" fill="#72716D"/>
<path d="M217.451 681.459H215.138V723.872H217.451V681.459Z" fill="#72716D"/>
<path d="M235.958 662.951H233.645V705.364H235.958V662.951Z" fill="#72716D"/>
<path d="M254.466 681.459H252.153V723.872H254.466V681.459Z" fill="#72716D"/>
<path d="M272.973 662.951H270.66V705.364H272.973V662.951Z" fill="#72716D"/>
<path d="M291.48 681.459H289.167V723.872H291.48V681.459Z" fill="#72716D"/>
<path d="M309.988 662.951H307.675V705.364H309.988V662.951Z" fill="#72716D"/>
<path d="M328.495 681.459H326.182V723.872H328.495V681.459Z" fill="#72716D"/>
<path d="M347.002 662.951H344.689V705.364H347.002V662.951Z" fill="#72716D"/>
<path d="M365.51 681.459H363.197V723.872H365.51V681.459Z" fill="#72716D"/>
<path d="M180.436 747.777H178.123V790.19H180.436V747.777Z" fill="#72716D"/>
<path d="M198.944 729.269H196.631V771.682H198.944V729.269Z" fill="#72716D"/>
<path d="M217.451 747.777H215.138V790.19H217.451V747.777Z" fill="#72716D"/>
<path d="M235.958 729.269H233.645V771.682H235.958V729.269Z" fill="#72716D"/>
<path d="M254.466 747.777H252.153V790.19H254.466V747.777Z" fill="#72716D"/>
<path d="M272.973 729.269H270.66V771.682H272.973V729.269Z" fill="#72716D"/>
<path d="M291.48 747.777H289.167V790.19H291.48V747.777Z" fill="#72716D"/>
<path d="M309.988 729.269H307.675V771.682H309.988V729.269Z" fill="#72716D"/>
<path d="M328.495 747.777H326.182V790.19H328.495V747.777Z" fill="#72716D"/>
<path d="M347.002 729.269H344.689V771.682H347.002V729.269Z" fill="#72716D"/>
<path d="M365.51 747.777H363.197V790.19H365.51V747.777Z" fill="#72716D"/>
<path d="M180.436 548.823H178.123V591.236H180.436V548.823Z" fill="#72716D"/>
<path d="M198.944 530.315H196.631V572.728H198.944V530.315Z" fill="#72716D"/>
<path d="M217.451 548.823H215.138V591.236H217.451V548.823Z" fill="#72716D"/>
<path d="M235.958 530.315H233.645V572.728H235.958V530.315Z" fill="#72716D"/>
<path d="M254.466 548.823H252.153V591.236H254.466V548.823Z" fill="#72716D"/>
<path d="M272.973 530.315H270.66V572.728H272.973V530.315Z" fill="#72716D"/>
<path d="M291.48 548.823H289.167V591.236H291.48V548.823Z" fill="#72716D"/>
<path d="M309.988 530.315H307.675V572.728H309.988V530.315Z" fill="#72716D"/>
<path d="M328.495 548.823H326.182V591.236H328.495V548.823Z" fill="#72716D"/>
<path d="M347.002 530.315H344.689V572.728H347.002V530.315Z" fill="#72716D"/>
<path d="M365.51 548.823H363.197V591.236H365.51V548.823Z" fill="#72716D"/>
<path d="M180.436 615.141H178.123V657.554H180.436V615.141Z" fill="#72716D"/>
<path d="M198.944 596.633H196.631V639.046H198.944V596.633Z" fill="#72716D"/>
<path d="M217.451 615.141H215.138V657.554H217.451V615.141Z" fill="#72716D"/>
<path d="M235.958 596.633H233.645V639.046H235.958V596.633Z" fill="#72716D"/>
<path d="M254.466 615.141H252.153V657.554H254.466V615.141Z" fill="#72716D"/>
<path d="M272.973 596.633H270.66V639.046H272.973V596.633Z" fill="#72716D"/>
<path d="M291.48 615.141H289.167V657.554H291.48V615.141Z" fill="#72716D"/>
<path d="M309.988 596.633H307.675V639.046H309.988V596.633Z" fill="#72716D"/>
<path d="M328.495 615.141H326.182V657.554H328.495V615.141Z" fill="#72716D"/>
<path d="M347.002 596.633H344.689V639.046H347.002V596.633Z" fill="#72716D"/>
<path d="M365.51 615.141H363.197V657.554H365.51V615.141Z" fill="#72716D"/>
<path d="M104.864 444.719H102.551V487.132H104.864V444.719Z" fill="#72716D"/>
<path d="M123.372 463.226H121.059V505.639H123.372V463.226Z" fill="#72716D"/>
<path d="M141.879 444.719H139.566V487.132H141.879V444.719Z" fill="#72716D"/>
<path d="M160.386 463.226H158.073V505.639H160.386V463.226Z" fill="#72716D"/>
<path d="M104.864 511.037H102.551V553.45H104.864V511.037Z" fill="#72716D"/>
<path d="M123.372 529.544H121.059V571.957H123.372V529.544Z" fill="#72716D"/>
<path d="M141.879 511.037H139.566V553.45H141.879V511.037Z" fill="#72716D"/>
<path d="M160.386 529.544H158.073V571.957H160.386V529.544Z" fill="#72716D"/>
<path d="M104.864 312.083H102.551V354.496H104.864V312.083Z" fill="#72716D"/>
<path d="M123.372 330.59H121.059V373.003H123.372V330.59Z" fill="#72716D"/>
<path d="M141.879 312.083H139.566V354.496H141.879V312.083Z" fill="#72716D"/>
<path d="M160.386 330.59H158.073V373.003H160.386V330.59Z" fill="#72716D"/>
<path d="M104.864 378.401H102.551V420.814H104.864V378.401Z" fill="#72716D"/>
<path d="M123.372 396.908H121.059V439.321H123.372V396.908Z" fill="#72716D"/>
<path d="M141.879 378.401H139.566V420.814H141.879V378.401Z" fill="#72716D"/>
<path d="M160.386 396.908H158.073V439.321H160.386V396.908Z" fill="#72716D"/>
<path d="M104.864 179.447H102.551V221.86H104.864V179.447Z" fill="#72716D"/>
<path d="M123.372 197.954H121.059V240.367H123.372V197.954Z" fill="#72716D"/>
<path d="M141.879 179.447H139.566V221.86H141.879V179.447Z" fill="#72716D"/>
<path d="M160.386 197.954H158.073V240.367H160.386V197.954Z" fill="#72716D"/>
<path d="M104.864 245.765H102.551V288.178H104.864V245.765Z" fill="#72716D"/>
<path d="M123.372 264.272H121.059V306.685H123.372V264.272Z" fill="#72716D"/>
<path d="M141.879 245.765H139.566V288.178H141.879V245.765Z" fill="#72716D"/>
<path d="M160.386 264.272H158.073V306.685H160.386V264.272Z" fill="#72716D"/>
<path d="M123.372 65.318H121.059V107.731H123.372V65.318Z" fill="#72716D"/>
<path d="M160.386 65.318H158.073V107.731H160.386V65.318Z" fill="#72716D"/>
<path d="M104.864 113.129H102.551V155.542H104.864V113.129Z" fill="#72716D"/>
<path d="M123.372 131.636H121.059V174.049H123.372V131.636Z" fill="#72716D"/>
<path d="M141.879 113.129H139.566V155.542H141.879V113.129Z" fill="#72716D"/>
<path d="M160.386 131.636H158.073V174.049H160.386V131.636Z" fill="#72716D"/>
<path d="M105.636 710.762H103.323V753.175H105.636V710.762Z" fill="#72716D"/>
<path d="M124.143 729.269H121.83V771.682H124.143V729.269Z" fill="#72716D"/>
<path d="M142.65 710.762H140.337V753.175H142.65V710.762Z" fill="#72716D"/>
<path d="M161.158 729.269H158.845V771.682H161.158V729.269Z" fill="#72716D"/>
<path d="M105.636 777.08H103.323V819.493H105.636V777.08Z" fill="#72716D"/>
<path d="M124.143 795.587H121.83V838H124.143V795.587Z" fill="#72716D"/>
<path d="M142.65 777.08H140.337V819.493H142.65V777.08Z" fill="#72716D"/>
<path d="M161.158 795.587H158.845V838H161.158V795.587Z" fill="#72716D"/>
<path d="M105.636 578.126H103.323V620.539H105.636V578.126Z" fill="#72716D"/>
<path d="M124.143 596.633H121.83V639.046H124.143V596.633Z" fill="#72716D"/>
<path d="M142.65 578.126H140.337V620.539H142.65V578.126Z" fill="#72716D"/>
<path d="M161.158 596.633H158.845V639.046H161.158V596.633Z" fill="#72716D"/>
<path d="M105.636 644.444H103.323V686.857H105.636V644.444Z" fill="#72716D"/>
<path d="M124.143 662.951H121.83V705.364H124.143V662.951Z" fill="#72716D"/>
<path d="M142.65 644.444H140.337V686.857H142.65V644.444Z" fill="#72716D"/>
<path d="M161.158 662.951H158.845V705.364H161.158V662.951Z" fill="#72716D"/>
<path d="M791.313 499.226H789V541.639H791.313V499.226Z" fill="#72716D"/>
<path d="M809.82 480.719H807.507V523.132H809.82V480.719Z" fill="#72716D"/>
<path d="M828.329 499.226H826.015V541.639H828.329V499.226Z" fill="#72716D"/>
<path d="M846.835 480.719H844.522V523.132H846.835V480.719Z" fill="#72716D"/>
<path d="M865.342 499.226H863.029V541.639H865.342V499.226Z" fill="#72716D"/>
<path d="M883.851 480.719H881.537V523.132H883.851V480.719Z" fill="#72716D"/>
<path d="M902.357 499.226H900.044V541.639H902.357V499.226Z" fill="#72716D"/>
<path d="M920.865 480.719H918.552V523.132H920.865V480.719Z" fill="#72716D"/>
<path d="M939.372 499.226H937.059V541.639H939.372V499.226Z" fill="#72716D"/>
<path d="M957.879 480.719H955.566V523.132H957.879V480.719Z" fill="#72716D"/>
<path d="M791.313 565.544H789V607.957H791.313V565.544Z" fill="#72716D"/>
<path d="M809.82 547.037H807.507V589.45H809.82V547.037Z" fill="#72716D"/>
<path d="M828.329 565.544H826.015V607.957H828.329V565.544Z" fill="#72716D"/>
<path d="M846.835 547.037H844.522V589.45H846.835V547.037Z" fill="#72716D"/>
<path d="M865.342 565.544H863.029V607.957H865.342V565.544Z" fill="#72716D"/>
<path d="M883.851 547.037H881.537V589.45H883.851V547.037Z" fill="#72716D"/>
<path d="M902.357 565.544H900.044V607.957H902.357V565.544Z" fill="#72716D"/>
<path d="M920.865 547.037H918.552V589.45H920.865V547.037Z" fill="#72716D"/>
<path d="M939.372 565.544H937.059V607.957H939.372V565.544Z" fill="#72716D"/>
<path d="M957.879 547.037H955.566V589.45H957.879V547.037Z" fill="#72716D"/>
<path d="M791.313 366.59H789V409.003H791.313V366.59Z" fill="#72716D"/>
<path d="M809.82 348.083H807.507V390.496H809.82V348.083Z" fill="#72716D"/>
<path d="M828.329 366.59H826.015V409.003H828.329V366.59Z" fill="#72716D"/>
<path d="M846.835 348.083H844.522V390.496H846.835V348.083Z" fill="#72716D"/>
<path d="M865.342 366.59H863.029V409.003H865.342V366.59Z" fill="#72716D"/>
<path d="M883.851 348.083H881.537V390.496H883.851V348.083Z" fill="#72716D"/>
<path d="M902.357 366.59H900.044V409.003H902.357V366.59Z" fill="#72716D"/>
<path d="M920.865 348.083H918.552V390.496H920.865V348.083Z" fill="#72716D"/>
<path d="M939.372 366.59H937.059V409.003H939.372V366.59Z" fill="#72716D"/>
<path d="M957.879 348.083H955.566V390.496H957.879V348.083Z" fill="#72716D"/>
<path d="M791.313 432.908H789V475.321H791.313V432.908Z" fill="#72716D"/>
<path d="M809.82 414.401H807.507V456.814H809.82V414.401Z" fill="#72716D"/>
<path d="M828.329 432.908H826.015V475.321H828.329V432.908Z" fill="#72716D"/>
<path d="M846.835 414.401H844.522V456.814H846.835V414.401Z" fill="#72716D"/>
<path d="M865.342 432.908H863.029V475.321H865.342V432.908Z" fill="#72716D"/>
<path d="M883.851 414.401H881.537V456.814H883.851V414.401Z" fill="#72716D"/>
<path d="M902.357 432.908H900.044V475.321H902.357V432.908Z" fill="#72716D"/>
<path d="M920.865 414.401H918.552V456.814H920.865V414.401Z" fill="#72716D"/>
<path d="M939.372 432.908H937.059V475.321H939.372V432.908Z" fill="#72716D"/>
<path d="M957.879 414.401H955.566V456.814H957.879V414.401Z" fill="#72716D"/>
<path d="M791.313 233.954H789V276.367H791.313V233.954Z" fill="#72716D"/>
<path d="M809.82 215.447H807.507V257.86H809.82V215.447Z" fill="#72716D"/>
<path d="M828.329 233.954H826.015V276.367H828.329V233.954Z" fill="#72716D"/>
<path d="M846.835 215.447H844.522V257.86H846.835V215.447Z" fill="#72716D"/>
<path d="M865.342 233.954H863.029V276.367H865.342V233.954Z" fill="#72716D"/>
<path d="M883.851 215.447H881.537V257.86H883.851V215.447Z" fill="#72716D"/>
<path d="M902.357 233.954H900.044V276.367H902.357V233.954Z" fill="#72716D"/>
<path d="M920.865 215.447H918.552V257.86H920.865V215.447Z" fill="#72716D"/>
<path d="M939.372 233.954H937.059V276.367H939.372V233.954Z" fill="#72716D"/>
<path d="M957.879 215.447H955.566V257.86H957.879V215.447Z" fill="#72716D"/>
<path d="M791.313 300.272H789V342.685H791.313V300.272Z" fill="#72716D"/>
<path d="M809.82 281.765H807.507V324.178H809.82V281.765Z" fill="#72716D"/>
<path d="M828.329 300.272H826.015V342.685H828.329V300.272Z" fill="#72716D"/>
<path d="M846.835 281.765H844.522V324.178H846.835V281.765Z" fill="#72716D"/>
<path d="M865.342 300.272H863.029V342.685H865.342V300.272Z" fill="#72716D"/>
<path d="M883.851 281.765H881.537V324.178H883.851V281.765Z" fill="#72716D"/>
<path d="M902.357 300.272H900.044V342.685H902.357V300.272Z" fill="#72716D"/>
<path d="M920.865 281.765H918.552V324.178H920.865V281.765Z" fill="#72716D"/>
<path d="M939.372 300.272H937.059V342.685H939.372V300.272Z" fill="#72716D"/>
<path d="M957.879 281.765H955.566V324.178H957.879V281.765Z" fill="#72716D"/>
<path d="M791.313 101.318H789V143.731H791.313V101.318Z" fill="#72716D"/>
<path d="M809.82 82.8107H807.507V125.223H809.82V82.8107Z" fill="#72716D"/>
<path d="M828.329 101.318H826.015V143.731H828.329V101.318Z" fill="#72716D"/>
<path d="M846.835 82.8107H844.522V125.223H846.835V82.8107Z" fill="#72716D"/>
<path d="M865.342 101.318H863.029V143.731H865.342V101.318Z" fill="#72716D"/>
<path d="M883.851 82.8107H881.537V125.223H883.851V82.8107Z" fill="#72716D"/>
<path d="M902.357 101.318H900.044V143.731H902.357V101.318Z" fill="#72716D"/>
<path d="M920.865 82.8107H918.552V125.223H920.865V82.8107Z" fill="#72716D"/>
<path d="M939.372 101.318H937.059V143.731H939.372V101.318Z" fill="#72716D"/>
<path d="M957.879 82.8107H955.566V125.223H957.879V82.8107Z" fill="#72716D"/>
<path d="M791.313 167.636H789V210.049H791.313V167.636Z" fill="#72716D"/>
<path d="M809.82 149.129H807.507V191.542H809.82V149.129Z" fill="#72716D"/>
<path d="M828.329 167.636H826.015V210.049H828.329V167.636Z" fill="#72716D"/>
<path d="M846.835 149.129H844.522V191.542H846.835V149.129Z" fill="#72716D"/>
<path d="M865.342 167.636H863.029V210.049H865.342V167.636Z" fill="#72716D"/>
<path d="M883.851 149.129H881.537V191.542H883.851V149.129Z" fill="#72716D"/>
<path d="M902.357 167.636H900.044V210.049H902.357V167.636Z" fill="#72716D"/>
<path d="M920.865 149.129H918.552V191.542H920.865V149.129Z" fill="#72716D"/>
<path d="M939.372 167.636H937.059V210.049H939.372V167.636Z" fill="#72716D"/>
<path d="M957.879 149.129H955.566V191.542H957.879V149.129Z" fill="#72716D"/>
<path d="M792.084 765.269H789.771V807.682H792.084V765.269Z" fill="#72716D"/>
<path d="M810.591 746.762H808.278V789.175H810.591V746.762Z" fill="#72716D"/>
<path d="M829.1 765.269H826.786V807.682H829.1V765.269Z" fill="#72716D"/>
<path d="M847.606 746.762H845.293V789.175H847.606V746.762Z" fill="#72716D"/>
<path d="M866.114 765.269H863.801V807.682H866.114V765.269Z" fill="#72716D"/>
<path d="M884.622 746.762H882.308V789.175H884.622V746.762Z" fill="#72716D"/>
<path d="M903.128 765.269H900.815V807.682H903.128V765.269Z" fill="#72716D"/>
<path d="M921.636 746.762H919.323V789.175H921.636V746.762Z" fill="#72716D"/>
<path d="M940.143 765.269H937.83V807.682H940.143V765.269Z" fill="#72716D"/>
<path d="M958.65 746.762H956.337V789.175H958.65V746.762Z" fill="#72716D"/>
<path d="M792.084 831.587H789.771V874H792.084V831.587Z" fill="#72716D"/>
<path d="M810.591 813.08H808.278V855.493H810.591V813.08Z" fill="#72716D"/>
<path d="M829.1 831.587H826.786V874H829.1V831.587Z" fill="#72716D"/>
<path d="M847.606 813.08H845.293V855.493H847.606V813.08Z" fill="#72716D"/>
<path d="M866.114 831.587H863.801V874H866.114V831.587Z" fill="#72716D"/>
<path d="M884.622 813.08H882.308V855.493H884.622V813.08Z" fill="#72716D"/>
<path d="M903.128 831.587H900.815V874H903.128V831.587Z" fill="#72716D"/>
<path d="M921.636 813.08H919.323V855.493H921.636V813.08Z" fill="#72716D"/>
<path d="M940.143 831.587H937.83V874H940.143V831.587Z" fill="#72716D"/>
<path d="M958.65 813.08H956.337V855.493H958.65V813.08Z" fill="#72716D"/>
<path d="M792.084 632.633H789.771V675.046H792.084V632.633Z" fill="#72716D"/>
<path d="M810.591 614.126H808.278V656.539H810.591V614.126Z" fill="#72716D"/>
<path d="M829.1 632.633H826.786V675.046H829.1V632.633Z" fill="#72716D"/>
<path d="M847.606 614.126H845.293V656.539H847.606V614.126Z" fill="#72716D"/>
<path d="M866.114 632.633H863.801V675.046H866.114V632.633Z" fill="#72716D"/>
<path d="M884.622 614.126H882.308V656.539H884.622V614.126Z" fill="#72716D"/>
<path d="M903.128 632.633H900.815V675.046H903.128V632.633Z" fill="#72716D"/>
<path d="M921.636 614.126H919.323V656.539H921.636V614.126Z" fill="#72716D"/>
<path d="M940.143 632.633H937.83V675.046H940.143V632.633Z" fill="#72716D"/>
<path d="M958.65 614.126H956.337V656.539H958.65V614.126Z" fill="#72716D"/>
<path d="M792.084 698.951H789.771V741.364H792.084V698.951Z" fill="#72716D"/>
<path d="M810.591 680.444H808.278V722.857H810.591V680.444Z" fill="#72716D"/>
<path d="M829.1 698.951H826.786V741.364H829.1V698.951Z" fill="#72716D"/>
<path d="M847.606 680.444H845.293V722.857H847.606V680.444Z" fill="#72716D"/>
<path d="M866.114 698.951H863.801V741.364H866.114V698.951Z" fill="#72716D"/>
<path d="M884.622 680.444H882.308V722.857H884.622V680.444Z" fill="#72716D"/>
<path d="M903.128 698.951H900.815V741.364H903.128V698.951Z" fill="#72716D"/>
<path d="M921.636 680.444H919.323V722.857H921.636V680.444Z" fill="#72716D"/>
<path d="M940.143 698.951H937.83V741.364H940.143V698.951Z" fill="#72716D"/>
<path d="M958.65 680.444H956.337V722.857H958.65V680.444Z" fill="#72716D"/>
<path d="M792.598 867.751H790.285V910.164H792.598V867.751Z" fill="#72716D"/>
<path d="M811.105 849.244H808.792V891.657H811.105V849.244Z" fill="#72716D"/>
<path d="M829.613 867.751H827.3V910.164H829.613V867.751Z" fill="#72716D"/>
<path d="M848.121 849.244H845.807V891.657H848.121V849.244Z" fill="#72716D"/>
<path d="M866.627 867.751H864.314V910.164H866.627V867.751Z" fill="#72716D"/>
<path d="M885.135 849.244H882.822V891.657H885.135V849.244Z" fill="#72716D"/>
<path d="M903.643 867.751H901.329V910.164H903.643V867.751Z" fill="#72716D"/>
<path d="M922.149 849.244H919.836V891.657H922.149V849.244Z" fill="#72716D"/>
<path d="M940.657 867.751H938.344V910.164H940.657V867.751Z" fill="#72716D"/>
<path d="M959.164 849.244H956.851V891.657H959.164V849.244Z" fill="#72716D"/>
<path d="M792.598 934.069H790.285V976.482H792.598V934.069Z" fill="#72716D"/>
<path d="M811.105 915.562H808.792V957.975H811.105V915.562Z" fill="#72716D"/>
<path d="M829.613 934.069H827.3V976.482H829.613V934.069Z" fill="#72716D"/>
<path d="M848.121 915.562H845.807V957.975H848.121V915.562Z" fill="#72716D"/>
<path d="M866.627 934.069H864.314V976.482H866.627V934.069Z" fill="#72716D"/>
<path d="M885.135 915.562H882.822V957.975H885.135V915.562Z" fill="#72716D"/>
<path d="M903.643 934.069H901.329V976.482H903.643V934.069Z" fill="#72716D"/>
<path d="M922.149 915.562H919.836V957.975H922.149V915.562Z" fill="#72716D"/>
<path d="M940.657 934.069H938.344V976.482H940.657V934.069Z" fill="#72716D"/>
<path d="M959.164 915.562H956.851V957.975H959.164V915.562Z" fill="#72716D"/>
<path d="M607.524 963.372H605.211V1005.78H607.524V963.372Z" fill="#72716D"/>
<path d="M644.539 963.372H642.226V1005.78H644.539V963.372Z" fill="#72716D"/>
<path d="M681.554 963.372H679.241V1005.78H681.554V963.372Z" fill="#72716D"/>
<path d="M718.569 963.372H716.256V1005.78H718.569V963.372Z" fill="#72716D"/>
<path d="M755.583 963.372H753.27V1005.78H755.583V963.372Z" fill="#72716D"/>
<path d="M589.018 849.244H586.704V891.657H589.018V849.244Z" fill="#72716D"/>
<path d="M607.524 830.736H605.211V873.149H607.524V830.736Z" fill="#72716D"/>
<path d="M626.032 849.244H623.719V891.657H626.032V849.244Z" fill="#72716D"/>
<path d="M644.539 830.736H642.226V873.149H644.539V830.736Z" fill="#72716D"/>
<path d="M663.047 849.244H660.734V891.657H663.047V849.244Z" fill="#72716D"/>
<path d="M681.554 830.736H679.241V873.149H681.554V830.736Z" fill="#72716D"/>
<path d="M700.061 849.244H697.748V891.657H700.061V849.244Z" fill="#72716D"/>
<path d="M718.569 830.736H716.256V873.149H718.569V830.736Z" fill="#72716D"/>
<path d="M737.076 849.244H734.763V891.657H737.076V849.244Z" fill="#72716D"/>
<path d="M755.583 830.736H753.27V873.149H755.583V830.736Z" fill="#72716D"/>
<path d="M774.091 849.244H771.778V891.657H774.091V849.244Z" fill="#72716D"/>
<path d="M589.018 915.562H586.704V957.975H589.018V915.562Z" fill="#72716D"/>
<path d="M607.524 897.054H605.211V939.467H607.524V897.054Z" fill="#72716D"/>
<path d="M626.032 915.562H623.719V957.975H626.032V915.562Z" fill="#72716D"/>
<path d="M644.539 897.054H642.226V939.467H644.539V897.054Z" fill="#72716D"/>
<path d="M663.047 915.562H660.734V957.975H663.047V915.562Z" fill="#72716D"/>
<path d="M681.554 897.054H679.241V939.467H681.554V897.054Z" fill="#72716D"/>
<path d="M700.061 915.562H697.748V957.975H700.061V915.562Z" fill="#72716D"/>
<path d="M718.569 897.054H716.256V939.467H718.569V897.054Z" fill="#72716D"/>
<path d="M737.076 915.562H734.763V957.975H737.076V915.562Z" fill="#72716D"/>
<path d="M755.583 897.054H753.27V939.467H755.583V897.054Z" fill="#72716D"/>
<path d="M774.091 915.562H771.778V957.975H774.091V915.562Z" fill="#72716D"/>
<path d="M384.665 964.143H382.352V1006.56H384.665V964.143Z" fill="#72716D"/>
<path d="M403.172 945.636H400.859V988.049H403.172V945.636Z" fill="#72716D"/>
<path d="M421.68 964.143H419.367V1006.56H421.68V964.143Z" fill="#72716D"/>
<path d="M440.187 945.636H437.874V988.049H440.187V945.636Z" fill="#72716D"/>
<path d="M458.694 964.143H456.381V1006.56H458.694V964.143Z" fill="#72716D"/>
<path d="M477.202 945.636H474.889V988.049H477.202V945.636Z" fill="#72716D"/>
<path d="M495.709 964.143H493.396V1006.56H495.709V964.143Z" fill="#72716D"/>
<path d="M514.217 945.636H511.904V988.049H514.217V945.636Z" fill="#72716D"/>
<path d="M532.724 964.143H530.411V1006.56H532.724V964.143Z" fill="#72716D"/>
<path d="M551.231 945.636H548.918V988.049H551.231V945.636Z" fill="#72716D"/>
<path d="M569.739 964.143H567.426V1006.56H569.739V964.143Z" fill="#72716D"/>
<path d="M384.665 831.507H382.352V873.92H384.665V831.507Z" fill="#72716D"/>
<path d="M403.172 813H400.859V855.413H403.172V813Z" fill="#72716D"/>
<path d="M421.68 831.507H419.367V873.92H421.68V831.507Z" fill="#72716D"/>
<path d="M440.187 813H437.874V855.413H440.187V813Z" fill="#72716D"/>
<path d="M458.694 831.507H456.381V873.92H458.694V831.507Z" fill="#72716D"/>
<path d="M477.202 813H474.889V855.413H477.202V813Z" fill="#72716D"/>
<path d="M495.709 831.507H493.396V873.92H495.709V831.507Z" fill="#72716D"/>
<path d="M514.217 813H511.904V855.413H514.217V813Z" fill="#72716D"/>
<path d="M532.724 831.507H530.411V873.92H532.724V831.507Z" fill="#72716D"/>
<path d="M551.231 813H548.918V855.413H551.231V813Z" fill="#72716D"/>
<path d="M569.739 831.507H567.426V873.92H569.739V831.507Z" fill="#72716D"/>
<path d="M384.665 897.825H382.352V940.238H384.665V897.825Z" fill="#72716D"/>
<path d="M403.172 879.318H400.859V921.731H403.172V879.318Z" fill="#72716D"/>
<path d="M421.68 897.825H419.367V940.238H421.68V897.825Z" fill="#72716D"/>
<path d="M440.187 879.318H437.874V921.731H440.187V879.318Z" fill="#72716D"/>
<path d="M458.694 897.825H456.381V940.238H458.694V897.825Z" fill="#72716D"/>
<path d="M477.202 879.318H474.889V921.731H477.202V879.318Z" fill="#72716D"/>
<path d="M495.709 897.825H493.396V940.238H495.709V897.825Z" fill="#72716D"/>
<path d="M514.217 879.318H511.904V921.731H514.217V879.318Z" fill="#72716D"/>
<path d="M532.724 897.825H530.411V940.238H532.724V897.825Z" fill="#72716D"/>
<path d="M551.231 879.318H548.918V921.731H551.231V879.318Z" fill="#72716D"/>
<path d="M569.739 897.825H567.426V940.238H569.739V897.825Z" fill="#72716D"/>
<path d="M180.313 879.318H178V921.731H180.313V879.318Z" fill="#72716D"/>
<path d="M198.82 860.811H196.507V903.224H198.82V860.811Z" fill="#72716D"/>
<path d="M217.328 879.318H215.015V921.731H217.328V879.318Z" fill="#72716D"/>
<path d="M235.835 860.811H233.522V903.224H235.835V860.811Z" fill="#72716D"/>
<path d="M254.342 879.318H252.029V921.731H254.342V879.318Z" fill="#72716D"/>
<path d="M272.85 860.811H270.537V903.224H272.85V860.811Z" fill="#72716D"/>
<path d="M291.357 879.318H289.044V921.731H291.357V879.318Z" fill="#72716D"/>
<path d="M309.864 860.811H307.551V903.224H309.864V860.811Z" fill="#72716D"/>
<path d="M328.372 879.318H326.059V921.731H328.372V879.318Z" fill="#72716D"/>
<path d="M346.879 860.811H344.566V903.224H346.879V860.811Z" fill="#72716D"/>
<path d="M365.386 879.318H363.073V921.731H365.386V879.318Z" fill="#72716D"/>
<path d="M180.313 945.636H178V988.049H180.313V945.636Z" fill="#72716D"/>
<path d="M198.82 927.129H196.507V969.542H198.82V927.129Z" fill="#72716D"/>
<path d="M217.328 945.636H215.015V988.049H217.328V945.636Z" fill="#72716D"/>
<path d="M235.835 927.129H233.522V969.542H235.835V927.129Z" fill="#72716D"/>
<path d="M254.342 945.636H252.029V988.049H254.342V945.636Z" fill="#72716D"/>
<path d="M272.85 927.129H270.537V969.542H272.85V927.129Z" fill="#72716D"/>
<path d="M291.357 945.636H289.044V988.049H291.357V945.636Z" fill="#72716D"/>
<path d="M309.864 927.129H307.551V969.542H309.864V927.129Z" fill="#72716D"/>
<path d="M328.372 945.636H326.059V988.049H328.372V945.636Z" fill="#72716D"/>
<path d="M346.879 927.129H344.566V969.542H346.879V927.129Z" fill="#72716D"/>
<path d="M365.386 945.636H363.073V988.049H365.386V945.636Z" fill="#72716D"/>
<path d="M180.598 949.387H178.285V991.8H180.598V949.387Z" fill="#72716D"/>
<path d="M199.105 930.88H196.792V973.293H199.105V930.88Z" fill="#72716D"/>
<path d="M217.612 949.387H215.299V991.8H217.612V949.387Z" fill="#72716D"/>
<path d="M236.12 930.88H233.807V973.293H236.12V930.88Z" fill="#72716D"/>
<path d="M254.627 949.387H252.314V991.8H254.627V949.387Z" fill="#72716D"/>
<path d="M273.135 930.88H270.822V973.293H273.135V930.88Z" fill="#72716D"/>
<path d="M291.642 949.387H289.329V991.8H291.642V949.387Z" fill="#72716D"/>
<path d="M310.149 930.88H307.836V973.293H310.149V930.88Z" fill="#72716D"/>
<path d="M328.657 949.387H326.344V991.8H328.657V949.387Z" fill="#72716D"/>
<path d="M347.164 930.88H344.851V973.293H347.164V930.88Z" fill="#72716D"/>
<path d="M365.671 949.387H363.358V991.8H365.671V949.387Z" fill="#72716D"/>
<path d="M180.598 816.751H178.285V859.164H180.598V816.751Z" fill="#72716D"/>
<path d="M199.105 798.244H196.792V840.657H199.105V798.244Z" fill="#72716D"/>
<path d="M217.613 816.751H215.3V859.164H217.613V816.751Z" fill="#72716D"/>
<path d="M236.12 798.244H233.807V840.657H236.12V798.244Z" fill="#72716D"/>
<path d="M254.627 816.751H252.314V859.164H254.627V816.751Z" fill="#72716D"/>
<path d="M273.135 798.244H270.822V840.657H273.135V798.244Z" fill="#72716D"/>
<path d="M291.642 816.751H289.329V859.164H291.642V816.751Z" fill="#72716D"/>
<path d="M310.149 798.244H307.836V840.657H310.149V798.244Z" fill="#72716D"/>
<path d="M328.657 816.751H326.344V859.164H328.657V816.751Z" fill="#72716D"/>
<path d="M347.164 798.244H344.851V840.657H347.164V798.244Z" fill="#72716D"/>
<path d="M365.671 816.751H363.358V859.164H365.671V816.751Z" fill="#72716D"/>
<path d="M180.598 883.069H178.285V925.482H180.598V883.069Z" fill="#72716D"/>
<path d="M199.105 864.562H196.792V906.975H199.105V864.562Z" fill="#72716D"/>
<path d="M217.612 883.069H215.299V925.482H217.612V883.069Z" fill="#72716D"/>
<path d="M236.12 864.562H233.807V906.975H236.12V864.562Z" fill="#72716D"/>
<path d="M254.627 883.069H252.314V925.482H254.627V883.069Z" fill="#72716D"/>
<path d="M273.135 864.562H270.822V906.975H273.135V864.562Z" fill="#72716D"/>
<path d="M291.642 883.069H289.329V925.482H291.642V883.069Z" fill="#72716D"/>
<path d="M310.149 864.562H307.836V906.975H310.149V864.562Z" fill="#72716D"/>
<path d="M328.657 883.069H326.344V925.482H328.657V883.069Z" fill="#72716D"/>
<path d="M347.164 864.562H344.851V906.975H347.164V864.562Z" fill="#72716D"/>
<path d="M365.671 883.069H363.358V925.482H365.671V883.069Z" fill="#72716D"/>
<path d="M106.568 912.372H104.255V954.785H106.568V912.372Z" fill="#72716D"/>
<path d="M125.076 930.88H122.763V973.293H125.076V930.88Z" fill="#72716D"/>
<path d="M143.583 912.372H141.27V954.785H143.583V912.372Z" fill="#72716D"/>
<path d="M162.091 930.88H159.778V973.293H162.091V930.88Z" fill="#72716D"/>
<path d="M106.568 779.736H104.255V822.149H106.568V779.736Z" fill="#72716D"/>
<path d="M125.076 798.244H122.763V840.657H125.076V798.244Z" fill="#72716D"/>
<path d="M143.583 779.736H141.27V822.149H143.583V779.736Z" fill="#72716D"/>
<path d="M162.091 798.244H159.778V840.657H162.091V798.244Z" fill="#72716D"/>
<path d="M106.568 846.054H104.255V888.467H106.568V846.054Z" fill="#72716D"/>
<path d="M125.076 864.562H122.763V906.975H125.076V864.562Z" fill="#72716D"/>
<path d="M143.583 846.054H141.27V888.467H143.583V846.054Z" fill="#72716D"/>
<path d="M162.091 864.562H159.778V906.975H162.091V864.562Z" fill="#72716D"/>
</g>
<circle cx="533.5" cy="428.5" r="65.5" fill="#22262C"/>
<path d="M500 482L476 716H597L568.5 482H500Z" fill="#22262C"/>
</g>
<defs>
<clipPath id="clip0_0_1">
<rect width="1067" height="1069" fill="white"/>
</clipPath>
</defs>
</svg>
