<svg width="1067" height="1068" viewBox="0 0 1067 1068" fill="none" xmlns="http://www.w3.org/2000/svg">
<rect width="1067" height="1068" fill="#1E1E1E"/>
<path d="M1067 0H0V1068H1067V0Z" fill="#22262C"/>
<g clip-path="url(#clip0_0_1)">
<path d="M1067 1H0V1069H1067V1Z" fill="#22262C"/>
<circle cx="534" cy="534" r="431" fill="#BCBAB4"/>
<mask id="mask0_0_1" style="mask-type:alpha" maskUnits="userSpaceOnUse" x="103" y="103" width="862" height="862">
<circle cx="534" cy="534" r="431" fill="#B4B4B4"/>
</mask>
<g mask="url(#mask0_0_1)">
<rect x="-36.4178" y="813.831" width="1224" height="124.836" transform="rotate(-30 -36.4178 813.831)" fill="#D9D9D9"/>
<rect x="688.285" y="555.659" width="2.31342" height="42.4127" fill="#72716D"/>
<rect x="706.792" y="537.152" width="2.31342" height="42.4127" fill="#72716D"/>
<rect x="725.3" y="555.659" width="2.31342" height="42.4127" fill="#72716D"/>
<rect x="743.807" y="537.152" width="2.31342" height="42.4127" fill="#72716D"/>
<rect x="762.314" y="555.659" width="2.31342" height="42.4127" fill="#72716D"/>
<rect x="780.822" y="537.152" width="2.31342" height="42.4127" fill="#72716D"/>
<rect x="799.329" y="555.659" width="2.31342" height="42.4127" fill="#72716D"/>
<rect x="817.836" y="537.152" width="2.31342" height="42.4127" fill="#72716D"/>
<rect x="836.344" y="555.659" width="2.31342" height="42.4127" fill="#72716D"/>
<rect x="854.851" y="537.152" width="2.31342" height="42.4127" fill="#72716D"/>
<rect x="873.358" y="555.659" width="2.31342" height="42.4127" fill="#72716D"/>
<rect x="688.285" y="621.977" width="2.31342" height="42.4127" fill="#72716D"/>
<rect x="706.792" y="603.47" width="2.31342" height="42.4127" fill="#72716D"/>
<rect x="725.3" y="621.977" width="2.31342" height="42.4127" fill="#72716D"/>
<rect x="743.807" y="603.47" width="2.31342" height="42.4127" fill="#72716D"/>
<rect x="762.314" y="621.977" width="2.31342" height="42.4127" fill="#72716D"/>
<rect x="780.822" y="603.47" width="2.31342" height="42.4127" fill="#72716D"/>
<rect x="799.329" y="621.977" width="2.31342" height="42.4127" fill="#72716D"/>
<rect x="817.836" y="603.47" width="2.31342" height="42.4127" fill="#72716D"/>
<rect x="836.344" y="621.977" width="2.31342" height="42.4127" fill="#72716D"/>
<rect x="854.851" y="603.47" width="2.31342" height="42.4127" fill="#72716D"/>
<rect x="873.358" y="621.977" width="2.31342" height="42.4127" fill="#72716D"/>
<rect x="688.285" y="423.023" width="2.31342" height="42.4127" fill="#72716D"/>
<rect x="706.792" y="404.516" width="2.31342" height="42.4127" fill="#72716D"/>
<rect x="725.3" y="423.023" width="2.31342" height="42.4127" fill="#72716D"/>
<rect x="743.807" y="404.516" width="2.31342" height="42.4127" fill="#72716D"/>
<rect x="762.314" y="423.023" width="2.31342" height="42.4127" fill="#72716D"/>
<rect x="780.822" y="404.516" width="2.31342" height="42.4127" fill="#72716D"/>
<rect x="799.329" y="423.023" width="2.31342" height="42.4127" fill="#72716D"/>
<rect x="817.836" y="404.516" width="2.31342" height="42.4127" fill="#72716D"/>
<rect x="836.344" y="423.023" width="2.31342" height="42.4127" fill="#72716D"/>
<rect x="854.851" y="404.516" width="2.31342" height="42.4127" fill="#72716D"/>
<rect x="873.358" y="423.023" width="2.31342" height="42.4127" fill="#72716D"/>
<rect x="688.285" y="489.341" width="2.31342" height="42.4127" fill="#72716D"/>
<rect x="706.792" y="470.834" width="2.31342" height="42.4127" fill="#72716D"/>
<rect x="725.3" y="489.341" width="2.31342" height="42.4127" fill="#72716D"/>
<rect x="743.807" y="470.834" width="2.31342" height="42.4127" fill="#72716D"/>
<rect x="762.314" y="489.341" width="2.31342" height="42.4127" fill="#72716D"/>
<rect x="780.822" y="470.834" width="2.31342" height="42.4127" fill="#72716D"/>
<rect x="799.329" y="489.341" width="2.31342" height="42.4127" fill="#72716D"/>
<rect x="817.836" y="470.834" width="2.31342" height="42.4127" fill="#72716D"/>
<rect x="836.344" y="489.341" width="2.31342" height="42.4127" fill="#72716D"/>
<rect x="854.851" y="470.834" width="2.31342" height="42.4127" fill="#72716D"/>
<rect x="873.358" y="489.341" width="2.31342" height="42.4127" fill="#72716D"/>
<rect x="688.285" y="290.387" width="2.31342" height="42.4127" fill="#72716D"/>
<rect x="706.792" y="271.88" width="2.31342" height="42.4127" fill="#72716D"/>
<rect x="725.3" y="290.387" width="2.31342" height="42.4127" fill="#72716D"/>
<rect x="743.807" y="271.88" width="2.31342" height="42.4127" fill="#72716D"/>
<rect x="762.314" y="290.387" width="2.31342" height="42.4127" fill="#72716D"/>
<rect x="780.822" y="271.88" width="2.31342" height="42.4127" fill="#72716D"/>
<rect x="799.329" y="290.387" width="2.31342" height="42.4127" fill="#72716D"/>
<rect x="817.836" y="271.88" width="2.31342" height="42.4127" fill="#72716D"/>
<rect x="836.344" y="290.387" width="2.31342" height="42.4127" fill="#72716D"/>
<rect x="854.851" y="271.88" width="2.31342" height="42.4127" fill="#72716D"/>
<rect x="873.358" y="290.387" width="2.31342" height="42.4127" fill="#72716D"/>
<rect x="688.285" y="356.705" width="2.31342" height="42.4127" fill="#72716D"/>
<rect x="706.792" y="338.198" width="2.31342" height="42.4127" fill="#72716D"/>
<rect x="725.3" y="356.705" width="2.31342" height="42.4127" fill="#72716D"/>
<rect x="743.807" y="338.198" width="2.31342" height="42.4127" fill="#72716D"/>
<rect x="762.314" y="356.705" width="2.31342" height="42.4127" fill="#72716D"/>
<rect x="780.822" y="338.198" width="2.31342" height="42.4127" fill="#72716D"/>
<rect x="799.329" y="356.705" width="2.31342" height="42.4127" fill="#72716D"/>
<rect x="817.836" y="338.198" width="2.31342" height="42.4127" fill="#72716D"/>
<rect x="836.344" y="356.705" width="2.31342" height="42.4127" fill="#72716D"/>
<rect x="854.851" y="338.198" width="2.31342" height="42.4127" fill="#72716D"/>
<rect x="873.358" y="356.705" width="2.31342" height="42.4127" fill="#72716D"/>
<rect x="688.285" y="157.751" width="2.31342" height="42.4127" fill="#72716D"/>
<rect x="706.792" y="139.244" width="2.31342" height="42.4127" fill="#72716D"/>
<rect x="725.3" y="157.751" width="2.31342" height="42.4127" fill="#72716D"/>
<rect x="743.807" y="139.244" width="2.31342" height="42.4127" fill="#72716D"/>
<rect x="762.314" y="157.751" width="2.31342" height="42.4127" fill="#72716D"/>
<rect x="780.822" y="139.244" width="2.31342" height="42.4127" fill="#72716D"/>
<rect x="799.329" y="157.751" width="2.31342" height="42.4127" fill="#72716D"/>
<rect x="817.836" y="139.244" width="2.31342" height="42.4127" fill="#72716D"/>
<rect x="836.344" y="157.751" width="2.31342" height="42.4127" fill="#72716D"/>
<rect x="854.851" y="139.244" width="2.31342" height="42.4127" fill="#72716D"/>
<rect x="873.358" y="157.751" width="2.31342" height="42.4127" fill="#72716D"/>
<rect x="688.285" y="224.069" width="2.31342" height="42.4127" fill="#72716D"/>
<rect x="706.792" y="205.562" width="2.31342" height="42.4127" fill="#72716D"/>
<rect x="725.3" y="224.069" width="2.31342" height="42.4127" fill="#72716D"/>
<rect x="743.807" y="205.562" width="2.31342" height="42.4127" fill="#72716D"/>
<rect x="762.314" y="224.069" width="2.31342" height="42.4127" fill="#72716D"/>
<rect x="780.822" y="205.562" width="2.31342" height="42.4127" fill="#72716D"/>
<rect x="799.329" y="224.069" width="2.31342" height="42.4127" fill="#72716D"/>
<rect x="817.836" y="205.562" width="2.31342" height="42.4127" fill="#72716D"/>
<rect x="836.344" y="224.069" width="2.31342" height="42.4127" fill="#72716D"/>
<rect x="854.851" y="205.562" width="2.31342" height="42.4127" fill="#72716D"/>
<rect x="873.358" y="224.069" width="2.31342" height="42.4127" fill="#72716D"/>
<rect x="689.056" y="821.702" width="2.31342" height="42.4127" fill="#72716D"/>
<rect x="707.563" y="803.195" width="2.31342" height="42.4127" fill="#72716D"/>
<rect x="726.071" y="821.702" width="2.31342" height="42.4127" fill="#72716D"/>
<rect x="744.578" y="803.195" width="2.31342" height="42.4127" fill="#72716D"/>
<rect x="763.085" y="821.702" width="2.31342" height="42.4127" fill="#72716D"/>
<rect x="781.593" y="803.195" width="2.31342" height="42.4127" fill="#72716D"/>
<rect x="800.1" y="821.702" width="2.31342" height="42.4127" fill="#72716D"/>
<rect x="818.607" y="803.195" width="2.31342" height="42.4127" fill="#72716D"/>
<rect x="837.115" y="821.702" width="2.31342" height="42.4127" fill="#72716D"/>
<rect x="855.622" y="803.195" width="2.31342" height="42.4127" fill="#72716D"/>
<rect x="874.13" y="821.702" width="2.31342" height="42.4127" fill="#72716D"/>
<rect x="689.056" y="888.02" width="2.31342" height="42.4127" fill="#72716D"/>
<rect x="707.563" y="869.513" width="2.31342" height="42.4127" fill="#72716D"/>
<rect x="726.071" y="888.02" width="2.31342" height="42.4127" fill="#72716D"/>
<rect x="744.578" y="869.513" width="2.31342" height="42.4127" fill="#72716D"/>
<rect x="763.085" y="888.02" width="2.31342" height="42.4127" fill="#72716D"/>
<rect x="781.593" y="869.513" width="2.31342" height="42.4127" fill="#72716D"/>
<rect x="800.1" y="888.02" width="2.31342" height="42.4127" fill="#72716D"/>
<rect x="818.607" y="869.513" width="2.31342" height="42.4127" fill="#72716D"/>
<rect x="837.115" y="888.02" width="2.31342" height="42.4127" fill="#72716D"/>
<rect x="855.622" y="869.513" width="2.31342" height="42.4127" fill="#72716D"/>
<rect x="874.13" y="888.02" width="2.31342" height="42.4127" fill="#72716D"/>
<rect x="689.056" y="689.066" width="2.31342" height="42.4127" fill="#72716D"/>
<rect x="707.563" y="670.559" width="2.31342" height="42.4127" fill="#72716D"/>
<rect x="726.071" y="689.066" width="2.31342" height="42.4127" fill="#72716D"/>
<rect x="744.578" y="670.559" width="2.31342" height="42.4127" fill="#72716D"/>
<rect x="763.085" y="689.066" width="2.31342" height="42.4127" fill="#72716D"/>
<rect x="781.593" y="670.559" width="2.31342" height="42.4127" fill="#72716D"/>
<rect x="800.1" y="689.066" width="2.31342" height="42.4127" fill="#72716D"/>
<rect x="818.607" y="670.559" width="2.31342" height="42.4127" fill="#72716D"/>
<rect x="837.115" y="689.066" width="2.31342" height="42.4127" fill="#72716D"/>
<rect x="855.622" y="670.559" width="2.31342" height="42.4127" fill="#72716D"/>
<rect x="874.13" y="689.066" width="2.31342" height="42.4127" fill="#72716D"/>
<rect x="689.056" y="755.384" width="2.31342" height="42.4127" fill="#72716D"/>
<rect x="707.563" y="736.877" width="2.31342" height="42.4127" fill="#72716D"/>
<rect x="726.071" y="755.384" width="2.31342" height="42.4127" fill="#72716D"/>
<rect x="744.578" y="736.877" width="2.31342" height="42.4127" fill="#72716D"/>
<rect x="763.085" y="755.384" width="2.31342" height="42.4127" fill="#72716D"/>
<rect x="781.593" y="736.877" width="2.31342" height="42.4127" fill="#72716D"/>
<rect x="800.1" y="755.384" width="2.31342" height="42.4127" fill="#72716D"/>
<rect x="818.607" y="736.877" width="2.31342" height="42.4127" fill="#72716D"/>
<rect x="837.115" y="755.384" width="2.31342" height="42.4127" fill="#72716D"/>
<rect x="855.622" y="736.877" width="2.31342" height="42.4127" fill="#72716D"/>
<rect x="874.13" y="755.384" width="2.31342" height="42.4127" fill="#72716D"/>
<rect x="484.704" y="537.152" width="2.31342" height="42.4127" fill="#72716D"/>
<rect x="503.211" y="518.644" width="2.31342" height="42.4127" fill="#72716D"/>
<rect x="521.719" y="537.152" width="2.31342" height="42.4127" fill="#72716D"/>
<rect x="540.226" y="518.644" width="2.31342" height="42.4127" fill="#72716D"/>
<rect x="558.734" y="537.152" width="2.31342" height="42.4127" fill="#72716D"/>
<rect x="577.241" y="518.644" width="2.31342" height="42.4127" fill="#72716D"/>
<rect x="595.748" y="537.152" width="2.31342" height="42.4127" fill="#72716D"/>
<rect x="614.256" y="518.644" width="2.31342" height="42.4127" fill="#72716D"/>
<rect x="632.763" y="537.152" width="2.31342" height="42.4127" fill="#72716D"/>
<rect x="651.27" y="518.644" width="2.31342" height="42.4127" fill="#72716D"/>
<rect x="669.778" y="537.152" width="2.31342" height="42.4127" fill="#72716D"/>
<rect x="484.704" y="603.47" width="2.31342" height="42.4127" fill="#72716D"/>
<rect x="503.211" y="584.962" width="2.31342" height="42.4127" fill="#72716D"/>
<rect x="521.719" y="603.47" width="2.31342" height="42.4127" fill="#72716D"/>
<rect x="540.226" y="584.962" width="2.31342" height="42.4127" fill="#72716D"/>
<rect x="558.734" y="603.47" width="2.31342" height="42.4127" fill="#72716D"/>
<rect x="577.241" y="584.962" width="2.31342" height="42.4127" fill="#72716D"/>
<rect x="595.748" y="603.47" width="2.31342" height="42.4127" fill="#72716D"/>
<rect x="614.256" y="584.962" width="2.31342" height="42.4127" fill="#72716D"/>
<rect x="632.763" y="603.47" width="2.31342" height="42.4127" fill="#72716D"/>
<rect x="651.27" y="584.962" width="2.31342" height="42.4127" fill="#72716D"/>
<rect x="669.778" y="603.47" width="2.31342" height="42.4127" fill="#72716D"/>
<rect x="484.704" y="404.516" width="2.31342" height="42.4127" fill="#72716D"/>
<rect x="503.211" y="386.008" width="2.31342" height="42.4127" fill="#72716D"/>
<rect x="521.719" y="404.516" width="2.31342" height="42.4127" fill="#72716D"/>
<rect x="540.226" y="386.008" width="2.31342" height="42.4127" fill="#72716D"/>
<rect x="558.734" y="404.516" width="2.31342" height="42.4127" fill="#72716D"/>
<rect x="577.241" y="386.008" width="2.31342" height="42.4127" fill="#72716D"/>
<rect x="595.748" y="404.516" width="2.31342" height="42.4127" fill="#72716D"/>
<rect x="614.256" y="386.008" width="2.31342" height="42.4127" fill="#72716D"/>
<rect x="632.763" y="404.516" width="2.31342" height="42.4127" fill="#72716D"/>
<rect x="651.27" y="386.008" width="2.31342" height="42.4127" fill="#72716D"/>
<rect x="669.778" y="404.516" width="2.31342" height="42.4127" fill="#72716D"/>
<rect x="484.704" y="470.834" width="2.31342" height="42.4127" fill="#72716D"/>
<rect x="503.211" y="452.326" width="2.31342" height="42.4127" fill="#72716D"/>
<rect x="521.719" y="470.834" width="2.31342" height="42.4127" fill="#72716D"/>
<rect x="540.226" y="452.326" width="2.31342" height="42.4127" fill="#72716D"/>
<rect x="558.734" y="470.834" width="2.31342" height="42.4127" fill="#72716D"/>
<rect x="577.241" y="452.326" width="2.31342" height="42.4127" fill="#72716D"/>
<rect x="595.748" y="470.834" width="2.31342" height="42.4127" fill="#72716D"/>
<rect x="614.256" y="452.326" width="2.31342" height="42.4127" fill="#72716D"/>
<rect x="632.763" y="470.834" width="2.31342" height="42.4127" fill="#72716D"/>
<rect x="651.27" y="452.326" width="2.31342" height="42.4127" fill="#72716D"/>
<rect x="669.778" y="470.834" width="2.31342" height="42.4127" fill="#72716D"/>
<rect x="484.704" y="271.88" width="2.31342" height="42.4127" fill="#72716D"/>
<rect x="503.211" y="253.372" width="2.31342" height="42.4127" fill="#72716D"/>
<rect x="521.719" y="271.88" width="2.31342" height="42.4127" fill="#72716D"/>
<rect x="540.226" y="253.372" width="2.31342" height="42.4127" fill="#72716D"/>
<rect x="558.734" y="271.88" width="2.31342" height="42.4127" fill="#72716D"/>
<rect x="577.241" y="253.372" width="2.31342" height="42.4127" fill="#72716D"/>
<rect x="595.748" y="271.88" width="2.31342" height="42.4127" fill="#72716D"/>
<rect x="614.256" y="253.372" width="2.31342" height="42.4127" fill="#72716D"/>
<rect x="632.763" y="271.88" width="2.31342" height="42.4127" fill="#72716D"/>
<rect x="651.27" y="253.372" width="2.31342" height="42.4127" fill="#72716D"/>
<rect x="669.778" y="271.88" width="2.31342" height="42.4127" fill="#72716D"/>
<rect x="484.704" y="338.198" width="2.31342" height="42.4127" fill="#72716D"/>
<rect x="503.211" y="319.69" width="2.31342" height="42.4127" fill="#72716D"/>
<rect x="521.719" y="338.198" width="2.31342" height="42.4127" fill="#72716D"/>
<rect x="540.226" y="319.69" width="2.31342" height="42.4127" fill="#72716D"/>
<rect x="558.734" y="338.198" width="2.31342" height="42.4127" fill="#72716D"/>
<rect x="577.241" y="319.69" width="2.31342" height="42.4127" fill="#72716D"/>
<rect x="595.748" y="338.198" width="2.31342" height="42.4127" fill="#72716D"/>
<rect x="614.256" y="319.69" width="2.31342" height="42.4127" fill="#72716D"/>
<rect x="632.763" y="338.198" width="2.31342" height="42.4127" fill="#72716D"/>
<rect x="651.27" y="319.69" width="2.31342" height="42.4127" fill="#72716D"/>
<rect x="669.778" y="338.198" width="2.31342" height="42.4127" fill="#72716D"/>
<rect x="484.704" y="139.244" width="2.31342" height="42.4127" fill="#72716D"/>
<rect x="503.211" y="120.736" width="2.31342" height="42.4127" fill="#72716D"/>
<rect x="521.719" y="139.244" width="2.31342" height="42.4127" fill="#72716D"/>
<rect x="540.226" y="120.736" width="2.31342" height="42.4127" fill="#72716D"/>
<rect x="558.734" y="139.244" width="2.31342" height="42.4127" fill="#72716D"/>
<rect x="577.241" y="120.736" width="2.31342" height="42.4127" fill="#72716D"/>
<rect x="595.748" y="139.244" width="2.31342" height="42.4127" fill="#72716D"/>
<rect x="614.256" y="120.736" width="2.31342" height="42.4127" fill="#72716D"/>
<rect x="632.763" y="139.244" width="2.31342" height="42.4127" fill="#72716D"/>
<rect x="651.27" y="120.736" width="2.31342" height="42.4127" fill="#72716D"/>
<rect x="669.778" y="139.244" width="2.31342" height="42.4127" fill="#72716D"/>
<rect x="484.704" y="205.562" width="2.31342" height="42.4127" fill="#72716D"/>
<rect x="503.211" y="187.054" width="2.31342" height="42.4127" fill="#72716D"/>
<rect x="521.719" y="205.562" width="2.31342" height="42.4127" fill="#72716D"/>
<rect x="540.226" y="187.054" width="2.31342" height="42.4127" fill="#72716D"/>
<rect x="558.734" y="205.562" width="2.31342" height="42.4127" fill="#72716D"/>
<rect x="577.241" y="187.054" width="2.31342" height="42.4127" fill="#72716D"/>
<rect x="595.748" y="205.562" width="2.31342" height="42.4127" fill="#72716D"/>
<rect x="614.256" y="187.054" width="2.31342" height="42.4127" fill="#72716D"/>
<rect x="632.763" y="205.562" width="2.31342" height="42.4127" fill="#72716D"/>
<rect x="651.27" y="187.054" width="2.31342" height="42.4127" fill="#72716D"/>
<rect x="669.778" y="205.562" width="2.31342" height="42.4127" fill="#72716D"/>
<rect x="485.475" y="803.195" width="2.31342" height="42.4127" fill="#72716D"/>
<rect x="503.983" y="784.688" width="2.31342" height="42.4127" fill="#72716D"/>
<rect x="522.49" y="803.195" width="2.31342" height="42.4127" fill="#72716D"/>
<rect x="540.997" y="784.688" width="2.31342" height="42.4127" fill="#72716D"/>
<rect x="559.505" y="803.195" width="2.31342" height="42.4127" fill="#72716D"/>
<rect x="578.012" y="784.688" width="2.31342" height="42.4127" fill="#72716D"/>
<rect x="596.519" y="803.195" width="2.31342" height="42.4127" fill="#72716D"/>
<rect x="615.027" y="784.688" width="2.31342" height="42.4127" fill="#72716D"/>
<rect x="633.534" y="803.195" width="2.31342" height="42.4127" fill="#72716D"/>
<rect x="652.041" y="784.688" width="2.31342" height="42.4127" fill="#72716D"/>
<rect x="670.549" y="803.195" width="2.31342" height="42.4127" fill="#72716D"/>
<rect x="485.475" y="869.513" width="2.31342" height="42.4127" fill="#72716D"/>
<rect x="503.983" y="851.006" width="2.31342" height="42.4127" fill="#72716D"/>
<rect x="522.49" y="869.513" width="2.31342" height="42.4127" fill="#72716D"/>
<rect x="540.997" y="851.006" width="2.31342" height="42.4127" fill="#72716D"/>
<rect x="559.505" y="869.513" width="2.31342" height="42.4127" fill="#72716D"/>
<rect x="578.012" y="851.006" width="2.31342" height="42.4127" fill="#72716D"/>
<rect x="596.519" y="869.513" width="2.31342" height="42.4127" fill="#72716D"/>
<rect x="615.027" y="851.006" width="2.31342" height="42.4127" fill="#72716D"/>
<rect x="633.534" y="869.513" width="2.31342" height="42.4127" fill="#72716D"/>
<rect x="652.041" y="851.006" width="2.31342" height="42.4127" fill="#72716D"/>
<rect x="670.549" y="869.513" width="2.31342" height="42.4127" fill="#72716D"/>
<rect x="485.475" y="670.559" width="2.31342" height="42.4127" fill="#72716D"/>
<rect x="503.983" y="652.051" width="2.31342" height="42.4127" fill="#72716D"/>
<rect x="522.49" y="670.559" width="2.31342" height="42.4127" fill="#72716D"/>
<rect x="540.997" y="652.051" width="2.31342" height="42.4127" fill="#72716D"/>
<rect x="559.505" y="670.559" width="2.31342" height="42.4127" fill="#72716D"/>
<rect x="578.012" y="652.051" width="2.31342" height="42.4127" fill="#72716D"/>
<rect x="596.519" y="670.559" width="2.31342" height="42.4127" fill="#72716D"/>
<rect x="615.027" y="652.051" width="2.31342" height="42.4127" fill="#72716D"/>
<rect x="633.534" y="670.559" width="2.31342" height="42.4127" fill="#72716D"/>
<rect x="652.041" y="652.051" width="2.31342" height="42.4127" fill="#72716D"/>
<rect x="670.549" y="670.559" width="2.31342" height="42.4127" fill="#72716D"/>
<rect x="485.475" y="736.877" width="2.31342" height="42.4127" fill="#72716D"/>
<rect x="503.983" y="718.369" width="2.31342" height="42.4127" fill="#72716D"/>
<rect x="522.49" y="736.877" width="2.31342" height="42.4127" fill="#72716D"/>
<rect x="540.997" y="718.369" width="2.31342" height="42.4127" fill="#72716D"/>
<rect x="559.505" y="736.877" width="2.31342" height="42.4127" fill="#72716D"/>
<rect x="578.012" y="718.369" width="2.31342" height="42.4127" fill="#72716D"/>
<rect x="596.519" y="736.877" width="2.31342" height="42.4127" fill="#72716D"/>
<rect x="615.027" y="718.369" width="2.31342" height="42.4127" fill="#72716D"/>
<rect x="633.534" y="736.877" width="2.31342" height="42.4127" fill="#72716D"/>
<rect x="652.041" y="718.369" width="2.31342" height="42.4127" fill="#72716D"/>
<rect x="670.549" y="736.877" width="2.31342" height="42.4127" fill="#72716D"/>
<rect x="280.352" y="519.415" width="2.31342" height="42.4127" fill="#72716D"/>
<rect x="298.859" y="500.908" width="2.31342" height="42.4127" fill="#72716D"/>
<rect x="317.367" y="519.415" width="2.31342" height="42.4127" fill="#72716D"/>
<rect x="335.874" y="500.908" width="2.31342" height="42.4127" fill="#72716D"/>
<rect x="354.381" y="519.415" width="2.31342" height="42.4127" fill="#72716D"/>
<rect x="372.889" y="500.908" width="2.31342" height="42.4127" fill="#72716D"/>
<rect x="391.396" y="519.415" width="2.31342" height="42.4127" fill="#72716D"/>
<rect x="409.904" y="500.908" width="2.31342" height="42.4127" fill="#72716D"/>
<rect x="428.411" y="519.415" width="2.31342" height="42.4127" fill="#72716D"/>
<rect x="446.918" y="500.908" width="2.31342" height="42.4127" fill="#72716D"/>
<rect x="465.426" y="519.415" width="2.31342" height="42.4127" fill="#72716D"/>
<rect x="280.352" y="585.733" width="2.31342" height="42.4127" fill="#72716D"/>
<rect x="298.859" y="567.226" width="2.31342" height="42.4127" fill="#72716D"/>
<rect x="317.367" y="585.733" width="2.31342" height="42.4127" fill="#72716D"/>
<rect x="335.874" y="567.226" width="2.31342" height="42.4127" fill="#72716D"/>
<rect x="354.381" y="585.733" width="2.31342" height="42.4127" fill="#72716D"/>
<rect x="372.889" y="567.226" width="2.31342" height="42.4127" fill="#72716D"/>
<rect x="391.396" y="585.733" width="2.31342" height="42.4127" fill="#72716D"/>
<rect x="409.904" y="567.226" width="2.31342" height="42.4127" fill="#72716D"/>
<rect x="428.411" y="585.733" width="2.31342" height="42.4127" fill="#72716D"/>
<rect x="446.918" y="567.226" width="2.31342" height="42.4127" fill="#72716D"/>
<rect x="465.426" y="585.733" width="2.31342" height="42.4127" fill="#72716D"/>
<rect x="280.352" y="386.779" width="2.31342" height="42.4127" fill="#72716D"/>
<rect x="298.859" y="368.272" width="2.31342" height="42.4127" fill="#72716D"/>
<rect x="317.367" y="386.779" width="2.31342" height="42.4127" fill="#72716D"/>
<rect x="335.874" y="368.272" width="2.31342" height="42.4127" fill="#72716D"/>
<rect x="354.381" y="386.779" width="2.31342" height="42.4127" fill="#72716D"/>
<rect x="372.889" y="368.272" width="2.31342" height="42.4127" fill="#72716D"/>
<rect x="391.396" y="386.779" width="2.31342" height="42.4127" fill="#72716D"/>
<rect x="409.904" y="368.272" width="2.31342" height="42.4127" fill="#72716D"/>
<rect x="428.411" y="386.779" width="2.31342" height="42.4127" fill="#72716D"/>
<rect x="446.918" y="368.272" width="2.31342" height="42.4127" fill="#72716D"/>
<rect x="465.426" y="386.779" width="2.31342" height="42.4127" fill="#72716D"/>
<rect x="280.352" y="453.097" width="2.31342" height="42.4127" fill="#72716D"/>
<rect x="298.859" y="434.59" width="2.31342" height="42.4127" fill="#72716D"/>
<rect x="317.367" y="453.097" width="2.31342" height="42.4127" fill="#72716D"/>
<rect x="335.874" y="434.59" width="2.31342" height="42.4127" fill="#72716D"/>
<rect x="354.381" y="453.097" width="2.31342" height="42.4127" fill="#72716D"/>
<rect x="372.889" y="434.59" width="2.31342" height="42.4127" fill="#72716D"/>
<rect x="391.396" y="453.097" width="2.31342" height="42.4127" fill="#72716D"/>
<rect x="409.904" y="434.59" width="2.31342" height="42.4127" fill="#72716D"/>
<rect x="428.411" y="453.097" width="2.31342" height="42.4127" fill="#72716D"/>
<rect x="446.918" y="434.59" width="2.31342" height="42.4127" fill="#72716D"/>
<rect x="465.426" y="453.097" width="2.31342" height="42.4127" fill="#72716D"/>
<rect x="280.352" y="254.143" width="2.31342" height="42.4127" fill="#72716D"/>
<rect x="298.859" y="235.636" width="2.31342" height="42.4127" fill="#72716D"/>
<rect x="317.367" y="254.143" width="2.31342" height="42.4127" fill="#72716D"/>
<rect x="335.874" y="235.636" width="2.31342" height="42.4127" fill="#72716D"/>
<rect x="354.381" y="254.143" width="2.31342" height="42.4127" fill="#72716D"/>
<rect x="372.889" y="235.636" width="2.31342" height="42.4127" fill="#72716D"/>
<rect x="391.396" y="254.143" width="2.31342" height="42.4127" fill="#72716D"/>
<rect x="409.904" y="235.636" width="2.31342" height="42.4127" fill="#72716D"/>
<rect x="428.411" y="254.143" width="2.31342" height="42.4127" fill="#72716D"/>
<rect x="446.918" y="235.636" width="2.31342" height="42.4127" fill="#72716D"/>
<rect x="465.426" y="254.143" width="2.31342" height="42.4127" fill="#72716D"/>
<rect x="280.352" y="320.461" width="2.31342" height="42.4127" fill="#72716D"/>
<rect x="298.859" y="301.954" width="2.31342" height="42.4127" fill="#72716D"/>
<rect x="317.367" y="320.461" width="2.31342" height="42.4127" fill="#72716D"/>
<rect x="335.874" y="301.954" width="2.31342" height="42.4127" fill="#72716D"/>
<rect x="354.381" y="320.461" width="2.31342" height="42.4127" fill="#72716D"/>
<rect x="372.889" y="301.954" width="2.31342" height="42.4127" fill="#72716D"/>
<rect x="391.396" y="320.461" width="2.31342" height="42.4127" fill="#72716D"/>
<rect x="409.904" y="301.954" width="2.31342" height="42.4127" fill="#72716D"/>
<rect x="428.411" y="320.461" width="2.31342" height="42.4127" fill="#72716D"/>
<rect x="446.918" y="301.954" width="2.31342" height="42.4127" fill="#72716D"/>
<rect x="465.426" y="320.461" width="2.31342" height="42.4127" fill="#72716D"/>
<rect x="280.352" y="121.507" width="2.31342" height="42.4127" fill="#72716D"/>
<rect x="298.859" y="103" width="2.31342" height="42.4127" fill="#72716D"/>
<rect x="317.367" y="121.507" width="2.31342" height="42.4127" fill="#72716D"/>
<rect x="335.874" y="103" width="2.31342" height="42.4127" fill="#72716D"/>
<rect x="354.381" y="121.507" width="2.31342" height="42.4127" fill="#72716D"/>
<rect x="372.889" y="103" width="2.31342" height="42.4127" fill="#72716D"/>
<rect x="391.396" y="121.507" width="2.31342" height="42.4127" fill="#72716D"/>
<rect x="409.904" y="103" width="2.31342" height="42.4127" fill="#72716D"/>
<rect x="428.411" y="121.507" width="2.31342" height="42.4127" fill="#72716D"/>
<rect x="446.918" y="103" width="2.31342" height="42.4127" fill="#72716D"/>
<rect x="465.426" y="121.507" width="2.31342" height="42.4127" fill="#72716D"/>
<rect x="280.352" y="187.825" width="2.31342" height="42.4127" fill="#72716D"/>
<rect x="298.859" y="169.318" width="2.31342" height="42.4127" fill="#72716D"/>
<rect x="317.367" y="187.825" width="2.31342" height="42.4127" fill="#72716D"/>
<rect x="335.874" y="169.318" width="2.31342" height="42.4127" fill="#72716D"/>
<rect x="354.381" y="187.825" width="2.31342" height="42.4127" fill="#72716D"/>
<rect x="372.889" y="169.318" width="2.31342" height="42.4127" fill="#72716D"/>
<rect x="391.396" y="187.825" width="2.31342" height="42.4127" fill="#72716D"/>
<rect x="409.904" y="169.318" width="2.31342" height="42.4127" fill="#72716D"/>
<rect x="428.411" y="187.825" width="2.31342" height="42.4127" fill="#72716D"/>
<rect x="446.918" y="169.318" width="2.31342" height="42.4127" fill="#72716D"/>
<rect x="465.426" y="187.825" width="2.31342" height="42.4127" fill="#72716D"/>
<rect x="281.123" y="785.459" width="2.31342" height="42.4127" fill="#72716D"/>
<rect x="299.631" y="766.951" width="2.31342" height="42.4127" fill="#72716D"/>
<rect x="318.138" y="785.459" width="2.31342" height="42.4127" fill="#72716D"/>
<rect x="336.645" y="766.951" width="2.31342" height="42.4127" fill="#72716D"/>
<rect x="355.153" y="785.459" width="2.31342" height="42.4127" fill="#72716D"/>
<rect x="373.66" y="766.951" width="2.31342" height="42.4127" fill="#72716D"/>
<rect x="392.167" y="785.459" width="2.31342" height="42.4127" fill="#72716D"/>
<rect x="410.675" y="766.951" width="2.31342" height="42.4127" fill="#72716D"/>
<rect x="429.182" y="785.459" width="2.31342" height="42.4127" fill="#72716D"/>
<rect x="447.689" y="766.951" width="2.31342" height="42.4127" fill="#72716D"/>
<rect x="466.197" y="785.459" width="2.31342" height="42.4127" fill="#72716D"/>
<rect x="281.123" y="851.777" width="2.31342" height="42.4127" fill="#72716D"/>
<rect x="299.631" y="833.269" width="2.31342" height="42.4127" fill="#72716D"/>
<rect x="318.138" y="851.777" width="2.31342" height="42.4127" fill="#72716D"/>
<rect x="336.645" y="833.269" width="2.31342" height="42.4127" fill="#72716D"/>
<rect x="355.153" y="851.777" width="2.31342" height="42.4127" fill="#72716D"/>
<rect x="373.66" y="833.269" width="2.31342" height="42.4127" fill="#72716D"/>
<rect x="392.167" y="851.777" width="2.31342" height="42.4127" fill="#72716D"/>
<rect x="410.675" y="833.269" width="2.31342" height="42.4127" fill="#72716D"/>
<rect x="429.182" y="851.777" width="2.31342" height="42.4127" fill="#72716D"/>
<rect x="447.689" y="833.269" width="2.31342" height="42.4127" fill="#72716D"/>
<rect x="466.197" y="851.777" width="2.31342" height="42.4127" fill="#72716D"/>
<rect x="281.123" y="652.823" width="2.31342" height="42.4127" fill="#72716D"/>
<rect x="299.631" y="634.315" width="2.31342" height="42.4127" fill="#72716D"/>
<rect x="318.138" y="652.823" width="2.31342" height="42.4127" fill="#72716D"/>
<rect x="336.645" y="634.315" width="2.31342" height="42.4127" fill="#72716D"/>
<rect x="355.153" y="652.823" width="2.31342" height="42.4127" fill="#72716D"/>
<rect x="373.66" y="634.315" width="2.31342" height="42.4127" fill="#72716D"/>
<rect x="392.167" y="652.823" width="2.31342" height="42.4127" fill="#72716D"/>
<rect x="410.675" y="634.315" width="2.31342" height="42.4127" fill="#72716D"/>
<rect x="429.182" y="652.823" width="2.31342" height="42.4127" fill="#72716D"/>
<rect x="447.689" y="634.315" width="2.31342" height="42.4127" fill="#72716D"/>
<rect x="466.197" y="652.823" width="2.31342" height="42.4127" fill="#72716D"/>
<rect x="281.123" y="719.141" width="2.31342" height="42.4127" fill="#72716D"/>
<rect x="299.631" y="700.633" width="2.31342" height="42.4127" fill="#72716D"/>
<rect x="318.138" y="719.141" width="2.31342" height="42.4127" fill="#72716D"/>
<rect x="336.645" y="700.633" width="2.31342" height="42.4127" fill="#72716D"/>
<rect x="355.153" y="719.141" width="2.31342" height="42.4127" fill="#72716D"/>
<rect x="373.66" y="700.633" width="2.31342" height="42.4127" fill="#72716D"/>
<rect x="392.167" y="719.141" width="2.31342" height="42.4127" fill="#72716D"/>
<rect x="410.675" y="700.633" width="2.31342" height="42.4127" fill="#72716D"/>
<rect x="429.182" y="719.141" width="2.31342" height="42.4127" fill="#72716D"/>
<rect x="447.689" y="700.633" width="2.31342" height="42.4127" fill="#72716D"/>
<rect x="466.197" y="719.141" width="2.31342" height="42.4127" fill="#72716D"/>
<rect x="113.015" y="567.226" width="2.31342" height="42.4127" fill="#72716D"/>
<rect x="131.522" y="548.719" width="2.31342" height="42.4127" fill="#72716D"/>
<rect x="150.029" y="567.226" width="2.31342" height="42.4127" fill="#72716D"/>
<rect x="168.537" y="548.719" width="2.31342" height="42.4127" fill="#72716D"/>
<rect x="187.044" y="567.226" width="2.31342" height="42.4127" fill="#72716D"/>
<rect x="205.551" y="548.719" width="2.31342" height="42.4127" fill="#72716D"/>
<rect x="224.059" y="567.226" width="2.31342" height="42.4127" fill="#72716D"/>
<rect x="242.566" y="548.719" width="2.31342" height="42.4127" fill="#72716D"/>
<rect x="261.073" y="567.226" width="2.31342" height="42.4127" fill="#72716D"/>
<rect x="113.015" y="633.544" width="2.31342" height="42.4127" fill="#72716D"/>
<rect x="131.522" y="615.037" width="2.31342" height="42.4127" fill="#72716D"/>
<rect x="150.029" y="633.544" width="2.31342" height="42.4127" fill="#72716D"/>
<rect x="168.537" y="615.037" width="2.31342" height="42.4127" fill="#72716D"/>
<rect x="187.044" y="633.544" width="2.31342" height="42.4127" fill="#72716D"/>
<rect x="205.551" y="615.037" width="2.31342" height="42.4127" fill="#72716D"/>
<rect x="224.059" y="633.544" width="2.31342" height="42.4127" fill="#72716D"/>
<rect x="242.566" y="615.037" width="2.31342" height="42.4127" fill="#72716D"/>
<rect x="261.073" y="633.544" width="2.31342" height="42.4127" fill="#72716D"/>
<rect x="113.015" y="434.59" width="2.31342" height="42.4127" fill="#72716D"/>
<rect x="131.522" y="416.083" width="2.31342" height="42.4127" fill="#72716D"/>
<rect x="150.029" y="434.59" width="2.31342" height="42.4127" fill="#72716D"/>
<rect x="168.537" y="416.083" width="2.31342" height="42.4127" fill="#72716D"/>
<rect x="187.044" y="434.59" width="2.31342" height="42.4127" fill="#72716D"/>
<rect x="205.551" y="416.083" width="2.31342" height="42.4127" fill="#72716D"/>
<rect x="224.059" y="434.59" width="2.31342" height="42.4127" fill="#72716D"/>
<rect x="242.566" y="416.083" width="2.31342" height="42.4127" fill="#72716D"/>
<rect x="261.073" y="434.59" width="2.31342" height="42.4127" fill="#72716D"/>
<rect x="113.015" y="500.908" width="2.31342" height="42.4127" fill="#72716D"/>
<rect x="131.522" y="482.401" width="2.31342" height="42.4127" fill="#72716D"/>
<rect x="150.029" y="500.908" width="2.31342" height="42.4127" fill="#72716D"/>
<rect x="168.537" y="482.401" width="2.31342" height="42.4127" fill="#72716D"/>
<rect x="187.044" y="500.908" width="2.31342" height="42.4127" fill="#72716D"/>
<rect x="205.551" y="482.401" width="2.31342" height="42.4127" fill="#72716D"/>
<rect x="224.059" y="500.908" width="2.31342" height="42.4127" fill="#72716D"/>
<rect x="242.566" y="482.401" width="2.31342" height="42.4127" fill="#72716D"/>
<rect x="261.073" y="500.908" width="2.31342" height="42.4127" fill="#72716D"/>
<rect x="113.015" y="301.954" width="2.31342" height="42.4127" fill="#72716D"/>
<rect x="131.522" y="283.447" width="2.31342" height="42.4127" fill="#72716D"/>
<rect x="150.029" y="301.954" width="2.31342" height="42.4127" fill="#72716D"/>
<rect x="168.537" y="283.447" width="2.31342" height="42.4127" fill="#72716D"/>
<rect x="187.044" y="301.954" width="2.31342" height="42.4127" fill="#72716D"/>
<rect x="205.551" y="283.447" width="2.31342" height="42.4127" fill="#72716D"/>
<rect x="224.059" y="301.954" width="2.31342" height="42.4127" fill="#72716D"/>
<rect x="242.566" y="283.447" width="2.31342" height="42.4127" fill="#72716D"/>
<rect x="261.073" y="301.954" width="2.31342" height="42.4127" fill="#72716D"/>
<rect x="113.015" y="368.272" width="2.31342" height="42.4127" fill="#72716D"/>
<rect x="131.522" y="349.765" width="2.31342" height="42.4127" fill="#72716D"/>
<rect x="150.029" y="368.272" width="2.31342" height="42.4127" fill="#72716D"/>
<rect x="168.537" y="349.765" width="2.31342" height="42.4127" fill="#72716D"/>
<rect x="187.044" y="368.272" width="2.31342" height="42.4127" fill="#72716D"/>
<rect x="205.551" y="349.765" width="2.31342" height="42.4127" fill="#72716D"/>
<rect x="224.059" y="368.272" width="2.31342" height="42.4127" fill="#72716D"/>
<rect x="242.566" y="349.765" width="2.31342" height="42.4127" fill="#72716D"/>
<rect x="261.073" y="368.272" width="2.31342" height="42.4127" fill="#72716D"/>
<rect x="113.015" y="169.318" width="2.31342" height="42.4127" fill="#72716D"/>
<rect x="131.522" y="150.811" width="2.31342" height="42.4127" fill="#72716D"/>
<rect x="150.029" y="169.318" width="2.31342" height="42.4127" fill="#72716D"/>
<rect x="168.537" y="150.811" width="2.31342" height="42.4127" fill="#72716D"/>
<rect x="187.044" y="169.318" width="2.31342" height="42.4127" fill="#72716D"/>
<rect x="205.551" y="150.811" width="2.31342" height="42.4127" fill="#72716D"/>
<rect x="224.059" y="169.318" width="2.31342" height="42.4127" fill="#72716D"/>
<rect x="242.566" y="150.811" width="2.31342" height="42.4127" fill="#72716D"/>
<rect x="261.073" y="169.318" width="2.31342" height="42.4127" fill="#72716D"/>
<rect x="113.015" y="235.636" width="2.31342" height="42.4127" fill="#72716D"/>
<rect x="131.522" y="217.129" width="2.31342" height="42.4127" fill="#72716D"/>
<rect x="150.029" y="235.636" width="2.31342" height="42.4127" fill="#72716D"/>
<rect x="168.537" y="217.129" width="2.31342" height="42.4127" fill="#72716D"/>
<rect x="187.044" y="235.636" width="2.31342" height="42.4127" fill="#72716D"/>
<rect x="205.551" y="217.129" width="2.31342" height="42.4127" fill="#72716D"/>
<rect x="224.059" y="235.636" width="2.31342" height="42.4127" fill="#72716D"/>
<rect x="242.566" y="217.129" width="2.31342" height="42.4127" fill="#72716D"/>
<rect x="261.073" y="235.636" width="2.31342" height="42.4127" fill="#72716D"/>
<rect x="113.786" y="833.269" width="2.31342" height="42.4127" fill="#72716D"/>
<rect x="132.293" y="814.762" width="2.31342" height="42.4127" fill="#72716D"/>
<rect x="150.801" y="833.269" width="2.31342" height="42.4127" fill="#72716D"/>
<rect x="169.308" y="814.762" width="2.31342" height="42.4127" fill="#72716D"/>
<rect x="187.815" y="833.269" width="2.31342" height="42.4127" fill="#72716D"/>
<rect x="206.323" y="814.762" width="2.31342" height="42.4127" fill="#72716D"/>
<rect x="224.83" y="833.269" width="2.31342" height="42.4127" fill="#72716D"/>
<rect x="243.337" y="814.762" width="2.31342" height="42.4127" fill="#72716D"/>
<rect x="261.845" y="833.269" width="2.31342" height="42.4127" fill="#72716D"/>
<rect x="113.786" y="899.587" width="2.31342" height="42.4127" fill="#72716D"/>
<rect x="132.293" y="881.08" width="2.31342" height="42.4127" fill="#72716D"/>
<rect x="150.801" y="899.587" width="2.31342" height="42.4127" fill="#72716D"/>
<rect x="169.308" y="881.08" width="2.31342" height="42.4127" fill="#72716D"/>
<rect x="187.815" y="899.587" width="2.31342" height="42.4127" fill="#72716D"/>
<rect x="206.323" y="881.08" width="2.31342" height="42.4127" fill="#72716D"/>
<rect x="224.83" y="899.587" width="2.31342" height="42.4127" fill="#72716D"/>
<rect x="243.337" y="881.08" width="2.31342" height="42.4127" fill="#72716D"/>
<rect x="261.845" y="899.587" width="2.31342" height="42.4127" fill="#72716D"/>
<rect x="113.786" y="700.633" width="2.31342" height="42.4127" fill="#72716D"/>
<rect x="132.293" y="682.126" width="2.31342" height="42.4127" fill="#72716D"/>
<rect x="150.801" y="700.633" width="2.31342" height="42.4127" fill="#72716D"/>
<rect x="169.308" y="682.126" width="2.31342" height="42.4127" fill="#72716D"/>
<rect x="187.815" y="700.633" width="2.31342" height="42.4127" fill="#72716D"/>
<rect x="206.323" y="682.126" width="2.31342" height="42.4127" fill="#72716D"/>
<rect x="224.83" y="700.633" width="2.31342" height="42.4127" fill="#72716D"/>
<rect x="243.337" y="682.126" width="2.31342" height="42.4127" fill="#72716D"/>
<rect x="261.845" y="700.633" width="2.31342" height="42.4127" fill="#72716D"/>
<rect x="113.786" y="766.951" width="2.31342" height="42.4127" fill="#72716D"/>
<rect x="132.293" y="748.444" width="2.31342" height="42.4127" fill="#72716D"/>
<rect x="150.801" y="766.951" width="2.31342" height="42.4127" fill="#72716D"/>
<rect x="169.308" y="748.444" width="2.31342" height="42.4127" fill="#72716D"/>
<rect x="187.815" y="766.951" width="2.31342" height="42.4127" fill="#72716D"/>
<rect x="206.323" y="748.444" width="2.31342" height="42.4127" fill="#72716D"/>
<rect x="224.83" y="766.951" width="2.31342" height="42.4127" fill="#72716D"/>
<rect x="243.337" y="748.444" width="2.31342" height="42.4127" fill="#72716D"/>
<rect x="261.845" y="766.951" width="2.31342" height="42.4127" fill="#72716D"/>
<rect x="892" y="603.226" width="2.31342" height="42.4127" fill="#72716D"/>
<rect x="910.507" y="584.719" width="2.31342" height="42.4127" fill="#72716D"/>
<rect x="929.015" y="603.226" width="2.31342" height="42.4127" fill="#72716D"/>
<rect x="947.522" y="584.719" width="2.31342" height="42.4127" fill="#72716D"/>
<rect x="892" y="669.544" width="2.31342" height="42.4127" fill="#72716D"/>
<rect x="910.507" y="651.037" width="2.31342" height="42.4127" fill="#72716D"/>
<rect x="929.015" y="669.544" width="2.31342" height="42.4127" fill="#72716D"/>
<rect x="947.522" y="651.037" width="2.31342" height="42.4127" fill="#72716D"/>
<rect x="892" y="470.59" width="2.31342" height="42.4127" fill="#72716D"/>
<rect x="910.507" y="452.083" width="2.31342" height="42.4127" fill="#72716D"/>
<rect x="929.015" y="470.59" width="2.31342" height="42.4127" fill="#72716D"/>
<rect x="947.522" y="452.083" width="2.31342" height="42.4127" fill="#72716D"/>
<rect x="892" y="536.908" width="2.31342" height="42.4127" fill="#72716D"/>
<rect x="910.507" y="518.401" width="2.31342" height="42.4127" fill="#72716D"/>
<rect x="929.015" y="536.908" width="2.31342" height="42.4127" fill="#72716D"/>
<rect x="947.522" y="518.401" width="2.31342" height="42.4127" fill="#72716D"/>
<rect x="892" y="337.954" width="2.31342" height="42.4127" fill="#72716D"/>
<rect x="910.507" y="319.447" width="2.31342" height="42.4127" fill="#72716D"/>
<rect x="929.015" y="337.954" width="2.31342" height="42.4127" fill="#72716D"/>
<rect x="947.522" y="319.447" width="2.31342" height="42.4127" fill="#72716D"/>
<rect x="892" y="404.272" width="2.31342" height="42.4127" fill="#72716D"/>
<rect x="910.507" y="385.765" width="2.31342" height="42.4127" fill="#72716D"/>
<rect x="929.015" y="404.272" width="2.31342" height="42.4127" fill="#72716D"/>
<rect x="947.522" y="385.765" width="2.31342" height="42.4127" fill="#72716D"/>
<rect x="892" y="205.318" width="2.31342" height="42.4127" fill="#72716D"/>
<rect x="910.507" y="186.811" width="2.31342" height="42.4127" fill="#72716D"/>
<rect x="929.015" y="205.318" width="2.31342" height="42.4127" fill="#72716D"/>
<rect x="947.522" y="186.811" width="2.31342" height="42.4127" fill="#72716D"/>
<rect x="892" y="271.636" width="2.31342" height="42.4127" fill="#72716D"/>
<rect x="910.507" y="253.129" width="2.31342" height="42.4127" fill="#72716D"/>
<rect x="929.015" y="271.636" width="2.31342" height="42.4127" fill="#72716D"/>
<rect x="947.522" y="253.129" width="2.31342" height="42.4127" fill="#72716D"/>
<rect x="892.771" y="869.269" width="2.31342" height="42.4127" fill="#72716D"/>
<rect x="911.278" y="850.762" width="2.31342" height="42.4127" fill="#72716D"/>
<rect x="929.786" y="869.269" width="2.31342" height="42.4127" fill="#72716D"/>
<rect x="948.293" y="850.762" width="2.31342" height="42.4127" fill="#72716D"/>
<rect x="892.771" y="935.587" width="2.31342" height="42.4127" fill="#72716D"/>
<rect x="911.278" y="917.08" width="2.31342" height="42.4127" fill="#72716D"/>
<rect x="929.786" y="935.587" width="2.31342" height="42.4127" fill="#72716D"/>
<rect x="948.293" y="917.08" width="2.31342" height="42.4127" fill="#72716D"/>
<rect x="892.771" y="736.633" width="2.31342" height="42.4127" fill="#72716D"/>
<rect x="911.278" y="718.126" width="2.31342" height="42.4127" fill="#72716D"/>
<rect x="929.786" y="736.633" width="2.31342" height="42.4127" fill="#72716D"/>
<rect x="948.293" y="718.126" width="2.31342" height="42.4127" fill="#72716D"/>
<rect x="892.771" y="802.951" width="2.31342" height="42.4127" fill="#72716D"/>
<rect x="911.278" y="784.444" width="2.31342" height="42.4127" fill="#72716D"/>
<rect x="929.786" y="802.951" width="2.31342" height="42.4127" fill="#72716D"/>
<rect x="948.293" y="784.444" width="2.31342" height="42.4127" fill="#72716D"/>
<rect x="911.792" y="953.244" width="2.31342" height="42.4127" fill="#72716D"/>
<rect x="948.807" y="953.244" width="2.31342" height="42.4127" fill="#72716D"/>
<rect x="689.704" y="953.244" width="2.31342" height="42.4127" fill="#72716D"/>
<rect x="708.211" y="934.736" width="2.31342" height="42.4127" fill="#72716D"/>
<rect x="726.719" y="953.244" width="2.31342" height="42.4127" fill="#72716D"/>
<rect x="745.226" y="934.736" width="2.31342" height="42.4127" fill="#72716D"/>
<rect x="763.734" y="953.244" width="2.31342" height="42.4127" fill="#72716D"/>
<rect x="782.241" y="934.736" width="2.31342" height="42.4127" fill="#72716D"/>
<rect x="800.748" y="953.244" width="2.31342" height="42.4127" fill="#72716D"/>
<rect x="819.256" y="934.736" width="2.31342" height="42.4127" fill="#72716D"/>
<rect x="837.763" y="953.244" width="2.31342" height="42.4127" fill="#72716D"/>
<rect x="856.27" y="934.736" width="2.31342" height="42.4127" fill="#72716D"/>
<rect x="874.778" y="953.244" width="2.31342" height="42.4127" fill="#72716D"/>
<rect x="485.352" y="935.507" width="2.31342" height="42.4127" fill="#72716D"/>
<rect x="503.859" y="917" width="2.31342" height="42.4127" fill="#72716D"/>
<rect x="522.367" y="935.507" width="2.31342" height="42.4127" fill="#72716D"/>
<rect x="540.874" y="917" width="2.31342" height="42.4127" fill="#72716D"/>
<rect x="559.381" y="935.507" width="2.31342" height="42.4127" fill="#72716D"/>
<rect x="577.889" y="917" width="2.31342" height="42.4127" fill="#72716D"/>
<rect x="596.396" y="935.507" width="2.31342" height="42.4127" fill="#72716D"/>
<rect x="614.904" y="917" width="2.31342" height="42.4127" fill="#72716D"/>
<rect x="633.411" y="935.507" width="2.31342" height="42.4127" fill="#72716D"/>
<rect x="651.918" y="917" width="2.31342" height="42.4127" fill="#72716D"/>
<rect x="670.426" y="935.507" width="2.31342" height="42.4127" fill="#72716D"/>
<rect x="299.507" y="964.811" width="2.31342" height="42.4127" fill="#72716D"/>
<rect x="336.522" y="964.811" width="2.31342" height="42.4127" fill="#72716D"/>
<rect x="373.537" y="964.811" width="2.31342" height="42.4127" fill="#72716D"/>
<rect x="410.551" y="964.811" width="2.31342" height="42.4127" fill="#72716D"/>
<rect x="447.566" y="964.811" width="2.31342" height="42.4127" fill="#72716D"/>
<rect x="281.285" y="920.751" width="2.31342" height="42.4127" fill="#72716D"/>
<rect x="299.792" y="902.244" width="2.31342" height="42.4127" fill="#72716D"/>
<rect x="318.3" y="920.751" width="2.31342" height="42.4127" fill="#72716D"/>
<rect x="336.807" y="902.244" width="2.31342" height="42.4127" fill="#72716D"/>
<rect x="355.314" y="920.751" width="2.31342" height="42.4127" fill="#72716D"/>
<rect x="373.822" y="902.244" width="2.31342" height="42.4127" fill="#72716D"/>
<rect x="392.329" y="920.751" width="2.31342" height="42.4127" fill="#72716D"/>
<rect x="410.836" y="902.244" width="2.31342" height="42.4127" fill="#72716D"/>
<rect x="429.344" y="920.751" width="2.31342" height="42.4127" fill="#72716D"/>
<rect x="447.851" y="902.244" width="2.31342" height="42.4127" fill="#72716D"/>
<rect x="466.358" y="920.751" width="2.31342" height="42.4127" fill="#72716D"/>
<rect x="114.719" y="902.244" width="2.31342" height="42.4127" fill="#72716D"/>
<rect x="133.226" y="883.736" width="2.31342" height="42.4127" fill="#72716D"/>
<rect x="151.733" y="902.244" width="2.31342" height="42.4127" fill="#72716D"/>
<rect x="170.241" y="883.736" width="2.31342" height="42.4127" fill="#72716D"/>
<rect x="188.748" y="902.244" width="2.31342" height="42.4127" fill="#72716D"/>
<rect x="207.255" y="883.736" width="2.31342" height="42.4127" fill="#72716D"/>
<rect x="225.763" y="902.244" width="2.31342" height="42.4127" fill="#72716D"/>
<rect x="244.27" y="883.736" width="2.31342" height="42.4127" fill="#72716D"/>
<rect x="262.778" y="902.244" width="2.31342" height="42.4127" fill="#72716D"/>
<rect x="133.226" y="950.054" width="2.31342" height="42.4127" fill="#72716D"/>
<rect x="170.241" y="950.054" width="2.31342" height="42.4127" fill="#72716D"/>
<rect x="207.255" y="950.054" width="2.31342" height="42.4127" fill="#72716D"/>
<rect x="244.27" y="950.054" width="2.31342" height="42.4127" fill="#72716D"/>
<path d="M661.234 378.111C661.234 307.91 604.325 251 534.123 251C463.922 251 407.012 307.91 407.012 378.111V695.889C407.012 766.09 463.922 823 534.123 823C604.325 823 661.234 766.09 661.234 695.889V378.111Z" fill="#22262C"/>
</g>
</g>
<defs>
<clipPath id="clip0_0_1">
<rect width="1067" height="1068" fill="white"/>
</clipPath>
</defs>
</svg>
