<svg width="1067" height="1069" viewBox="0 0 1067 1069" fill="none" xmlns="http://www.w3.org/2000/svg">
<rect width="1067" height="1069" fill="#1E1E1E"/>
<g clip-path="url(#clip0_0_1)">
<path d="M1067 0H0V1069H1067V0Z" fill="#1E1E1E"/>
<path d="M1067 1H0V1069H1067V1Z" fill="#22262C"/>
<path d="M534 965C772.035 965 965 772.035 965 534C965 295.965 772.035 103 534 103C295.965 103 103 295.965 103 534C103 772.035 295.965 965 534 965Z" fill="#BCBAB4"/>
<mask id="mask0_0_1" style="mask-type:alpha" maskUnits="userSpaceOnUse" x="103" y="103" width="862" height="862">
<path d="M534 965C772.035 965 965 772.035 965 534C965 295.965 772.035 103 534 103C295.965 103 103 295.965 103 534C103 772.035 295.965 965 534 965Z" fill="#377899"/>
</mask>
<g mask="url(#mask0_0_1)">
<path d="M1022.02 186L-38 798L24.418 906.111L1084.43 294.111L1022.02 186Z" fill="#D9D9D9"/>
</g>
<circle cx="533.5" cy="428.5" r="65.5" fill="#22262C"/>
<path d="M500 482L476 716H597L568.5 482H500Z" fill="#22262C"/>
</g>
<defs>
<clipPath id="clip0_0_1">
<rect width="1067" height="1069" fill="white"/>
</clipPath>
</defs>
</svg>
