<svg width="1067" height="1068" viewBox="0 0 1067 1068" fill="none" xmlns="http://www.w3.org/2000/svg">
<rect width="1067" height="1068" fill="#1E1E1E"/>
<path d="M1067 0H0V1068H1067V0Z" fill="#22262C"/>
<path d="M137.226 113.639C86.191 462.756 91.6758 595.901 137.423 953.212C138.275 959.865 143.958 965 150.665 965C158.03 965 164 959.03 164 951.665V115.452C164 108.023 157.977 102 150.548 102C143.877 102 138.191 107.039 137.226 113.639Z" fill="#454547"/>
<rect x="151" y="102" width="231" height="863" fill="#454547"/>
<path d="M929.774 113.639C980.809 462.756 975.324 595.901 929.577 953.212C928.725 959.865 923.042 965 916.335 965C908.97 965 903 959.03 903 951.665V115.452C903 108.023 909.023 102 916.452 102C923.123 102 928.809 107.039 929.774 113.639Z" fill="#454547"/>
<rect width="231" height="863" transform="matrix(-1 0 0 1 916 102)" fill="#454547"/>
<path d="M216.226 113.639C165.191 462.756 170.676 595.901 216.423 953.212C217.275 959.865 222.958 965 229.665 965C237.03 965 243 959.03 243 951.665V115.452C243 108.023 236.977 102 229.548 102C222.877 102 217.191 107.039 216.226 113.639Z" fill="#646567"/>
<path d="M843.774 113.639C894.809 462.756 889.324 595.901 843.577 953.212C842.725 959.865 837.042 965 830.335 965C822.97 965 817 959.03 817 951.665V115.452C817 108.023 823.023 102 830.452 102C837.123 102 842.809 107.039 843.774 113.639Z" fill="#646567"/>
<rect x="230" y="102" width="602" height="863" fill="#646567"/>
<rect x="468" y="362" width="131" height="348" rx="65.5" fill="#22262C"/>
</svg>
