<svg width="1067" height="1068" viewBox="0 0 1067 1068" fill="none" xmlns="http://www.w3.org/2000/svg">
<rect width="1067" height="1068" fill="#1E1E1E"/>
<path d="M1067 0H0V1068H1067V0Z" fill="#22262C"/>
<path d="M108 673.5V524C108 523.448 108.448 523 109 523H129.5C130.052 523 130.5 522.552 130.5 522V379C130.5 378.448 130.948 378 131.5 378H938.5C939.052 378 939.5 378.448 939.5 379V522C939.5 522.552 939.948 523 940.5 523H959C959.552 523 960 523.448 960 524V673.5C960 674.052 959.552 674.5 959 674.5H109C108.448 674.5 108 674.052 108 673.5Z" fill="#CFD4CD"/>
<circle cx="112.5" cy="385.5" r="40.5" fill="#22262C"/>
<circle cx="958.5" cy="385.5" r="40.5" fill="#22262C"/>
<circle cx="965.5" cy="682.5" r="40.5" fill="#22262C"/>
<circle cx="101.5" cy="682.5" r="40.5" fill="#22262C"/>
<circle cx="257" cy="526" r="87" fill="#22262C"/>
<circle cx="810" cy="526" r="87" fill="#22262C"/>
</svg>
