<svg width="1067" height="1068" viewBox="0 0 1067 1068" fill="none" xmlns="http://www.w3.org/2000/svg">
<rect width="1067" height="1068" fill="#1E1E1E"/>
<path d="M1067 0H0V1068H1067V0Z" fill="#22262C"/>
<path d="M309 76H758V175C758 180.523 753.523 185 748 185H319C313.477 185 309 180.523 309 175V76Z" fill="#D9D9D9"/>
<path d="M588 149L588 1013.5C588 1043.6 563.599 1068 533.5 1068V1068C503.4 1068 479 1043.6 479 1013.5L479 149L588 149Z" fill="#D9D9D9"/>
<rect x="705" y="5" width="53" height="125" fill="#D9D9D9"/>
<rect x="309" y="5" width="53" height="125" fill="#D9D9D9"/>
<rect x="461" y="177" width="32" height="30" fill="#D9D9D9"/>
<rect x="577" y="177" width="34" height="31" fill="#D9D9D9"/>
<circle cx="610" cy="207" r="22" fill="#22262C"/>
<circle cx="457" cy="207" r="22" fill="#22262C"/>
</svg>
