<svg width="1067" height="1068" viewBox="0 0 1067 1068" fill="none" xmlns="http://www.w3.org/2000/svg">
<rect width="1067" height="1068" fill="#1E1E1E"/>
<path d="M1067 0H0V1068H1067V0Z" fill="#22262C"/>
<rect x="176.008" y="166" width="158.512" height="170.083" rx="8" fill="#CFD4CD"/>
<rect x="732.537" y="166" width="158.512" height="170.083" rx="8" fill="#CFD4CD"/>
<path d="M674.686 311.785H932.058C941.999 311.785 950.058 319.844 950.058 329.785V842.843C950.058 854.993 940.208 864.843 928.058 864.843H718.686C694.385 864.843 674.686 845.144 674.686 820.843V311.785Z" fill="#CFD4CD"/>
<path d="M392.372 311.785H135C125.059 311.785 117 319.844 117 329.785V842.843C117 854.993 126.85 864.843 139 864.843H348.372C372.672 864.843 392.372 845.144 392.372 820.843V311.785Z" fill="#CFD4CD"/>
<rect x="290.554" y="311.785" width="504.463" height="254.545" fill="#CFD4CD"/>
<path d="M392.372 542.545C392.372 475.167 446.993 420.545 514.372 420.545H552.686C620.065 420.545 674.686 475.167 674.686 542.545V1006H392.372V542.545Z" fill="#22262C"/>
</svg>
