<svg width="1067" height="1068" viewBox="0 0 1067 1068" fill="none" xmlns="http://www.w3.org/2000/svg">
<rect width="1067" height="1068" fill="#1E1E1E"/>
<path d="M1067 0H0V1068H1067V0Z" fill="#22262C"/>
<path d="M116.062 446.455L136.583 440.361L136.647 442.588L136.775 447.04C134.454 448.585 129.694 451.677 129.222 451.689L119.767 451.93L116.062 446.455Z" fill="#909090"/>
<path d="M195.359 426.67C236.715 448.448 673.575 677.342 810.072 700.851C819.333 702.446 825.443 716.225 819.273 723.313L750.277 802.577C747.447 805.829 742.852 806.9 738.875 805.237L310.826 626.183C309.707 625.715 308.683 625.048 307.804 624.214L131.843 457.361C126.193 452.004 128.563 442.53 136.07 440.463L188.384 426.062C190.841 425.385 193.104 425.483 195.359 426.67Z" fill="#909090"/>
<path d="M637.531 1058.03L649.944 1051.91L645.216 1049.13H641.078L637.531 1051.35V1058.03Z" fill="#909090"/>
<path d="M694.309 1028.54L643.862 1055.88C639.032 1058.5 632.994 1056.73 630.341 1051.92L548.315 903.204C547.613 901.932 547.197 900.523 547.095 899.074L513.229 416.696C513.043 414.05 513.917 411.438 515.657 409.435L667.327 234.96C669.069 232.956 671.537 231.727 674.186 231.545L961.45 211.741C967.263 211.34 972.186 215.974 972.138 221.8L971.678 276.824C971.646 280.643 969.441 284.111 965.996 285.76L765.758 381.596C706.856 412.689 692.025 452.237 686.231 493.585C685.872 496.146 686.562 498.739 688.107 500.813L697.562 513.501C698.849 515.228 699.544 517.323 699.544 519.476V616.218C699.544 619.8 701.461 623.11 704.569 624.892L840.793 703.02C843.901 704.802 845.818 708.112 845.818 711.695V950.415C845.818 953.512 844.384 956.433 841.934 958.327L791.436 997.366C788.587 999.569 784.774 1000.07 781.453 998.677L713.41 970.147C706.821 967.384 699.544 972.224 699.544 979.369V1019.75C699.544 1023.42 697.534 1026.79 694.309 1028.54Z" fill="#919191"/>
<path d="M969.739 228.98L969.148 217.845L962.646 218.402L960.872 221.185C961.267 222.67 962.055 225.751 962.055 226.197C962.055 226.642 964.025 228.98 965.01 230.094L969.739 228.98Z" fill="#909090"/>
<path d="M247.984 886.713V796.949C247.984 793.166 245.849 789.707 242.468 788.01L116.953 725.06C113.571 723.364 111.436 719.904 111.436 716.121V455.176C111.436 447.853 119.049 443.013 125.68 446.121L219.554 490.119C226.185 493.227 233.798 488.387 233.798 481.064V396.192C233.798 392.548 237.86 390.375 240.891 392.397C243.922 394.42 247.984 392.247 247.984 388.602V372.074C259.334 259.826 330.15 206.709 382.168 181.654L610.993 88.4199C613.239 87.5046 615.741 87.437 618.034 88.2297L964.269 207.947C972.823 210.904 973.361 222.798 965.109 226.515L770.533 314.169C664.934 357.582 630.161 423.775 629.273 533.09C629.251 535.846 630.393 538.511 632.399 540.401L639.117 546.728C641.123 548.618 642.26 551.252 642.26 554.008V653.21C642.26 656.99 644.392 660.447 647.769 662.145L786.304 731.773C789.681 733.471 791.813 736.928 791.813 740.708V992.451C791.813 999.71 784.323 1004.55 777.705 1001.57L656.367 946.908C649.749 943.927 642.26 948.767 642.26 956.026V1052.15C642.26 1059.37 634.828 1064.22 628.217 1061.29L253.942 895.859C250.32 894.259 247.984 890.672 247.984 886.713Z" fill="#CFD4CD"/>
<path d="M746.661 194.46C746.661 206.429 736.035 217.903 717.353 226.502C698.844 235.021 673.132 240.343 644.624 240.343C616.117 240.343 590.405 235.021 571.896 226.502C553.214 217.903 542.588 206.429 542.588 194.46C542.588 182.49 553.214 171.016 571.896 162.418C590.405 153.898 616.117 148.576 644.624 148.576C673.132 148.576 698.844 153.898 717.353 162.418C736.035 171.016 746.661 182.49 746.661 194.46Z" fill="#CFD4CD" stroke="#909090" stroke-width="4"/>
</svg>
