<svg width="1067" height="1068" viewBox="0 0 1067 1068" fill="none" xmlns="http://www.w3.org/2000/svg">
<rect width="1067" height="1068" fill="#1E1E1E"/>
<path d="M1067 0H0V1068H1067V0Z" fill="#22262C"/>
<path d="M354 1067H745V357.5H621.5V128H745V0H344L323 21V1036L354 1067Z" fill="#CFD4CD"/>
<rect x="651" y="77" width="48" height="20" rx="1" fill="#22262C"/>
<rect x="393" y="108" width="17" height="31" rx="1" fill="#22262C"/>
<rect x="400" y="948" width="17" height="26" rx="1" fill="#22262C"/>
<rect x="637" y="999" width="45" height="17" rx="1" fill="#22262C"/>
<circle cx="365" cy="1020" r="22" fill="#22262C"/>
<circle cx="502" cy="871" r="63" fill="#22262C"/>
<circle cx="435" cy="525" r="15" fill="#22262C"/>
<circle cx="502" cy="871" r="63" fill="#22262C"/>
<path d="M554 951H450C443.925 951 439 956.652 439 963.625V1039.38C439 1046.35 443.925 1052 450 1052H554C560.075 1052 565 1046.35 565 1039.38V963.625C565 956.652 560.075 951 554 951Z" stroke="#7E827C" stroke-width="4"/>
<path d="M483 939H461C459.343 939 458 940.343 458 942V1021.76C458 1023.42 459.343 1024.76 461 1024.76H483C484.657 1024.76 486 1023.42 486 1021.76V942C486 940.343 484.657 939 483 939Z" fill="#22262C"/>
<path d="M543 939H521C519.343 939 518 940.343 518 942V1021.76C518 1023.42 519.343 1024.76 521 1024.76H543C544.657 1024.76 546 1023.42 546 1021.76V942C546 940.343 544.657 939 543 939Z" fill="#22262C"/>
<path d="M482.5 479C520.884 479 552 447.884 552 409.5C552 371.116 520.884 340 482.5 340C444.116 340 413 371.116 413 409.5C413 447.884 444.116 479 482.5 479Z" fill="#22262C"/>
<path d="M384.423 560.391L387.639 601.391C387.843 603.993 390.013 606 392.623 606H404.785C407.433 606 409.621 603.936 409.777 601.294L412.189 560.294C412.358 557.422 410.074 555 407.197 555H389.408C386.492 555 384.195 557.484 384.423 560.391Z" fill="#22262C"/>
<path d="M578 483.995H605.985V572.95C605.985 575.711 603.747 577.95 600.985 577.95H583C580.239 577.95 578 575.711 578 572.95V483.995Z" stroke="#888C86" stroke-width="4"/>
<path d="M607.985 485.993V473C607.985 472.448 607.537 472 606.985 472H577C576.448 472 576 472.448 576 473V485.993C576 486.545 576.448 486.993 577 486.993H606.985C607.537 486.993 607.985 486.545 607.985 485.993Z" fill="#22262C"/>
<path d="M686 0H730V4C730 16.1503 720.15 26 708 26V26C695.85 26 686 16.1503 686 4V0Z" fill="#22262C"/>
<path d="M686 1068H730V1064C730 1051.85 720.15 1042 708 1042V1042C695.85 1042 686 1051.85 686 1064V1068Z" fill="#22262C"/>
<path d="M493 688V766.5C493 767.052 493.448 767.5 494 767.5H670.5C671.052 767.5 671.5 767.052 671.5 766.5V730.5C671.5 729.948 671.052 729.5 670.5 729.5H555.414C555.149 729.5 554.895 729.395 554.707 729.207L525.793 700.293C525.605 700.105 525.5 699.851 525.5 699.586V688C525.5 687.448 525.052 687 524.5 687H494C493.448 687 493 687.448 493 688Z" fill="#22262C"/>
<path d="M413.969 162H374.987V195.984H413.969V162Z" fill="#22262C"/>
<path d="M348 175C348 167.82 353.82 162 361 162H377.985V287.941H358C352.477 287.941 348 283.464 348 277.941V175Z" fill="#22262C"/>
<path d="M437.957 175C437.957 167.82 432.137 162 424.957 162H407.971V287.941H427.957C433.48 287.941 437.957 283.464 437.957 277.941V175Z" fill="#22262C"/>
<path d="M377.985 287.941C381.849 287.941 384.982 283.913 384.982 278.945C384.982 273.977 381.849 269.949 377.985 269.949C374.121 269.949 370.988 273.977 370.988 278.945C370.988 283.913 374.121 287.941 377.985 287.941Z" fill="#22262C"/>
<path d="M407.971 287.941C411.835 287.941 414.968 283.913 414.968 278.945C414.968 273.977 411.835 269.949 407.971 269.949C404.107 269.949 400.974 273.977 400.974 278.945C400.974 283.913 404.107 287.941 407.971 287.941Z" fill="#22262C"/>
<path d="M377.985 191.989C377.985 188.123 381.119 184.989 384.985 184.989H399.971C404.39 184.989 407.971 188.571 407.971 192.989V262.952H377.985V191.989Z" fill="#CFD4CD"/>
<rect x="483" y="206" width="44" height="25" rx="1" fill="#22262C"/>
<rect x="562" y="162" width="14" height="44" rx="1" fill="#22262C"/>
<rect x="562" y="249" width="14" height="44" rx="1" fill="#22262C"/>
<rect x="358.526" y="417.974" width="29.7528" height="33.3219" rx="2.5" transform="rotate(66.4742 358.526 417.974)" stroke="#888C86" stroke-width="3"/>
</svg>
