<svg width="1067" height="1068" viewBox="0 0 1067 1068" fill="none" xmlns="http://www.w3.org/2000/svg">
<rect width="1067" height="1068" fill="#1E1E1E"/>
<path d="M1067 0H0V1068H1067V0Z" fill="#22262C"/>
<g clip-path="url(#clip0_0_1)">
<path d="M1067 0H0V1068H1067V0Z" fill="#1E1E1E"/>
<path d="M1067 0H0V1068H1067V0Z" fill="#22262C"/>
<path d="M288.888 1067H824.723C826.932 1067 828.723 1065.21 828.723 1063V270.25C828.723 268.041 826.932 266.25 824.723 266.25H724.325C722.116 266.25 720.325 264.46 720.325 262.25V200.316C720.325 198.107 718.534 196.316 716.325 196.316H588.952C586.743 196.316 584.952 194.525 584.952 192.316V143.369C584.952 141.16 586.743 139.369 588.952 139.369H716.325C718.534 139.369 720.325 137.579 720.325 135.369V71.4368C720.325 69.2277 722.116 67.4368 724.325 67.4368H824.723C826.932 67.4368 828.723 65.6459 828.723 63.4368V4C828.723 1.79086 826.932 0 824.723 0H280.895C279.834 0 278.817 0.421426 278.067 1.17157L239.448 39.79C238.698 40.5402 238.277 41.5576 238.277 42.6184V1016.39C238.277 1017.45 238.698 1018.47 239.448 1019.22L286.059 1065.83C286.809 1066.58 287.827 1067 288.888 1067Z" fill="#CFD4CD"/>
<path d="M436.114 394.137C470.133 379.201 485.603 339.515 470.667 305.496C455.731 271.477 416.045 256.007 382.026 270.943C348.007 285.879 332.537 325.564 347.473 359.584C362.409 393.603 402.095 409.073 436.114 394.137Z" fill="#22262C"/>
<path d="M789.759 1015.05H750.797C750.245 1015.05 749.797 1015.5 749.797 1016.05V1030.04C749.797 1030.59 750.245 1031.04 750.797 1031.04H789.759C790.311 1031.04 790.759 1030.59 790.759 1030.04V1016.05C790.759 1015.5 790.311 1015.05 789.759 1015.05Z" fill="#22262C"/>
<path d="M308.211 1043.02V1004.06C308.211 1003.51 307.763 1003.06 307.211 1003.06H293.226C292.674 1003.06 292.226 1003.51 292.226 1004.06V1043.02C292.226 1043.57 292.674 1044.02 293.226 1044.02H307.211C307.763 1044.02 308.211 1043.57 308.211 1043.02Z" fill="#22262C"/>
<path d="M622 554.985H660.962C661.514 554.985 661.962 554.537 661.962 553.985V540C661.962 539.448 661.514 539 660.962 539H622C621.448 539 621 539.448 621 540V553.985C621 554.537 621.448 554.985 622 554.985Z" fill="#22262C"/>
<path d="M403.122 445.583V484.545C403.122 485.097 403.57 485.545 404.122 485.545H418.107C418.659 485.545 419.107 485.097 419.107 484.545V445.583C419.107 445.031 418.659 444.583 418.107 444.583H404.122C403.57 444.583 403.122 445.031 403.122 445.583Z" fill="#22262C"/>
<path d="M300.219 35.9672V74.9288C300.219 75.4811 300.667 75.9288 301.219 75.9288H315.204C315.756 75.9288 316.204 75.4811 316.204 74.9288V35.9672C316.204 35.4149 315.756 34.9672 315.204 34.9672H301.219C300.667 34.9672 300.219 35.4149 300.219 35.9672Z" fill="#22262C"/>
<path d="M784.764 37.9644H745.802C745.25 37.9644 744.802 38.4121 744.802 38.9644V52.9494C744.802 53.5017 745.25 53.9494 745.802 53.9494H784.764C785.316 53.9494 785.764 53.5017 785.764 52.9494V38.9644C785.764 38.4121 785.316 37.9644 784.764 37.9644Z" fill="#22262C"/>
<path d="M425.477 79.9542C438.995 79.9542 449.954 68.9954 449.954 55.4771C449.954 41.9588 438.995 31 425.477 31C411.959 31 401 41.9588 401 55.4771C401 68.9954 411.959 79.9542 425.477 79.9542Z" fill="#22262C"/>
<path d="M320.348 498.033H310.213C308.004 498.033 306.213 496.246 306.213 494.037V455.074C306.213 441.886 317.536 438.922 323.197 439.088H342.179C358.964 439.088 364.159 452.076 364.658 458.57V513.515C364.658 515.724 362.867 517.515 360.658 517.515H348.608C346.634 517.515 344.955 516.075 344.655 514.123L342.264 498.584C342.208 498.219 342.206 497.85 342.236 497.481C342.577 493.346 341.327 486.044 333.687 486.044C328.078 486.044 325.749 489.981 324.974 493.71C324.498 496.001 322.689 498.033 320.348 498.033Z" fill="#22262C"/>
<path d="M398 992H417V1021.5C417 1026.75 412.747 1031 407.5 1031V1031C402.253 1031 398 1026.75 398 1021.5V992Z" fill="#939991"/>
<path d="M343 890C343 854.101 372.101 825 408 825V825C443.899 825 473 854.101 473 890V965H343V890Z" fill="#22262C"/>
<path d="M516.673 918H299.325C298.661 918 298.185 918.648 298.375 919.285C326.899 1014.67 484.424 1030.87 517.621 919.3C517.81 918.663 517.338 918 516.673 918Z" fill="#22262C"/>
<circle cx="505" cy="885" r="10" fill="#949991"/>
<circle cx="311" cy="885" r="10" fill="#949991"/>
<rect x="612" y="955" width="17" height="44" rx="1" fill="#22262C"/>
<path d="M271 198V106C271 99.3726 276.373 94 283 94H329.5C336.127 94 341.5 99.3726 341.5 106V197.75C341.5 203.135 337.135 207.5 331.75 207.5C326.365 207.5 322 203.135 322 197.75V121.5C322 114.873 316.627 109.5 310 109.5H302C295.373 109.5 290 114.873 290 121.5V198C290 203.247 285.747 207.5 280.5 207.5C275.253 207.5 271 203.247 271 198Z" fill="#22262C"/>
<rect x="381" y="162" width="44" height="23" rx="1" fill="#22262C"/>
<rect x="455" y="139" width="20" height="23" rx="1" fill="#22262C"/>
<rect x="455" y="199" width="20" height="23" rx="1" fill="#22262C"/>
<circle cx="357.5" cy="595.5" r="14.5" fill="#22262C"/>
<path d="M393 739V809C393 809.552 393.448 810 394 810H559.5C560.052 810 560.5 809.552 560.5 809V777C560.5 776.448 560.052 776 559.5 776H448.914C448.649 776 448.395 775.895 448.207 775.707L422.793 750.293C422.605 750.105 422.5 749.851 422.5 749.586V739C422.5 738.448 422.052 738 421.5 738H394C393.448 738 393 738.448 393 739Z" fill="#22262C"/>
<rect x="451.942" y="442" width="86.4019" height="26.8614" rx="3" transform="rotate(31.2682 451.942 442)" fill="#22262C"/>
<rect x="460.634" y="448.751" width="83.4019" height="24.2241" rx="1.5" transform="rotate(31.2682 460.634 448.751)" fill="#CFD4CD" stroke="#939991" stroke-width="3"/>
</g>
<defs>
<clipPath id="clip0_0_1">
<rect width="1067" height="1068" fill="white"/>
</clipPath>
</defs>
</svg>
