<svg width="1067" height="1068" viewBox="0 0 1067 1068" fill="none" xmlns="http://www.w3.org/2000/svg">
<rect width="1067" height="1068" fill="#1E1E1E"/>
<path d="M1067 0H0V1068H1067V0Z" fill="#22262C"/>
<path d="M412.414 1067H670C670.552 1067 671 1066.55 671 1066V410.5C671 409.948 670.552 409.5 670 409.5H576C575.448 409.5 575 409.052 575 408.5V194C575 193.448 575.448 193 576 193H670C670.552 193 671 192.552 671 192V1C671 0.447715 670.552 0 670 0H413.414C413.149 0 412.895 0.105356 412.707 0.292892L397.293 15.7071C397.105 15.8946 397 16.1489 397 16.4142V1051.59C397 1051.85 397.105 1052.11 397.293 1052.29L411.707 1066.71C411.895 1066.89 412.149 1067 412.414 1067Z" fill="#CFD4CD"/>
<rect x="513" y="122" width="32" height="12" rx="2" fill="#AAAEA9"/>
<path d="M632 41H586C584.895 41 584 41.8954 584 43V60C584 61.1046 584.895 62 586 62H632C633.105 62 634 61.1046 634 60V43C634 41.8954 633.105 41 632 41Z" fill="#22262C"/>
<path d="M563 180V104C563 102.895 562.105 102 561 102H544C542.895 102 542 102.895 542 104V180C542 181.105 542.895 182 544 182H561C562.105 182 563 181.105 563 180Z" fill="#22262C"/>
<path d="M556 280.933V241.067C556 239.373 555.275 238 554.381 238H540.619C539.725 238 539 239.373 539 241.067V280.933C539 282.627 539.725 284 540.619 284H554.381C555.275 284 556 282.627 556 280.933Z" fill="#22262C"/>
<path d="M556 368.933V329.067C556 327.373 555.275 326 554.381 326H540.619C539.725 326 539 327.373 539 329.067V368.933C539 370.627 539.725 372 540.619 372H554.381C555.275 372 556 370.627 556 368.933Z" fill="#22262C"/>
<path d="M517 566C552.899 566 582 536.899 582 501C582 465.101 552.899 436 517 436C481.101 436 452 465.101 452 501C452 536.899 481.101 566 517 566Z" fill="#22262C"/>
<path d="M601 521C621.987 521 639 503.987 639 483C639 462.013 621.987 445 601 445C580.013 445 563 462.013 563 483C563 503.987 580.013 521 601 521Z" fill="#CFD4CD"/>
<path d="M435 557C455.987 557 473 539.987 473 519C473 498.013 455.987 481 435 481C414.013 481 397 498.013 397 519C397 539.987 414.013 557 435 557Z" fill="#CFD4CD"/>
<path d="M523 953C553.928 953 579 927.928 579 897C579 866.072 553.928 841 523 841C492.072 841 467 866.072 467 897C467 927.928 492.072 953 523 953Z" fill="#22262C"/>
<path d="M560.5 960.5H485.5C476.94 960.5 470 967.44 470 976V1035C470 1043.56 476.94 1050.5 485.5 1050.5H560.5C569.06 1050.5 576 1043.56 576 1035V976C576 967.44 569.06 960.5 560.5 960.5Z" fill="#CFD4CD" stroke="#90948F" stroke-width="3"/>
<path d="M560.5 959H540.5C539.395 959 538.5 959.895 538.5 961V1035C538.5 1036.1 539.395 1037 540.5 1037H560.5C561.605 1037 562.5 1036.1 562.5 1035V961C562.5 959.895 561.605 959 560.5 959Z" fill="#22262C"/>
<path d="M504.5 959H484.5C483.395 959 482.5 959.895 482.5 961V1035C482.5 1036.1 483.395 1037 484.5 1037H504.5C505.605 1037 506.5 1036.1 506.5 1035V961C506.5 959.895 505.605 959 504.5 959Z" fill="#22262C"/>
<rect x="584" y="1010" width="42" height="15" rx="1" fill="#22262C"/>
<rect x="410" y="1022" width="42" height="15" rx="1" fill="#22262C"/>
<circle cx="473" cy="642" r="14" fill="#22262C"/>
<circle cx="625.5" cy="612.5" r="24.5" fill="#22262C"/>
<circle cx="622.5" cy="114.5" r="26.5" fill="#22262C"/>
<rect x="611" y="511.699" width="32.3732" height="32.3732" rx="2" transform="rotate(-42.0886 611 511.699)" fill="#22262C"/>
<path d="M515 755V818.5C515 819.052 515.448 819.5 516 819.5H662C662.552 819.5 663 819.052 663 818.5V780C663 779.448 662.552 779 662 779H562.414C562.149 779 561.895 778.895 561.707 778.707L537.293 754.293C537.105 754.105 536.851 754 536.586 754H516C515.448 754 515 754.448 515 755Z" fill="#22262C"/>
<path d="M417 562H431C438.732 562 445 568.268 445 576V656H428C421.925 656 417 651.075 417 645V562Z" fill="#22262C"/>
<path d="M415.5 577.5H428C434.904 577.5 440.5 583.096 440.5 590V668.5H425C419.753 668.5 415.5 664.247 415.5 659V577.5Z" fill="#CFD4CD" stroke="#90948F" stroke-width="3"/>
<rect x="418" y="190" width="40" height="19" rx="1" fill="#22262C"/>
<rect x="401" y="355.06" width="35" height="31" rx="4" transform="rotate(-15.0027 401 355.06)" fill="#AAAEA9"/>
<rect x="514" y="195" width="25" height="33" rx="4" fill="#AAAEA9"/>
</svg>
