<svg width="1067" height="1068" viewBox="0 0 1067 1068" fill="none" xmlns="http://www.w3.org/2000/svg">
<rect width="1067" height="1068" fill="#1E1E1E"/>
<path d="M1067 0H0V1068H1067V0Z" fill="#22262C"/>
<path d="M191.104 515.252V994.792C191.104 1003.08 197.82 1009.79 206.104 1009.79H898.055C906.339 1009.79 913.055 1003.08 913.055 994.792V515.252C913.055 506.967 919.77 500.252 928.055 500.252H1052C1060.28 500.252 1067 493.536 1067 485.252V74C1067 65.7157 1060.28 59 1052 59H864.353C856.069 59 849.353 65.7157 849.353 74V243.614C849.353 251.898 842.638 258.614 834.353 258.614H609.547C601.263 258.614 594.547 251.898 594.547 243.614V177.974C594.547 172.615 591.688 167.662 587.046 164.983L406.923 61.009C404.643 59.6929 402.057 59 399.424 59H15C6.71573 59 0 65.7157 0 74V485.252C0 493.536 6.71573 500.252 15 500.252H176.104C184.389 500.252 191.104 506.967 191.104 515.252Z" fill="#948878"/>
<circle cx="375" cy="159" r="60" fill="#675F55"/>
<circle cx="375" cy="476" r="60" fill="#675F55"/>
<circle cx="734" cy="476" r="60" fill="#675F55"/>
<circle cx="946" cy="159" r="60" fill="#675F55"/>
<circle cx="544" cy="846" r="60" fill="#675F55"/>
<circle cx="734.223" cy="476.292" r="47.5396" fill="#22262C"/>
<circle cx="375.034" cy="476.292" r="47.5396" fill="#22262C"/>
<circle cx="375.034" cy="159.361" r="47.5396" fill="#22262C"/>
<circle cx="79" cy="159" r="60" fill="#675F55"/>
<circle cx="79.2331" cy="159.361" r="47.5396" fill="#22262C"/>
<circle cx="945.51" cy="159.361" r="47.5396" fill="#22262C"/>
<circle cx="544.065" cy="846.044" r="47.5396" fill="#22262C"/>
<rect x="1003.61" y="228.03" width="63.3861" height="179.594" rx="1" fill="#675F55"/>
<rect y="228.03" width="63.3861" height="179.594" rx="1" fill="#675F55"/>
</svg>
