<svg width="1067" height="1068" viewBox="0 0 1067 1068" fill="none" xmlns="http://www.w3.org/2000/svg">
<rect width="1067" height="1068" fill="#1E1E1E"/>
<path d="M1067 0H0V1068H1067V0Z" fill="#22262C"/>
<path d="M802.748 359.332V1068H280.993L265 1052.01V40.9808L305.981 0H802.748V125.941H680.306V359.332H802.748Z" fill="#CFD4CD"/>
<circle cx="434.92" cy="883.586" r="62.9705" fill="#22262C"/>
<ellipse cx="762.767" cy="920.069" rx="24.9883" ry="23.9888" fill="#22262C"/>
<ellipse cx="395.439" cy="560.737" rx="17.9916" ry="17.4918" fill="#22262C"/>
<ellipse cx="529.876" cy="42.4801" rx="29.986" ry="28.9864" fill="#22262C"/>
<ellipse cx="446.415" cy="430.798" rx="75.4647" ry="73.4656" fill="#22262C"/>
<path d="M371.95 949.562V994.952C371.95 996.203 372.727 997.324 373.9 997.762L417.377 1014.01C419.337 1014.74 421.427 1013.29 421.427 1011.2V962.298C421.427 960.966 420.548 959.793 419.27 959.419L375.793 946.683C373.873 946.12 371.95 947.561 371.95 949.562Z" fill="#22262C"/>
<path d="M497.391 949.062V994.452C497.391 995.704 496.614 996.824 495.441 997.262L451.965 1013.51C450.004 1014.24 447.914 1012.79 447.914 1010.7V961.798C447.914 960.466 448.793 959.293 450.071 958.919L493.548 946.183C495.469 945.621 497.391 947.061 497.391 949.062Z" fill="#22262C"/>
<path d="M423.926 723.162V795.627C423.926 796.731 424.821 797.627 425.926 797.627H599.343C600.447 797.627 601.343 796.731 601.343 795.627V762.644C601.343 761.539 600.447 760.644 599.343 760.644H485.226C484.695 760.644 484.187 760.433 483.811 760.058L455.997 732.243C455.622 731.868 455.411 731.36 455.411 730.829V723.162C455.411 722.058 454.515 721.162 453.411 721.162H425.926C424.821 721.162 423.926 722.058 423.926 723.162Z" fill="#22262C"/>
<rect x="334.967" y="958.551" width="16.992" height="23.9888" rx="1" fill="#22262C"/>
<rect x="551.866" y="1008.03" width="16.992" height="23.9888" rx="1" transform="rotate(90 551.866 1008.03)" fill="#22262C"/>
<rect x="627.33" y="563.236" width="18.9911" height="28.9864" rx="1" transform="rotate(90 627.33 563.236)" fill="#22262C"/>
<rect x="476.901" y="224.395" width="25.9878" height="46.978" rx="1" transform="rotate(90 476.901 224.395)" fill="#22262C"/>
<rect x="533.874" y="200.406" width="23.9888" height="22.9892" rx="1" transform="rotate(90 533.874 200.406)" fill="#22262C"/>
<rect x="533.874" y="267.375" width="23.9888" height="22.9892" rx="1" transform="rotate(90 533.874 267.375)" fill="#22262C"/>
<rect x="759.768" y="76.4642" width="20.9902" height="50.9761" rx="1" transform="rotate(90 759.768 76.4642)" fill="#22262C"/>
<rect x="357.956" y="110.448" width="32.9846" height="19.9906" rx="1" transform="rotate(90 357.956 110.448)" fill="#22262C"/>
<rect x="322.973" y="169.421" width="38.9818" height="33.9841" fill="#22262C"/>
<path d="M295.986 182.421C295.986 175.241 301.806 169.421 308.986 169.421H325.971V295.362H305.986C300.463 295.362 295.986 290.885 295.986 285.362V182.421Z" fill="#22262C"/>
<path d="M385.943 182.421C385.943 175.241 380.123 169.421 372.943 169.421H355.957V295.362H375.943C381.466 295.362 385.943 290.885 385.943 285.362V182.421Z" fill="#22262C"/>
<ellipse cx="325.971" cy="286.366" rx="6.99672" ry="8.99579" fill="#22262C"/>
<ellipse cx="355.957" cy="286.366" rx="6.99672" ry="8.99579" fill="#22262C"/>
<path d="M325.971 199.41C325.971 195.544 329.105 192.41 332.971 192.41H347.957C352.376 192.41 355.957 195.992 355.957 200.41V270.373H325.971V199.41Z" fill="#CFD4CD"/>
<path d="M512.385 522.256H540.37V611.211C540.37 613.972 538.132 616.211 535.37 616.211H517.385C514.624 616.211 512.385 613.972 512.385 611.211V522.256Z" stroke="#888C86" stroke-width="4"/>
<path d="M320.886 461.822L328.878 475.666C330.535 478.536 329.552 482.205 326.682 483.862L305.69 495.982C303.298 497.362 300.24 496.543 298.86 494.152L289.867 478.576C288.487 476.185 289.306 473.127 291.697 471.746L312.689 459.626C315.559 457.969 319.229 458.953 320.886 461.822Z" stroke="#888C86" stroke-width="4"/>
<path d="M338.151 586.397L342.807 640.869C342.896 641.904 343.761 642.699 344.8 642.699H369.066C370.125 642.699 371 641.875 371.063 640.819L374.322 586.346C374.391 585.196 373.477 584.226 372.326 584.226H340.144C338.972 584.226 338.052 585.229 338.151 586.397Z" fill="#22262C"/>
<rect x="542.37" y="510.261" width="14.993" height="31.985" rx="1" transform="rotate(90 542.37 510.261)" fill="#22262C"/>
<path d="M264 1037L295 1068H264V1037Z" fill="#22262C"/>
</svg>
