<svg width="1067" height="1068" viewBox="0 0 1067 1068" fill="none" xmlns="http://www.w3.org/2000/svg">
<rect width="1067" height="1068" fill="#1E1E1E"/>
<path d="M1067 0H0V1068H1067V0Z" fill="#22262C"/>
<path d="M126.526 481.171H19C8.50659 481.171 0 472.665 0 462.171V335.01C0 324.517 8.5066 316.01 19 316.01H1048C1058.49 316.01 1067 324.517 1067 335.01V462.171C1067 472.665 1058.49 481.171 1048 481.171H941.598C931.105 481.171 922.598 489.678 922.598 500.171V938.554C922.598 949.047 914.092 957.554 903.598 957.554H164.526C154.032 957.554 145.526 949.047 145.526 938.554V500.171C145.526 489.678 137.019 481.171 126.526 481.171Z" fill="#646567"/>
<path d="M0 164C0 134.177 24.1766 110 54 110H1013C1042.82 110 1067 134.177 1067 164V341.762H0V164Z" fill="#646567"/>
<circle cx="307.336" cy="468.839" r="43.1055" fill="#505152"/>
<circle cx="770.86" cy="465.48" r="43.1055" fill="#505152"/>
<circle cx="543.577" cy="787.931" r="43.1055" fill="#505152"/>
<circle cx="161.785" cy="200.13" r="53.1821" fill="#22262C"/>
<circle cx="401.944" cy="178.297" r="50.383" fill="#22262C"/>
<circle cx="598.998" cy="252.192" r="55.9811" fill="#22262C"/>
<circle cx="885.061" cy="201.249" r="48.7036" fill="#22262C"/>
<circle cx="770.86" cy="465.48" r="31.9092" fill="#22262C"/>
<circle cx="307.336" cy="468.839" r="31.9092" fill="#22262C"/>
<circle cx="543.577" cy="787.931" r="31.9092" fill="#22262C"/>
</svg>
