<svg width="1067" height="1068" viewBox="0 0 1067 1068" fill="none" xmlns="http://www.w3.org/2000/svg">
<rect width="1067" height="1068" fill="#1E1E1E"/>
<g clip-path="url(#clip0_0_1)">
<path d="M1067 0H0V1068H1067V0Z" fill="#1E1E1E"/>
<path d="M1067 0H0V1068H1067V0Z" fill="#22262C"/>
<path d="M288.888 1067H824.723C826.932 1067 828.723 1065.21 828.723 1063V270.25C828.723 268.041 826.932 266.25 824.723 266.25H724.325C722.116 266.25 720.325 264.46 720.325 262.25V200.316C720.325 198.107 718.534 196.316 716.325 196.316H588.952C586.743 196.316 584.952 194.525 584.952 192.316V143.369C584.952 141.16 586.743 139.369 588.952 139.369H716.325C718.534 139.369 720.325 137.579 720.325 135.369V71.4368C720.325 69.2277 722.116 67.4368 724.325 67.4368H824.723C826.932 67.4368 828.723 65.6459 828.723 63.4368V4C828.723 1.79086 826.932 0 824.723 0H280.895C279.834 0 278.817 0.421426 278.067 1.17157L239.448 39.79C238.698 40.5402 238.277 41.5576 238.277 42.6184V1016.39C238.277 1017.45 238.698 1018.47 239.448 1019.22L286.059 1065.83C286.809 1066.58 287.827 1067 288.888 1067Z" fill="#CFD4CD"/>
<path d="M436.114 394.137C470.133 379.201 485.603 339.515 470.667 305.496C455.731 271.477 416.045 256.007 382.026 270.943C348.007 285.879 332.537 325.564 347.473 359.584C362.409 393.603 402.094 409.073 436.114 394.137Z" fill="#22262C"/>
<path d="M789.759 1015.05H750.797C750.245 1015.05 749.797 1015.5 749.797 1016.05V1030.04C749.797 1030.59 750.245 1031.04 750.797 1031.04H789.759C790.311 1031.04 790.759 1030.59 790.759 1030.04V1016.05C790.759 1015.5 790.311 1015.05 789.759 1015.05Z" fill="#22262C"/>
<path d="M308.211 1043.02V1004.06C308.211 1003.51 307.763 1003.06 307.211 1003.06H293.226C292.674 1003.06 292.226 1003.51 292.226 1004.06V1043.02C292.226 1043.57 292.674 1044.02 293.226 1044.02H307.211C307.763 1044.02 308.211 1043.57 308.211 1043.02Z" fill="#22262C"/>
<path d="M618.92 550.484H657.882C658.434 550.484 658.882 550.036 658.882 549.484V535.499C658.882 534.947 658.434 534.499 657.882 534.499H618.92C618.368 534.499 617.92 534.947 617.92 535.499V549.484C617.92 550.036 618.368 550.484 618.92 550.484Z" fill="#22262C"/>
<path d="M403.122 445.583V484.545C403.122 485.097 403.57 485.545 404.122 485.545H418.107C418.659 485.545 419.107 485.097 419.107 484.545V445.583C419.107 445.031 418.659 444.583 418.107 444.583H404.122C403.57 444.583 403.122 445.031 403.122 445.583Z" fill="#22262C"/>
<path d="M300.219 35.9672V74.9288C300.219 75.4811 300.667 75.9288 301.219 75.9288H315.204C315.756 75.9288 316.204 75.4811 316.204 74.9288V35.9672C316.204 35.4149 315.756 34.9672 315.204 34.9672H301.219C300.667 34.9672 300.219 35.4149 300.219 35.9672Z" fill="#22262C"/>
<path d="M784.764 37.9644H745.802C745.25 37.9644 744.802 38.4121 744.802 38.9644V52.9494C744.802 53.5017 745.25 53.9494 745.802 53.9494H784.764C785.316 53.9494 785.764 53.5017 785.764 52.9494V38.9644C785.764 38.4121 785.316 37.9644 784.764 37.9644Z" fill="#22262C"/>
<path d="M375.648 79.9251C389.166 79.9251 400.125 68.9663 400.125 55.448C400.125 41.9297 389.166 30.9709 375.648 30.9709C362.13 30.9709 351.171 41.9297 351.171 55.448C351.171 68.9663 362.13 79.9251 375.648 79.9251Z" fill="#22262C"/>
<path d="M320.348 498.033H310.213C308.004 498.033 306.213 496.246 306.213 494.037V455.074C306.213 441.886 317.536 438.922 323.197 439.088H342.179C358.964 439.088 364.159 452.076 364.658 458.57V513.515C364.658 515.724 362.867 517.515 360.658 517.515H348.608C346.634 517.515 344.955 516.075 344.655 514.123L342.264 498.584C342.208 498.219 342.206 497.85 342.236 497.481C342.577 493.346 341.327 486.044 333.687 486.044C328.078 486.044 325.749 489.981 324.974 493.71C324.498 496.001 322.689 498.033 320.348 498.033Z" fill="#22262C"/>
<path d="M261 192V100C261 93.3726 266.373 88 273 88H319.5C326.127 88 331.5 93.3726 331.5 100V191.75C331.5 197.135 327.135 201.5 321.75 201.5C316.365 201.5 312 197.135 312 191.75V115.5C312 108.873 306.627 103.5 300 103.5H292C285.373 103.5 280 108.873 280 115.5V192C280 197.247 275.747 201.5 270.5 201.5C265.253 201.5 261 197.247 261 192Z" fill="#22262C"/>
<path d="M434 108H419C415.962 108 413.5 110.462 413.5 113.5V194.5C413.5 197.538 415.962 200 419 200H434C437.038 200 439.5 197.538 439.5 194.5V113.5C439.5 110.462 437.038 108 434 108Z" stroke="#787878" stroke-width="3"/>
<path d="M466 119.5H451C449.895 119.5 449 120.395 449 121.5V137.5C449 138.605 449.895 139.5 451 139.5H466C467.105 139.5 468 138.605 468 137.5V121.5C468 120.395 467.105 119.5 466 119.5Z" fill="#22262C"/>
<path d="M466 174.5H451C449.895 174.5 449 175.395 449 176.5V192.5C449 193.605 449.895 194.5 451 194.5H466C467.105 194.5 468 193.605 468 192.5V176.5C468 175.395 467.105 174.5 466 174.5Z" fill="#22262C"/>
<path d="M402.5 911C414.926 911 425 900.926 425 888.5C425 876.074 414.926 866 402.5 866C390.074 866 380 876.074 380 888.5C380 900.926 390.074 911 402.5 911Z" fill="#22262C"/>
<path d="M389.614 933.897L392.407 906.897C392.46 906.387 392.889 906 393.402 906H412.627C413.127 906 413.55 906.37 413.618 906.865L424.846 989.365C424.927 989.965 424.461 990.5 423.855 990.5H383.651C383.043 990.5 382.576 989.962 382.66 989.361L387.427 955.52C387.473 955.194 387.676 954.912 387.97 954.765L398.947 949.276C399.286 949.107 399.5 948.761 399.5 948.382V936C399.5 935.448 399.052 935 398.5 935H390.609C390.016 935 389.553 934.487 389.614 933.897Z" fill="#22262C"/>
</g>
<defs>
<clipPath id="clip0_0_1">
<rect width="1067" height="1068" fill="white"/>
</clipPath>
</defs>
</svg>
