<svg width="1067" height="1068" viewBox="0 0 1067 1068" fill="none" xmlns="http://www.w3.org/2000/svg">
<rect width="1067" height="1068" fill="#1E1E1E"/>
<path d="M1067 0H0V1068H1067V0Z" fill="#22262C"/>
<path d="M736 0H351.5L327.5 24.9796V1049.5L343.5 1068H736V425.5H618V203H736V0Z" fill="#CFD4CD"/>
<rect x="428.5" y="953.5" width="106" height="90" rx="15.5" fill="#CFD4CD" stroke="#90948F" stroke-width="3"/>
<rect x="640.5" y="51.5" width="50" height="21" rx="2" fill="#22262C"/>
<rect x="594.5" y="110.5" width="80" height="21" rx="2" transform="rotate(90 594.5 110.5)" fill="#22262C"/>
<rect x="545" y="240" width="46" height="16" rx="2" transform="rotate(90 545 240)" fill="#22262C"/>
<rect x="638.509" y="511" width="30" height="21.9331" rx="2" transform="rotate(45 638.509 511)" fill="#22262C"/>
<circle cx="480" cy="889" r="56" fill="#22262C"/>
<rect x="497" y="952" width="24" height="78" rx="2" fill="#22262C"/>
<rect x="497" y="952" width="24" height="78" rx="2" fill="#22262C"/>
<rect x="497" y="952" width="24" height="78" rx="2" fill="#22262C"/>
<rect x="497" y="952" width="24" height="78" rx="2" fill="#22262C"/>
<rect x="688" y="1006" width="15" height="41" rx="2" transform="rotate(90 688 1006)" fill="#22262C"/>
<rect x="688" y="1006" width="15" height="41" rx="2" transform="rotate(90 688 1006)" fill="#22262C"/>
<rect x="688" y="1006" width="15" height="41" rx="2" transform="rotate(90 688 1006)" fill="#22262C"/>
<rect x="688" y="1006" width="15" height="41" rx="2" transform="rotate(90 688 1006)" fill="#22262C"/>
<rect x="395" y="1030" width="15" height="41" rx="2" transform="rotate(90 395 1030)" fill="#22262C"/>
<rect x="395" y="1030" width="15" height="41" rx="2" transform="rotate(90 395 1030)" fill="#22262C"/>
<rect x="395" y="1030" width="15" height="41" rx="2" transform="rotate(90 395 1030)" fill="#22262C"/>
<rect x="395" y="1030" width="15" height="41" rx="2" transform="rotate(90 395 1030)" fill="#22262C"/>
<rect x="441" y="952" width="24" height="78" rx="2" fill="#22262C"/>
<rect x="441" y="952" width="24" height="78" rx="2" fill="#22262C"/>
<rect x="441" y="952" width="24" height="78" rx="2" fill="#22262C"/>
<rect x="441" y="952" width="24" height="78" rx="2" fill="#22262C"/>
<circle cx="495" cy="509" r="65" fill="#22262C"/>
<circle cx="592.5" cy="490.5" r="46.5" fill="#CFD4CD"/>
<circle cx="400.5" cy="532.5" r="46.5" fill="#CFD4CD"/>
<rect x="389.044" y="365.837" width="22.8058" height="24.0256" rx="5.5" transform="rotate(75 389.044 365.837)" fill="#CFD4CD" stroke="#90948F" stroke-width="3"/>
<rect x="572.526" y="204.5" width="22.8058" height="24.0256" rx="5.5" transform="rotate(90 572.526 204.5)" fill="#CFD4CD" stroke="#90948F" stroke-width="3"/>
<rect x="572.5" y="138.5" width="12" height="24" rx="1.5" transform="rotate(90 572.5 138.5)" fill="#CFD4CD" stroke="#90948F" stroke-width="3"/>
<path d="M736 0H351.5L327.5 24.9796V1049.5L343.5 1068H736V425.5H618V203H736V0Z" fill="#CFD4CD"/>
<rect x="428.5" y="953.5" width="106" height="90" rx="15.5" fill="#CFD4CD" stroke="#90948F" stroke-width="3"/>
<rect x="640.5" y="51.5" width="50" height="21" rx="2" fill="#22262C"/>
<rect x="594.5" y="110.5" width="80" height="21" rx="2" transform="rotate(90 594.5 110.5)" fill="#22262C"/>
<rect x="545" y="240" width="46" height="16" rx="2" transform="rotate(90 545 240)" fill="#22262C"/>
<rect x="545" y="318" width="46" height="16" rx="2" transform="rotate(90 545 318)" fill="#22262C"/>
<rect x="638.509" y="511" width="30" height="34.8069" rx="2" transform="rotate(45 638.509 511)" fill="#22262C"/>
<circle cx="480" cy="889" r="56" fill="#22262C"/>
<rect x="497" y="952" width="24" height="78" rx="2" fill="#22262C"/>
<rect x="497" y="952" width="24" height="78" rx="2" fill="#22262C"/>
<rect x="497" y="952" width="24" height="78" rx="2" fill="#22262C"/>
<rect x="497" y="952" width="24" height="78" rx="2" fill="#22262C"/>
<rect x="688" y="1006" width="15" height="41" rx="2" transform="rotate(90 688 1006)" fill="#22262C"/>
<rect x="688" y="1006" width="15" height="41" rx="2" transform="rotate(90 688 1006)" fill="#22262C"/>
<rect x="688" y="1006" width="15" height="41" rx="2" transform="rotate(90 688 1006)" fill="#22262C"/>
<rect x="688" y="1006" width="15" height="41" rx="2" transform="rotate(90 688 1006)" fill="#22262C"/>
<rect x="395" y="1030" width="15" height="41" rx="2" transform="rotate(90 395 1030)" fill="#22262C"/>
<rect x="395" y="1030" width="15" height="41" rx="2" transform="rotate(90 395 1030)" fill="#22262C"/>
<rect x="395" y="1030" width="15" height="41" rx="2" transform="rotate(90 395 1030)" fill="#22262C"/>
<rect x="395" y="1030" width="15" height="41" rx="2" transform="rotate(90 395 1030)" fill="#22262C"/>
<rect x="441" y="952" width="24" height="78" rx="2" fill="#22262C"/>
<rect x="441" y="952" width="24" height="78" rx="2" fill="#22262C"/>
<rect x="441" y="952" width="24" height="78" rx="2" fill="#22262C"/>
<rect x="441" y="952" width="24" height="78" rx="2" fill="#22262C"/>
<circle cx="495" cy="509" r="65" fill="#22262C"/>
<circle cx="592.5" cy="490.5" r="46.5" fill="#CFD4CD"/>
<circle cx="400.5" cy="532.5" r="46.5" fill="#CFD4CD"/>
<rect x="389.044" y="365.837" width="22.8058" height="24.0256" rx="5.5" transform="rotate(75 389.044 365.837)" fill="#CFD4CD" stroke="#90948F" stroke-width="3"/>
<rect x="572.526" y="204.5" width="22.8058" height="24.0256" rx="5.5" transform="rotate(90 572.526 204.5)" fill="#CFD4CD" stroke="#90948F" stroke-width="3"/>
<rect x="572.5" y="138.5" width="12" height="24" rx="1.5" transform="rotate(90 572.5 138.5)" fill="#CFD4CD" stroke="#90948F" stroke-width="3"/>
<path d="M486 762V816.5C486 817.605 486.895 818.5 488 818.5H631C632.105 818.5 633 817.605 633 816.5V786C633 784.895 632.105 784 631 784H533.328C532.798 784 532.289 783.789 531.914 783.414L509.086 760.586C508.711 760.211 508.202 760 507.672 760H488C486.895 760 486 760.895 486 762Z" fill="#22262C"/>
<circle cx="448" cy="665" r="15" fill="#22262C"/>
<path d="M385 584H398C405.18 584 411 589.82 411 597V665H385V584Z" fill="#22262C"/>
<mask id="path-40-inside-1_0_1" fill="white">
<path d="M385 601C385 599.895 385.895 599 387 599H398C405.18 599 411 604.82 411 612V678C411 679.105 410.105 680 409 680H387C385.895 680 385 679.105 385 678V601Z"/>
</mask>
<path d="M385 601C385 599.895 385.895 599 387 599H398C405.18 599 411 604.82 411 612V678C411 679.105 410.105 680 409 680H387C385.895 680 385 679.105 385 678V601Z" fill="#CFD4CD" stroke="#90948F" stroke-width="6" mask="url(#path-40-inside-1_0_1)"/>
<circle cx="398" cy="678" r="13" fill="#90948F"/>
<rect x="364" y="200" width="42" height="19" rx="2" fill="#22262C"/>
</svg>
