<svg width="1067" height="1068" viewBox="0 0 1067 1068" fill="none" xmlns="http://www.w3.org/2000/svg">
<rect width="1067" height="1068" fill="#1E1E1E"/>
<path d="M1067 0H0V1068H1067V0Z" fill="#22262C"/>
<g clip-path="url(#clip0_0_1)">
<path d="M1067 0H0V1068H1067V0Z" fill="#1E1E1E"/>
<path d="M1067 0H0V1068H1067V0Z" fill="#22262C"/>
<path d="M412.414 1067H670C670.552 1067 671 1066.55 671 1066V410.5C671 409.948 670.552 409.5 670 409.5H576C575.448 409.5 575 409.052 575 408.5V194C575 193.448 575.448 193 576 193H670C670.552 193 671 192.552 671 192V1C671 0.447715 670.552 0 670 0H413.414C413.149 0 412.895 0.105356 412.707 0.292892L397.293 15.7071C397.105 15.8946 397 16.1489 397 16.4142V1051.59C397 1051.85 397.105 1052.11 397.293 1052.29L411.707 1066.71C411.895 1066.89 412.149 1067 412.414 1067Z" fill="#CFD4CD"/>
<path d="M543 122H515C513.895 122 513 122.895 513 124V132C513 133.105 513.895 134 515 134H543C544.105 134 545 133.105 545 132V124C545 122.895 544.105 122 543 122Z" fill="#AAAEA9"/>
<path d="M632 41H586C584.895 41 584 41.8954 584 43V60C584 61.1046 584.895 62 586 62H632C633.105 62 634 61.1046 634 60V43C634 41.8954 633.105 41 632 41Z" fill="#22262C"/>
<path d="M563 180V104C563 102.895 562.105 102 561 102H544C542.895 102 542 102.895 542 104V180C542 181.105 542.895 182 544 182H561C562.105 182 563 181.105 563 180Z" fill="#22262C"/>
<path d="M556 280.933V241.067C556 239.373 555.275 238 554.381 238H540.619C539.725 238 539 239.373 539 241.067V280.933C539 282.627 539.725 284 540.619 284H554.381C555.275 284 556 282.627 556 280.933Z" fill="#22262C"/>
<path d="M556 368.933V329.067C556 327.373 555.275 326 554.381 326H540.619C539.725 326 539 327.373 539 329.067V368.933C539 370.627 539.725 372 540.619 372H554.381C555.275 372 556 370.627 556 368.933Z" fill="#22262C"/>
<path d="M517 566C552.899 566 582 536.899 582 501C582 465.101 552.899 436 517 436C481.101 436 452 465.101 452 501C452 536.899 481.101 566 517 566Z" fill="#22262C"/>
<path d="M601 521C621.987 521 639 503.987 639 483C639 462.013 621.987 445 601 445C580.013 445 563 462.013 563 483C563 503.987 580.013 521 601 521Z" fill="#CFD4CD"/>
<path d="M435 557C455.987 557 473 539.987 473 519C473 498.013 455.987 481 435 481C414.013 481 397 498.013 397 519C397 539.987 414.013 557 435 557Z" fill="#CFD4CD"/>
<path d="M516.5 937C537.763 937 555 919.763 555 898.5C555 877.237 537.763 860 516.5 860C495.237 860 478 877.237 478 898.5C478 919.763 495.237 937 516.5 937Z" fill="#22262C"/>
<path d="M625 1010H585C584.448 1010 584 1010.45 584 1011V1024C584 1024.55 584.448 1025 585 1025H625C625.552 1025 626 1024.55 626 1024V1011C626 1010.45 625.552 1010 625 1010Z" fill="#22262C"/>
<path d="M451 1022H411C410.448 1022 410 1022.45 410 1023V1036C410 1036.55 410.448 1037 411 1037H451C451.552 1037 452 1036.55 452 1036V1023C452 1022.45 451.552 1022 451 1022Z" fill="#22262C"/>
<path d="M625.5 637C639.031 637 650 626.031 650 612.5C650 598.969 639.031 588 625.5 588C611.969 588 601 598.969 601 612.5C601 626.031 611.969 637 625.5 637Z" fill="#22262C"/>
<path d="M622.5 141C637.136 141 649 129.136 649 114.5C649 99.8645 637.136 88 622.5 88C607.864 88 596 99.8645 596 114.5C596 129.136 607.864 141 622.5 141Z" fill="#22262C"/>
<path d="M633.54 491.34L612.484 510.358C611.665 511.099 611.6 512.363 612.341 513.183L631.359 534.239C632.099 535.059 633.364 535.123 634.183 534.383L655.239 515.365C656.059 514.625 656.123 513.36 655.383 512.54L636.365 491.484C635.625 490.664 634.36 490.6 633.54 491.34Z" fill="#22262C"/>
<path d="M457 190H419C418.448 190 418 190.448 418 191V208C418 208.552 418.448 209 419 209H457C457.552 209 458 208.552 458 208V191C458 190.448 457.552 190 457 190Z" fill="#22262C"/>
<path d="M430.943 347.035L404.864 354.025C402.73 354.596 401.464 356.79 402.035 358.924L407.989 381.14C408.561 383.274 410.755 384.54 412.888 383.968L438.968 376.979C441.102 376.407 442.368 374.213 441.796 372.079L435.842 349.863C435.271 347.73 433.077 346.463 430.943 347.035Z" fill="#AAAEA9"/>
<path d="M535 195H518C515.791 195 514 196.791 514 199V224C514 226.209 515.791 228 518 228H535C537.209 228 539 226.209 539 224V199C539 196.791 537.209 195 535 195Z" fill="#AAAEA9"/>
<rect x="427" y="864" width="34" height="21" rx="1" fill="#AAAEA9"/>
<rect x="548" y="947" width="26" height="21" rx="1" transform="rotate(90 548 947)" fill="#AAAEA9"/>
</g>
<defs>
<clipPath id="clip0_0_1">
<rect width="1067" height="1068" fill="white"/>
</clipPath>
</defs>
</svg>
