<svg width="1067" height="1068" viewBox="0 0 1067 1068" fill="none" xmlns="http://www.w3.org/2000/svg">
<rect width="1067" height="1068" fill="#1E1E1E"/>
<path d="M1067 0H0V1068H1067V0Z" fill="#22262C"/>
<path d="M825.538 1068H339.564L282.962 1023.98V41.1649L326.986 0H825.538V126.925H705.474V357.334H825.538V1068Z" fill="#CFD4CD"/>
<path d="M301.843 489.527L293.969 475.642C292.881 473.723 293.552 471.285 295.469 470.193L302.995 465.907C304.864 464.843 307.241 465.447 308.374 467.276L316.805 480.881C318.003 482.813 317.352 485.354 315.372 486.471L307.289 491.036C305.368 492.121 302.931 491.446 301.843 489.527Z" fill="#CFD4CD" stroke="#6A6F69" stroke-width="3"/>
<path d="M320.318 478.673L311.858 465.138C310.688 463.268 311.254 460.803 313.123 459.63L320.458 455.026C322.28 453.883 324.68 454.385 325.891 456.163L334.897 469.395C336.176 471.274 335.634 473.84 333.705 475.041L325.825 479.948C323.952 481.115 321.488 480.544 320.318 478.673Z" fill="#CFD4CD" stroke="#6A6F69" stroke-width="3"/>
<mask id="path-5-inside-1_0_1" fill="white">
<path d="M402.454 976.657C402.454 968.373 409.17 961.657 417.454 961.657H517.81C526.094 961.657 532.81 968.373 532.81 976.657V1057.14C532.81 1059.35 531.019 1061.14 528.81 1061.14H406.455C404.245 1061.14 402.454 1059.35 402.454 1057.14V976.657Z"/>
</mask>
<path d="M402.454 976.657C402.454 968.373 409.17 961.657 417.454 961.657H517.81C526.094 961.657 532.81 968.373 532.81 976.657V1057.14C532.81 1059.35 531.019 1061.14 528.81 1061.14H406.455C404.245 1061.14 402.454 1059.35 402.454 1057.14V976.657Z" fill="#CFD4CD" stroke="#6A6F69" stroke-width="10" mask="url(#path-5-inside-1_0_1)"/>
<circle cx="554.536" cy="50.3126" r="30.8737" fill="#22262C"/>
<circle cx="469.919" cy="879.328" r="62.8908" fill="#22262C"/>
<circle cx="761.504" cy="920.492" r="27.4433" fill="#22262C"/>
<circle cx="341.851" cy="528.283" r="26.2998" fill="#22262C"/>
<circle cx="471.634" cy="424.799" r="73.7537" fill="#22262C"/>
<rect x="420.75" y="945.649" width="29.7302" height="88.0471" rx="1" fill="#22262C"/>
<rect x="483.641" y="945.649" width="29.7302" height="88.0471" rx="1" fill="#22262C"/>
<rect x="589.983" y="1014.26" width="14.8651" height="26.2998" rx="1" transform="rotate(90 589.983 1014.26)" fill="#22262C"/>
<rect x="381.872" y="982.24" width="14.8651" height="26.2998" rx="1" transform="rotate(-180 381.872 982.24)" fill="#22262C"/>
<rect x="633.435" y="572.878" width="18.2955" height="29.7302" rx="1" transform="rotate(-90 633.435 572.878)" fill="#22262C"/>
<rect x="721.482" y="511.131" width="18.2955" height="50.3126" rx="1" transform="rotate(-90 721.482 511.131)" fill="#22262C"/>
<rect x="734.06" y="93.7645" width="18.2955" height="50.3126" rx="1" transform="rotate(-90 734.06 93.7645)" fill="#22262C"/>
<rect x="357.859" y="101.769" width="18.2955" height="32.0171" rx="1" fill="#22262C"/>
<rect x="756.93" y="1014.26" width="14.8651" height="44.5953" rx="1" transform="rotate(90 756.93 1014.26)" fill="#22262C"/>
<path d="M577.049 424.227C577.049 482.13 530.109 529.07 472.206 529.07C414.303 529.07 367.363 482.13 367.363 424.227C367.363 366.324 414.303 319.384 472.206 319.384C530.109 319.384 577.049 366.324 577.049 424.227Z" stroke="#6A6F69" stroke-width="3"/>
<path d="M547.5 424.5C547.5 465.891 513.504 499.5 471.5 499.5C429.496 499.5 395.5 465.891 395.5 424.5C395.5 383.109 429.496 349.5 471.5 349.5C513.504 349.5 547.5 383.109 547.5 424.5Z" stroke="#6A6F69" stroke-width="5"/>
<path d="M458 723V795.5C458 796.605 458.895 797.5 460 797.5H634.5C635.605 797.5 636.5 796.605 636.5 795.5V764.5C636.5 763.395 635.605 762.5 634.5 762.5H521.828C521.298 762.5 520.789 762.289 520.414 761.914L491.586 733.086C491.211 732.711 491 732.202 491 731.672V723C491 721.895 490.105 721 489 721H460C458.895 721 458 721.895 458 723Z" fill="#22262C"/>
<circle cx="400" cy="718" r="26" fill="#22262C"/>
<circle cx="426" cy="562" r="17" fill="#22262C"/>
<rect x="367" y="573" width="32" height="70" rx="2" fill="#22262C"/>
<path d="M320.5 218.097V272.536C320.5 274.193 321.843 275.536 323.5 275.536H336C337.657 275.536 339 274.193 339 272.536V218.097C339 217.418 338.73 216.766 338.25 216.286C337.77 215.806 337.5 215.157 337.5 214.478V192.036C337.5 184.836 343.167 183.369 346 183.536H370C376.8 183.536 378.5 189.203 378.5 192.036V214.475C378.5 215.155 378.23 215.806 377.75 216.286C377.27 216.766 377 217.418 377 218.097V272.536C377 274.193 378.343 275.536 380 275.536H392C393.657 275.536 395 274.193 395 272.536V218.286C395 217.499 394.63 216.758 394 216.286C393.37 215.814 393 215.08 393 214.293V176.536C393 166.536 385.333 164.703 381.5 165.036H332C324.4 165.036 322.167 171.703 322 175.036V214.475C322 215.155 321.73 215.806 321.25 216.286C320.77 216.766 320.5 217.418 320.5 218.097Z" fill="#22262C"/>
<ellipse cx="386.5" cy="280.5" rx="13.5" ry="10.5" fill="#22262C"/>
<ellipse cx="329.5" cy="280.5" rx="13.5" ry="10.5" fill="#22262C"/>
<rect x="450" y="220.536" width="46" height="28" rx="1" fill="#22262C"/>
<rect x="531" y="198.536" width="23" height="22" rx="1" fill="#22262C"/>
<rect x="531" y="267.536" width="23" height="22" rx="1" fill="#22262C"/>
<rect x="546.5" y="508.5" width="23" height="82" rx="2.5" fill="#CFD4CD" stroke="#6A6F69" stroke-width="3"/>
<rect x="546.5" y="596.5" width="23" height="18" rx="2.5" fill="#CFD4CD" stroke="#6A6F69" stroke-width="3"/>
<path d="M283 34.7426V41.5V45C283 46.6569 284.343 48 286 48H328C329.657 48 331 46.6569 331 45V3C331 1.34315 329.657 0 328 0H317.743C316.947 0 316.184 0.316071 315.621 0.87868L283.879 32.6213C283.316 33.1839 283 33.947 283 34.7426Z" fill="#CFD4CD"/>
<path d="M302.5 1068L283 1048.5V1018.5H343.5V1068H302.5Z" fill="#CFD4CD"/>
</svg>
