<svg width="1067" height="1068" viewBox="0 0 1067 1068" fill="none" xmlns="http://www.w3.org/2000/svg">
<rect width="1067" height="1068" fill="#1E1E1E"/>
<path d="M1067 0H0V1068H1067V0Z" fill="#22262C"/>
<path d="M1029.32 54.4497V1003.07C1029.32 1004.4 1028.8 1005.67 1027.86 1006.61L967.933 1066.54C966.995 1067.47 965.723 1068 964.397 1068H690.719C687.958 1068 685.719 1065.76 685.719 1063V1057.81C685.719 1055.05 683.48 1052.81 680.719 1052.81H411.017C408.256 1052.81 406.017 1055.05 406.017 1057.81V1063C406.017 1065.76 403.779 1068 401.017 1068H46.4621C43.7007 1068 41.4621 1065.76 41.4621 1063V1023.76C41.4621 1021 39.2235 1018.76 36.4621 1018.76H29.1772C26.4158 1018.76 24.1772 1016.53 24.1772 1013.76V85.5687C24.1772 84.7549 24.3758 83.9534 24.7558 83.2338L48.2165 38.8083C48.5965 38.0887 48.7951 37.2873 48.7951 36.4735V5C48.7951 2.23858 51.0337 0 53.7951 0H376.923C379.685 0 381.923 2.23858 381.923 5V12.8087C381.923 15.5702 384.162 17.8087 386.923 17.8087H443.739C444.756 17.8087 445.749 18.1189 446.585 18.6978L450.826 21.6338C451.662 22.2127 452.655 22.5228 453.672 22.5228H610.959C611.558 22.5228 612.153 22.415 612.714 22.2045L627.777 16.5557C628.339 16.3452 628.933 16.2374 629.533 16.2374H681.767C684.528 16.2374 686.767 13.9988 686.767 11.2374V5C686.767 2.23858 689.005 0 691.767 0H974.873C976.199 0 977.471 0.526787 978.409 1.46447L1027.86 50.9142C1028.8 51.8518 1029.32 53.1236 1029.32 54.4497Z" fill="#CFD4CD"/>
<circle cx="620.246" cy="774.156" r="93.7577" fill="#22262C"/>
<ellipse cx="570.486" cy="383.411" rx="24.0942" ry="23.5704" fill="#22262C"/>
<rect x="745.431" y="126.232" width="47.1408" height="31.4272" rx="2" fill="#22262C"/>
<rect x="901.519" y="126.232" width="47.1408" height="31.4272" rx="2" fill="#22262C"/>
<rect x="901.519" y="931.816" width="47.1408" height="31.4272" rx="2" fill="#22262C"/>
<rect x="769.525" y="931.816" width="36.665" height="31.4272" rx="2" fill="#22262C"/>
<rect x="95.9359" y="989.432" width="77.5204" height="29.332" rx="2" fill="#22262C"/>
<rect x="95.9359" y="50.8073" width="77.5204" height="29.332" rx="2" fill="#22262C"/>
<mask id="path-11-outside-1_0_1" maskUnits="userSpaceOnUse" x="199.122" y="307.129" width="223" height="38" fill="black">
<rect fill="white" x="199.122" y="307.129" width="223" height="38"/>
<path d="M206.278 310.584V341.129H202.579V310.584H206.278ZM238.756 310.584V341.129H235.176L218.531 317.147H218.233V341.129H214.534V310.584H218.114L234.818 334.627H235.116V310.584H238.756ZM256.423 341.129H246.997V310.584H256.841C259.804 310.584 262.339 311.196 264.447 312.419C266.555 313.632 268.171 315.377 269.295 317.654C270.418 319.921 270.98 322.635 270.98 325.797C270.98 328.979 270.413 331.718 269.28 334.015C268.146 336.302 266.496 338.062 264.328 339.295C262.16 340.518 259.525 341.129 256.423 341.129ZM250.696 337.848H256.185C258.71 337.848 260.803 337.361 262.464 336.387C264.124 335.412 265.362 334.025 266.177 332.225C266.993 330.426 267.4 328.283 267.4 325.797C267.4 323.331 266.998 321.208 266.192 319.428C265.387 317.639 264.184 316.267 262.583 315.312C260.982 314.348 258.988 313.865 256.602 313.865H250.696V337.848ZM278.185 341.368C277.449 341.368 276.818 341.105 276.291 340.578C275.764 340.051 275.5 339.419 275.5 338.683C275.5 337.948 275.764 337.316 276.291 336.789C276.818 336.262 277.449 335.999 278.185 335.999C278.921 335.999 279.552 336.262 280.079 336.789C280.606 337.316 280.87 337.948 280.87 338.683C280.87 339.171 280.745 339.618 280.497 340.026C280.258 340.433 279.935 340.762 279.527 341.01C279.129 341.249 278.682 341.368 278.185 341.368ZM301.156 341.129V310.584H311.835C313.962 310.584 315.717 310.952 317.1 311.688C318.482 312.414 319.511 313.393 320.187 314.626C320.863 315.849 321.201 317.206 321.201 318.698C321.201 320.01 320.967 321.094 320.5 321.949C320.043 322.804 319.436 323.48 318.681 323.977C317.935 324.475 317.124 324.843 316.249 325.081V325.379C317.184 325.439 318.124 325.767 319.068 326.364C320.013 326.96 320.803 327.816 321.44 328.929C322.076 330.043 322.394 331.405 322.394 333.016C322.394 334.547 322.046 335.924 321.35 337.147C320.654 338.37 319.556 339.34 318.054 340.056C316.553 340.772 314.599 341.129 312.193 341.129H301.156ZM304.855 337.848H312.193C314.609 337.848 316.324 337.381 317.338 336.446C318.362 335.502 318.874 334.358 318.874 333.016C318.874 331.982 318.611 331.027 318.084 330.152C317.557 329.267 316.806 328.561 315.832 328.034C314.857 327.497 313.704 327.229 312.372 327.229H304.855V337.848ZM304.855 324.007H311.715C312.829 324.007 313.833 323.789 314.728 323.351C315.633 322.914 316.349 322.297 316.876 321.502C317.413 320.706 317.681 319.772 317.681 318.698C317.681 317.355 317.214 316.217 316.279 315.282C315.345 314.338 313.863 313.865 311.835 313.865H304.855V324.007ZM329.312 341.129V310.584H339.633C342.019 310.584 343.978 310.992 345.51 311.807C347.041 312.612 348.174 313.721 348.91 315.133C349.646 316.545 350.014 318.151 350.014 319.951C350.014 321.75 349.646 323.346 348.91 324.738C348.174 326.13 347.046 327.224 345.524 328.019C344.003 328.805 342.059 329.198 339.693 329.198H331.34V325.857H339.573C341.204 325.857 342.517 325.618 343.511 325.141C344.515 324.664 345.241 323.987 345.689 323.112C346.146 322.227 346.375 321.174 346.375 319.951C346.375 318.727 346.146 317.659 345.689 316.744C345.231 315.829 344.5 315.123 343.496 314.626C342.492 314.119 341.164 313.865 339.514 313.865H333.011V341.129H329.312ZM343.69 327.408L351.207 341.129H346.912L339.514 327.408H343.69ZM358.27 341.129H354.392L365.608 310.584H369.426L380.642 341.129H376.764L367.637 315.416H367.398L358.27 341.129ZM359.702 329.198H375.333V332.479H359.702V329.198ZM402.945 318.22C402.766 316.709 402.04 315.536 400.767 314.701C399.494 313.865 397.933 313.448 396.084 313.448C394.732 313.448 393.548 313.666 392.534 314.104C391.53 314.541 390.744 315.143 390.178 315.909C389.621 316.674 389.342 317.544 389.342 318.519C389.342 319.334 389.536 320.035 389.924 320.622C390.322 321.198 390.829 321.681 391.445 322.068C392.062 322.446 392.708 322.759 393.384 323.008C394.06 323.247 394.682 323.441 395.249 323.59L398.351 324.425C399.146 324.634 400.031 324.922 401.006 325.29C401.99 325.658 402.93 326.16 403.825 326.796C404.729 327.423 405.475 328.228 406.062 329.213C406.649 330.197 406.942 331.405 406.942 332.837C406.942 334.487 406.509 335.979 405.644 337.311C404.789 338.644 403.536 339.703 401.886 340.488C400.245 341.274 398.252 341.666 395.905 341.666C393.717 341.666 391.823 341.313 390.222 340.607C388.631 339.902 387.379 338.917 386.464 337.654C385.559 336.392 385.047 334.925 384.928 333.254H388.746C388.845 334.408 389.233 335.362 389.909 336.118C390.595 336.864 391.46 337.421 392.504 337.789C393.558 338.147 394.692 338.326 395.905 338.326C397.317 338.326 398.585 338.097 399.708 337.639C400.832 337.172 401.722 336.526 402.378 335.701C403.034 334.865 403.362 333.891 403.362 332.777C403.362 331.763 403.079 330.938 402.512 330.301C401.945 329.665 401.2 329.148 400.275 328.75C399.35 328.352 398.351 328.004 397.277 327.706L393.519 326.632C391.132 325.946 389.243 324.967 387.851 323.694C386.459 322.421 385.763 320.756 385.763 318.698C385.763 316.987 386.225 315.496 387.15 314.223C388.085 312.941 389.337 311.946 390.908 311.24C392.489 310.524 394.254 310.166 396.203 310.166C398.172 310.166 399.922 310.519 401.453 311.225C402.984 311.921 404.198 312.876 405.092 314.089C405.997 315.302 406.475 316.679 406.524 318.22H402.945ZM415.951 341.368C415.216 341.368 414.584 341.105 414.057 340.578C413.53 340.051 413.267 339.419 413.267 338.683C413.267 337.948 413.53 337.316 414.057 336.789C414.584 336.262 415.216 335.999 415.951 335.999C416.687 335.999 417.319 336.262 417.846 336.789C418.373 337.316 418.636 337.948 418.636 338.683C418.636 339.171 418.512 339.618 418.263 340.026C418.025 340.433 417.701 340.762 417.294 341.01C416.896 341.249 416.449 341.368 415.951 341.368Z"/>
</mask>
<path d="M206.278 310.584H209.278V307.584H206.278V310.584ZM206.278 341.129V344.129H209.278V341.129H206.278ZM202.579 341.129H199.579V344.129H202.579V341.129ZM202.579 310.584V307.584H199.579V310.584H202.579ZM203.278 310.584V341.129H209.278V310.584H203.278ZM206.278 338.129H202.579V344.129H206.278V338.129ZM205.579 341.129V310.584H199.579V341.129H205.579ZM202.579 313.584H206.278V307.584H202.579V313.584ZM238.756 310.584H241.756V307.584H238.756V310.584ZM238.756 341.129V344.129H241.756V341.129H238.756ZM235.176 341.129L232.711 342.84L233.606 344.129H235.176V341.129ZM218.531 317.147L220.996 315.436L220.101 314.147H218.531V317.147ZM218.233 317.147V314.147H215.233V317.147H218.233ZM218.233 341.129V344.129H221.233V341.129H218.233ZM214.534 341.129H211.534V344.129H214.534V341.129ZM214.534 310.584V307.584H211.534V310.584H214.534ZM218.114 310.584L220.577 308.872L219.682 307.584H218.114V310.584ZM234.818 334.627L232.354 336.338L233.249 337.627H234.818V334.627ZM235.116 334.627V337.627H238.116V334.627H235.116ZM235.116 310.584V307.584H232.116V310.584H235.116ZM235.756 310.584V341.129H241.756V310.584H235.756ZM238.756 338.129H235.176V344.129H238.756V338.129ZM237.641 339.419L220.996 315.436L216.067 318.857L232.711 342.84L237.641 339.419ZM218.531 314.147H218.233V320.147H218.531V314.147ZM215.233 317.147V341.129H221.233V317.147H215.233ZM218.233 338.129H214.534V344.129H218.233V338.129ZM217.534 341.129V310.584H211.534V341.129H217.534ZM214.534 313.584H218.114V307.584H214.534V313.584ZM215.65 312.296L232.354 336.338L237.282 332.915L220.577 308.872L215.65 312.296ZM234.818 337.627H235.116V331.627H234.818V337.627ZM238.116 334.627V310.584H232.116V334.627H238.116ZM235.116 313.584H238.756V307.584H235.116V313.584ZM246.997 341.129H243.997V344.129H246.997V341.129ZM246.997 310.584V307.584H243.997V310.584H246.997ZM264.447 312.419L262.942 315.013L262.951 315.019L264.447 312.419ZM269.295 317.654L266.604 318.981L266.607 318.986L269.295 317.654ZM269.28 334.015L271.968 335.347L271.97 335.343L269.28 334.015ZM264.328 339.295L265.802 341.908L265.811 341.903L264.328 339.295ZM250.696 337.848H247.696V340.848H250.696V337.848ZM266.192 319.428L263.457 320.66L263.459 320.665L266.192 319.428ZM262.583 315.312L261.035 317.882L261.047 317.889L262.583 315.312ZM250.696 313.865V310.865H247.696V313.865H250.696ZM256.423 338.129H246.997V344.129H256.423V338.129ZM249.997 341.129V310.584H243.997V341.129H249.997ZM246.997 313.584H256.841V307.584H246.997V313.584ZM256.841 313.584C259.389 313.584 261.38 314.108 262.942 315.013L265.953 309.824C263.298 308.283 260.219 307.584 256.841 307.584V313.584ZM262.951 315.019C264.52 315.922 265.732 317.213 266.604 318.981L271.985 316.326C270.61 313.541 268.59 311.341 265.944 309.818L262.951 315.019ZM266.607 318.986C267.48 320.748 267.98 322.985 267.98 325.797H273.98C273.98 322.286 273.356 319.093 271.983 316.321L266.607 318.986ZM267.98 325.797C267.98 328.628 267.476 330.891 266.589 332.687L271.97 335.343C273.351 332.545 273.98 329.33 273.98 325.797H267.98ZM266.592 332.683C265.717 334.448 264.48 335.757 262.845 336.687L265.811 341.903C268.511 340.367 270.575 338.157 271.968 335.347L266.592 332.683ZM262.854 336.682C261.234 337.596 259.135 338.129 256.423 338.129V344.129C259.916 344.129 263.087 343.44 265.802 341.908L262.854 336.682ZM250.696 340.848H256.185V334.848H250.696V340.848ZM256.185 340.848C259.082 340.848 261.739 340.29 263.982 338.974L260.945 333.799C259.867 334.432 258.338 334.848 256.185 334.848V340.848ZM263.982 338.974C266.192 337.677 267.846 335.812 268.91 333.463L263.445 330.987C262.878 332.238 262.057 333.147 260.945 333.799L263.982 338.974ZM268.91 333.463C269.941 331.188 270.4 328.603 270.4 325.797H264.4C264.4 327.963 264.045 329.663 263.445 330.987L268.91 333.463ZM270.4 325.797C270.4 323.013 269.946 320.448 268.926 318.192L263.459 320.665C264.049 321.969 264.4 323.65 264.4 325.797H270.4ZM268.928 318.197C267.884 315.878 266.277 314.022 264.119 312.735L261.047 317.889C262.09 318.511 262.889 319.399 263.457 320.66L268.928 318.197ZM264.131 312.742C261.95 311.428 259.385 310.865 256.602 310.865V316.865C258.592 316.865 260.014 317.267 261.035 317.882L264.131 312.742ZM256.602 310.865H250.696V316.865H256.602V310.865ZM247.696 313.865V337.848H253.696V313.865H247.696ZM276.291 340.578L278.412 338.456L278.412 338.456L276.291 340.578ZM280.079 336.789L282.2 334.668L282.2 334.668L280.079 336.789ZM280.497 340.026L277.935 338.464L277.921 338.487L277.908 338.51L280.497 340.026ZM279.527 341.01L281.071 343.583L281.08 343.577L281.089 343.572L279.527 341.01ZM278.185 338.368C278.181 338.368 278.194 338.368 278.22 338.373C278.247 338.378 278.28 338.387 278.315 338.402C278.391 338.434 278.424 338.468 278.412 338.456L274.169 342.699C275.251 343.78 276.642 344.368 278.185 344.368V338.368ZM278.412 338.456C278.4 338.445 278.434 338.477 278.466 338.553C278.481 338.588 278.49 338.621 278.495 338.648C278.5 338.674 278.5 338.688 278.5 338.683H272.5C272.5 340.226 273.088 341.618 274.169 342.699L278.412 338.456ZM278.5 338.683C278.5 338.679 278.5 338.692 278.495 338.719C278.49 338.746 278.481 338.779 278.466 338.813C278.434 338.89 278.4 338.922 278.412 338.911L274.169 334.668C273.088 335.749 272.5 337.141 272.5 338.683H278.5ZM278.412 338.911C278.424 338.899 278.391 338.933 278.315 338.965C278.28 338.98 278.247 338.989 278.22 338.994C278.194 338.999 278.181 338.999 278.185 338.999V332.999C276.642 332.999 275.251 333.587 274.169 334.668L278.412 338.911ZM278.185 338.999C278.189 338.999 278.176 338.999 278.149 338.994C278.122 338.989 278.09 338.98 278.055 338.965C277.978 338.933 277.946 338.899 277.958 338.911L282.2 334.668C281.119 333.587 279.728 332.999 278.185 332.999V338.999ZM277.958 338.911C277.969 338.922 277.935 338.89 277.903 338.813C277.889 338.779 277.88 338.746 277.874 338.719C277.869 338.692 277.87 338.679 277.87 338.683H283.87C283.87 337.141 283.282 335.749 282.2 334.668L277.958 338.911ZM277.87 338.683C277.87 338.669 277.872 338.632 277.886 338.582C277.9 338.531 277.919 338.49 277.935 338.464L283.058 341.588C283.6 340.699 283.87 339.71 283.87 338.683H277.87ZM277.908 338.51C277.911 338.505 277.921 338.49 277.938 338.473C277.955 338.455 277.967 338.448 277.965 338.449L281.089 343.572C281.916 343.068 282.594 342.382 283.086 341.541L277.908 338.51ZM277.984 338.438C278.025 338.413 278.073 338.393 278.12 338.38C278.167 338.368 278.192 338.368 278.185 338.368V344.368C279.185 344.368 280.173 344.121 281.071 343.583L277.984 338.438ZM301.156 341.129H298.156V344.129H301.156V341.129ZM301.156 310.584V307.584H298.156V310.584H301.156ZM317.1 311.688L315.69 314.336L315.697 314.34L315.705 314.344L317.1 311.688ZM320.187 314.626L317.556 316.068L317.561 316.077L320.187 314.626ZM320.5 321.949L317.868 320.51L317.861 320.522L317.855 320.534L320.5 321.949ZM318.681 323.977L317.032 321.471L317.024 321.476L317.016 321.481L318.681 323.977ZM316.249 325.081L315.46 322.187L313.249 322.79V325.081H316.249ZM316.249 325.379H313.249V328.194L316.058 328.373L316.249 325.379ZM319.068 326.364L317.466 328.9L317.466 328.9L319.068 326.364ZM321.35 337.147L323.958 338.631L323.958 338.631L321.35 337.147ZM318.054 340.056L316.763 337.348L316.763 337.348L318.054 340.056ZM304.855 337.848H301.855V340.848H304.855V337.848ZM317.338 336.446L319.371 338.652L319.372 338.651L317.338 336.446ZM318.084 330.152L315.506 331.687L315.51 331.694L315.514 331.7L318.084 330.152ZM315.832 328.034L314.384 330.662L314.394 330.668L314.405 330.673L315.832 328.034ZM304.855 327.229V324.229H301.855V327.229H304.855ZM304.855 324.007H301.855V327.007H304.855V324.007ZM314.728 323.351L313.422 320.65L313.41 320.656L314.728 323.351ZM316.876 321.502L314.389 319.823L314.382 319.834L314.375 319.845L316.876 321.502ZM316.279 315.282L314.147 317.392L314.152 317.398L314.158 317.404L316.279 315.282ZM304.855 313.865V310.865H301.855V313.865H304.855ZM304.156 341.129V310.584H298.156V341.129H304.156ZM301.156 313.584H311.835V307.584H301.156V313.584ZM311.835 313.584C313.639 313.584 314.869 313.899 315.69 314.336L318.509 309.04C316.566 308.005 314.286 307.584 311.835 307.584V313.584ZM315.705 314.344C316.624 314.827 317.195 315.409 317.556 316.068L322.817 313.183C321.827 311.377 320.339 310 318.494 309.032L315.705 314.344ZM317.561 316.077C317.975 316.826 318.201 317.679 318.201 318.698H324.201C324.201 316.734 323.751 314.872 322.812 313.174L317.561 316.077ZM318.201 318.698C318.201 319.675 318.025 320.223 317.868 320.51L323.133 323.388C323.91 321.965 324.201 320.346 324.201 318.698H318.201ZM317.855 320.534C317.616 320.981 317.339 321.269 317.032 321.471L320.329 326.484C321.533 325.692 322.47 324.628 323.145 323.364L317.855 320.534ZM317.016 321.481C316.542 321.797 316.028 322.032 315.46 322.187L317.039 327.975C318.221 327.653 319.327 327.152 320.345 326.474L317.016 321.481ZM313.249 325.081V325.379H319.249V325.081H313.249ZM316.058 328.373C316.403 328.395 316.865 328.52 317.466 328.9L320.67 323.827C319.383 323.014 317.965 322.483 316.441 322.386L316.058 328.373ZM317.466 328.9C317.938 329.198 318.406 329.667 318.835 330.418L324.045 327.441C323.201 325.965 322.088 324.723 320.67 323.827L317.466 328.9ZM318.835 330.418C319.154 330.976 319.394 331.795 319.394 333.016H325.394C325.394 331.015 324.998 329.11 324.045 327.441L318.835 330.418ZM319.394 333.016C319.394 334.074 319.159 334.932 318.743 335.663L323.958 338.631C324.933 336.917 325.394 335.02 325.394 333.016H319.394ZM318.743 335.663C318.402 336.262 317.814 336.846 316.763 337.348L319.345 342.764C321.297 341.833 322.906 340.478 323.958 338.631L318.743 335.663ZM316.763 337.348C315.804 337.805 314.337 338.129 312.193 338.129V344.129C314.861 344.129 317.302 343.738 319.345 342.764L316.763 337.348ZM312.193 338.129H301.156V344.129H312.193V338.129ZM304.855 340.848H312.193V334.848H304.855V340.848ZM312.193 340.848C314.844 340.848 317.514 340.364 319.371 338.652L315.305 334.24C315.134 334.398 314.373 334.848 312.193 334.848V340.848ZM319.372 338.651C320.986 337.163 321.874 335.231 321.874 333.016H315.874C315.874 333.485 315.739 333.84 315.304 334.241L319.372 338.651ZM321.874 333.016C321.874 331.443 321.466 329.953 320.654 328.604L315.514 331.7C315.756 332.102 315.874 332.52 315.874 333.016H321.874ZM320.662 328.617C319.837 327.232 318.672 326.16 317.259 325.396L314.405 330.673C314.94 330.963 315.277 331.302 315.506 331.687L320.662 328.617ZM317.28 325.407C315.782 324.582 314.11 324.229 312.372 324.229V330.229C313.297 330.229 313.933 330.413 314.384 330.662L317.28 325.407ZM312.372 324.229H304.855V330.229H312.372V324.229ZM301.855 327.229V337.848H307.855V327.229H301.855ZM304.855 327.007H311.715V321.007H304.855V327.007ZM311.715 327.007C313.231 327.007 314.694 326.707 316.046 326.046L313.41 320.656C312.972 320.87 312.427 321.007 311.715 321.007V327.007ZM316.034 326.052C317.397 325.393 318.536 324.427 319.377 323.159L314.375 319.845C314.161 320.167 313.869 320.434 313.422 320.65L316.034 326.052ZM319.362 323.18C320.273 321.831 320.681 320.296 320.681 318.698H314.681C314.681 319.247 314.553 319.581 314.389 319.823L319.362 323.18ZM320.681 318.698C320.681 316.574 319.908 314.668 318.401 313.161L314.158 317.404C314.52 317.766 314.681 318.137 314.681 318.698H320.681ZM318.412 313.172C316.677 311.419 314.25 310.865 311.835 310.865V316.865C313.476 316.865 314.012 317.256 314.147 317.392L318.412 313.172ZM311.835 310.865H304.855V316.865H311.835V310.865ZM301.855 313.865V324.007H307.855V313.865H301.855ZM329.312 341.129H326.312V344.129H329.312V341.129ZM329.312 310.584V307.584H326.312V310.584H329.312ZM345.51 311.807L344.1 314.455L344.106 314.459L344.113 314.462L345.51 311.807ZM348.91 315.133L346.25 316.519L346.25 316.519L348.91 315.133ZM348.91 324.738L346.258 323.336L346.258 323.336L348.91 324.738ZM345.524 328.019L346.901 330.685L346.908 330.681L346.915 330.678L345.524 328.019ZM331.34 329.198H328.34V332.198H331.34V329.198ZM331.34 325.857V322.857H328.34V325.857H331.34ZM343.511 325.141L342.223 322.431L342.213 322.436L343.511 325.141ZM345.689 323.112L343.023 321.735L343.017 321.747L345.689 323.112ZM343.496 314.626L342.144 317.304L342.154 317.309L342.165 317.315L343.496 314.626ZM333.011 313.865V310.865H330.011V313.865H333.011ZM333.011 341.129V344.129H336.011V341.129H333.011ZM343.69 327.408L346.321 325.967L345.467 324.408H343.69V327.408ZM351.207 341.129V344.129H356.271L353.838 339.688L351.207 341.129ZM346.912 341.129L344.271 342.553L345.121 344.129H346.912V341.129ZM339.514 327.408V324.408H334.488L336.873 328.832L339.514 327.408ZM332.312 341.129V310.584H326.312V341.129H332.312ZM329.312 313.584H339.633V307.584H329.312V313.584ZM339.633 313.584C341.703 313.584 343.135 313.941 344.1 314.455L346.92 309.159C344.822 308.042 342.336 307.584 339.633 307.584V313.584ZM344.113 314.462C345.153 315.009 345.821 315.697 346.25 316.519L351.571 313.747C350.528 311.746 348.929 310.216 346.906 309.152L344.113 314.462ZM346.25 316.519C346.735 317.45 347.014 318.57 347.014 319.951H353.014C353.014 317.732 352.557 315.64 351.571 313.747L346.25 316.519ZM347.014 319.951C347.014 321.332 346.734 322.434 346.258 323.336L351.562 326.14C352.557 324.258 353.014 322.168 353.014 319.951H347.014ZM346.258 323.336C345.832 324.143 345.168 324.82 344.134 325.361L346.915 330.678C348.923 329.628 350.517 328.118 351.562 326.14L346.258 323.336ZM344.148 325.354C343.183 325.852 341.754 326.198 339.693 326.198V332.198C342.365 332.198 344.823 331.758 346.901 330.685L344.148 325.354ZM339.693 326.198H331.34V332.198H339.693V326.198ZM334.34 329.198V325.857H328.34V329.198H334.34ZM331.34 328.857H339.573V322.857H331.34V328.857ZM339.573 328.857C341.456 328.857 343.263 328.588 344.809 327.845L342.213 322.436C341.77 322.649 340.952 322.857 339.573 322.857V328.857ZM344.799 327.85C346.317 327.129 347.572 326.018 348.36 324.478L343.017 321.747C342.91 321.957 342.713 322.198 342.223 322.431L344.799 327.85ZM348.354 324.49C349.076 323.093 349.375 321.545 349.375 319.951H343.375C343.375 320.802 343.216 321.362 343.023 321.735L348.354 324.49ZM349.375 319.951C349.375 318.352 349.074 316.807 348.372 315.402L343.005 318.085C343.217 318.51 343.375 319.103 343.375 319.951H349.375ZM348.372 315.402C347.594 313.847 346.357 312.695 344.827 311.937L342.165 317.315C342.643 317.551 342.868 317.811 343.005 318.085L348.372 315.402ZM344.848 311.948C343.275 311.154 341.431 310.865 339.514 310.865V316.865C340.897 316.865 341.709 317.084 342.144 317.304L344.848 311.948ZM339.514 310.865H333.011V316.865H339.514V310.865ZM330.011 313.865V341.129H336.011V313.865H330.011ZM333.011 338.129H329.312V344.129H333.011V338.129ZM341.059 328.849L348.576 342.571L353.838 339.688L346.321 325.967L341.059 328.849ZM351.207 338.129H346.912V344.129H351.207V338.129ZM349.552 339.706L342.154 325.984L336.873 328.832L344.271 342.553L349.552 339.706ZM339.514 330.408H343.69V324.408H339.514V330.408ZM358.27 341.129V344.129H360.389L361.097 342.133L358.27 341.129ZM354.392 341.129L351.576 340.095L350.095 344.129H354.392V341.129ZM365.608 310.584V307.584H363.514L362.792 309.55L365.608 310.584ZM369.426 310.584L372.243 309.55L371.521 307.584H369.426V310.584ZM380.642 341.129V344.129H384.94L383.458 340.095L380.642 341.129ZM376.764 341.129L373.937 342.133L374.646 344.129H376.764V341.129ZM367.637 315.416L370.464 314.413L369.755 312.416H367.637V315.416ZM367.398 315.416V312.416H365.28L364.571 314.413L367.398 315.416ZM359.702 329.198V326.198H356.702V329.198H359.702ZM375.333 329.198H378.333V326.198H375.333V329.198ZM375.333 332.479V335.479H378.333V332.479H375.333ZM359.702 332.479H356.702V335.479H359.702V332.479ZM358.27 338.129H354.392V344.129H358.27V338.129ZM357.208 342.164L368.424 311.618L362.792 309.55L351.576 340.095L357.208 342.164ZM365.608 313.584H369.426V307.584H365.608V313.584ZM366.61 311.618L377.826 342.164L383.458 340.095L372.243 309.55L366.61 311.618ZM380.642 338.129H376.764V344.129H380.642V338.129ZM379.592 340.126L370.464 314.413L364.809 316.42L373.937 342.133L379.592 340.126ZM367.637 312.416H367.398V318.416H367.637V312.416ZM364.571 314.413L355.443 340.126L361.097 342.133L370.225 316.42L364.571 314.413ZM359.702 332.198H375.333V326.198H359.702V332.198ZM372.333 329.198V332.479H378.333V329.198H372.333ZM375.333 329.479H359.702V335.479H375.333V329.479ZM362.702 332.479V329.198H356.702V332.479H362.702ZM402.945 318.22L399.966 318.573L400.279 321.22H402.945V318.22ZM400.767 314.701L399.121 317.209L399.121 317.209L400.767 314.701ZM392.534 314.104L391.346 311.349L391.336 311.354L392.534 314.104ZM390.178 315.909L387.766 314.124L387.759 314.134L387.751 314.144L390.178 315.909ZM389.924 320.622L387.421 322.276L387.438 322.301L387.454 322.325L389.924 320.622ZM391.445 322.068L389.848 324.608L389.863 324.617L389.878 324.626L391.445 322.068ZM393.384 323.008L392.349 325.824L392.367 325.831L392.386 325.837L393.384 323.008ZM395.249 323.59L396.029 320.693L396.02 320.691L396.012 320.688L395.249 323.59ZM398.351 324.425L397.571 327.322L397.58 327.324L397.589 327.327L398.351 324.425ZM401.006 325.29L399.946 328.097L399.956 328.1L401.006 325.29ZM403.825 326.796L402.086 329.241L402.101 329.252L402.117 329.263L403.825 326.796ZM406.062 329.213L408.639 327.677L408.639 327.677L406.062 329.213ZM405.644 337.311L403.128 335.678L403.124 335.684L403.12 335.691L405.644 337.311ZM401.886 340.488L400.597 337.779L400.59 337.782L401.886 340.488ZM390.222 340.607L389.006 343.35L389.012 343.352L390.222 340.607ZM386.464 337.654L384.025 339.402L384.03 339.408L384.034 339.414L386.464 337.654ZM384.928 333.254V330.254H381.706L381.935 333.468L384.928 333.254ZM388.746 333.254L391.735 332.997L391.498 330.254H388.746V333.254ZM389.909 336.118L387.673 338.119L387.687 338.134L387.701 338.149L389.909 336.118ZM392.504 337.789L391.507 340.618L391.523 340.624L391.54 340.629L392.504 337.789ZM399.708 337.639L400.839 340.418L400.85 340.414L400.86 340.409L399.708 337.639ZM402.378 335.701L404.726 337.568L404.731 337.561L404.737 337.554L402.378 335.701ZM402.512 330.301L404.752 328.306L404.752 328.306L402.512 330.301ZM400.275 328.75L399.09 331.506L399.09 331.506L400.275 328.75ZM397.277 327.706L396.453 330.591L396.464 330.594L396.474 330.597L397.277 327.706ZM393.519 326.632L392.69 329.516L392.694 329.517L393.519 326.632ZM387.851 323.694L385.827 325.908L385.827 325.908L387.851 323.694ZM387.15 314.223L384.725 312.456L384.723 312.46L387.15 314.223ZM390.908 311.24L392.138 313.977L392.146 313.973L390.908 311.24ZM401.453 311.225L400.197 313.95L400.204 313.953L400.212 313.956L401.453 311.225ZM405.092 314.089L402.678 315.87L402.683 315.876L402.688 315.883L405.092 314.089ZM406.524 318.22V321.22H409.623L409.523 318.124L406.524 318.22ZM405.924 317.868C405.641 315.476 404.427 313.514 402.413 312.192L399.121 317.209C399.653 317.558 399.891 317.942 399.966 318.573L405.924 317.868ZM402.413 312.192C400.555 310.973 398.391 310.448 396.084 310.448V316.448C397.475 316.448 398.434 316.757 399.121 317.209L402.413 312.192ZM396.084 310.448C394.412 310.448 392.809 310.718 391.346 311.349L393.722 316.859C394.287 316.615 395.051 316.448 396.084 316.448V310.448ZM391.336 311.354C389.923 311.969 388.69 312.876 387.766 314.124L392.589 317.694C392.798 317.41 393.137 317.114 393.732 316.854L391.336 311.354ZM387.751 314.144C386.81 315.438 386.342 316.93 386.342 318.519H392.342C392.342 318.158 392.431 317.91 392.604 317.673L387.751 314.144ZM386.342 318.519C386.342 319.826 386.66 321.124 387.421 322.276L392.427 318.967C392.413 318.946 392.342 318.842 392.342 318.519H386.342ZM387.454 322.325C388.092 323.25 388.901 324.012 389.848 324.608L393.043 319.529C392.757 319.349 392.551 319.147 392.394 318.918L387.454 322.325ZM389.878 324.626C390.662 325.107 391.487 325.507 392.349 325.824L394.42 320.192C393.93 320.012 393.462 319.786 393.013 319.511L389.878 324.626ZM392.386 325.837C393.123 326.097 393.824 326.317 394.485 326.491L396.012 320.688C395.54 320.564 394.998 320.396 394.383 320.179L392.386 325.837ZM394.469 326.487L397.571 327.322L399.131 321.528L396.029 320.693L394.469 326.487ZM397.589 327.327C398.261 327.503 399.045 327.756 399.946 328.097L402.065 322.483C401.018 322.088 400.031 321.764 399.113 321.523L397.589 327.327ZM399.956 328.1C400.685 328.373 401.394 328.749 402.086 329.241L405.563 324.352C404.465 323.571 403.295 322.943 402.056 322.48L399.956 328.1ZM402.117 329.263C402.654 329.635 403.109 330.117 403.485 330.748L408.639 327.677C407.842 326.339 406.805 325.211 405.532 324.33L402.117 329.263ZM403.485 330.748C403.733 331.166 403.942 331.812 403.942 332.837H409.942C409.942 330.998 409.564 329.228 408.639 327.677L403.485 330.748ZM403.942 332.837C403.942 333.931 403.665 334.851 403.128 335.678L408.16 338.945C409.354 337.107 409.942 335.043 409.942 332.837H403.942ZM403.12 335.691C402.611 336.483 401.821 337.196 400.597 337.779L403.175 343.197C405.251 342.209 406.967 340.804 408.169 338.932L403.12 335.691ZM400.59 337.782C399.454 338.326 397.928 338.666 395.905 338.666V344.666C398.575 344.666 401.037 344.221 403.181 343.194L400.59 337.782ZM395.905 338.666C394.033 338.666 392.57 338.364 391.433 337.863L389.012 343.352C391.077 344.263 393.402 344.666 395.905 344.666V338.666ZM391.439 337.865C390.275 337.349 389.463 336.68 388.893 335.894L384.034 339.414C385.295 341.154 386.988 342.454 389.006 343.35L391.439 337.865ZM388.902 335.907C388.345 335.13 388.003 334.203 387.92 333.041L381.935 333.468C382.091 335.646 382.773 337.653 384.025 339.402L388.902 335.907ZM384.928 336.254H388.746V330.254H384.928V336.254ZM385.757 333.512C385.904 335.217 386.504 336.812 387.673 338.119L392.145 334.118C391.962 333.913 391.787 333.599 391.735 332.997L385.757 333.512ZM387.701 338.149C388.75 339.289 390.044 340.102 391.507 340.618L393.501 334.959C392.876 334.739 392.441 334.439 392.117 334.087L387.701 338.149ZM391.54 340.629C392.931 341.102 394.393 341.326 395.905 341.326V335.326C394.991 335.326 394.186 335.191 393.469 334.948L391.54 340.629ZM395.905 341.326C397.642 341.326 399.303 341.044 400.839 340.418L398.577 334.861C397.867 335.15 396.992 335.326 395.905 335.326V341.326ZM400.86 340.409C402.38 339.777 403.708 338.848 404.726 337.568L400.03 333.833C399.735 334.204 399.284 334.567 398.556 334.869L400.86 340.409ZM404.737 337.554C405.83 336.163 406.362 334.528 406.362 332.777H400.362C400.362 333.254 400.239 333.567 400.019 333.847L404.737 337.554ZM406.362 332.777C406.362 331.175 405.899 329.593 404.752 328.306L400.272 332.297C400.284 332.31 400.297 332.327 400.312 332.372C400.331 332.425 400.362 332.549 400.362 332.777H406.362ZM404.752 328.306C403.846 327.288 402.716 326.534 401.46 325.994L399.09 331.506C399.684 331.762 400.045 332.042 400.272 332.297L404.752 328.306ZM401.46 325.994C400.399 325.538 399.271 325.146 398.08 324.816L396.474 330.597C397.431 330.863 398.302 331.167 399.09 331.506L401.46 325.994ZM398.101 324.822L394.343 323.748L392.694 329.517L396.453 330.591L398.101 324.822ZM394.347 323.749C392.271 323.152 390.835 322.358 389.875 321.48L385.827 325.908C387.651 327.576 389.994 328.74 392.69 329.516L394.347 323.749ZM389.875 321.48C389.165 320.831 388.763 319.999 388.763 318.698H382.763C382.763 321.512 383.752 324.012 385.827 325.908L389.875 321.48ZM388.763 318.698C388.763 317.563 389.057 316.702 389.577 315.987L384.723 312.46C383.393 314.29 382.763 316.412 382.763 318.698H388.763ZM389.575 315.99C390.176 315.164 391.001 314.488 392.138 313.977L389.679 308.504C387.674 309.405 385.993 310.717 384.725 312.456L389.575 315.99ZM392.146 313.973C393.293 313.454 394.629 313.166 396.203 313.166V307.166C393.88 307.166 391.686 307.595 389.671 308.507L392.146 313.973ZM396.203 313.166C397.81 313.166 399.12 313.453 400.197 313.95L402.709 308.501C400.724 307.585 398.533 307.166 396.203 307.166V313.166ZM400.212 313.956C401.333 314.466 402.121 315.114 402.678 315.87L407.507 312.308C406.274 310.637 404.636 309.377 402.695 308.494L400.212 313.956ZM402.688 315.883C403.218 316.594 403.495 317.377 403.526 318.317L409.523 318.124C409.454 315.982 408.776 314.01 407.497 312.295L402.688 315.883ZM406.524 315.22H402.945V321.22H406.524V315.22ZM414.057 340.578L416.179 338.456L416.179 338.456L414.057 340.578ZM417.846 336.789L419.967 334.668L419.967 334.668L417.846 336.789ZM418.263 340.026L415.702 338.464L415.688 338.487L415.674 338.51L418.263 340.026ZM417.294 341.01L418.837 343.583L418.846 343.577L418.856 343.572L417.294 341.01ZM415.951 338.368C415.947 338.368 415.96 338.368 415.987 338.373C416.014 338.378 416.047 338.387 416.081 338.402C416.158 338.434 416.19 338.468 416.179 338.456L411.936 342.699C413.017 343.78 414.409 344.368 415.951 344.368V338.368ZM416.179 338.456C416.167 338.445 416.201 338.477 416.233 338.553C416.247 338.588 416.257 338.621 416.262 338.648C416.267 338.674 416.267 338.688 416.267 338.683H410.267C410.267 340.226 410.854 341.618 411.936 342.699L416.179 338.456ZM416.267 338.683C416.267 338.679 416.267 338.692 416.262 338.719C416.257 338.746 416.247 338.779 416.233 338.813C416.201 338.89 416.167 338.922 416.179 338.911L411.936 334.668C410.854 335.749 410.267 337.141 410.267 338.683H416.267ZM416.179 338.911C416.19 338.899 416.158 338.933 416.081 338.965C416.047 338.98 416.014 338.989 415.987 338.994C415.96 338.999 415.947 338.999 415.951 338.999V332.999C414.409 332.999 413.017 333.587 411.936 334.668L416.179 338.911ZM415.951 338.999C415.956 338.999 415.942 338.999 415.916 338.994C415.889 338.989 415.856 338.98 415.821 338.965C415.745 338.933 415.713 338.899 415.724 338.911L419.967 334.668C418.885 333.587 417.494 332.999 415.951 332.999V338.999ZM415.724 338.911C415.736 338.922 415.702 338.89 415.67 338.813C415.655 338.779 415.646 338.746 415.641 338.719C415.636 338.692 415.636 338.679 415.636 338.683H421.636C421.636 337.141 421.048 335.749 419.967 334.668L415.724 338.911ZM415.636 338.683C415.636 338.669 415.638 338.632 415.652 338.582C415.666 338.531 415.686 338.49 415.702 338.464L420.825 341.588C421.366 340.699 421.636 339.71 421.636 338.683H415.636ZM415.674 338.51C415.677 338.505 415.687 338.49 415.704 338.473C415.722 338.455 415.734 338.448 415.732 338.449L418.856 343.572C419.682 343.068 420.36 342.382 420.852 341.541L415.674 338.51ZM415.75 338.438C415.791 338.413 415.839 338.393 415.887 338.38C415.933 338.368 415.958 338.368 415.951 338.368V344.368C416.952 344.368 417.94 344.121 418.837 343.583L415.75 338.438Z" fill="#A6ACA3" mask="url(#path-11-outside-1_0_1)"/>
<mask id="path-13-outside-2_0_1" maskUnits="userSpaceOnUse" x="696.909" y="521.929" width="149" height="43" fill="black">
<rect fill="white" x="696.909" y="521.929" width="149" height="43"/>
<path d="M711.039 557.347C708.792 557.347 706.878 556.735 705.297 555.512C703.716 554.28 702.508 552.495 701.673 550.158C700.837 547.811 700.42 544.978 700.42 541.657C700.42 538.356 700.837 535.537 701.673 533.2C702.518 530.853 703.731 529.064 705.312 527.831C706.903 526.588 708.812 525.966 711.039 525.966C713.266 525.966 715.17 526.588 716.751 527.831C718.342 529.064 719.555 530.853 720.391 533.2C721.236 535.537 721.658 538.356 721.658 541.657C721.658 544.978 721.241 547.811 720.406 550.158C719.57 552.495 718.362 554.28 716.781 555.512C715.2 556.735 713.286 557.347 711.039 557.347ZM711.039 554.066C713.266 554.066 714.996 552.992 716.229 550.844C717.462 548.696 718.079 545.634 718.079 541.657C718.079 539.012 717.795 536.76 717.229 534.9C716.672 533.041 715.866 531.624 714.812 530.65C713.768 529.675 712.511 529.188 711.039 529.188C708.832 529.188 707.107 530.277 705.864 532.454C704.621 534.622 703.999 537.689 703.999 541.657C703.999 544.302 704.278 546.549 704.835 548.398C705.391 550.248 706.192 551.655 707.236 552.619C708.29 553.584 709.558 554.066 711.039 554.066ZM728.166 556.929V554.245L738.248 543.208C739.432 541.915 740.406 540.792 741.172 539.837C741.937 538.873 742.504 537.968 742.872 537.123C743.25 536.267 743.439 535.373 743.439 534.438C743.439 533.364 743.18 532.434 742.663 531.649C742.156 530.863 741.46 530.257 740.575 529.829C739.69 529.402 738.696 529.188 737.592 529.188C736.419 529.188 735.395 529.432 734.52 529.919C733.655 530.396 732.983 531.067 732.506 531.932C732.039 532.797 731.805 533.811 731.805 534.975H728.285C728.285 533.185 728.698 531.614 729.523 530.262C730.349 528.909 731.472 527.856 732.894 527.1C734.326 526.344 735.932 525.966 737.711 525.966C739.501 525.966 741.087 526.344 742.469 527.1C743.851 527.856 744.935 528.875 745.721 530.157C746.506 531.44 746.899 532.867 746.899 534.438C746.899 535.561 746.695 536.66 746.287 537.734C745.89 538.798 745.194 539.986 744.199 541.299C743.215 542.601 741.848 544.192 740.098 546.071L733.237 553.409V553.648H747.436V556.929H728.166ZM765.294 524.952L755.45 561.523H752.228L762.072 524.952H765.294ZM795.551 556.929V554.245L805.634 543.208C806.817 541.915 807.791 540.792 808.557 539.837C809.323 538.873 809.889 537.968 810.257 537.123C810.635 536.267 810.824 535.373 810.824 534.438C810.824 533.364 810.566 532.434 810.049 531.649C809.541 530.863 808.845 530.257 807.96 529.829C807.076 529.402 806.081 529.188 804.978 529.188C803.804 529.188 802.78 529.432 801.905 529.919C801.04 530.396 800.369 531.067 799.892 531.932C799.424 532.797 799.191 533.811 799.191 534.975H795.671C795.671 533.185 796.083 531.614 796.909 530.262C797.734 528.909 798.857 527.856 800.279 527.1C801.711 526.344 803.317 525.966 805.097 525.966C806.887 525.966 808.473 526.344 809.855 527.1C811.237 527.856 812.321 528.875 813.106 530.157C813.892 531.44 814.284 532.867 814.284 534.438C814.284 535.561 814.08 536.66 813.673 537.734C813.275 538.798 812.579 539.986 811.585 541.299C810.6 542.601 809.233 544.192 807.483 546.071L800.622 553.409V553.648H814.821V556.929H795.551ZM820.449 550.665V547.623L833.872 526.384H836.08V531.097H834.588L824.446 547.145V547.384H842.523V550.665H820.449ZM834.827 556.929V549.74V548.324V526.384H838.347V556.929H834.827Z"/>
</mask>
<path d="M705.297 555.512L703.452 557.878L703.461 557.885L705.297 555.512ZM701.673 550.158L698.846 551.164L698.848 551.168L701.673 550.158ZM701.673 533.2L698.85 532.183L698.848 532.19L701.673 533.2ZM705.312 527.831L707.157 530.196L707.159 530.195L705.312 527.831ZM716.751 527.831L714.897 530.189L714.905 530.196L714.914 530.202L716.751 527.831ZM720.391 533.2L717.564 534.206L717.567 534.213L717.569 534.22L720.391 533.2ZM720.406 550.158L723.23 551.168L723.232 551.164L720.406 550.158ZM716.781 555.512L718.617 557.885L718.626 557.878L716.781 555.512ZM716.229 550.844L713.628 549.351L713.628 549.351L716.229 550.844ZM717.229 534.9L714.355 535.761L714.357 535.768L714.359 535.775L717.229 534.9ZM714.812 530.65L712.766 532.843L712.771 532.848L712.776 532.852L714.812 530.65ZM705.864 532.454L708.466 533.947L708.469 533.941L705.864 532.454ZM704.835 548.398L701.962 549.263L701.962 549.263L704.835 548.398ZM707.236 552.619L705.2 554.823L705.205 554.827L705.21 554.832L707.236 552.619ZM711.039 554.347C709.369 554.347 708.123 553.906 707.132 553.14L703.461 557.885C705.633 559.565 708.214 560.347 711.039 560.347V554.347ZM707.142 553.147C706.105 552.339 705.187 551.077 704.498 549.148L698.848 551.168C699.829 553.913 701.326 556.221 703.452 557.878L707.142 553.147ZM704.499 549.152C703.81 547.216 703.42 544.742 703.42 541.657H697.42C697.42 545.213 697.865 548.407 698.846 551.164L704.499 549.152ZM703.42 541.657C703.42 538.593 703.809 536.135 704.498 534.21L698.848 532.19C697.865 534.938 697.42 538.118 697.42 541.657H703.42ZM704.495 534.217C705.195 532.273 706.12 531.005 707.157 530.196L703.467 525.465C701.342 527.122 699.84 529.434 698.85 532.183L704.495 534.217ZM707.159 530.195C708.167 529.407 709.408 528.966 711.039 528.966V522.966C708.216 522.966 705.638 523.769 703.465 525.467L707.159 530.195ZM711.039 528.966C712.67 528.966 713.902 529.407 714.897 530.189L718.606 525.472C716.439 523.769 713.862 522.966 711.039 522.966V528.966ZM714.914 530.202C715.954 531.009 716.876 532.271 717.564 534.206L723.217 532.194C722.235 529.436 720.73 527.119 718.589 525.459L714.914 530.202ZM717.569 534.22C718.265 536.142 718.658 538.596 718.658 541.657H724.658C724.658 538.115 724.207 534.931 723.212 532.18L717.569 534.22ZM718.658 541.657C718.658 544.742 718.268 547.216 717.579 549.152L723.232 551.164C724.213 548.407 724.658 545.213 724.658 541.657H718.658ZM717.581 549.148C716.891 551.077 715.973 552.339 714.936 553.147L718.626 557.878C720.752 556.221 722.249 553.913 723.23 551.168L717.581 549.148ZM714.946 553.14C713.955 553.906 712.709 554.347 711.039 554.347V560.347C713.864 560.347 716.445 559.565 718.617 557.885L714.946 553.14ZM711.039 557.066C714.479 557.066 717.136 555.291 718.831 552.338L713.628 549.351C712.857 550.693 712.054 551.066 711.039 551.066V557.066ZM718.831 552.338C720.438 549.539 721.079 545.872 721.079 541.657H715.079C715.079 545.396 714.487 547.854 713.628 549.351L718.831 552.338ZM721.079 541.657C721.079 538.814 720.776 536.25 720.098 534.026L714.359 535.775C714.815 537.269 715.079 539.209 715.079 541.657H721.079ZM720.103 534.04C719.444 531.841 718.412 529.892 716.849 528.447L712.776 532.852C713.321 533.356 713.9 534.241 714.355 535.761L720.103 534.04ZM716.859 528.456C715.241 526.946 713.245 526.188 711.039 526.188V532.188C711.776 532.188 712.295 532.404 712.766 532.843L716.859 528.456ZM711.039 526.188C707.589 526.188 704.948 528.007 703.258 530.967L708.469 533.941C709.265 532.546 710.074 532.188 711.039 532.188V526.188ZM703.261 530.962C701.648 533.776 700.999 537.444 700.999 541.657H706.999C706.999 537.935 707.594 535.468 708.466 533.947L703.261 530.962ZM700.999 541.657C700.999 544.494 701.296 547.051 701.962 549.263L707.707 547.533C707.259 546.046 706.999 544.109 706.999 541.657H700.999ZM701.962 549.263C702.62 551.448 703.646 553.387 705.2 554.823L709.271 550.415C708.738 549.922 708.163 549.047 707.707 547.533L701.962 549.263ZM705.21 554.832C706.84 556.323 708.838 557.066 711.039 557.066V551.066C710.277 551.066 709.74 550.844 709.261 550.406L705.21 554.832ZM728.166 556.929H725.166V559.929H728.166V556.929ZM728.166 554.245L725.951 552.221L725.166 553.081V554.245H728.166ZM738.248 543.208L736.035 541.182L736.033 541.184L738.248 543.208ZM741.172 539.837L743.512 541.714L743.517 541.708L743.521 541.702L741.172 539.837ZM742.872 537.123L740.128 535.91L740.125 535.918L740.121 535.925L742.872 537.123ZM742.663 531.649L740.143 533.276L740.15 533.287L740.157 533.298L742.663 531.649ZM740.575 529.829L741.88 527.128L741.88 527.128L740.575 529.829ZM734.52 529.919L735.969 532.545L735.979 532.54L734.52 529.919ZM732.506 531.932L729.879 530.483L729.873 530.495L729.867 530.506L732.506 531.932ZM731.805 534.975V537.975H734.805V534.975H731.805ZM728.285 534.975H725.285V537.975H728.285V534.975ZM729.523 530.262L732.084 531.825L732.084 531.825L729.523 530.262ZM732.894 527.1L731.494 524.447L731.486 524.451L732.894 527.1ZM742.469 527.1L743.908 524.468L743.908 524.468L742.469 527.1ZM746.287 537.734L743.483 536.669L743.48 536.676L743.477 536.684L746.287 537.734ZM744.199 541.299L741.808 539.487L741.806 539.49L744.199 541.299ZM740.098 546.071L742.289 548.12L742.293 548.116L740.098 546.071ZM733.237 553.409L731.046 551.361L730.237 552.226V553.409H733.237ZM733.237 553.648H730.237V556.648H733.237V553.648ZM747.436 553.648H750.436V550.648H747.436V553.648ZM747.436 556.929V559.929H750.436V556.929H747.436ZM731.166 556.929V554.245H725.166V556.929H731.166ZM730.381 556.268L740.463 545.231L736.033 541.184L725.951 552.221L730.381 556.268ZM740.461 545.233C741.671 543.911 742.692 542.736 743.512 541.714L738.831 537.96C738.12 538.847 737.192 539.919 736.035 541.182L740.461 545.233ZM743.521 541.702C744.398 540.597 745.123 539.469 745.623 538.32L740.121 535.925C739.886 536.467 739.476 537.148 738.822 537.972L743.521 541.702ZM745.616 538.335C746.163 537.098 746.439 535.79 746.439 534.438H740.439C740.439 534.955 740.337 535.437 740.128 535.91L745.616 538.335ZM746.439 534.438C746.439 532.863 746.052 531.342 745.169 529.999L740.157 533.298C740.308 533.527 740.439 533.865 740.439 534.438H746.439ZM745.184 530.022C744.362 528.749 743.235 527.782 741.88 527.128L739.27 532.53C739.685 532.731 739.95 532.977 740.143 533.276L745.184 530.022ZM741.88 527.128C740.541 526.481 739.092 526.188 737.592 526.188V532.188C738.3 532.188 738.84 532.323 739.27 532.53L741.88 527.128ZM737.592 526.188C735.996 526.188 734.453 526.522 733.06 527.298L735.979 532.54C736.337 532.341 736.842 532.188 737.592 532.188V526.188ZM733.07 527.292C731.71 528.043 730.63 529.122 729.879 530.483L735.133 533.381C735.337 533.012 735.6 532.749 735.969 532.545L733.07 527.292ZM729.867 530.506C729.123 531.883 728.805 533.405 728.805 534.975H734.805C734.805 534.218 734.955 533.711 735.146 533.358L729.867 530.506ZM731.805 531.975H728.285V537.975H731.805V531.975ZM731.285 534.975C731.285 533.663 731.582 532.647 732.084 531.825L726.962 528.699C725.814 530.581 725.285 532.707 725.285 534.975H731.285ZM732.084 531.825C732.624 530.939 733.346 530.257 734.302 529.749L731.486 524.451C729.598 525.454 728.073 526.88 726.962 528.699L732.084 531.825ZM734.294 529.753C735.253 529.247 736.37 528.966 737.711 528.966V522.966C735.493 522.966 733.399 523.441 731.494 524.447L734.294 529.753ZM737.711 528.966C739.068 528.966 740.146 529.249 741.03 529.732L743.908 524.468C742.028 523.439 739.935 522.966 737.711 522.966V528.966ZM741.03 529.732C741.975 530.249 742.664 530.91 743.162 531.724L748.279 528.591C747.207 526.84 745.728 525.462 743.908 524.468L741.03 529.732ZM743.162 531.724C743.646 532.514 743.899 533.394 743.899 534.438H749.899C749.899 532.34 749.367 530.366 748.279 528.591L743.162 531.724ZM743.899 534.438C743.899 535.189 743.764 535.928 743.483 536.669L749.092 538.799C749.626 537.393 749.899 535.933 749.899 534.438H743.899ZM743.477 536.684C743.216 537.382 742.698 538.312 741.808 539.487L746.591 543.11C747.689 541.66 748.563 540.213 749.097 538.785L743.477 536.684ZM741.806 539.49C740.908 540.678 739.617 542.186 737.902 544.027L742.293 548.116C744.079 546.199 745.522 544.524 746.593 543.107L741.806 539.49ZM737.906 544.023L731.046 551.361L735.428 555.458L742.289 548.12L737.906 544.023ZM730.237 553.409V553.648H736.237V553.409H730.237ZM733.237 556.648H747.436V550.648H733.237V556.648ZM744.436 553.648V556.929H750.436V553.648H744.436ZM747.436 553.929H728.166V559.929H747.436V553.929ZM765.294 524.952L768.191 525.732L769.208 521.952H765.294V524.952ZM755.45 561.523V564.523H757.749L758.347 562.303L755.45 561.523ZM752.228 561.523L749.331 560.743L748.314 564.523H752.228V561.523ZM762.072 524.952V521.952H759.773L759.175 524.172L762.072 524.952ZM762.397 524.172L752.553 560.743L758.347 562.303L768.191 525.732L762.397 524.172ZM755.45 558.523H752.228V564.523H755.45V558.523ZM755.125 562.303L764.969 525.732L759.175 524.172L749.331 560.743L755.125 562.303ZM762.072 527.952H765.294V521.952H762.072V527.952ZM795.551 556.929H792.551V559.929H795.551V556.929ZM795.551 554.245L793.336 552.221L792.551 553.081V554.245H795.551ZM805.634 543.208L803.421 541.182L803.419 541.184L805.634 543.208ZM808.557 539.837L810.897 541.714L810.902 541.708L810.907 541.702L808.557 539.837ZM810.257 537.123L807.513 535.91L807.51 535.918L807.507 535.925L810.257 537.123ZM810.049 531.649L807.528 533.276L807.535 533.287L807.543 533.298L810.049 531.649ZM807.96 529.829L809.266 527.128L809.266 527.128L807.96 529.829ZM801.905 529.919L803.354 532.545L803.365 532.54L801.905 529.919ZM799.892 531.932L797.265 530.483L797.258 530.495L797.252 530.506L799.892 531.932ZM799.191 534.975V537.975H802.191V534.975H799.191ZM795.671 534.975H792.671V537.975H795.671V534.975ZM796.909 530.262L799.469 531.825L799.469 531.825L796.909 530.262ZM800.279 527.1L798.879 524.447L798.871 524.451L800.279 527.1ZM809.855 527.1L811.294 524.468L811.294 524.468L809.855 527.1ZM813.673 537.734L810.868 536.669L810.865 536.676L810.863 536.684L813.673 537.734ZM811.585 541.299L809.193 539.487L809.191 539.49L811.585 541.299ZM807.483 546.071L809.675 548.12L809.679 548.116L807.483 546.071ZM800.622 553.409L798.431 551.361L797.622 552.226V553.409H800.622ZM800.622 553.648H797.622V556.648H800.622V553.648ZM814.821 553.648H817.821V550.648H814.821V553.648ZM814.821 556.929V559.929H817.821V556.929H814.821ZM798.551 556.929V554.245H792.551V556.929H798.551ZM797.766 556.268L807.849 545.231L803.419 541.184L793.336 552.221L797.766 556.268ZM807.847 545.233C809.057 543.911 810.078 542.736 810.897 541.714L806.217 537.96C805.505 538.847 804.577 539.919 803.421 541.182L807.847 545.233ZM810.907 541.702C811.784 540.597 812.508 539.469 813.008 538.32L807.507 535.925C807.271 536.467 806.861 537.148 806.207 537.972L810.907 541.702ZM813.001 538.335C813.548 537.098 813.824 535.79 813.824 534.438H807.824C807.824 534.955 807.722 535.437 807.513 535.91L813.001 538.335ZM813.824 534.438C813.824 532.863 813.438 531.342 812.554 529.999L807.543 533.298C807.693 533.527 807.824 533.865 807.824 534.438H813.824ZM812.569 530.022C811.747 528.749 810.62 527.782 809.266 527.128L806.655 532.53C807.071 532.731 807.335 532.977 807.528 533.276L812.569 530.022ZM809.266 527.128C807.926 526.481 806.477 526.188 804.978 526.188V532.188C805.685 532.188 806.225 532.323 806.655 532.53L809.266 527.128ZM804.978 526.188C803.381 526.188 801.838 526.522 800.446 527.298L803.365 532.54C803.722 532.341 804.227 532.188 804.978 532.188V526.188ZM800.456 527.292C799.095 528.043 798.016 529.122 797.265 530.483L802.518 533.381C802.722 533.012 802.985 532.749 803.354 532.545L800.456 527.292ZM797.252 530.506C796.508 531.883 796.191 533.405 796.191 534.975H802.191C802.191 534.218 802.34 533.711 802.531 533.358L797.252 530.506ZM799.191 531.975H795.671V537.975H799.191V531.975ZM798.671 534.975C798.671 533.663 798.967 532.647 799.469 531.825L794.348 528.699C793.199 530.581 792.671 532.707 792.671 534.975H798.671ZM799.469 531.825C800.01 530.939 800.732 530.257 801.687 529.749L798.871 524.451C796.983 525.454 795.458 526.88 794.348 528.699L799.469 531.825ZM801.68 529.753C802.638 529.247 803.756 528.966 805.097 528.966V522.966C802.878 522.966 800.784 523.441 798.879 524.447L801.68 529.753ZM805.097 528.966C806.453 528.966 807.532 529.249 808.415 529.732L811.294 524.468C809.413 523.439 807.32 522.966 805.097 522.966V528.966ZM808.415 529.732C809.36 530.249 810.049 530.91 810.548 531.724L815.664 528.591C814.592 526.84 813.113 525.462 811.294 524.468L808.415 529.732ZM810.548 531.724C811.031 532.514 811.284 533.394 811.284 534.438H817.284C817.284 532.34 816.752 530.366 815.664 528.591L810.548 531.724ZM811.284 534.438C811.284 535.189 811.15 535.928 810.868 536.669L816.478 538.799C817.011 537.393 817.284 535.933 817.284 534.438H811.284ZM810.863 536.684C810.601 537.382 810.084 538.312 809.193 539.487L813.976 543.11C815.075 541.66 815.949 540.213 816.483 538.785L810.863 536.684ZM809.191 539.49C808.293 540.678 807.002 542.186 805.288 544.027L809.679 548.116C811.464 546.199 812.907 544.524 813.978 543.107L809.191 539.49ZM805.292 544.023L798.431 551.361L802.814 555.458L809.675 548.12L805.292 544.023ZM797.622 553.409V553.648H803.622V553.409H797.622ZM800.622 556.648H814.821V550.648H800.622V556.648ZM811.821 553.648V556.929H817.821V553.648H811.821ZM814.821 553.929H795.551V559.929H814.821V553.929ZM820.449 550.665H817.449V553.665H820.449V550.665ZM820.449 547.623L817.913 546.02L817.449 546.754V547.623H820.449ZM833.872 526.384V523.384H832.219L831.336 524.781L833.872 526.384ZM836.08 526.384H839.08V523.384H836.08V526.384ZM836.08 531.097V534.097H839.08V531.097H836.08ZM834.588 531.097V528.097H832.935L832.052 529.494L834.588 531.097ZM824.446 547.145L821.91 545.543L821.446 546.277V547.145H824.446ZM824.446 547.384H821.446V550.384H824.446V547.384ZM842.523 547.384H845.523V544.384H842.523V547.384ZM842.523 550.665V553.665H845.523V550.665H842.523ZM834.827 556.929H831.827V559.929H834.827V556.929ZM834.827 526.384V523.384H831.827V526.384H834.827ZM838.347 526.384H841.347V523.384H838.347V526.384ZM838.347 556.929V559.929H841.347V556.929H838.347ZM823.449 550.665V547.623H817.449V550.665H823.449ZM822.985 549.225L836.408 527.987L831.336 524.781L817.913 546.02L822.985 549.225ZM833.872 529.384H836.08V523.384H833.872V529.384ZM833.08 526.384V531.097H839.08V526.384H833.08ZM836.08 528.097H834.588V534.097H836.08V528.097ZM832.052 529.494L821.91 545.543L826.982 548.748L837.124 532.7L832.052 529.494ZM821.446 547.145V547.384H827.446V547.145H821.446ZM824.446 550.384H842.523V544.384H824.446V550.384ZM839.523 547.384V550.665H845.523V547.384H839.523ZM842.523 547.665H820.449V553.665H842.523V547.665ZM837.827 556.929V549.74H831.827V556.929H837.827ZM837.827 549.74V548.324H831.827V549.74H837.827ZM837.827 548.324V526.384H831.827V548.324H837.827ZM834.827 529.384H838.347V523.384H834.827V529.384ZM835.347 526.384V556.929H841.347V526.384H835.347ZM838.347 553.929H834.827V559.929H838.347V553.929Z" fill="#A6ACA3" mask="url(#path-13-outside-2_0_1)"/>
<rect x="451.063" y="21.4752" width="29.332" height="80.6631" fill="#A6ACA3"/>
<rect x="587.247" y="21.4752" width="29.332" height="80.6631" fill="#A6ACA3"/>
<rect x="460.491" y="971.623" width="29.332" height="80.6631" fill="#A6ACA3"/>
<rect x="596.676" y="971.623" width="29.332" height="80.6631" fill="#A6ACA3"/>
<path d="M480.395 101.091H587.247" stroke="#A6ACA3" stroke-width="2"/>
<path d="M489.823 972.671H596.676" stroke="#A6ACA3" stroke-width="2"/>
</svg>
