<svg width="1067" height="1068" viewBox="0 0 1067 1068" fill="none" xmlns="http://www.w3.org/2000/svg">
<rect width="1067" height="1068" fill="#1E1E1E"/>
<path d="M1067 0H0V1068H1067V0Z" fill="#22262C"/>
<path d="M828.576 1068H342.602L286 1023.98V41.1649L330.024 0H828.576V126.925H708.512V357.334H828.576V1068Z" fill="#CFD4CD"/>
<path d="M304.881 489.527L297.007 475.642C295.919 473.723 296.59 471.285 298.507 470.193L306.033 465.907C307.902 464.843 310.279 465.447 311.412 467.276L319.843 480.881C321.041 482.813 320.39 485.354 318.41 486.471L310.327 491.036C308.406 492.121 305.969 491.446 304.881 489.527Z" fill="#CFD4CD" stroke="#6A6F69" stroke-width="3"/>
<circle cx="557.574" cy="50.3126" r="30.8737" fill="#22262C"/>
<circle cx="764.542" cy="920.492" r="27.4433" fill="#22262C"/>
<circle cx="344.889" cy="528.283" r="26.2998" fill="#22262C"/>
<circle cx="474.5" cy="425.5" r="77.5" stroke="#999B99" stroke-width="8"/>
<circle cx="474.672" cy="424.799" r="73.7537" fill="#22262C"/>
<rect x="359.865" y="982.3" width="14.8651" height="26.2998" rx="1" transform="rotate(-180 359.865 982.3)" fill="#22262C"/>
<rect x="636.473" y="572.878" width="18.2955" height="29.7302" rx="1" transform="rotate(-90 636.473 572.878)" fill="#22262C"/>
<rect x="737.098" y="93.7645" width="18.2955" height="50.3126" rx="1" transform="rotate(-90 737.098 93.7645)" fill="#22262C"/>
<rect x="360.897" y="101.769" width="18.2955" height="32.0171" rx="1" fill="#22262C"/>
<rect x="759.968" y="1014.26" width="14.8651" height="44.5953" rx="1" transform="rotate(90 759.968 1014.26)" fill="#22262C"/>
<path d="M323.538 218.097V272.536C323.538 274.193 324.881 275.536 326.538 275.536H339.038C340.695 275.536 342.038 274.193 342.038 272.536V218.097C342.038 217.418 341.768 216.766 341.288 216.286C340.808 215.806 340.538 215.157 340.538 214.478V192.036C340.538 184.836 346.205 183.369 349.038 183.536H373.038C379.838 183.536 381.538 189.203 381.538 192.036V214.475C381.538 215.155 381.268 215.806 380.788 216.286C380.308 216.766 380.038 217.418 380.038 218.097V272.536C380.038 274.193 381.381 275.536 383.038 275.536H395.038C396.695 275.536 398.038 274.193 398.038 272.536V218.286C398.038 217.499 397.668 216.758 397.038 216.286C396.408 215.814 396.038 215.08 396.038 214.293V176.536C396.038 166.536 388.371 164.703 384.538 165.036H335.038C327.438 165.036 325.205 171.703 325.038 175.036V214.475C325.038 215.155 324.768 215.806 324.288 216.286C323.808 216.766 323.538 217.418 323.538 218.097Z" fill="#22262C"/>
<ellipse cx="389.538" cy="280.5" rx="13.5" ry="10.5" fill="#22262C"/>
<ellipse cx="332.538" cy="280.5" rx="13.5" ry="10.5" fill="#22262C"/>
<path d="M286.038 34.7426V41.5V45C286.038 46.6569 287.381 48 289.038 48H331.038C332.695 48 334.038 46.6569 334.038 45V3C334.038 1.34315 332.695 0 331.038 0H320.781C319.985 0 319.222 0.316071 318.659 0.87868L286.917 32.6213C286.354 33.1839 286.038 33.947 286.038 34.7426Z" fill="#CFD4CD"/>
<path d="M373.241 566.217L378.306 612.717C378.416 613.731 379.273 614.5 380.294 614.5H395.634C396.685 614.5 397.556 613.687 397.629 612.638L400.852 566.138C400.932 564.982 400.016 564 398.857 564H375.23C374.039 564 373.113 565.033 373.241 566.217Z" fill="#22262C"/>
<rect x="498" y="180" width="28" height="122" rx="5" fill="#CFD4CD" stroke="#6A6F69" stroke-width="2"/>
<path d="M534 200C534 197.791 535.791 196 538 196H546C548.209 196 550 197.791 550 200V221H534V200Z" fill="#22262C"/>
<path d="M534 267C534 264.791 535.791 263 538 263H546C548.209 263 550 264.791 550 267V288H534V267Z" fill="#22262C"/>
<circle cx="461" cy="881" r="40" fill="#22262C"/>
</svg>
