<svg width="1067" height="1068" viewBox="0 0 1067 1068" fill="none" xmlns="http://www.w3.org/2000/svg">
<rect width="1067" height="1068" fill="#1E1E1E"/>
<path d="M1067 0H0V1068H1067V0Z" fill="#22262C"/>
<rect x="62.3644" y="576.393" width="684.909" height="491.607" rx="19" fill="#686868"/>
<path d="M93.9848 445.735V578.779L527.721 656.935L712.073 673.64C723.806 669.862 747.273 653.594 747.273 618.752C747.273 583.91 773.922 577.586 787.246 578.779H882.107C983.292 578.779 1006.6 496.447 1005.61 455.281V35.2674C1005.61 5.19821 982.139 -0.728124 970.405 0.0673565H863.612C834.975 0.0673565 828.213 23.534 828.412 35.2674V362.21C828.412 410.893 789.036 421.871 769.348 421.274H118.446C99.3543 421.274 94.1837 437.582 93.9848 445.735Z" fill="#686868"/>
<circle cx="235.978" cy="562.671" r="53.0983" fill="#4B4B4B"/>
<circle cx="236.575" cy="563.268" r="40.5695" fill="#22262C"/>
<circle cx="579.626" cy="562.671" r="53.0983" fill="#4B4B4B"/>
<circle cx="411.382" cy="903.932" r="53.0983" fill="#4B4B4B"/>
<circle cx="919.694" cy="301.356" r="42.3593" fill="#22262C"/>
<circle cx="919.694" cy="97.3149" r="42.3593" fill="#22262C"/>
<circle cx="580.222" cy="563.268" r="40.5695" fill="#22262C"/>
<circle cx="411.978" cy="904.529" r="40.5695" fill="#22262C"/>
</svg>
