<svg width="1067" height="1068" viewBox="0 0 1067 1068" fill="none" xmlns="http://www.w3.org/2000/svg">
<rect width="1067" height="1068" fill="#1E1E1E"/>
<path d="M1067 0H0V1068H1067V0Z" fill="#22262C"/>
<path d="M288.888 1067H824.723C826.932 1067 828.723 1065.21 828.723 1063V270.25C828.723 268.041 826.932 266.25 824.723 266.25H724.325C722.116 266.25 720.325 264.46 720.325 262.25V200.316C720.325 198.107 718.534 196.316 716.325 196.316H588.952C586.743 196.316 584.952 194.525 584.952 192.316V143.369C584.952 141.16 586.743 139.369 588.952 139.369H716.325C718.534 139.369 720.325 137.579 720.325 135.369V71.4368C720.325 69.2277 722.116 67.4368 724.325 67.4368H824.723C826.932 67.4368 828.723 65.6459 828.723 63.4368V4C828.723 1.79086 826.932 0 824.723 0H280.895C279.834 0 278.817 0.421426 278.067 1.17157L239.448 39.79C238.698 40.5402 238.277 41.5576 238.277 42.6184V1016.39C238.277 1017.45 238.698 1018.47 239.448 1019.22L286.059 1065.83C286.809 1066.58 287.827 1067 288.888 1067Z" fill="#CFD4CD"/>
<path d="M436.114 394.137C470.133 379.201 485.603 339.515 470.667 305.496C455.731 271.477 416.045 256.007 382.026 270.943C348.007 285.879 332.537 325.564 347.473 359.584C362.409 393.603 402.094 409.073 436.114 394.137Z" fill="#22262C"/>
<circle cx="415.111" cy="880.175" r="40.9616" fill="#22262C"/>
<rect x="749.797" y="1015.05" width="40.9616" height="15.985" rx="1" fill="#22262C"/>
<rect x="308.211" y="1003.06" width="40.9616" height="15.985" rx="1" transform="rotate(90 308.211 1003.06)" fill="#22262C"/>
<rect x="658.882" y="550.484" width="40.9616" height="15.985" rx="1" transform="rotate(-180 658.882 550.484)" fill="#22262C"/>
<rect x="403.122" y="485.545" width="40.9616" height="15.985" rx="1" transform="rotate(-90 403.122 485.545)" fill="#22262C"/>
<rect x="300.219" y="75.9288" width="40.9616" height="15.985" rx="1" transform="rotate(-90 300.219 75.9288)" fill="#22262C"/>
<rect x="744.802" y="37.9644" width="40.9616" height="15.985" rx="1" fill="#22262C"/>
<circle cx="375.648" cy="55.448" r="24.4771" fill="#22262C"/>
<path d="M320.348 498.033H310.213C308.004 498.033 306.213 496.246 306.213 494.037V455.074C306.213 441.886 317.536 438.922 323.197 439.088H342.179C358.964 439.088 364.159 452.076 364.658 458.57V513.515C364.658 515.724 362.867 517.515 360.658 517.515H348.608C346.634 517.515 344.955 516.075 344.655 514.123L342.264 498.584C342.208 498.219 342.206 497.85 342.236 497.481C342.577 493.346 341.327 486.044 333.687 486.044C328.078 486.044 325.749 489.981 324.974 493.71C324.498 496.001 322.689 498.033 320.348 498.033Z" fill="#22262C"/>
<path d="M261 192V100C261 93.3726 266.373 88 273 88H319.5C326.127 88 331.5 93.3726 331.5 100V191.75C331.5 197.135 327.135 201.5 321.75 201.5C316.365 201.5 312 197.135 312 191.75V115.5C312 108.873 306.627 103.5 300 103.5H292C285.373 103.5 280 108.873 280 115.5V192C280 197.247 275.747 201.5 270.5 201.5C265.253 201.5 261 197.247 261 192Z" fill="#22262C"/>
<rect x="413.5" y="108" width="26" height="92" rx="5.5" stroke="#787878" stroke-width="3"/>
<rect x="449" y="119.5" width="19" height="20" rx="2" fill="#22262C"/>
<rect x="449" y="174.5" width="19" height="20" rx="2" fill="#22262C"/>
</svg>
