<svg width="1067" height="1068" viewBox="0 0 1067 1068" fill="none" xmlns="http://www.w3.org/2000/svg">
<rect width="1067" height="1068" fill="#1E1E1E"/>
<path d="M1067 0H0V1068H1067V0Z" fill="#22262C"/>
<path d="M301 208.983V878.416C301 882.586 302.826 886.589 306.217 889.015C324.547 902.13 346.255 907.932 361.714 910.02C369.313 911.047 375.5 904.831 375.5 897.164V428.5C375.5 420.768 381.768 414.5 389.5 414.5H570.5C578.232 414.5 584.5 420.768 584.5 428.5V897C584.5 904.732 590.833 911.152 598.436 909.746C631.481 903.634 649.964 876.625 656.199 860.679C656.762 859.24 657 857.712 657 856.167V492.5C657 484.768 663.268 478.5 671 478.5H771.5C779.232 478.5 785.5 472.232 785.5 464.5V278.794C785.5 275.383 784.189 272.006 781.911 269.466C582.467 47.1096 384.333 127.306 305.327 198.971C302.497 201.538 301 205.161 301 208.983Z" fill="#BFA664"/>
</svg>
