<svg width="1067" height="1068" viewBox="0 0 1067 1068" fill="none" xmlns="http://www.w3.org/2000/svg">
<rect width="1067" height="1068" fill="#1E1E1E"/>
<path d="M1067 0H0V1068H1067V0Z" fill="#22262C"/>
<rect x="142" y="664" width="784" height="313" rx="2" fill="#CFD4CD"/>
<path d="M401 195.5C401 137.234 448.234 90 506.5 90H544.5C602.766 90 650 137.234 650 195.5V752H401V195.5Z" fill="#CFD4CD"/>
<path d="M820.808 379.897H634.65L544.148 385.019C533.526 385.62 523.48 380.149 518.223 370.899L476.492 297.475C473.573 292.338 472.353 286.408 473.008 280.535L487.698 148.859C488.584 140.922 492.816 133.742 499.33 129.123L541.828 98.988C549.712 93.3976 559.922 92.2684 568.837 96.0008L605.164 111.209C608.294 112.52 611.161 114.389 613.623 116.725L840.08 331.585C858.435 348.999 846.109 379.897 820.808 379.897Z" fill="#CFD4CD"/>
<circle cx="317.5" cy="820.5" r="44.5" fill="#22262C"/>
<ellipse cx="729" cy="820.5" rx="45" ry="44.5" fill="#22262C"/>
<circle cx="211.5" cy="754.5" r="24.5" stroke="#9FA49D" stroke-width="6"/>
<circle cx="211.5" cy="886.5" r="24.5" stroke="#9FA49D" stroke-width="6"/>
<circle cx="830.5" cy="754.5" r="24.5" stroke="#9FA49D" stroke-width="6"/>
<circle cx="830.5" cy="886.5" r="24.5" stroke="#9FA49D" stroke-width="6"/>
</svg>
