<svg width="63" height="63" viewBox="0 0 63 63" fill="none" xmlns="http://www.w3.org/2000/svg">
<rect width="63" height="63" fill="#1E1E1E"/>
<rect width="63" height="63" fill="#22262C"/>
<g clip-path="url(#clip0_0_1)">
<path d="M63 0H0V63H63V0Z" fill="#1E1E1E"/>
<path d="M63 0H0V63H63V0Z" fill="#22262C"/>
<path d="M38.56 7.56C38.56 3.38473 35.1753 0 31 0C26.8247 0 23.44 3.38473 23.44 7.56V55.44C23.44 59.6153 26.8247 63 31 63C35.1753 63 38.56 59.6153 38.56 55.44V7.56Z" fill="#377899"/>
<path d="M31 8.82C31.6959 8.82 32.26 8.25588 32.26 7.56C32.26 6.86412 31.6959 6.3 31 6.3C30.3041 6.3 29.74 6.86412 29.74 7.56C29.74 8.25588 30.3041 8.82 31 8.82Z" fill="#22262C"/>
<path d="M31 57.96C31.6959 57.96 32.26 57.3959 32.26 56.7C32.26 56.0041 31.6959 55.44 31 55.44C30.3041 55.44 29.74 56.0041 29.74 56.7C29.74 57.3959 30.3041 57.96 31 57.96Z" fill="#22262C"/>
<path d="M31 27.72C32.3918 27.72 33.52 26.5918 33.52 25.2C33.52 23.8082 32.3918 22.68 31 22.68C29.6082 22.68 28.48 23.8082 28.48 25.2C28.48 26.5918 29.6082 27.72 31 27.72Z" fill="#22262C"/>
<path d="M33.52 42.84C33.52 41.4482 32.3918 40.32 31 40.32C29.6082 40.32 28.48 41.4482 28.48 42.84V49.14C28.48 50.5318 29.6082 51.66 31 51.66C32.3918 51.66 33.52 50.5318 33.52 49.14V42.84Z" fill="#22262C"/>
</g>
<defs>
<clipPath id="clip0_0_1">
<rect width="63" height="63" fill="white"/>
</clipPath>
</defs>
</svg>
