<svg width="87" height="63" viewBox="0 0 87 63" fill="none" xmlns="http://www.w3.org/2000/svg">
<rect width="87" height="63" fill="#1E1E1E"/>
<rect x="3.8147e-06" width="87" height="63" fill="#22262C"/>
<path d="M70.6552 10.1861L70.6552 3.00003C70.6552 1.34318 69.312 2.97625e-05 67.6552 2.96901e-05L46.8621 2.87812e-05C45.2052 2.87088e-05 43.8621 1.34317 43.8621 3.00003L43.8621 13.1163C43.8621 14.7731 42.5189 16.1163 40.8621 16.1163L3.41383 16.1163C1.75698 16.1163 0.413833 17.4594 0.413833 19.1163L0.413831 60C0.413831 61.6568 1.75698 63 3.41383 63L40.8621 63C42.5189 63 43.8621 61.6568 43.8621 60L43.8621 52.0814C43.8621 50.4245 45.2052 49.0814 46.8621 49.0814L83.5862 49.0814C85.243 49.0814 86.5862 47.7382 86.5862 46.0814L86.5862 28.6395C86.5862 26.9827 85.243 25.6395 83.5862 25.6395L59.8965 25.6395C58.2397 25.6395 56.8965 24.2964 56.8965 22.6395L56.8965 16.1861C56.8965 14.5292 58.2397 13.1861 59.8966 13.1861L67.6552 13.1861C69.312 13.1861 70.6552 11.8429 70.6552 10.1861Z" fill="#948878"/>
<rect x="81.5172" y="31.138" width="7.96551" height="35.4827" rx="3.98276" transform="rotate(90 81.5172 31.138)" fill="#22262C"/>
<circle cx="80.0689" cy="44.1724" r="2.89655" transform="rotate(90 80.0689 44.1724)" fill="#22262C"/>
<circle cx="61.2414" cy="44.1724" r="2.89655" transform="rotate(90 61.2414 44.1724)" fill="#22262C"/>
<circle cx="48.9311" cy="44.1724" r="2.89655" transform="rotate(90 48.9311 44.1724)" fill="#22262C"/>
<circle cx="52.5518" cy="21.7241" r="2.89655" transform="rotate(90 52.5518 21.7241)" fill="#22262C"/>
<circle cx="50.7413" cy="6.87935" r="3.98276" transform="rotate(90 50.7413 6.87935)" fill="#22262C"/>
<circle cx="64.5" cy="6.87935" r="3.98276" transform="rotate(90 64.5 6.87935)" fill="#22262C"/>
<circle cx="33.5" cy="50.5" r="3.5" fill="#675F55"/>
<circle cx="11.5" cy="39.5" r="3.5" fill="#675F55"/>
<circle cx="33.5" cy="27.5" r="3.5" fill="#675F55"/>
<circle cx="33.5" cy="50.5" r="2.5" transform="rotate(90 33.5 50.5)" fill="#22262C"/>
<path d="M33.5 30C32.1193 30 31 28.8807 31 27.5C31 26.1193 32.1193 25 33.5 25C34.8807 25 36 26.1193 36 27.5C36 28.8807 34.8807 30 33.5 30Z" fill="#22262C"/>
<circle cx="11.5345" cy="39.5345" r="2.53448" transform="rotate(90 11.5345 39.5345)" fill="#22262C"/>
</svg>
