<svg width="114" height="378" viewBox="0 0 114 378" fill="none" xmlns="http://www.w3.org/2000/svg">
<rect width="114" height="378" fill="#1E1E1E"/>
<rect width="114" height="378" fill="#22262C"/>
<path d="M19.2289 26.3985C19.2289 32.7104 21.4805 38.8236 25.5647 43.6102C29.6489 48.3969 35.3121 51.5529 41.5109 52.5021L92.5236 60.3028C93.9091 60.5137 94.9161 61.6942 94.9161 63.1058C94.9161 64.5175 93.9091 65.6979 92.5236 65.9088L41.5109 73.7095C35.3161 74.6587 29.653 77.8147 25.5687 82.6014C21.4845 87.388 19.2329 93.5012 19.2329 99.8131C19.2329 106.867 21.9638 113.5 26.9181 118.489C31.8723 123.479 38.4619 126.221 45.4703 126.217L94.9242 126.179L94.9242 141.703L45.6113 141.703L45.6113 141.711C31.0305 141.902 19.2289 153.897 19.2289 168.626L19.2289 260.673L-5.12851e-06 260.673L-4.28855e-06 279.889L19.2289 279.889L19.2289 351.852C19.2289 366.269 30.8775 378 45.1924 378C58.013 378 68.7915 368.747 70.8256 356.002L77.0526 316.978C77.7575 312.565 81.4873 309.364 85.926 309.364C90.8802 309.364 94.9121 313.425 94.9121 318.414L94.9121 377.075L113.996 377.075L113.996 318.414C113.996 302.825 101.405 290.144 85.926 290.144C72.0662 290.144 60.4096 300.148 58.2104 313.928L51.9833 352.951C51.4436 356.33 48.5879 358.78 45.1884 358.78C41.3942 358.78 38.3088 355.673 38.3088 351.852L38.3088 279.889L95.8345 279.889C105.848 279.889 113.996 271.683 113.996 261.599L113.996 231.654L94.9121 231.654L94.9121 260.674L38.3128 260.674L38.3128 168.64C38.3128 164.393 41.7446 160.932 45.9657 160.932C49.337 160.932 52.1767 163.366 52.7164 166.721L58.2023 200.857C60.4136 214.624 72.0742 224.615 85.922 224.615C101.405 224.615 114 211.931 114 196.338L114 160.937L114 151.327L114 125.264C114 120.376 112.111 115.779 108.675 112.327C105.243 108.871 100.676 106.973 95.8224 106.977L45.4502 107.015C43.545 107.015 41.7526 106.268 40.4033 104.913C39.054 103.559 38.3128 101.753 38.3128 99.8306C38.3128 96.2528 40.8625 93.2672 44.3747 92.7276L95.3873 84.927C100.563 84.136 105.292 81.4952 108.707 77.4995C112.119 73.4998 114 68.3967 114 63.1233C114 57.8498 112.119 52.7468 108.707 48.7471C105.296 44.7474 100.563 42.1106 95.3873 41.3196L44.3747 33.5189C40.8625 32.9794 38.3128 29.9938 38.3128 26.4038C38.3128 22.4406 41.515 19.2198 45.4461 19.2198L113.766 19.2198L113.766 3.2034e-05L45.4461 3.50204e-05C30.9902 -0.0150844 19.2289 11.8276 19.2289 26.3985ZM94.9161 196.334C94.9161 201.331 90.8802 205.396 85.9179 205.396C81.4792 205.396 77.7454 202.195 77.0365 197.782L71.5506 163.646C71.4015 162.721 71.2002 161.817 70.9625 160.932L94.9161 160.932L94.9161 196.334Z" fill="#FF6702"/>
</svg>
