<svg width="63" height="63" viewBox="0 0 63 63" fill="none" xmlns="http://www.w3.org/2000/svg">
<rect width="63" height="63" fill="#1E1E1E"/>
<rect width="63" height="63" fill="#22262C"/>
<path d="M11.2836 31.0533V57.1386C11.2836 58.2432 12.179 59.1386 13.2836 59.1386H51.9104C53.015 59.1386 53.9104 58.2432 53.9104 57.1386V31.0533C53.9104 29.9487 54.8059 29.0533 55.9104 29.0533H61C62.1046 29.0533 63 28.1579 63 27.0533V5C63 3.89543 62.1046 3 61 3H52.1493C51.0447 3 50.1493 3.89543 50.1493 5V12.786C50.1493 13.8906 49.2538 14.786 48.1493 14.786H37.1045C35.9999 14.786 35.1045 13.8906 35.1045 12.786V10.6681C35.1045 9.95354 34.7232 9.29324 34.1043 8.936L24.2849 3.26787C23.9809 3.09238 23.6361 3 23.2851 3H2C0.895431 3 0 3.89543 0 5V27.0533C0 28.1579 0.895433 29.0533 2 29.0533H9.28358C10.3882 29.0533 11.2836 29.9487 11.2836 31.0533Z" fill="#948878"/>
<circle cx="43.3515" cy="27.6386" r="2.80693" fill="#22262C"/>
<circle cx="22.1436" cy="27.6386" r="2.80693" fill="#22262C"/>
<circle cx="22.1436" cy="8.92573" r="2.80693" fill="#22262C"/>
<circle cx="4.67825" cy="8.92573" r="2.80693" fill="#22262C"/>
<circle cx="55.8267" cy="8.92573" r="2.80693" fill="#22262C"/>
<circle cx="32.1238" cy="49.4703" r="2.80693" fill="#22262C"/>
<rect x="59.2574" y="12.9802" width="3.74257" height="10.604" rx="1" fill="#675F55"/>
<rect y="12.9802" width="3.74257" height="10.604" rx="1" fill="#675F55"/>
</svg>
